<svg width="1920" height="1080" viewBox="0 0 1920 1080" fill="none" xmlns="http://www.w3.org/2000/svg">
<g clip-path="url(#clip0_78_4333)">
<rect width="1920" height="1080" fill="#131F28"/>
<g clip-path="url(#clip1_78_4333)">
<g style="mix-blend-mode:lighten">
<path fill-rule="evenodd" clip-rule="evenodd" d="M1311.49 247.197C1311.49 248.021 1311.15 248.811 1310.56 249.393C1309.97 249.975 1309.16 250.302 1308.32 250.301C1307.49 250.301 1306.68 249.973 1306.09 249.391C1305.5 248.808 1305.17 248.018 1305.17 247.194C1305.17 246.786 1305.25 246.383 1305.41 246.006C1305.57 245.629 1305.8 245.287 1306.09 244.999C1306.39 244.71 1306.74 244.482 1307.12 244.326C1307.5 244.17 1307.91 244.09 1308.33 244.09C1308.74 244.09 1309.15 244.171 1309.54 244.327C1309.92 244.484 1310.27 244.712 1310.56 245.001C1310.85 245.29 1311.09 245.632 1311.25 246.009C1311.4 246.386 1311.49 246.79 1311.49 247.197ZM124.951 316.847L127.946 318.457C128.014 318.493 128.07 318.546 128.109 318.611C128.149 318.676 128.169 318.751 128.169 318.826C128.169 318.902 128.149 318.976 128.109 319.041C128.07 319.106 128.014 319.16 127.946 319.196L124.951 320.805C124.88 320.844 124.821 320.902 124.781 320.972L123.144 323.915C123.107 323.981 123.053 324.036 122.987 324.075C122.921 324.113 122.846 324.133 122.769 324.133C122.692 324.133 122.617 324.113 122.551 324.075C122.485 324.036 122.431 323.981 122.394 323.915L120.755 320.972C120.716 320.902 120.656 320.844 120.585 320.805L117.591 319.196C117.523 319.16 117.467 319.106 117.427 319.041C117.388 318.976 117.367 318.902 117.367 318.826C117.367 318.751 117.388 318.676 117.427 318.611C117.467 318.546 117.523 318.493 117.591 318.457L120.585 316.847C120.656 316.809 120.715 316.752 120.755 316.681L122.393 313.739C122.43 313.673 122.484 313.617 122.55 313.579C122.616 313.54 122.691 313.52 122.768 313.52C122.844 313.52 122.92 313.54 122.986 313.579C123.052 313.617 123.106 313.673 123.143 313.739L124.781 316.683C124.821 316.754 124.879 316.811 124.951 316.849" fill="#42ADCB"/>
</g>
<g style="mix-blend-mode:lighten">
<path fill-rule="evenodd" clip-rule="evenodd" d="M223.929 459.549L225.407 460.345C225.474 460.381 225.53 460.435 225.569 460.5C225.608 460.565 225.629 460.639 225.629 460.714C225.629 460.79 225.608 460.864 225.569 460.929C225.53 460.994 225.474 461.048 225.407 461.084L223.929 461.878C223.857 461.917 223.798 461.975 223.759 462.045L222.952 463.498C222.915 463.564 222.861 463.62 222.794 463.658C222.728 463.697 222.653 463.717 222.576 463.717C222.499 463.717 222.423 463.697 222.357 463.658C222.291 463.62 222.236 463.564 222.2 463.498L221.392 462.045C221.353 461.975 221.294 461.916 221.222 461.878L219.744 461.084C219.676 461.048 219.62 460.994 219.581 460.929C219.542 460.864 219.521 460.79 219.521 460.714C219.521 460.639 219.542 460.565 219.581 460.5C219.62 460.435 219.676 460.381 219.744 460.345L221.222 459.55C221.293 459.512 221.353 459.455 221.392 459.385L222.2 457.932C222.237 457.866 222.291 457.811 222.357 457.772C222.423 457.734 222.499 457.714 222.576 457.714C222.653 457.714 222.728 457.734 222.794 457.772C222.86 457.811 222.915 457.866 222.952 457.932L223.76 459.385C223.8 459.455 223.86 459.513 223.931 459.551" fill="#4AB6C8"/>
</g>
<g style="mix-blend-mode:lighten">
<path fill-rule="evenodd" clip-rule="evenodd" d="M1775.79 384.782L1777.26 385.578C1777.33 385.614 1777.39 385.668 1777.43 385.733C1777.47 385.798 1777.49 385.872 1777.49 385.948C1777.49 386.023 1777.47 386.097 1777.43 386.162C1777.39 386.227 1777.33 386.281 1777.26 386.317L1775.79 387.111C1775.71 387.15 1775.66 387.208 1775.62 387.278L1774.81 388.731C1774.77 388.798 1774.72 388.853 1774.65 388.892C1774.59 388.93 1774.51 388.951 1774.43 388.951C1774.36 388.951 1774.28 388.93 1774.21 388.892C1774.15 388.853 1774.09 388.798 1774.06 388.731L1773.25 387.278C1773.21 387.208 1773.15 387.149 1773.08 387.111L1771.6 386.317C1771.53 386.281 1771.48 386.227 1771.44 386.162C1771.4 386.097 1771.38 386.023 1771.38 385.948C1771.38 385.872 1771.4 385.798 1771.44 385.733C1771.48 385.668 1771.53 385.614 1771.6 385.578L1773.08 384.783C1773.15 384.745 1773.21 384.688 1773.25 384.618L1774.06 383.165C1774.09 383.099 1774.15 383.044 1774.21 383.006C1774.28 382.967 1774.36 382.947 1774.43 382.947C1774.51 382.947 1774.59 382.967 1774.65 383.006C1774.72 383.044 1774.77 383.099 1774.81 383.165L1775.62 384.618C1775.66 384.688 1775.72 384.746 1775.79 384.784" fill="#4AB6C8"/>
</g>
<path fill-rule="evenodd" clip-rule="evenodd" d="M446.648 388.166L450.511 387.218L449.547 391.014L446.648 388.166Z" stroke="#A3A5A7" stroke-width="1.097" stroke-linecap="round" stroke-linejoin="round"/>
<g style="mix-blend-mode:lighten">
<path fill-rule="evenodd" clip-rule="evenodd" d="M567.52 513.272L569.713 514.451L567.52 515.63L566.321 517.785L565.121 515.63L562.928 514.451L565.121 513.272L566.321 511.117L567.52 513.272Z" fill="#A3A5A7"/>
</g>
<g style="mix-blend-mode:lighten">
<path fill-rule="evenodd" clip-rule="evenodd" d="M577.033 18.8488L580.026 20.4585C580.093 20.4948 580.149 20.5482 580.188 20.613C580.227 20.6778 580.248 20.7517 580.248 20.827C580.248 20.9022 580.227 20.9761 580.188 21.0409C580.149 21.1057 580.093 21.1591 580.026 21.1955L577.032 22.8061C576.96 22.8445 576.901 22.9023 576.861 22.9728L575.224 25.9165C575.188 25.9832 575.133 26.0389 575.067 26.0778C575.001 26.1166 574.925 26.1372 574.848 26.1372C574.771 26.1372 574.695 26.1166 574.629 26.0778C574.563 26.0389 574.509 25.9832 574.472 25.9165L572.834 22.9728C572.795 22.9026 572.735 22.8449 572.664 22.8061L569.67 21.1965C569.602 21.1604 569.546 21.1071 569.507 21.0423C569.468 20.9775 569.447 20.9034 569.447 20.828C569.447 20.7526 569.468 20.6786 569.507 20.6138C569.546 20.5489 569.602 20.4957 569.67 20.4595L572.664 18.8488C572.735 18.8101 572.795 18.7524 572.834 18.6822L574.473 15.7396C574.51 15.6737 574.564 15.6188 574.63 15.5805C574.696 15.5422 574.772 15.522 574.848 15.522C574.925 15.522 575 15.5422 575.066 15.5805C575.132 15.6188 575.186 15.6737 575.223 15.7396L576.861 18.6833C576.901 18.7538 576.959 18.8115 577.031 18.851" fill="#A3A5A7"/>
</g>
<g style="mix-blend-mode:lighten">
<path fill-rule="evenodd" clip-rule="evenodd" d="M157.209 24.3269L160.202 25.9365C160.269 25.9728 160.325 26.0262 160.364 26.091C160.403 26.1558 160.423 26.2297 160.423 26.305C160.423 26.3802 160.403 26.4541 160.364 26.519C160.325 26.5838 160.269 26.6371 160.202 26.6735L157.207 28.2842C157.136 28.3229 157.077 28.3806 157.037 28.4508L155.4 31.3945C155.363 31.4606 155.309 31.5159 155.243 31.5544C155.177 31.5929 155.101 31.6132 155.025 31.6132C154.948 31.6132 154.873 31.5929 154.807 31.5544C154.741 31.5159 154.687 31.4606 154.65 31.3945L153.012 28.4508C152.971 28.3802 152.911 28.3224 152.838 28.2842L149.848 26.6745C149.78 26.6384 149.724 26.5851 149.685 26.5203C149.646 26.4555 149.625 26.3815 149.625 26.3061C149.625 26.2306 149.646 26.1566 149.685 26.0918C149.724 26.0269 149.78 25.9737 149.848 25.9376L152.84 24.3269C152.912 24.2881 152.971 24.2304 153.011 24.1602L154.65 21.2176C154.687 21.1517 154.741 21.0968 154.807 21.0585C154.873 21.0203 154.948 21.0001 155.025 21.0001C155.101 21.0001 155.177 21.0203 155.242 21.0585C155.308 21.0968 155.363 21.1517 155.4 21.2176L157.037 24.1613C157.077 24.2318 157.135 24.2895 157.207 24.329" fill="#A3A5A7"/>
</g>
<g style="mix-blend-mode:lighten">
<path fill-rule="evenodd" clip-rule="evenodd" d="M325.817 36.7822C325.817 37.6058 325.484 38.3956 324.891 38.9777C324.298 39.5597 323.494 39.8865 322.656 39.8861C321.818 39.8857 321.015 39.5581 320.422 38.9754C319.83 38.3927 319.498 37.6026 319.498 36.779C319.498 36.3712 319.58 35.9674 319.739 35.5907C319.898 35.214 320.131 34.8718 320.425 34.5836C320.718 34.2953 321.067 34.0668 321.45 33.9109C321.833 33.755 322.244 33.6749 322.659 33.6751C323.074 33.6753 323.485 33.7559 323.868 33.9121C324.252 34.0684 324.6 34.2973 324.893 34.5858C325.186 34.8743 325.419 35.2168 325.578 35.5937C325.736 35.9705 325.818 36.3744 325.817 36.7822Z" fill="#42ADCB"/>
</g>
<path fill-rule="evenodd" clip-rule="evenodd" d="M55.2708 195.233L54.3503 193.524C54.3058 193.443 54.2378 193.376 54.1547 193.332L52.4159 192.426C52.3399 192.387 52.2763 192.328 52.2319 192.256C52.1875 192.184 52.1641 192.101 52.1641 192.016C52.1641 191.932 52.1875 191.849 52.2319 191.777C52.2763 191.705 52.3399 191.646 52.4159 191.606L54.1547 190.701C54.2377 190.658 54.3057 190.591 54.3503 190.509L55.2708 188.8C55.3109 188.725 55.3711 188.663 55.4448 188.619C55.5185 188.575 55.603 188.552 55.6892 188.552C55.7753 188.552 55.8598 188.575 55.9336 188.619C56.0073 188.663 56.0675 188.725 56.1076 188.8L57.0259 190.509C57.0704 190.591 57.1384 190.658 57.2215 190.701L58.9603 191.606C59.2971 191.78 59.2971 192.252 58.9603 192.426L57.2215 193.331C57.1383 193.375 57.0702 193.442 57.0259 193.523L56.1065 195.232C56.0664 195.307 56.0062 195.37 55.9325 195.414C55.8587 195.458 55.7742 195.481 55.6881 195.481C55.6019 195.481 55.5174 195.458 55.4437 195.414C55.37 195.37 55.3098 195.307 55.2697 195.232L55.2708 195.233Z" stroke="#52BEC4" stroke-width="1.097" stroke-linecap="round" stroke-linejoin="round"/>
<g style="mix-blend-mode:lighten">
<path fill-rule="evenodd" clip-rule="evenodd" d="M1837.64 254.897L1840.64 256.507C1840.7 256.543 1840.76 256.597 1840.8 256.662C1840.84 256.727 1840.86 256.801 1840.86 256.876C1840.86 256.952 1840.84 257.026 1840.8 257.091C1840.76 257.156 1840.7 257.21 1840.64 257.246L1837.64 258.856C1837.57 258.894 1837.51 258.952 1837.47 259.022L1835.84 261.965C1835.8 262.032 1835.75 262.087 1835.68 262.126C1835.61 262.165 1835.54 262.186 1835.46 262.186C1835.38 262.186 1835.31 262.165 1835.24 262.126C1835.18 262.087 1835.12 262.032 1835.09 261.965L1833.45 259.022C1833.41 258.951 1833.35 258.893 1833.27 258.856L1830.28 257.246C1830.22 257.21 1830.16 257.156 1830.12 257.091C1830.08 257.026 1830.06 256.952 1830.06 256.876C1830.06 256.801 1830.08 256.727 1830.12 256.662C1830.16 256.597 1830.22 256.543 1830.28 256.507L1833.28 254.897C1833.35 254.86 1833.41 254.802 1833.45 254.732L1835.09 251.789C1835.12 251.723 1835.18 251.668 1835.24 251.629C1835.31 251.591 1835.38 251.57 1835.46 251.57C1835.54 251.57 1835.61 251.591 1835.68 251.629C1835.74 251.668 1835.8 251.723 1835.84 251.789L1837.47 254.733C1837.51 254.803 1837.57 254.861 1837.64 254.899" fill="#42ADCB"/>
</g>
<g style="mix-blend-mode:lighten">
<path fill-rule="evenodd" clip-rule="evenodd" d="M1779.05 214.957L1780.52 215.751C1780.59 215.787 1780.65 215.84 1780.69 215.905C1780.73 215.97 1780.75 216.045 1780.75 216.12C1780.75 216.196 1780.73 216.27 1780.69 216.335C1780.65 216.4 1780.59 216.453 1780.52 216.49L1779.05 217.284C1778.97 217.323 1778.92 217.381 1778.88 217.452L1778.07 218.905C1778.03 218.971 1777.98 219.026 1777.91 219.064C1777.85 219.103 1777.77 219.123 1777.69 219.123C1777.62 219.123 1777.54 219.103 1777.47 219.064C1777.41 219.026 1777.35 218.971 1777.32 218.905L1776.51 217.452C1776.47 217.382 1776.41 217.324 1776.34 217.285L1774.86 216.492C1774.79 216.455 1774.74 216.402 1774.7 216.337C1774.66 216.272 1774.64 216.198 1774.64 216.122C1774.64 216.047 1774.66 215.973 1774.7 215.908C1774.74 215.843 1774.79 215.789 1774.86 215.753L1776.34 214.959C1776.41 214.92 1776.47 214.862 1776.51 214.791L1777.32 213.339C1777.35 213.273 1777.41 213.217 1777.47 213.179C1777.54 213.141 1777.62 213.12 1777.69 213.12C1777.77 213.12 1777.85 213.141 1777.91 213.179C1777.98 213.217 1778.03 213.273 1778.07 213.339L1778.88 214.791C1778.92 214.862 1778.98 214.92 1779.05 214.959" fill="#52BEC4"/>
</g>
<g style="mix-blend-mode:lighten">
<path fill-rule="evenodd" clip-rule="evenodd" d="M1751.68 27.9576L1753.09 28.7159C1753.38 28.8708 1753.38 29.2713 1753.09 29.423L1751.68 30.1814C1751.61 30.2185 1751.56 30.274 1751.52 30.3416L1750.75 31.7301C1750.71 31.7931 1750.66 31.8456 1750.6 31.8822C1750.53 31.9188 1750.46 31.9381 1750.39 31.9381C1750.32 31.9381 1750.24 31.9188 1750.18 31.8822C1750.12 31.8456 1750.07 31.7931 1750.03 31.7301L1749.26 30.3416C1749.22 30.274 1749.16 30.2184 1749.09 30.1814L1747.68 29.423C1747.62 29.3884 1747.56 29.3373 1747.52 29.2751C1747.49 29.2128 1747.47 29.1418 1747.47 29.0695C1747.47 28.9971 1747.49 28.9261 1747.52 28.8639C1747.56 28.8017 1747.62 28.7506 1747.68 28.7159L1749.09 27.9576C1749.16 27.92 1749.22 27.8646 1749.26 27.7974L1750.03 26.411C1750.06 26.3472 1750.11 26.2938 1750.18 26.2567C1750.24 26.2195 1750.31 26.1999 1750.39 26.1999C1750.46 26.1999 1750.53 26.2195 1750.6 26.2567C1750.66 26.2938 1750.71 26.3472 1750.75 26.411L1751.52 27.7974C1751.56 27.8648 1751.61 27.9203 1751.68 27.9576Z" fill="#42ADCB"/>
</g>
<g style="mix-blend-mode:lighten">
<path fill-rule="evenodd" clip-rule="evenodd" d="M1807.3 100.668L1808.78 101.464C1808.85 101.5 1808.9 101.554 1808.94 101.619C1808.98 101.684 1809 101.758 1809 101.834C1809 101.909 1808.98 101.983 1808.94 102.048C1808.9 102.113 1808.85 102.167 1808.78 102.203L1807.3 102.997C1807.23 103.036 1807.17 103.094 1807.13 103.164L1806.32 104.617C1806.29 104.683 1806.23 104.739 1806.17 104.778C1806.1 104.816 1806.03 104.837 1805.95 104.837C1805.87 104.837 1805.8 104.816 1805.73 104.778C1805.66 104.739 1805.61 104.683 1805.57 104.617L1804.77 103.164C1804.73 103.094 1804.67 103.035 1804.59 102.997L1803.12 102.203C1803.05 102.167 1802.99 102.113 1802.95 102.048C1802.92 101.983 1802.89 101.909 1802.89 101.834C1802.89 101.758 1802.92 101.684 1802.95 101.619C1802.99 101.554 1803.05 101.5 1803.12 101.464L1804.59 100.669C1804.67 100.631 1804.73 100.574 1804.77 100.504L1805.57 99.0512C1805.61 98.9851 1805.66 98.9299 1805.73 98.8915C1805.8 98.8531 1805.87 98.8328 1805.95 98.8328C1806.03 98.8328 1806.1 98.8531 1806.17 98.8915C1806.23 98.9299 1806.29 98.9851 1806.32 99.0512L1807.13 100.504C1807.17 100.574 1807.23 100.632 1807.3 100.67" fill="#4AB6C8"/>
</g>
<mask id="mask0_78_4333" style="mask-type:alpha" maskUnits="userSpaceOnUse" x="1717" y="439" width="7" height="7">
<path d="M1723.81 439.626V445.632H1717.7V439.625H1723.81V439.626Z" fill="white"/>
</mask>
<g mask="url(#mask0_78_4333)">
<path fill-rule="evenodd" clip-rule="evenodd" d="M1722.11 441.466L1723.59 442.26C1723.66 442.296 1723.71 442.35 1723.75 442.415C1723.79 442.48 1723.81 442.554 1723.81 442.63C1723.81 442.705 1723.79 442.78 1723.75 442.845C1723.71 442.91 1723.66 442.963 1723.59 442.999L1722.11 443.793C1722.04 443.831 1721.98 443.889 1721.94 443.959L1721.13 445.412C1721.1 445.478 1721.04 445.534 1720.98 445.573C1720.91 445.611 1720.84 445.632 1720.76 445.632C1720.68 445.632 1720.61 445.611 1720.54 445.573C1720.47 445.534 1720.42 445.478 1720.38 445.412L1719.57 443.959C1719.53 443.889 1719.48 443.832 1719.41 443.793L1717.93 442.999C1717.86 442.963 1717.8 442.909 1717.76 442.844C1717.73 442.779 1717.71 442.705 1717.71 442.63C1717.71 442.554 1717.73 442.48 1717.76 442.415C1717.8 442.35 1717.86 442.296 1717.93 442.26L1719.41 441.465C1719.48 441.427 1719.54 441.369 1719.57 441.298L1720.38 439.845C1720.42 439.779 1720.48 439.723 1720.54 439.685C1720.61 439.646 1720.68 439.626 1720.76 439.626C1720.84 439.626 1720.91 439.646 1720.98 439.685C1721.05 439.723 1721.1 439.779 1721.14 439.845L1721.94 441.298C1721.98 441.368 1722.04 441.426 1722.11 441.464" fill="#52BEC4"/>
</g>
<g style="mix-blend-mode:lighten">
<path fill-rule="evenodd" clip-rule="evenodd" d="M1505.1 492.017L1508.1 493.627C1508.16 493.663 1508.22 493.717 1508.26 493.781C1508.3 493.846 1508.32 493.92 1508.32 493.995C1508.32 494.071 1508.3 494.144 1508.26 494.209C1508.22 494.274 1508.16 494.327 1508.1 494.364L1505.1 495.973C1505.03 496.012 1504.97 496.07 1504.93 496.14L1503.3 499.083C1503.26 499.149 1503.21 499.205 1503.14 499.244C1503.07 499.283 1503 499.303 1502.92 499.303C1502.84 499.303 1502.77 499.283 1502.7 499.244C1502.64 499.205 1502.58 499.149 1502.54 499.083L1500.91 496.14C1500.87 496.069 1500.81 496.011 1500.74 495.973L1497.74 494.364C1497.67 494.328 1497.62 494.274 1497.58 494.21C1497.54 494.145 1497.52 494.071 1497.52 493.995C1497.52 493.92 1497.54 493.846 1497.58 493.781C1497.62 493.716 1497.67 493.663 1497.74 493.627L1500.74 492.017C1500.81 491.979 1500.87 491.92 1500.91 491.85L1502.54 488.907C1502.58 488.841 1502.63 488.785 1502.7 488.747C1502.77 488.708 1502.84 488.688 1502.92 488.688C1502.99 488.688 1503.07 488.708 1503.14 488.747C1503.2 488.785 1503.26 488.841 1503.29 488.907L1504.93 491.851C1504.97 491.922 1505.03 491.981 1505.11 492.019" fill="#4AB6C8"/>
</g>
<g style="mix-blend-mode:lighten">
<path fill-rule="evenodd" clip-rule="evenodd" d="M1384.37 337.707L1385.78 338.465C1386.06 338.619 1386.06 339.021 1385.78 339.17L1384.37 339.931C1384.3 339.968 1384.24 340.023 1384.2 340.091L1383.43 341.477C1383.4 341.54 1383.34 341.593 1383.28 341.629C1383.22 341.666 1383.15 341.685 1383.07 341.685C1383 341.685 1382.93 341.666 1382.86 341.629C1382.8 341.593 1382.75 341.54 1382.71 341.477L1381.94 340.089C1381.9 340.022 1381.85 339.967 1381.78 339.931L1380.36 339.17C1380.3 339.135 1380.25 339.084 1380.21 339.022C1380.17 338.96 1380.15 338.89 1380.15 338.818C1380.15 338.746 1380.17 338.675 1380.21 338.613C1380.25 338.551 1380.3 338.5 1380.36 338.465L1381.78 337.707C1381.85 337.669 1381.9 337.614 1381.94 337.547L1382.71 336.158C1382.75 336.094 1382.8 336.041 1382.86 336.004C1382.92 335.967 1383 335.947 1383.07 335.947C1383.14 335.947 1383.22 335.967 1383.28 336.004C1383.34 336.041 1383.4 336.094 1383.43 336.158L1384.2 337.547C1384.24 337.614 1384.3 337.67 1384.37 337.707Z" fill="#42ADCB"/>
</g>
<g style="mix-blend-mode:lighten">
<path fill-rule="evenodd" clip-rule="evenodd" d="M1623.64 410.417L1625.12 411.212C1625.19 411.249 1625.24 411.302 1625.28 411.367C1625.32 411.432 1625.34 411.506 1625.34 411.582C1625.34 411.657 1625.32 411.732 1625.28 411.797C1625.24 411.862 1625.19 411.915 1625.12 411.952L1623.64 412.745C1623.57 412.784 1623.51 412.842 1623.47 412.913L1622.67 414.365C1622.63 414.432 1622.58 414.487 1622.51 414.526C1622.44 414.565 1622.37 414.585 1622.29 414.585C1622.21 414.585 1622.14 414.565 1622.07 414.526C1622.01 414.487 1621.95 414.432 1621.91 414.365L1621.11 412.913C1621.07 412.842 1621.01 412.784 1620.94 412.745L1619.46 411.952C1619.39 411.915 1619.34 411.862 1619.3 411.797C1619.26 411.732 1619.24 411.657 1619.24 411.582C1619.24 411.506 1619.26 411.432 1619.3 411.367C1619.34 411.302 1619.39 411.249 1619.46 411.212L1620.94 410.418C1621.01 410.38 1621.07 410.322 1621.11 410.252L1621.91 408.8C1621.95 408.733 1622.01 408.678 1622.07 408.64C1622.14 408.601 1622.21 408.581 1622.29 408.581C1622.37 408.581 1622.44 408.601 1622.51 408.64C1622.57 408.678 1622.63 408.733 1622.67 408.8L1623.47 410.252C1623.52 410.323 1623.57 410.38 1623.65 410.419" fill="#4AB6C8"/>
</g>
<path fill-rule="evenodd" clip-rule="evenodd" d="M1860.49 457.204L1862.4 456.625L1864.32 457.204L1863.73 455.322L1864.32 453.44L1862.41 454.02L1860.49 453.44L1861.08 455.322L1860.49 457.204Z" stroke="#A3A5A7" stroke-width="1.097" stroke-linecap="round" stroke-linejoin="round"/>
<mask id="mask1_78_4333" style="mask-type:alpha" maskUnits="userSpaceOnUse" x="1737" y="641" width="12" height="11">
<path d="M1737.33 641.101H1748.13V651.716H1737.33V641.101Z" fill="white"/>
</mask>
<g mask="url(#mask1_78_4333)">
<path fill-rule="evenodd" clip-rule="evenodd" d="M1744.91 644.429L1747.91 646.039C1747.97 646.075 1748.03 646.128 1748.07 646.193C1748.11 646.258 1748.13 646.332 1748.13 646.407C1748.13 646.482 1748.11 646.556 1748.07 646.621C1748.03 646.686 1747.97 646.739 1747.91 646.776L1744.91 648.389C1744.84 648.427 1744.78 648.485 1744.74 648.556L1743.11 651.497C1743.07 651.563 1743.01 651.618 1742.95 651.656C1742.88 651.694 1742.81 651.714 1742.73 651.714C1742.65 651.714 1742.58 651.694 1742.51 651.656C1742.45 651.618 1742.39 651.563 1742.36 651.497L1740.72 648.554C1740.68 648.483 1740.62 648.425 1740.54 648.386L1737.55 646.776C1737.48 646.739 1737.43 646.686 1737.39 646.621C1737.35 646.556 1737.33 646.482 1737.33 646.407C1737.33 646.332 1737.35 646.258 1737.39 646.193C1737.43 646.128 1737.48 646.075 1737.55 646.039L1740.55 644.429C1740.62 644.39 1740.68 644.332 1740.72 644.261L1742.35 641.318C1742.39 641.252 1742.45 641.197 1742.51 641.159C1742.58 641.12 1742.65 641.1 1742.73 641.1C1742.81 641.1 1742.88 641.12 1742.95 641.159C1743.01 641.197 1743.07 641.252 1743.1 641.318L1744.74 644.261C1744.78 644.332 1744.84 644.391 1744.91 644.429" fill="#42ADCB"/>
</g>
<path fill-rule="evenodd" clip-rule="evenodd" d="M76.5841 523.934L74.9844 525.504L76.5841 523.934ZM80.9288 519.662L79.3313 521.232L80.9288 519.662ZM76.6612 524.108C77.0388 524.479 77.5509 524.688 78.0848 524.688C78.6188 524.688 79.1309 524.479 79.5085 524.108C79.886 523.737 80.0981 523.234 80.0981 522.709C80.0981 522.184 79.886 521.681 79.5085 521.31C79.1309 520.939 78.6188 520.73 78.0848 520.73C77.5509 520.73 77.0388 520.939 76.6612 521.31C76.2836 521.681 76.0715 522.184 76.0715 522.709C76.0715 523.234 76.2836 523.737 76.6612 524.108V524.108Z" stroke="#A3A5A7" stroke-width="1.097" stroke-linecap="round" stroke-linejoin="round"/>
<g style="mix-blend-mode:lighten">
<path fill-rule="evenodd" clip-rule="evenodd" d="M1311.49 1186.05C1311.49 1185.23 1311.15 1184.44 1310.56 1183.86C1309.97 1183.28 1309.16 1182.95 1308.32 1182.95C1307.49 1182.95 1306.68 1183.28 1306.09 1183.86C1305.5 1184.44 1305.17 1185.23 1305.17 1186.06C1305.17 1186.88 1305.5 1187.67 1306.09 1188.25C1306.69 1188.83 1307.49 1189.16 1308.33 1189.16C1309.17 1189.16 1309.97 1188.83 1310.56 1188.25C1311.15 1187.67 1311.49 1186.88 1311.49 1186.05V1186.05ZM124.951 1082.36L127.946 1080.75C128.014 1080.71 128.07 1080.66 128.109 1080.6C128.149 1080.53 128.169 1080.46 128.169 1080.38C128.169 1080.31 128.149 1080.23 128.109 1080.17C128.07 1080.1 128.014 1080.05 127.946 1080.01L124.951 1078.4C124.88 1078.36 124.821 1078.3 124.781 1078.23L123.144 1075.29C123.107 1075.23 123.053 1075.17 122.987 1075.13C122.921 1075.09 122.846 1075.07 122.769 1075.07C122.692 1075.07 122.617 1075.09 122.551 1075.13C122.485 1075.17 122.431 1075.23 122.394 1075.29L120.755 1078.23C120.716 1078.3 120.656 1078.36 120.584 1078.4L117.591 1080.01C117.523 1080.05 117.468 1080.1 117.429 1080.17C117.39 1080.23 117.369 1080.3 117.369 1080.38C117.369 1080.46 117.39 1080.53 117.429 1080.59C117.468 1080.66 117.523 1080.71 117.591 1080.75L120.584 1082.36C120.656 1082.4 120.715 1082.46 120.755 1082.53L122.393 1085.47C122.556 1085.76 122.982 1085.76 123.143 1085.47L124.781 1082.52C124.821 1082.45 124.88 1082.4 124.951 1082.36" fill="#42ADCB"/>
</g>
<g style="mix-blend-mode:lighten">
<path fill-rule="evenodd" clip-rule="evenodd" d="M223.929 823.963L225.407 823.168C225.474 823.132 225.53 823.078 225.569 823.013C225.608 822.948 225.629 822.874 225.629 822.798C225.629 822.723 225.608 822.649 225.569 822.584C225.53 822.519 225.474 822.465 225.407 822.429L223.929 821.635C223.857 821.597 223.799 821.539 223.759 821.469L222.952 820.016C222.915 819.95 222.861 819.894 222.794 819.856C222.728 819.817 222.653 819.797 222.576 819.797C222.499 819.797 222.423 819.817 222.357 819.856C222.291 819.894 222.236 819.95 222.2 820.016L221.392 821.469C221.353 821.54 221.294 821.599 221.222 821.638L219.744 822.43C219.676 822.466 219.62 822.52 219.581 822.585C219.542 822.65 219.521 822.724 219.521 822.8C219.521 822.875 219.542 822.949 219.581 823.014C219.62 823.079 219.676 823.133 219.744 823.169L221.222 823.965C221.293 824.004 221.352 824.061 221.392 824.131L222.2 825.584C222.363 825.876 222.789 825.876 222.952 825.584L223.76 824.131C223.8 824.061 223.859 824.003 223.931 823.965" fill="#4AB6C8"/>
</g>
<path fill-rule="evenodd" clip-rule="evenodd" d="M446.648 931.591L450.511 932.539L449.547 928.743L446.648 931.591Z" stroke="#A3A5A7" stroke-width="1.097" stroke-linecap="round" stroke-linejoin="round"/>
<g style="mix-blend-mode:lighten">
<path fill-rule="evenodd" clip-rule="evenodd" d="M567.52 771.973L569.713 770.794L567.52 769.617L566.321 767.461L565.121 769.617L562.928 770.793L565.121 771.973L566.321 774.129L567.52 771.973Z" fill="#A3A5A7"/>
</g>
<mask id="mask2_78_4333" style="mask-type:alpha" maskUnits="userSpaceOnUse" x="1725" y="1023" width="7" height="7">
<path d="M1731.42 1029.07V1023.07H1725.31V1029.07H1731.42V1029.07Z" fill="white"/>
</mask>
<g mask="url(#mask2_78_4333)">
<path fill-rule="evenodd" clip-rule="evenodd" d="M1729.72 1027.23L1731.2 1026.44C1731.27 1026.4 1731.32 1026.35 1731.36 1026.28C1731.4 1026.22 1731.42 1026.14 1731.42 1026.07C1731.42 1025.99 1731.4 1025.92 1731.36 1025.85C1731.32 1025.79 1731.27 1025.74 1731.2 1025.7L1729.72 1024.91C1729.65 1024.87 1729.59 1024.81 1729.55 1024.74L1728.74 1023.29C1728.7 1023.22 1728.65 1023.16 1728.58 1023.13C1728.52 1023.09 1728.44 1023.07 1728.37 1023.07C1728.29 1023.07 1728.21 1023.09 1728.15 1023.13C1728.08 1023.16 1728.03 1023.22 1727.99 1023.29L1727.18 1024.74C1727.14 1024.81 1727.08 1024.87 1727.01 1024.91L1725.53 1025.7C1725.47 1025.74 1725.41 1025.79 1725.37 1025.85C1725.33 1025.92 1725.31 1025.99 1725.31 1026.07C1725.31 1026.14 1725.33 1026.22 1725.37 1026.28C1725.41 1026.35 1725.47 1026.4 1725.53 1026.44L1727.01 1027.23C1727.08 1027.27 1727.14 1027.33 1727.18 1027.4L1727.99 1028.85C1728.03 1028.92 1728.08 1028.98 1728.15 1029.01C1728.22 1029.05 1728.29 1029.07 1728.37 1029.07C1728.44 1029.07 1728.52 1029.05 1728.59 1029.01C1728.65 1028.98 1728.71 1028.92 1728.74 1028.85L1729.55 1027.4C1729.59 1027.33 1729.65 1027.27 1729.72 1027.23" fill="#52BEC4"/>
</g>
<path fill-rule="evenodd" clip-rule="evenodd" d="M1264.96 953.309L1267.98 950.34L1264.96 953.309ZM1256.26 961.854L1259.29 958.885L1256.26 961.854ZM1262.36 951.073C1262.36 950.008 1256.4 955.864 1257.48 955.864C1256.4 955.864 1262.36 961.722 1262.36 960.657C1262.36 961.721 1268.32 955.863 1267.23 955.863C1268.32 955.863 1262.36 950.007 1262.36 951.072L1262.36 951.073Z" stroke="#52BEC4" stroke-width="1.097" stroke-linecap="round" stroke-linejoin="round"/>
<g style="mix-blend-mode:lighten">
<path fill-rule="evenodd" clip-rule="evenodd" d="M1505.1 799.313L1508.1 797.703C1508.16 797.667 1508.22 797.614 1508.26 797.549C1508.3 797.484 1508.32 797.41 1508.32 797.334C1508.32 797.258 1508.3 797.184 1508.26 797.119C1508.22 797.054 1508.16 797 1508.1 796.964L1505.1 795.356C1505.03 795.317 1504.97 795.26 1504.93 795.189L1503.3 792.247C1503.26 792.18 1503.21 792.124 1503.14 792.085C1503.07 792.046 1503 792.026 1502.92 792.026C1502.84 792.026 1502.77 792.046 1502.7 792.085C1502.64 792.124 1502.58 792.18 1502.54 792.247L1500.91 795.189C1500.87 795.26 1500.81 795.319 1500.74 795.357L1497.74 796.966C1497.67 797.003 1497.62 797.056 1497.58 797.121C1497.54 797.186 1497.52 797.26 1497.52 797.335C1497.52 797.41 1497.54 797.484 1497.58 797.549C1497.62 797.614 1497.67 797.667 1497.74 797.703L1500.74 799.314C1500.81 799.353 1500.87 799.411 1500.91 799.482L1502.54 802.423C1502.71 802.716 1503.13 802.716 1503.29 802.423L1504.93 799.481C1504.97 799.409 1505.03 799.35 1505.11 799.312" fill="#4AB6C8"/>
</g>
<g style="mix-blend-mode:lighten">
<path fill-rule="evenodd" clip-rule="evenodd" d="M1384.37 1004.29L1385.78 1003.53C1385.84 1003.49 1385.9 1003.44 1385.93 1003.38C1385.97 1003.32 1385.99 1003.25 1385.99 1003.18C1385.99 1003.1 1385.97 1003.03 1385.93 1002.97C1385.9 1002.91 1385.84 1002.86 1385.78 1002.82L1384.37 1002.06C1384.3 1002.03 1384.24 1001.97 1384.2 1001.9L1383.43 1000.51C1383.4 1000.45 1383.34 1000.4 1383.28 1000.36C1383.22 1000.33 1383.15 1000.31 1383.07 1000.31C1383 1000.31 1382.93 1000.33 1382.86 1000.36C1382.8 1000.4 1382.75 1000.45 1382.71 1000.51L1381.94 1001.9C1381.9 1001.97 1381.85 1002.03 1381.78 1002.06L1380.36 1002.82C1380.3 1002.86 1380.25 1002.91 1380.21 1002.97C1380.17 1003.03 1380.15 1003.1 1380.15 1003.17C1380.15 1003.25 1380.17 1003.32 1380.21 1003.38C1380.25 1003.44 1380.3 1003.49 1380.36 1003.53L1381.78 1004.29C1381.85 1004.32 1381.9 1004.38 1381.94 1004.45L1382.71 1005.84C1382.75 1005.9 1382.8 1005.95 1382.86 1005.99C1382.93 1006.03 1383 1006.05 1383.07 1006.05C1383.15 1006.05 1383.22 1006.03 1383.28 1005.99C1383.34 1005.95 1383.4 1005.9 1383.43 1005.84L1384.2 1004.45C1384.24 1004.38 1384.3 1004.32 1384.37 1004.29Z" fill="#42ADCB"/>
</g>
<g style="mix-blend-mode:lighten">
<path fill-rule="evenodd" clip-rule="evenodd" d="M1623.64 909.411L1625.12 908.616C1625.19 908.579 1625.24 908.526 1625.28 908.461C1625.32 908.396 1625.34 908.322 1625.34 908.246C1625.34 908.171 1625.32 908.097 1625.28 908.032C1625.24 907.967 1625.19 907.913 1625.12 907.877L1623.64 907.083C1623.57 907.044 1623.51 906.987 1623.47 906.917L1622.67 905.464C1622.63 905.398 1622.58 905.342 1622.51 905.303C1622.44 905.265 1622.37 905.244 1622.29 905.244C1622.21 905.244 1622.14 905.265 1622.07 905.303C1622.01 905.342 1621.95 905.398 1621.91 905.464L1621.11 906.917C1621.07 906.988 1621.01 907.046 1620.94 907.085L1619.46 907.878C1619.39 907.914 1619.34 907.968 1619.3 908.033C1619.26 908.098 1619.24 908.172 1619.24 908.247C1619.24 908.323 1619.26 908.397 1619.3 908.462C1619.34 908.527 1619.39 908.581 1619.46 908.617L1620.94 909.413C1621.01 909.452 1621.07 909.509 1621.11 909.579L1621.91 911.032C1622.08 911.324 1622.5 911.324 1622.67 911.032L1623.47 909.579C1623.51 909.509 1623.57 909.451 1623.65 909.413" fill="#4AB6C8"/>
</g>
<path fill-rule="evenodd" clip-rule="evenodd" d="M1860.49 843.295L1862.4 843.874L1864.32 843.295L1863.73 845.177L1864.32 847.059L1862.41 846.479L1860.49 847.06L1861.08 845.178L1860.49 843.295Z" stroke="#A3A5A7" stroke-width="1.097" stroke-linecap="round" stroke-linejoin="round"/>
<path fill-rule="evenodd" clip-rule="evenodd" d="M76.5841 746.098L74.9844 744.528L76.5841 746.098ZM80.9288 750.371L79.3313 748.801L80.9288 750.371ZM76.6612 745.924C77.0388 745.553 77.5509 745.345 78.0848 745.345C78.6188 745.345 79.1309 745.553 79.5085 745.924C79.886 746.295 80.0981 746.799 80.0981 747.323C80.0981 747.848 79.886 748.352 79.5085 748.723C79.1309 749.094 78.6188 749.302 78.0848 749.302C77.5509 749.302 77.0388 749.094 76.6612 748.723C76.2836 748.352 76.0715 747.848 76.0715 747.323C76.0715 746.799 76.2836 746.295 76.6612 745.924Z" stroke="#A3A5A7" stroke-width="1.097" stroke-linecap="round" stroke-linejoin="round"/>
</g>
</g>
<defs>
<clipPath id="clip0_78_4333">
<rect width="1920" height="1080" fill="white"/>
</clipPath>
<clipPath id="clip1_78_4333">
<rect width="1917" height="1443" fill="white" transform="translate(0 -24)"/>
</clipPath>
</defs>
</svg>
