<svg width="70" height="70" viewBox="0 0 70 70" fill="none" xmlns="http://www.w3.org/2000/svg">
<g filter="url(#filter0_d_111_1838)">
<circle cx="35.0665" cy="21.7999" r="16.7999" fill="#1A202C"/>
</g>
<path d="M40.3166 21.8C40.3166 23.1924 39.7635 24.5277 38.7789 25.5123C37.7943 26.4969 36.459 27.05 35.0666 27.05C33.6742 27.05 32.3389 26.4969 31.3543 25.5123C30.3697 24.5277 29.8166 23.1924 29.8166 21.8C29.8166 21.5008 29.8481 21.2085 29.9024 20.925H28.0666V27.9198C28.0666 28.4063 28.4604 28.8 28.9469 28.8H41.1881C41.4213 28.7995 41.6447 28.7066 41.8094 28.5416C41.9741 28.3765 42.0666 28.1529 42.0666 27.9198V20.925H40.2309C40.2851 21.2085 40.3166 21.5008 40.3166 21.8ZM35.0666 25.3C35.5263 25.2999 35.9816 25.2092 36.4063 25.0332C36.831 24.8571 37.2168 24.5992 37.5418 24.274C37.8668 23.9488 38.1246 23.5628 38.3005 23.138C38.4763 22.7133 38.5667 22.258 38.5666 21.7983C38.5665 21.3385 38.4758 20.8833 38.2998 20.4586C38.1237 20.0339 37.8658 19.648 37.5406 19.323C37.2154 18.998 36.8294 18.7402 36.4046 18.5644C35.9799 18.3886 35.5246 18.2981 35.0649 18.2983C34.1364 18.2985 33.246 18.6675 32.5896 19.3243C31.9332 19.981 31.5646 20.8715 31.5649 21.8C31.5651 22.7285 31.9341 23.6189 32.5909 24.2752C33.2476 24.9316 34.1381 25.3002 35.0666 25.3ZM39.2666 18.125H41.3649C41.5043 18.125 41.638 18.0697 41.7367 17.9713C41.8354 17.8729 41.8911 17.7394 41.8916 17.6V15.5018C41.8916 15.362 41.8361 15.2281 41.7373 15.1293C41.6385 15.0305 41.5046 14.975 41.3649 14.975H39.2666C39.1269 14.975 38.9929 15.0305 38.8941 15.1293C38.7954 15.2281 38.7399 15.362 38.7399 15.5018V17.6C38.7416 17.8888 38.9779 18.125 39.2666 18.125ZM35.0666 5C30.611 5 26.3378 6.76999 23.1872 9.92061C20.0366 13.0712 18.2666 17.3444 18.2666 21.8C18.2666 26.2556 20.0366 30.5288 23.1872 33.6794C26.3378 36.83 30.611 38.6 35.0666 38.6C37.2728 38.6 39.4574 38.1655 41.4957 37.3212C43.534 36.4769 45.386 35.2394 46.946 33.6794C48.506 32.1194 49.7435 30.2674 50.5878 28.2291C51.4321 26.1908 51.8666 24.0062 51.8666 21.8C51.8666 19.5938 51.4321 17.4092 50.5878 15.3709C49.7435 13.3326 48.506 11.4806 46.946 9.92061C45.386 8.36058 43.534 7.1231 41.4957 6.27882C39.4574 5.43454 37.2728 5 35.0666 5ZM43.8166 28.6058C43.8166 29.675 42.9416 30.55 41.8724 30.55H28.2609C27.1916 30.55 26.3166 29.675 26.3166 28.6058V14.9943C26.3166 13.925 27.1916 13.05 28.2609 13.05H41.8724C42.9416 13.05 43.8166 13.925 43.8166 14.9943V28.6058Z" fill="white"/>
<defs>
<filter id="filter0_d_111_1838" x="0.266602" y="0" width="69.5996" height="69.5999" filterUnits="userSpaceOnUse" color-interpolation-filters="sRGB">
<feFlood flood-opacity="0" result="BackgroundImageFix"/>
<feColorMatrix in="SourceAlpha" type="matrix" values="0 0 0 0 0 0 0 0 0 0 0 0 0 0 0 0 0 0 127 0" result="hardAlpha"/>
<feOffset dy="13"/>
<feGaussianBlur stdDeviation="9"/>
<feColorMatrix type="matrix" values="0 0 0 0 0.0658854 0 0 0 0 0.0730469 0 0 0 0 0.1375 0 0 0 0.08 0"/>
<feBlend mode="normal" in2="BackgroundImageFix" result="effect1_dropShadow_111_1838"/>
<feBlend mode="normal" in="SourceGraphic" in2="effect1_dropShadow_111_1838" result="shape"/>
</filter>
</defs>
</svg>
