<?xml version="1.0" encoding="UTF-8"?>
<svg id="Layer_2" data-name="Layer 2" xmlns="http://www.w3.org/2000/svg" viewBox="0 0 921.13 1229.98">
  <defs>
    <style>
      .cls-1 {
        fill: none;
        stroke: #f7f7f7;
        stroke-miterlimit: 10;
        stroke-width: 5px;
      }
    </style>
  </defs>
  <g id="Layer_1-2" data-name="Layer 1">
    <g>
      <path class="cls-1" d="m601.36,1061.72c-1.38-.18-2.87.07-4.14-.77h-12.27c-3.02.99-6.21,1.05-9.3,1.65-8.86,1.7-17.73,3.4-26.67,4.67-9.15,1.3-18.3,2.54-27.51,3.38-7.54.69-15.07,1.35-22.63,1.79-6.8.4-13.62.65-20.42,1.14-2.62.01-5.23.02-7.85.04-26.3.26-52.53-.85-78.69-3.53-15.9-1.63-31.75-3.62-47.41-6.86-11.52-2.38-23.01-2.84-34.53-.25-38.93,8.74-64.28,44.44-59.84,84.24,3.41,30.55,25.81,56.85,55.59,64.79,15.28,4.08,30.99,6.08,46.63,8.29,11.53,1.63,23.13,2.83,34.72,3.96,8.42.82,16.88,1.28,25.32,1.74,19.9,1.08,39.81,1.66,59.74,1.42,3.42-.04,6.85.08,10.26-.39,22.53-.52,44.99-2.19,67.38-4.78,19.34-2.24,38.53-5.37,57.61-9.23,29.33-5.93,53.43-30.34,59.11-59.75.59-3.08,1.06-6.17,1.31-9.3.03-.41-.1-.9.44-1.12v-9.64c-.96-2.44-.8-5.07-1.2-7.61-5.24-33.22-32.4-59.67-65.65-63.9Z"/>
      <path class="cls-1" d="m784.48,136.66C697.97,50.14,582.94,2.5,460.6,2.5S223.23,50.14,136.72,136.66C52.13,221.25,4.73,333.1,2.66,452.4c-.05.05-.09.1-.16.14v24.98c.15-.02.3-.04.45-.06.04,7.08.65,14.13,1.2,21.18,1.8,22.72,5.41,45.16,10.64,67.34,9.23,39.16,23.39,76.46,42.52,111.85,22.09,40.86,49.71,77.57,82.97,110.03,20.62,20.13,42.87,38.23,66.86,54.2,22.89,15.25,46.98,28.26,72.22,39.17,23.48,10.14,47.65,18.21,72.49,24.27,15.02,3.66,30.2,6.49,45.52,8.66,9.78,1.38,19.59,2.44,29.42,3.28,4.98.43,10.01.84,15,.86,9.84.04,19.69.78,29.51-.29,7.89-.87,15.39-3.13,22.54-6.48,10.15-4.75,18.87-11.38,26.18-19.95,5.09-5.97,9.19-12.53,12.19-19.73,4.18-10.05,6-20.58,6-31.48-.03-83.15-.04-166.31-.05-249.46,44.88-26.48,75.01-75.3,75.01-131.18,0-84.07-68.15-152.23-152.23-152.23s-152.23,68.15-152.23,152.23c0,55.55,29.77,104.13,74.21,130.72,0,53.29-.02,106.58-.02,159.87,0,.44-.03.88,0,1.31.08,1.1-.11,1.59-1.45,1.19-3.83-1.15-7.75-2.01-11.57-3.21-14.14-4.46-27.82-10.03-41.14-16.56-26.79-13.13-51.23-29.68-73.18-49.89-.81-.75-1.42-1.93-2.77-1.95-2.7-3.05-5.62-5.9-8.45-8.81-23.56-24.12-42.6-51.37-57.13-81.77-12.11-25.33-20.38-51.89-25.15-79.56-2.86-16.62-3.77-33.38-4.26-50.2,0-.12,0-.24,0-.36,0-166.97,135.84-302.8,302.8-302.8s302.8,135.84,302.8,302.8c0,42.87,34.75,77.62,77.62,77.62s77.62-34.75,77.62-77.62c0-122.35-47.64-237.37-134.15-323.88Z"/>
    </g>
  </g>
</svg>