<?xml version="1.0" encoding="UTF-8"?>
<svg id="Layer_2" data-name="Layer 2" xmlns="http://www.w3.org/2000/svg" viewBox="0 0 1657.09 670.75">
  <defs>
    <style>
      .cls-1, .cls-2 {
        fill: #efefef;
      }

      .cls-2 {
        fill-rule: evenodd;
      }
    </style>
  </defs>
  <g id="Layer_1-2" data-name="Layer 1">
    <g>
      <g>
        <path class="cls-2" d="m840.9,341.28v16.23c0,14.72-.11,29.44.07,44.14.04,3.21-.9,4.06-4.02,3.94-6.29-.24-12.61-.27-18.91,0-3.39.16-4.16-.97-4.14-4.22.11-32.24.06-64.47.06-96.71q0-9.38,9.35-9.37c5.32.01,11.26-1.33,15.78.61,4.54,1.94,6.81,7.88,10.03,12.09,12.83,16.81,25.61,33.66,38.43,50.48.47.63.67,1.57,2.15,1.76v-4.45c0-18.92.05-37.83-.06-56.75-.02-2.86.65-3.92,3.69-3.82,6.72.22,13.45.15,20.17.03,2.31-.04,3.17.58,3.16,3.04-.06,34.76-.06,69.52,0,104.28.01,2.5-.94,3.03-3.2,2.99-6.58-.11-13.17-.19-19.76.03-2.43.07-3.49-1.28-4.68-2.84-14.96-19.6-29.91-39.19-44.87-58.77-.77-.99-1.59-1.94-2.38-2.91-.29.06-.59.13-.88.21Z"/>
        <path class="cls-2" d="m1581.32,341.27v12.86c0,15.84-.11,31.67.08,47.51.03,3.17-.86,4.08-4,3.96-6.29-.25-12.63-.27-18.91,0-3.35.15-4.19-.92-4.16-4.21.11-30.82.03-61.66.11-92.49,0-4.42-1.99-10.32.9-12.84,2.52-2.19,8.33-.23,12.57-.85,8.69-1.28,14.14,1.99,19.29,9.28,13,18.4,27.08,36.05,40.74,53.99.47.62.69,1.56,2.17,1.79v-4.02c0-19.07.05-38.13-.06-57.19-.02-2.84.61-3.94,3.67-3.84,6.72.23,13.45.15,20.19.03,2.28-.04,3.17.54,3.17,3.02-.06,34.76-.06,69.52,0,104.28,0,2.48-.9,3.05-3.17,3.02-6.59-.11-13.18-.18-19.77.03-2.42.07-3.49-1.25-4.69-2.84-14.95-19.59-29.91-39.17-44.87-58.76-.76-.99-1.57-1.95-2.35-2.92-.29.07-.61.13-.9.18Z"/>
        <path class="cls-2" d="m1160.63,224.06c0-21.25.09-41.28-.09-61.32-.03-3.6.71-4.9,4.56-4.68,6.43.36,12.89.18,19.34.05,2.31-.05,3.15.6,3.15,3.05-.09,34.75-.09,69.51,0,104.26,0,2.52-.97,3.03-3.23,2.99-6.58-.11-13.16-.18-19.74.03-2.43.07-3.49-1.28-4.68-2.85-14.95-19.59-29.91-39.18-44.87-58.76-.76-.99-1.59-1.94-2.49-3.07-1.34,1.29-.74,2.74-.74,3.98-.03,18.92-.11,37.85.04,56.76.04,3.22-.91,4.04-4.02,3.93-6.58-.24-13.16-.19-19.75-.01-2.66.07-3.29-.85-3.27-3.37.06-34.48.06-68.95-.02-103.43,0-2.74.76-3.64,3.52-3.54,5.75.2,11.51.28,17.24-.02,3.46-.19,5.62.94,7.69,3.69,14.37,19.16,28.89,38.2,43.37,57.28,1.06,1.41,2.19,2.78,3.96,5.02Z"/>
        <path class="cls-2" d="m766.02,361.15v-15.54c0-15.41.09-30.83-.09-46.24-.04-3.39.98-4.26,4.24-4.14,6.43.24,12.89.21,19.33.01,2.82-.09,3.49.88,3.49,3.58-.09,34.48-.09,68.96,0,103.43,0,2.57-.7,3.42-3.31,3.33-5.46-.19-10.97-.43-16.39.06-4.54.41-7.1-1.49-9.64-4.89-14.48-19.26-29.14-38.36-43.74-57.52-.59-.76-1.28-1.45-1.98-2.24-1.32,1.26-.68,2.73-.68,4-.05,18.92-.08,37.85.03,56.77.01,2.83-.61,3.93-3.67,3.84-6.73-.23-13.47-.15-20.18-.03-2.29.03-3.2-.54-3.18-3.03.07-34.75.07-69.51,0-104.27-.01-2.49.91-3.05,3.18-3.01,6.58.11,13.18.23,19.75-.04,3.11-.13,4.11,2.03,5.48,3.82,14.52,19.04,28.97,38.14,43.44,57.21,1.07,1.4,2.2,2.74,3.92,4.9Z"/>
        <path class="cls-2" d="m847.99,156.4c14.71.05,28.49,3.61,41.4,10.71,2.43,1.34,2.66,2.5,1.47,4.83-2.8,5.49-5.43,11.06-7.93,16.69-1.14,2.57-2.14,3.18-4.9,1.71-9.04-4.84-18.57-8.49-28.81-10.02-3.09-.46-6.13-.39-9.14.55-2.86.89-5.12,2.47-5.7,5.57-.59,3.24.98,5.7,3.48,7.58,2.95,2.22,6.38,3.44,9.86,4.56,8.91,2.87,18.1,4.86,26.61,9,12.77,6.2,18.94,16.19,17.85,30.39-1.04,13.27-8.47,22.01-20.42,26.89-15.14,6.19-30.66,5.56-46.15,1.33-9.4-2.57-18.08-6.71-26.06-12.35-2.42-1.7-2.52-3.13-1.28-5.49,2.8-5.33,5.53-10.71,8.06-16.17,1.2-2.56,1.94-3.26,4.64-1.21,9.83,7.5,20.82,12.51,33.18,14.37,3.84.58,7.57.27,11.21-.8,3.42-1,6.02-3.22,6.41-7.01.36-3.54-1.41-6.16-4.4-8.01-6.56-4.06-14.13-5.2-21.34-7.38-5.37-1.62-10.64-3.39-15.76-5.77-22.68-10.54-20.35-40.39-3.45-51.64,9.47-6.3,19.99-8.41,31.15-8.35Z"/>
        <path class="cls-2" d="m687.6,237.23c4.13-11.81,8.05-23.01,11.96-34.21,4.84-13.88,9.69-27.74,14.42-41.66.78-2.3,1.77-3.34,4.38-3.27,7.72.2,15.42.17,23.14.02,2.92-.06,3.53.47,2.37,3.41-9.3,23.41-18.45,46.89-27.64,70.34-4.35,11.08-8.78,22.11-12.97,33.25-.96,2.51-2.2,3.4-4.88,3.34-7.69-.17-15.42-.17-23.13,0-2.62.05-4-.72-4.98-3.25-13.35-34.6-26.79-69.18-40.32-103.71-1.2-3.06-.37-3.42,2.43-3.36,8,.13,16,.19,23.98-.04,2.93-.08,4.11.95,5.02,3.63,8.33,24.37,16.79,48.68,25.21,73.02.22.61.48,1.2,1,2.51Z"/>
        <path class="cls-2" d="m1169.14,295.3c-4.76,12.25-9.3,23.97-13.9,35.67-9.14,23.33-18.38,46.61-27.37,70-1.38,3.61-3.11,4.85-6.96,4.66-7.42-.35-14.86-.17-22.29-.05-2.18.03-3.26-.73-4.04-2.73-13.74-35.5-27.56-70.98-41.33-106.47-.05-.12.01-.27.07-1.07h5.92c6.86,0,13.76.25,20.61-.09,3.52-.18,4.78,1.2,5.84,4.3,8.44,24.76,17.03,49.47,25.84,74.92,1.63-4.51,3.08-8.4,4.45-12.32,7.32-21.01,14.7-42,21.88-63.06.96-2.83,2.19-3.91,5.27-3.82,8.49.24,17,.08,26.01.08Z"/>
        <path class="cls-2" d="m1317.73,295.3c14.43,0,28.87.09,43.29-.07,3.09-.03,4.2.71,4.05,3.95-.29,5.31-.32,10.65,0,15.96.2,3.7-1.3,4.46-4.63,4.38-8.26-.19-16.53.11-24.79-.14-3.43-.11-4.2,1.08-4.19,4.3.12,25.78-.03,51.56.17,77.35,0,3.8-1.07,4.73-4.71,4.56-6.57-.29-13.17-.27-19.73,0-3.46.15-4.48-.79-4.47-4.35.17-25.5,0-51.01.18-76.5.04-4.08-.71-5.64-5.19-5.4-7.82.41-15.68,0-23.53.17-3.12.07-4.57-.55-4.36-4.1.31-5.45.23-10.93.02-16.39-.11-2.92.77-3.82,3.75-3.78,14.7.14,29.41.06,44.13.06Z"/>
        <path class="cls-2" d="m927.56,469.42c0,9.94.01,19.9,0,29.84-.03,26.7-17.58,44.16-44.29,44.28-6.35.03-12.58-.33-18.69-2.13-17.76-5.24-29.28-20.33-29.51-39.5-.24-21.98-.01-44-.12-66,0-2.79.83-3.52,3.55-3.53,9.13-.01,9.13-.13,9.13,8.82,0,18.08.03,36.17-.01,54.25-.02,4.22.29,8.41,1.27,12.49,3.48,14.47,14.3,23.16,29.24,23.81,10.73.47,20.7-1.29,28.39-9.63,6.72-7.28,8.36-16.28,8.4-25.71.09-19.75.15-39.52-.08-59.28-.05-3.97,1.18-4.88,4.91-4.75,7.81.26,7.81.07,7.81,8.04v29.01Z"/>
        <path class="cls-2" d="m1406.32,350.87c0,16.66-.16,33.34.09,50,.06,4.02-1.22,4.89-4.92,4.73-6.86-.27-13.73-.18-20.57-.03-2.55.06-3.37-.7-3.36-3.3.07-34.6.08-69.19-.01-103.79,0-2.71,1-3.27,3.44-3.23,7.14.13,14.29.21,21.44-.03,3.14-.1,4,.8,3.96,3.96-.15,17.23-.06,34.46-.06,51.68Z"/>
        <path class="cls-2" d="m783.69,213.21c0,17.09-.09,34.18.08,51.27.02,3.14-.81,4.07-3.97,3.97-7.14-.24-14.28-.16-21.43-.03-2.42.04-3.46-.48-3.45-3.22.09-34.59.08-69.18.01-103.78,0-2.58.77-3.37,3.34-3.32,7.27.15,14.56.2,21.83-.02,3.12-.1,3.66,1.09,3.64,3.88-.11,17.08-.06,34.17-.06,51.25Z"/>
        <path class="cls-2" d="m668.41,350.87c0,16.68-.14,33.35.11,50,.06,4.04-1.25,4.88-4.94,4.73-6.84-.27-13.73-.18-20.58-.03-2.56.06-3.34-.73-3.34-3.3.08-34.61.08-69.2,0-103.79-.02-2.72,1-3.26,3.44-3.22,7.14.12,14.29.2,21.42-.04,3.15-.1,4,.81,3.97,3.97-.17,17.22-.08,34.45-.08,51.68Z"/>
        <path class="cls-2" d="m907.27,213.21c0-16.94.06-33.89-.06-50.84-.03-3.14.6-4.44,4.09-4.3,7.13.29,14.29.2,21.42.03,2.62-.06,3.32.77,3.31,3.33-.07,34.59-.09,69.19,0,103.78.01,2.72-.99,3.25-3.42,3.21-7.14-.13-14.3-.2-21.44.03-3.14.1-4.02-.82-3.98-3.97.16-17.09.07-34.18.07-51.27Z"/>
        <path class="cls-2" d="m635.52,488.41c-.87-29.52,23.52-55.13,55.24-55.98,15.03-.4,28.33,4.18,40.33,13.07,2.12,1.58,2.32,2.73.68,4.67-1.89,2.24-3.17,5.78-5.52,6.65-2.77,1.04-4.58-2.88-6.93-4.47-26.59-18.01-62.34-5.04-69.83,25.43-5.98,24.36,11.29,49.6,36.22,53.2,14,2.01,26.4-1.48,37.21-10.36,2.74-2.26,4.02-1.59,5.94.77,4.87,5.96,4.95,5.88-1.31,10.55-32.95,24.58-79.97,8.81-90.55-30.34-1.22-4.51-1.66-9.08-1.49-13.2Z"/>
        <path class="cls-2" d="m755.92,487.53c0-16.96.07-33.91-.06-50.87-.02-3.12.56-4.4,4.08-4.3,8.61.21,8.61.02,8.61,8.51,0,28.45.07,56.89-.11,85.33-.02,3.98,1.17,4.83,4.91,4.78,13.45-.22,26.89-.02,40.35-.16,2.72-.01,3.61.71,3.62,3.51.01,8.43.15,8.43-8.34,8.43-16.4,0-32.8-.08-49.19.07-3.23.04-3.95-.94-3.94-4.02.15-17.11.07-34.19.07-51.29Z"/>
        <path class="cls-2" d="m1539.35,350.64c.84,28.24-20.48,51.66-48.69,55.73-20.62,2.99-39.38-1.11-54.63-16.13-20.92-20.62-22.06-53.76-2.85-76.16,24.67-28.78,76.7-25.62,97.47,5.99,6.08,9.24,9.16,19.44,8.69,30.58Zm-59.45-31.59c-16.46.06-30.48,14.04-30.39,31.26.08,18.17,12.73,31.98,30.29,32.13,18.09.16,29.41-14.42,29.97-31.37.22-17.57-13.33-32.08-29.87-32.02Z"/>
        <path class="cls-2" d="m1050.51,350.68c.82,28.21-20.49,51.63-48.73,55.68-20.46,2.96-39.14-1.03-54.32-15.87-21.24-20.79-22.44-53.88-3.1-76.45,24.62-28.76,76.68-25.54,97.51,6.03,5.93,8.99,8.64,18.63,8.64,30.61Zm-59.38-31.54c-16.87.36-30.03,12.51-30.38,31.08-.35,17.89,12.36,31.98,30.11,32.21,17.87.23,29.44-14.14,30.06-31.29.25-17.57-13.15-32.36-29.79-32Z"/>
        <path class="cls-2" d="m1069.86,213.48c.84,28.26-20.49,51.66-48.67,55.74-20.62,2.99-39.37-1.1-54.62-16.12-20.96-20.61-22.1-53.78-2.9-76.15,24.7-28.8,76.67-25.64,97.51,5.94,5.94,8.98,8.68,18.67,8.68,30.59Zm-59.33-31.47c-16.75.3-30.04,12.36-30.43,31.03-.37,17.79,12.25,31.98,30.09,32.24,17.8.26,29.45-14.02,30.11-31.25.26-17.57-13.09-32.33-29.76-32.03Z"/>
        <path class="cls-2" d="m1282.51,405.53c-10.04,0-19.27-.06-28.5.04-2.11.02-2.92-.94-3.56-2.73-1.69-4.6-3.68-9.08-5.31-13.7-.76-2.19-1.82-3.04-4.2-3.02-13.88.12-27.74.11-41.62,0-2.21-.02-3.23.77-3.95,2.74-1.77,4.72-3.7,9.38-5.6,14.03-.5,1.24-.74,2.66-2.69,2.65-9.22-.07-18.44-.03-28.21-.03,3.64-8.56,7.04-16.64,10.51-24.7,11.64-26.98,23.36-53.93,34.85-80.98,1.47-3.48,3.18-4.85,7.04-4.64,6.86.37,13.75.34,20.59,0,3.43-.16,4.89,1.11,6.13,4.11,12.87,30.87,25.85,61.67,38.81,92.5,1.84,4.36,3.65,8.73,5.72,13.71Zm-50.41-41.27c3.19.07,3.01-1.07,2.1-3.37-3.03-7.66-5.93-15.36-8.88-23.05-1.47-3.79-2.97-7.58-4.91-12.56-5.37,13.66-10.22,26.05-15.28,38.92,9.4,0,18.19-.12,26.96.06Z"/>
        <path class="cls-2" d="m1305.36,212.47c4.57,5.72,9.63,10.36,14.41,15.27,1.47,1.5,2.28.88,3.08-.68,2.08-3.98,3.81-8.11,5.07-12.4.61-2.09,1.19-2.49,3.05-1.09,4.59,3.45,9.27,6.77,13.98,10.06,1.56,1.1,1.69,2.17.97,3.9-2.11,5.06-4.51,9.96-7.51,14.53-1.19,1.82-.96,2.81.59,4.19,4.07,3.64,7.91,7.53,11.99,11.15,1.86,1.65,2.24,2.75.17,4.59-3.45,3.07-6.75,6.32-9.86,9.73-1.86,2.03-3,1.64-4.71-.1-3.43-3.5-7.22-6.64-10.56-10.22-1.96-2.12-3.22-1.96-5.51-.4-14.39,9.81-29.91,12.08-46.29,5.78-15.34-5.9-23.37-21.26-19.31-36.54,2.23-8.36,8.05-13.89,15.01-18.46q5.29-3.47,2-9.07c-3.48-5.91-5.43-12.19-5.32-19.14.17-10.98,5.99-19.8,16.32-23.63,10.05-3.73,20.29-3.81,30.41-.29,8.94,3.11,15.38,8.96,17.01,18.55,1.64,9.75-2.05,17.86-9.51,24.24-4.62,3.93-9.89,6.84-15.48,10.03Zm-17.16,11.21c-.8-.77-1.4-1.64-2.78-.71-4.59,3.11-8.18,6.94-8.4,12.78-.21,5.63,3.46,10.82,9.02,12.91,8.23,3.08,15.54.7,23.39-4.66-7.31-6.99-14.27-13.65-21.24-20.31Zm4.92-26.51c.75,1.13,1.41,1.45,2.72.75,4.25-2.27,8.15-4.99,10.88-9,2.69-3.99,2.53-8.81-.11-12.18-2.33-3-6.94-4.16-11.09-2.8-4.18,1.37-6.93,5.27-7.01,10.45.36,4.32,1.92,8.74,4.6,12.79Z"/>
        <path class="cls-2" d="m1022.13,484.28c5.21,1.68,10.16,3.15,14.22,6.68,8.98,7.81,10.66,17.93,8.44,28.73-2.5,12.07-11.43,18.11-22.65,21.21-5.3,1.46-10.74,1.91-16.23,1.89-14.43-.03-28.88-.09-43.32.06-3.19.04-3.96-.9-3.96-4.02.11-34.2.09-68.41.02-102.63,0-2.75.47-3.95,3.62-3.92,15.71.19,31.41.03,47.11.23,7.1.08,13.88,1.8,20.01,5.57,9.41,5.81,12.84,14.61,11.64,25.17-1.13,9.94-6.74,16.68-16.28,19.98-.77.26-1.53.61-2.6,1.05Zm-7.79,45.79c13.37-2.3,20.77-12.19,17.61-23.98-2.39-9-9.54-12.51-17.76-13.79-13.47-2.1-27.09-.55-40.65-.96-2.41-.08-2.23,1.48-2.23,3.06,0,11.2.06,22.38-.04,33.58-.04,2.57,1.03,3,3.24,2.97,5.73-.12,11.47-.05,18.47-.05,6.28-.24,13.84.48,21.36-.81Zm-40.01-85.89c-2.44-.06-3.08.81-3.06,3.14.1,9.8.09,19.61,0,29.41-.03,2.21.71,2.88,2.9,2.87,10.78-.11,21.56.13,32.34-.18,6.65-.2,13.17-1.59,17.82-7.06,8.56-10.09,2.31-24.8-11.42-27.33-7.23-1.34-14.53-.49-20.67-.8-6.72,0-12.33.11-17.93-.05Z"/>
      </g>
      <g>
        <path class="cls-1" d="m327.91,579.98c-.75-.1-1.57.04-2.27-.42h-6.72c-1.65.54-3.4.58-5.09.9-4.85.93-9.71,1.86-14.6,2.56-5.01.71-10.02,1.39-15.06,1.85-4.13.38-8.25.74-12.39.98-3.73.22-7.46.36-11.18.63-1.43,0-2.87,0-4.3.02-14.4.14-28.76-.46-43.09-1.93-8.7-.89-17.39-1.98-25.96-3.76-6.31-1.3-12.6-1.55-18.91-.14-21.32,4.78-35.2,24.33-32.77,46.13,1.87,16.73,14.13,31.13,30.44,35.48,8.37,2.23,16.97,3.33,25.53,4.54,6.31.89,12.66,1.55,19.01,2.17,4.61.45,9.24.7,13.87.95,10.9.59,21.8.91,32.71.78,1.87-.02,3.75.05,5.62-.21,12.34-.29,24.63-1.2,36.89-2.62,10.59-1.23,21.1-2.94,31.55-5.05,16.06-3.25,29.26-16.61,32.36-32.71.33-1.69.58-3.38.72-5.09.02-.23-.05-.49.24-.61v-5.28c-.53-1.34-.44-2.78-.66-4.16-2.87-18.19-17.74-32.67-35.95-34.99Z"/>
        <path class="cls-1" d="m428.18,73.46C380.81,26.09,317.83,0,250.83,0S120.86,26.09,73.49,73.46C27.17,119.78,1.22,181.02.09,246.35c-.02.03-.05.05-.09.08v13.68c.08-.01.16-.02.25-.03.02,3.88.35,7.74.66,11.6.99,12.44,2.96,24.73,5.83,36.87,5.05,21.44,12.81,41.87,23.28,61.24,12.09,22.37,27.22,42.47,45.43,60.25,11.29,11.02,23.48,20.94,36.61,29.68,12.53,8.35,25.72,15.47,39.55,21.45,12.86,5.55,26.09,9.97,39.69,13.29,8.22,2,16.54,3.56,24.92,4.74,5.35.76,10.73,1.33,16.11,1.8,2.73.23,5.48.46,8.22.47,5.39.02,10.78.43,16.16-.16,4.32-.47,8.42-1.72,12.34-3.55,5.56-2.6,10.33-6.23,14.33-10.92,2.79-3.27,5.03-6.86,6.67-10.81,2.29-5.5,3.29-11.27,3.28-17.23-.02-45.53-.02-91.06-.03-136.59,24.57-14.5,41.07-41.23,41.07-71.83,0-46.03-37.32-83.35-83.35-83.35s-83.35,37.32-83.35,83.35c0,30.42,16.3,57.02,40.63,71.57,0,29.18,0,58.36-.01,87.54,0,.24-.01.48,0,.72.04.6-.06.87-.79.65-2.1-.63-4.25-1.1-6.33-1.76-7.74-2.44-15.24-5.49-22.53-9.07-14.67-7.19-28.05-16.25-40.07-27.32-.44-.41-.77-1.06-1.52-1.07-1.48-1.67-3.07-3.23-4.63-4.82-12.9-13.2-23.33-28.13-31.28-44.78-6.63-13.87-11.16-28.41-13.77-43.56-1.57-9.1-2.06-18.28-2.33-27.49,0-.07,0-.13,0-.2,0-91.42,74.38-165.8,165.8-165.8s165.8,74.38,165.8,165.8c0,23.47,19.03,42.5,42.5,42.5s42.5-19.03,42.5-42.5c0-66.99-26.09-129.97-73.46-177.34Z"/>
      </g>
    </g>
  </g>
</svg>