<?xml version="1.0" encoding="UTF-8"?>
<svg id="Layer_2" data-name="Layer 2" xmlns="http://www.w3.org/2000/svg" viewBox="0 0 217.35 167.88">
  <defs>
    <style>
      .cls-1 {
        fill: #fff;
        stroke-width: 0px;
      }
    </style>
  </defs>
  <g id="Layer_1-2" data-name="Layer 1">
    <g id="Calque_1" data-name="Calque 1">
      <g>
        <path class="cls-1" d="m108.67,112.26H2.66c-2.64,0-2.65-.01-2.65-2.7C.01,80.96.02,52.35.03,23.75c0-2.89,0-2.82,2.78-2.9,20.62-.61,41.28-.77,61.87-2.02,22.26-1.36,44.49-3.45,66.69-5.77,25.41-2.66,50.64-6.7,75.77-11.35,2.79-.52,5.6-.99,8.37-1.61,1.44-.32,1.88.15,1.84,1.53-.06,2.07-.02,4.14-.02,6.21,0,33.85,0,67.69.01,101.54,0,2.87,0,2.88-2.86,2.88h-105.82,0Zm-42.97-35.06c-.66.75-1.24,1.43-1.84,2.09-4.16,4.64-11.13,6.37-16.86,4.21-10.81-4.09-14.91-17.98-8.11-27.5,5.57-7.81,14.9-9.64,22.46-4.31,1.61,1.14,2.96,2.66,4.52,4.09,1.62-1.21,3.29-2.48,4.95-3.72-4.6-7.64-15.94-11.6-25.21-8.7-10.07,3.15-17.77,13.12-16.9,25.44.69,9.82,9.21,19.52,19.22,21.58,9.63,1.98,20-3.82,22.84-9.42-1.63-1.21-3.29-2.43-5.06-3.75h0Zm48.14,13.59c-7.01-16.1-13.85-31.79-20.69-47.49-.17.02-.35.04-.52.05-5.98,15.71-11.96,31.42-18.05,47.44,1.63,0,2.87-.12,4.06.03,1.97.24,3.23-.33,3.57-2.44.24-1.49,1.21-1.84,2.66-1.83,5.88.06,11.77.12,17.65-.08,2.3-.08,3.64.44,4.1,2.82.11.57.89,1.38,1.43,1.43,1.78.18,3.58.07,5.78.07h0Zm6.55,0c1.68,0,2.97-.11,4.24.03,1.82.19,3-.33,3.35-2.25.3-1.65,1.35-2.05,2.95-2.03,5.95.07,11.91.13,17.86-.08,2.08-.07,3.07.51,3.55,2.48.17.69.85,1.69,1.39,1.76,1.82.22,3.69.08,5.9.08-7-16.09-13.86-31.83-20.93-48.09-6.18,16.23-12.17,31.96-18.31,48.1h0Zm37.73-42.1c3.32,0,6.36.11,9.39-.04,1.96-.1,2.55.5,2.53,2.49-.09,11.84-.04,23.69-.05,35.53,0,4.12,0,4.01,4.04,4.17,1.96.08,2.51-.44,2.49-2.45-.1-12.49-.04-24.98-.07-37.47,0-1.44.19-2.36,1.96-2.25,1.93.12,3.88.07,5.82.01,5.38-.17,4.46,1.13,4.63-4.77.03-1.18-.38-1.57-1.57-1.55-4.01.06-8.02.03-12.04.03-5.11,0-10.22,0-15.34.01-.8,0-1.8-.23-1.8,1.11v5.18h0Z"/>
        <path class="cls-1" d="m108.67,118.69h105.82c1.89,0,2.84.96,2.84,2.87,0,3.08-1.52,4.63-4.58,4.63H2.66c-1.77,0-2.65-.89-2.65-2.68,0-3.22,1.6-4.83,4.77-4.83h103.89Z"/>
        <path class="cls-1" d="m14.8,145.92c4.29,5.11,8.46,10.08,12.62,15.05.16-.04.32-.07.48-.11v-4.51c0-2.59,0-5.18-.01-7.77,0-1.25-.2-2.48,1.78-2.45,1.83.03,1.68,1.13,1.67,2.33-.02,5.63.02,11.26-.04,16.89,0,.77-.32,2.03-.79,2.19-1.11.39-2.34.34-3.29-.86-2.49-3.14-5.11-6.18-7.68-9.26-.41-.49-.83-.96-1.61-1.86-.08,1.07-.16,1.65-.16,2.23-.01,2.85-.03,5.7,0,8.54.02,1.35-.82,1.4-1.8,1.37-.88-.02-1.7.02-1.69-1.26.04-6.6.04-13.2.07-19.8,0-.1.13-.21.45-.73h0Z"/>
        <path class="cls-1" d="m150.03,156c0,3.27-.1,6.54.04,9.8.08,1.82-.78,2.18-2.22,1.84-.46-.11-1.13-.74-1.13-1.13-.05-6.6-.01-13.2.02-19.8,0-.1.13-.21.44-.65,4.24,5.05,8.42,10.01,12.6,14.97.16-.06.32-.13.48-.19,0-4.17,0-8.35,0-12.52,0-.51-.1-1.31.16-1.48.58-.38,1.38-.63,2.06-.57.41.04,1.08.75,1.09,1.17.07,6.66.05,13.32.05,20.04-1.97.57-3.36.21-4.63-1.43-2.7-3.46-5.59-6.78-8.4-10.15-.18.03-.37.06-.55.09h0Z"/>
        <path class="cls-1" d="m103.94,160.2c1.21,2.43,2.34,4.72,3.49,7.04-3.06.81-3.36.69-4.66-1.68-.15-.28-.31-.57-.46-.85-1.24-2.4-3.39-3.41-6.44-3.02,0,1.47-.06,3,.02,4.52.07,1.33-.65,1.48-1.7,1.42-.96-.06-1.96.17-1.95-1.39.04-6.2-.01-12.41.06-18.61,0-.5.67-1.42,1.06-1.43,2.58-.08,5.19-.23,7.73.13,3.29.46,5.48,2.5,6.24,5.82.71,3.07-.24,5.6-2.67,7.58-.2.17-.43.29-.71.49h0Zm-8.01-2.04c2.81-.06,5.7.87,7.39-2.26.94-1.74.75-3.36-.42-4.88-1.4-1.8-4.02-2.3-6.97-1.37v8.51h0Z"/>
        <path class="cls-1" d="m207.81,149.56c0,2.03-.09,3.77.06,5.49.04.42.83,1.07,1.32,1.11,1.74.14,3.49.09,5.23.05,1.31-.04,1.62.61,1.62,1.8,0,1.17-.43,1.64-1.59,1.61-1.61-.04-3.25.1-4.85-.04-1.75-.15-1.86.78-1.81,2.11.05,1.32-.21,2.63,1.89,2.46,1.99-.15,4.01,0,6.01-.05,1.23-.04,1.56.54,1.53,1.65-.02,1.01-.1,1.77-1.42,1.76-3.36-.04-6.73.05-10.09-.06-.47-.02-1.3-.87-1.31-1.35-.1-6.14-.06-12.29-.08-18.43,0-1.03.4-1.55,1.49-1.54,3.23.03,6.47.04,9.7,0,1.26-.01,1.48.65,1.49,1.72.01,1.09-.25,1.72-1.5,1.7-2.45-.04-4.9-.01-7.69-.01h0Z"/>
        <path class="cls-1" d="m191.05,161.11c.82.65,1.57,1.24,2.3,1.82-1.32,3.28-5.7,5.23-10.04,4.55-4.66-.73-8.35-5.01-8.68-10.09-.31-4.7,2.96-9.4,7.54-10.81,4.19-1.3,9.14.47,11.27,4.16-.75.62-1.53,1.25-2.45,2.01-1.93-2.07-4.1-3.77-6.95-3.03-1.46.38-2.97,1.36-3.99,2.49-2.63,2.93-2.25,7.48.57,10.17,2.91,2.76,6.28,2.41,10.44-1.26Z"/>
        <path class="cls-1" d="m45.1,161.59c1.19,2.04,2.6,3.04,4.65,2.68,1.55-.27,2.63-1.07,2.68-2.8.05-1.69-.96-2.44-2.47-2.68-.7-.11-1.41-.13-2.12-.21-3.03-.36-5.48-2.79-5.75-5.68-.27-2.95,1.45-5.6,4.4-6.54,2.7-.86,5.23-.48,7.45,1.4,1.86,1.57,1.86,1.83.08,3.35-.24.21-.5.4-.88.7-.38-.36-.68-.82-1.1-1-1.13-.5-2.3-1.17-3.49-1.26-1.54-.12-2.52.99-2.74,2.49-.22,1.54.6,2.66,2.02,3.14.9.31,1.9.35,2.86.43,3.03.27,4.9,1.94,5.38,4.86.46,2.8-.98,5.61-3.53,6.68-2.54,1.07-5.11.94-7.45-.45-.94-.55-2.09-1.58-2.16-2.48-.06-.76,1.28-1.64,2.16-2.65h0Z"/>
        <path class="cls-1" d="m81.53,154.3c0,2,.01,4,0,6.01-.02,4.12-3.08,7.21-7.2,7.31-4.01.1-7.22-2.83-7.34-6.92-.13-4.33,0-8.66-.05-12.98-.02-1.31.56-1.65,1.76-1.65,1.25,0,1.74.47,1.72,1.72-.04,4.07-.06,8.14,0,12.21.04,2.68,1.68,4.33,4.02,4.21,2.21-.12,3.57-1.62,3.61-4.22.06-4,.08-8.01,0-12.02-.03-1.64.78-2.13,2.13-1.81.53.13,1.26.87,1.29,1.38.14,2.25.06,4.52.06,6.78h0Z"/>
        <path class="cls-1" d="m126.8,146.4c3.02,6.94,6.04,13.88,9.19,21.12-1.8-.1-3.37.86-4.23-1.18-.12-.29-.9-.4-1.38-.41-1.87-.05-3.75-.03-5.62-.02-1.14,0-2.14-.1-2.98,1.21-.4.62-2.05.44-3.69.71,2.84-7.5,5.48-14.46,8.12-21.42h.58,0Zm3.53,16.27c-1.25-2.88-2.35-5.42-3.46-7.96-.16.02-.31.03-.48.04-.9,2.6-1.8,5.21-2.74,7.91h6.68Z"/>
        <path class="cls-1" d="m.02,156.83c0-3.04.04-6.08-.02-9.11-.03-1.32.57-1.67,1.76-1.65,1.13.01,1.85.25,1.84,1.6-.03,6.21-.04,12.41,0,18.62.01,1.59-1.04,1.28-1.98,1.34-1.1.08-1.65-.21-1.62-1.49.08-3.1.03-6.21.03-9.31h-.01,0Z"/>
        <path class="cls-1" d="m93.41,58.57c3.16,7.24,6.32,14.49,9.63,22.08h-18.01c2.6-7.41,5.17-14.76,7.74-22.11.21.01.43.02.64.03h0Z"/>
        <path class="cls-1" d="m130.85,80.63c2.61-7.47,5.16-14.76,7.71-22.06.19-.03.39-.06.59-.1,3.18,7.27,6.36,14.53,9.7,22.16h-18Z"/>
      </g>
    </g>
  </g>
</svg>