<?xml version="1.0" encoding="UTF-8"?>
<svg id="Layer_2" data-name="Layer 2" xmlns="http://www.w3.org/2000/svg" viewBox="0 0 183.06 152.09">
  <defs>
    <style>
      .cls-1 {
        fill: #fff;
        stroke-width: 0px;
      }
    </style>
  </defs>
  <g id="Layer_1-2" data-name="Layer 1">
    <g id="Layer_1-2" data-name="Layer 1-2">
      <g>
        <path class="cls-1" d="m180.82,54.83c-4.44-15.5-14.09-29.43-26.97-39.3C140.48,5.32,124.54,0,107.77,0c-18.47,0-36.3,6.68-50.17,18.78-3.4,3.03-6.52,6.27-9.26,9.77,1.13,1.64,2.43,3.19,3.84,4.6,3.03,3.03,6.5,5.46,10.31,7.38,4.38,2.21,8.95,3.88,13.64,5.17,8-8.41,19.38-13.52,31.64-13.52,17.59,0,33.4,10.49,40.33,26.73l1.61,3.66h33.34l-2.23-7.73h0Zm-113.74,4.66c-3.81,1.55-7.47,3.44-10.84,5.93-3.4,2.55-6.27,5.64-8.63,9.26-2.84,4.38-4.91,9.1-6.42,14.09-1.46,4.8-2.73,9.65-3.94,14.51-.08.36-.18.72-.12,1.09.04.27.14.51.25.75,2.63,5.86,5.7,11.44,9.56,16.58,2.7,3.6,5.64,6.93,8.98,10.02.57.57,1.2,1.13,1.82,1.67,13.87,12.1,31.61,18.71,50.02,18.71,16.38,0,31.98-5.11,45.13-14.81,12.89-9.55,22.27-22.6,27.2-37.71l2.55-7.97h-33.75l-1.67,3.44c-7.24,15.13-22.76,24.83-39.45,24.83-8.76,0-17.42-2.68-24.64-7.56-3.11-2.11-5.99-4.64-8.47-7.5-2.21-2.52-3.97-5.46-5.67-8.35-.16.16-.25.35-.37.51-.98,1.48-1.67,3.09-2.21,4.79-.41,1.33-.76,2.68-1.1,4.01-.28,1.23-.53,2.46-.78,3.68-.1.47-.19.94-.28,1.41h-.1c-.04-.25-.1-.51-.16-.78-.22-1.01-.41-2.05-.63-3.09-.25-1.04-.47-2.11-.76-3.19-.37-1.48-.85-2.93-1.48-4.35-.57-1.29-1.26-2.52-2.17-3.62-1.58-1.9-3.6-3.11-5.87-4.03-2.14-.85-4.35-1.41-6.59-1.92-1.39-.28-2.78-.57-4.23-.88.12-.04.19-.1.28-.12,1.01-.22,2.05-.37,3.09-.6,1.23-.28,2.49-.57,3.72-.88,1.48-.37,2.96-.88,4.35-1.48,1.9-.85,3.6-1.92,4.95-3.46,1.26-1.41,2.14-3.05,2.8-4.82.78-2.02,1.33-4.09,1.8-6.21.33-1.44.47-2.93.94-4.33"/>
        <g id="j5GXK6.tif">
          <path class="cls-1" d="m34.53,85.62c-.1-.41-.19-.83-.28-1.24-.33-1.62-.64-3.25-.99-4.87-.37-1.68-.76-3.34-1.2-5.01-.6-2.35-1.36-4.66-2.34-6.89-.89-2.05-1.99-3.98-3.43-5.71-2.47-2.99-5.67-4.94-9.24-6.35-3.38-1.34-6.88-2.26-10.42-3.02-2.17-.46-4.36-.92-6.64-1.39.18-.1.29-.19.42-.22,1.63-.33,3.26-.62,4.88-.98,1.97-.43,3.92-.88,5.88-1.38,2.35-.6,4.67-1.35,6.89-2.34,2.96-1.3,5.65-2.99,7.81-5.46,1.97-2.25,3.33-4.82,4.41-7.58,1.23-3.19,2.1-6.47,2.81-9.8.45-2.12.87-4.25,1.3-6.37.04-.16.11-.29.27-.42.14.69.27,1.38.42,2.06.6,2.76,1.21,5.54,1.84,8.29.62,2.69,1.5,5.3,2.6,7.84,1.1,2.5,2.52,4.8,4.44,6.75,1.61,1.62,3.45,2.9,5.49,3.92,2.85,1.44,5.86,2.44,8.93,3.2,2.27.56,4.55,1.09,6.83,1.59,1.1.24,2.22.42,3.33.64.18.04.36.11.56.17v.12c-.75.14-1.5.29-2.23.45-1.64.34-3.28.65-4.91,1.03-1.63.37-3.26.76-4.87,1.22-3.89,1.1-7.67,2.47-10.95,4.91-1.82,1.35-3.36,3.01-4.61,4.94-1.52,2.34-2.63,4.88-3.44,7.53-.64,2.1-1.23,4.21-1.75,6.35-.47,1.92-.83,3.88-1.23,5.82-.16.74-.29,1.48-.43,2.22h-.14v-.02Z"/>
        </g>
        <g id="j5GXK6.tif-2">
          <path class="cls-1" d="m64.15,101.57c-.04-.16-.07-.3-.1-.46-.12-.59-.23-1.18-.36-1.77-.13-.62-.28-1.22-.43-1.82-.22-.86-.49-1.7-.86-2.51-.33-.75-.72-1.45-1.24-2.08-.91-1.09-2.06-1.8-3.36-2.32-1.23-.49-2.5-.82-3.79-1.1-.8-.17-1.59-.34-2.41-.51.06-.04.11-.07.16-.07.59-.12,1.18-.23,1.77-.35.71-.16,1.42-.33,2.14-.51.86-.22,1.7-.49,2.51-.86,1.07-.47,2.05-1.09,2.85-1.99.71-.82,1.22-1.75,1.61-2.76.45-1.16.76-2.35,1.03-3.57.17-.77.31-1.55.47-2.32,0-.06.04-.11.1-.16.05.25.1.51.16.75.22,1,.43,2.02.68,3.02.23.98.54,1.93.94,2.85.4.91.92,1.75,1.62,2.46.58.59,1.26,1.06,2,1.42,1.04.52,2.12.89,3.26,1.17.82.21,1.65.4,2.49.58.4.08.81.16,1.21.23.07.01.13.04.21.06v.05c-.28.05-.54.11-.82.16-.59.12-1.2.24-1.79.37-.59.13-1.18.28-1.77.45-1.41.4-2.79.91-3.98,1.79-.66.49-1.22,1.1-1.68,1.8-.56.86-.95,1.77-1.26,2.74-.23.76-.45,1.53-.64,2.32-.17.7-.3,1.41-.45,2.11-.06.27-.11.54-.16.81h-.05l-.04.02Z"/>
        </g>
      </g>
    </g>
  </g>
</svg>