<?xml version="1.0" encoding="UTF-8"?>
<svg id="Layer_2" data-name="Layer 2" xmlns="http://www.w3.org/2000/svg" viewBox="0 0 172.07 148.25">
  <defs>
    <style>
      .cls-1 {
        fill: #fff;
        stroke-width: 0px;
      }
    </style>
  </defs>
  <g id="Layer_1-2" data-name="Layer 1">
    <g id="Layer_1-2" data-name="Layer 1-2">
      <g>
        <path class="cls-1" d="m67.64,148.2c-3.68,0-7.36-.04-11.04.02-1.23.02-1.83-.32-1.99-1.65-.65-5.37-1.38-10.73-2.15-16.09-.07-.47-.53-1.04-.96-1.27-3.99-2.16-8.01-4.27-12.02-6.38-3.59-1.89-7.25-1.77-10.95-.34-2.3.89-4.61,1.31-7.1.85-3.97-.73-6.98-2.79-9.01-6.22-3.26-5.49-6.43-11.03-9.63-16.55-.78-1.34-1.53-2.69-2.36-4-.48-.77-.58-1.25.31-1.89,2.64-1.89,5.1-4.02,7.77-5.85,3.93-2.7,5.52-6.47,5.54-11.05.02-2.8-.05-5.61-.15-8.42-.12-3.35-1.37-6.23-3.96-8.41-3.04-2.55-6.15-5.01-9.24-7.5-.57-.46-.97-.8-.47-1.66,3.82-6.45,7.74-12.85,11.33-19.42,3.84-7.02,10.49-9.01,17.65-6.39,3.77,1.38,7.41,1,10.88-1.04,2.29-1.35,4.6-2.67,6.91-3.99,3.89-2.21,5.82-5.65,6.39-9.98.42-3.21.86-6.42,1.23-9.64.11-.99.58-1.3,1.51-1.29,7.7.01,15.4-.14,23.1.02,7.37.15,12.16,4.6,13.43,11.84.66,3.78,2.61,6.81,5.98,8.86,3.55,2.16,7.16,4.23,10.55,6.62,6.03,4.25,10.48,10,14.5,16.09.77,1.17.92,2.58.23,3.88-.65,1.21-1.85,1.21-3.05,1.2-6.73-.02-13.46.03-20.19-.06-.87-.01-1.92-.4-2.55-.97-5.84-5.29-12.56-8.67-20.42-9.58-21.25-2.44-37.55,11.86-40.74,29.98-1.77,10.06.56,19.28,6.52,27.61,5.64,7.88,13.34,12.66,22.7,14.42,7.42,1.39,14.86.79,21.84-2.57,3.86-1.86,7.53-3.97,10.45-7.21.27-.3.84-.46,1.27-.47,7.17-.03,14.33-.05,21.5,0,2.56.02,3.97,2.5,2.54,4.75-1.82,2.85-3.79,5.62-5.97,8.2-4.94,5.89-10.98,10.48-17.77,14.07-2.81,1.49-5.2,3.38-6.39,6.45-.36.94-.73,1.91-.88,2.9-1.39,8.8-7.28,11.92-14.39,12.12-3.58.1-7.17.02-10.75.02h0Z"/>
        <path class="cls-1" d="m44.07,73.9c-.42-12.7,9.33-25.34,22.89-28.04,10.79-2.15,20.2.88,27.77,9.09.43.46,1.2.84,1.83.85,7.46.05,14.92-.06,22.37.05,5.88.09,10.74-1.99,14.77-6.21,2.44-2.56,4.98-4.99,8.22-6.61,2.9-1.44,5.95-1.58,9.06-1.5,1.45.04,2.37-.35,3.08-1.78,1.38-2.78,6.99-5.73,10.83-4.2,4.77,1.89,7.56,6.03,6.99,10.82-.57,4.82-4.85,8.58-9.69,8.55-3.32-.02-6.58-1.43-8.23-4.82-.6-1.24-1.24-1.74-2.67-1.25-1.73.6-3.56.88-5.3,1.46-3.06,1.04-5.46,3.06-7.65,5.37-2.86,3.01-5.86,5.98-10.06,6.82-3.38.68-6.9.93-10.36.97-9.44.12-18.89.02-28.33.07-1.2,0-2.11-.24-2.94-1.15-5.41-5.98-12.16-7.71-19.66-5.2-7.1,2.38-11.25,7.75-11.98,15.17-.69,6.99,2.15,12.66,7.88,16.93,6.12,4.56,17.84,3.92,23.51-3.02.76-.93,1.6-1.22,2.75-1.21,10.8.04,21.6.14,32.4.02,6.37-.07,11.77,1.81,16.07,6.63,3.68,4.12,8.05,7.05,13.66,7.91,1.24.18,1.97.02,2.66-1.22,1.71-3.08,4.42-4.43,8.01-4.56,4.31-.15,7.28,1.69,9.14,5.38,2.27,4.51.45,10.1-3.93,12.6-4.65,2.65-10.22,1.44-13.03-2.97-.67-1.05-1.38-1.38-2.57-1.43-6.37-.22-11.94-2.3-16.19-7.24-3.51-4.07-7.72-6.85-13.14-7.55-.82-.1-1.64-.19-2.46-.19-7.6,0-15.21-.03-22.81.06-.84.01-1.91.49-2.48,1.12-12.06,13.26-32.82,12.78-44.02-1.14-4.26-5.29-6.56-11.35-6.37-18.55h0Z"/>
        <path class="cls-1" d="m141.47,83.79c-3.28-.19-6.16-1.62-7.98-4.79-.49-.85-1.08-1.07-1.99-1.07-12.69.02-25.38.01-38.07,0-3.49,0-6.98-.04-10.46.02-.53.01-1.32.29-1.54.7-2.6,4.65-8.21,6.47-12.79,4.08-4.98-2.6-6.84-8.66-4.17-13.56,2.52-4.62,8.82-6.3,13.51-3.39,1.34.83,2.38,2.22,3.36,3.51.49.64.82,1.04,1.68,1.04,16.08-.02,32.16-.02,48.24-.01,1.02,0,1.69-.36,2.24-1.26,2.44-4.05,6.29-5.48,11.29-4.27,3.78.91,6.62,4.29,6.78,8.63.22,6.05-4.21,10.22-10.08,10.38h0Z"/>
      </g>
    </g>
  </g>
</svg>