<?xml version="1.0" encoding="UTF-8"?>
<svg id="Layer_2" data-name="Layer 2" xmlns="http://www.w3.org/2000/svg" viewBox="0 0 120.26 123.28">
  <defs>
    <style>
      .cls-1 {
        fill: #fff;
        stroke-width: 0px;
      }
    </style>
  </defs>
  <g id="Layer_1-2" data-name="Layer 1">
    <g id="Layer_1-2" data-name="Layer 1-2">
      <g>
        <path class="cls-1" d="m117.58,46.48c1.62.41,2.82,2.02,2.68,3.58-.07.75,0,1.49-.18,2.24-.43,1.72-.43,1.76-1.93.89-.45-.32-.69-.22-.98.68-1.33,4.1-4.51,6.44-7.97,8.51-2.36,1.42-4.87,2.51-7.47,3.43-1.85.65-3.72,1.08-5.6,1.59-.34.09-.99-.21-.92.4.07.56.79.53,1.11.33,1.43-.85,3.11-.69,4.59-1.3.03,1.92-.04,1.7-1.91,1.76-2.46.08-4.92-.11-7.39.08-1.34.11-1.47,1.26-2.3,1.77-.54.34-.88.69-1.61.52-.98-.24-2.03.03-3.05-.2-.56-.12-.84.41-.89.95-.04.44,0,.89-.02,1.34-1.57-.42-3.12-1.01-4.72-1.21-1.36-.17-1.87-.87-2.3-2-.34-.89-.12-1.21.75-1.08,2.43.39,4.9.22,7.35.33,1.07.05,2.24.09,3.3-.46-.47-.16-.94-.15-1.4-.17-2.94-.09-5.89.18-8.83-.23-2.06-.29-2.07-.19-1.68,1.88.02.13,0,.27.04.4.25.88.59,1.64,1.68,1.8,1.23.18,2.48.35,3.64.76.94.33,2.19.13,2.72,1.31-.6-.18-1.22-.28-1.78-.55-1.05-.5-2.14-.57-3.25-.51-.32.02-.64.07-.75.43-.09.31.16.5.36.66.5.44,1,.88,1.53,1.28,1.79,1.38,3.75,2.11,6.03,1.63-.11.8-.76.8-1.32.78-2.56-.11-4.94-.78-7.09-2.28-.79-.56-1.34-1.45-2.33-1.72-.04-.43-.39-.72-.69-.65-1.01.23-2.11-.2-3.07.39-1.3.06-2.53.53-3.7.98-4.45,1.75-8.48,4.23-11.84,7.64-1.01,1.03-2.52,1.75-2.72,3.44h0c-1.17-.1-1.19,1.14-1.87,1.62-.3-.43-.66-.84-.31-1.41.46-.77-.09-1.96-1.01-2.06-.52-.05-1.31-.23-.96.82.13.4-.05.74-.35.92-.38.23-.66-.11-.92-.34-.29-.27-.53-.62-.98-.62,1.17-2.07,2.79-3.84,4.58-5.3,3.98-3.27,8.54-5.51,13.63-6.6.93-.2,1.89-.4,3.08-.64-.85-.53-1.44-.27-2.01-.34.08-.95.28-1.59,1.47-.93.73.4,2.41-.17,2.54-.72.29-1.22-.39-1.85-1.84-1.71-1.96.2-2.13.02-1.91-1.98.98.53,2.05.85,3.13.98.92.11,1.36.53,1.66,1.3.14.37.21.8.45,1.11.66.84.89,1.49-.68,1.71.86.17,1.96.55,1.88-.41-.09-1.21-.85-2.37-1.33-3.56-.14-.36-.42-.54-.81-.61-3.04-.53-5.91-1.54-8.64-2.98-.63-.34-1.32-.4-1.92-.1-2.78,1.4-5.67,2.49-8.72,3.13-.81.17-1.59.47-2.55.76.62.37,1,.21,1.4.16,1.63-.21,3.13-1.01,4.8-1,.33.56.83.95-.39,1.28-1.14.32-2.1.38-3.26.18-1.03-.18-2.17.23-3.3.19-1.16-.05-2.32-.02-3.47-.02-1.63-.52-3.25-.55-4.88.02-.87-.12-1.79.23-2.62-.24.23-.56-.11-.53-.51-.57-2.2-.24-4.35-.74-6.51-1.2-1.28-.27-2.48-1.25-3.83-.84-1.85.56-3.68,1.17-5.55,1.63-1.37.21-2.77.27-4.04.95h-.74c-1.26-.38-2.52.14-3.78.02-.66-.02-1.33-.05-2-.03-3.23.07-6.48.16-9.27-1.91-.13-.53-.27-1.06-.4-1.59-.08.6-.95,1.38.31,1.69.02.32.05.64.08.96-.08.27.1.69-.35.74-.28.03-.53-.22-.59-.46-.18-.67-.38-1.37-.37-2.05,0-.57.38-1.07.03-1.73-.24-.45.38-.42.71-.46,0,1.03.47.86.88.27.73-1.08,1.85-1.45,2.98-1.87,2.78-1.01,5.62-1.24,8.52-.82,2.93.43,5.81,1.01,8.64,1.97,1.36.47,2.82,1.28,4.36.38,1.72-1.01,3.36-2.13,4.98-3.3,1.05-.76,1.79-1.98,3.17-2.3.3,1.16-.11,2.18-.89,2.07-.81-.12-1.21.08-1.21.91,0,.53.02,1.24.68,1.2.61-.04,1.66.11,1.47-1.14-.05-.34-.02-.81.46-.81.94,0,1.97-.36,2.75.5-2,1.58-4.43,2.38-6.6,3.66-.38.23-1.14.13-1.03.79.1.6.79.69,1.29.81,3.04.68,6.11,1.24,9.22,1.4,4,.21,7.92-.47,11.79-1.38,1.24-.29,2.56-.62,3.59-1.54h0c1.09-.03,2.04-.44,2.93-1.04.33-.22.82-.37.71-.83-.09-.4-.53-.56-.95-.55h0c-.33-.94-1.27-1.3-1.9-1.96-1.86-1.92-3.52-3.98-4.39-6.56-.08-.24-.27-.56.03-.72.3-.17.46.13.6.37.34.62.69,1.24,1.05,1.85,1.04,1.72,1.9,3.61,3.81,4.61h0c.58,1.33,1.72,1.96,2.98,2.43.17-.18.33-.37.5-.55.05.14.13.41.16.41.21-.03.39-.15.39-.41h0c.43.13.78-.08,1.12-.3,1.76-1.12,3.43-2.36,4.99-3.75,2.31-2.07,4.43-4.32,6.39-6.72.85.06.94.63.94,1.33-.02,1.69-.06,3.37.25,5.05.14.75.62.63,1.08.64.45,0,.95.02.98-.62.05-.74.21-1.53.05-2.23-.26-1.14.22-1.29,1.14-1.18.72.08,1.13-.08.82-.95-.14-.42-.05-1.13.44-1.09,1.79.13,1.52-2.83,3.54-2.32.08.02.59-.73.4-1.29-.08-.25-.09-.52-.13-.79.55.08,1.05-.18,1.57-.26.49-.07.73-.37.75-.79.02-.42-.2-.78-.7-.82-.4-.03-.67-.21-.83-.57,3.07-1.94,6.48-3.07,9.96-4.01.97-.11,1.95-.15,2.91-.36,4.75-1.03,9.34-.33,13.86,1.15.59.19,1.36.24,1.49,1.1-.25-.07-.53-.1-.76-.21-3.31-1.74-6.89-1.85-10.48-1.59-5.33.4-9.91,2.76-14.1,5.89-3.77,2.82-6.84,6.32-9.22,10.38-1.56,2.68-2.69,5.52-2.81,8.68-.02.74-.04,1.47,1.02,1.52,1.11.05,2.22.19,3.33.23,4.51.14,9-.13,13.43-1.02,5.84-1.17,11.51-2.85,16.45-6.37,2.87-2.04,5.45-4.38,6.47-7.9.9-3.13.93-6.39-2.53-8.77-.32-.22-.71-.4-.81-.85,1.26-.31,1.69,1.08,2.69,1.32,1.78,2.46,2.91,5.13,2.63,8.28.66-2.04.47-3.98-.47-5.84h-.02ZM6.41,67.15s.02.07.03.09c0,.02.05.02.07.02-.04-.03-.08-.07-.11-.1,0-.41-.27-.56-.62-.51-.84.13-1.53-.32-2.27-.55-.42-.13-.89-.27-.88-.85.02-.59.41-.88.92-1.01,1.12-.3,2.24-.72,3.37-.79,4.94-.31,9.82.2,14.82,1.55-4.52,1.73-9.11,1.93-13.68,2.24,2.48.09,4.94.4,7.38-.08,2.13-.42,4.3-.64,6.31-1.56.33-.14.76-.22.76-.64,0-.58-.56-.45-.92-.55-4.59-1.27-9.27-1.78-14.02-1.46-1.57.11-3.23.11-4.66,1.01-.53.33-.87.72-.82,1.4.05.71.5,1.05,1.07,1.22,1.06.31,2.13.69,3.27.57v-.02Zm64.26-.8c.65.05.92-.21.94-1.16.05-3.3.63-6.48,2.13-9.48.12-.24.43-.59.05-.82-.32-.2-.57.13-.79.34-1,.94-1.96,1.93-3.01,2.82-2,1.7-4.12,3.23-6.43,4.5-.64.35-.85.98-.05,1.3,2.3.97,4.55,2.05,7.17,2.48v.02Z"/>
        <path class="cls-1" d="m61.13.33c.85-.3,1.68-.24,2.59-.09,1.05.18,2.17-.05,3.25,0,2.01.08,2,.11,1.72,1.99-1.43-.37-2.8-.98-4.29-1.14-.07-.4-.2-.63-.56-.2-.49.17-1.24-.64-1.39-.02-.14.6.77.66,1.3.82.11.03.18.14.44.34-1.14.22-2.02-.22-2.91-.35-2.59-.39-5.21-.47-7.81-.5-1.08,0-2.38-.32-3.3.72-.63.69-1.26-.15-1.89.02-.07-.47-.34-.58-.77-.46.45,1.32-.73.5-.92.54-2.56.58-4.96,1.56-7.39,2.56-3.54,1.46-6.65,3.57-9.67,5.82-4.25,3.18-7.71,7.1-10.32,11.75-.33.58-.85,1.05-.75,1.79-.36.02-.52.21-.51.56-.89,2.36-1.8,4.66-1.63,7.3.19,2.96,2.47,6.13,5.34,6.91.23.06.54.34.72.04.24-.4-.14-.5-.43-.63-.13-.06-.18-.27-.27-.42.07-.5-.02-1.13.82-1.01.63.09,1.17.23.95,1.1-.07.27.09.59.15.89-.11.74.47.56.82.56.97.02,1.94-.03,2.91-.05.15.26.41.39.66.28.49-.21-.1-.36-.08-.57.03-.26-.02-.53,0-.79.02-.37.28-.54.59-.63.5-.13.47.27.46.56,0,.43.15.56.55.38.36.2.7.24,1.14.11,2.53-.73,4.92-1.74,7.13-3.16.42-.27,1.07-.31,1.14-.99h0c.53.13,1.03-.1,1.39-.37,2.14-1.58,4.31-3.14,6.33-4.86,2.23-1.9,4.21-4.06,6-6.4,1.69-2.2,3.23-4.49,4.16-7.1.28-.79.83-1.66.5-2.64-.6.16-.24.8-.66.98-.71-.58-.5-1.4-.54-2.14h1.08c.08.23.02.56.48.56-.05-.83.14-1.61.82-2.32v2.82c-.45,2.12-.76,4.33-1.74,6.24-2.27,4.46-4.86,8.75-8.92,11.92-.35.27-.54.7-.59,1.17-.63-.03-1.1.28-1.56.66-3.72,3.08-8.05,4.96-12.63,6.33-3.11.93-6.27,1-9.46.87-.34-.11-.69-.21-1.03-.31-.36-.1-.72-.21-1.08-.31-.59-.33-1.17-.69-1.89-.47-.14-.5-.5-.79-.89-1.1-.62-.47-1.24-.94-1.79-1.51-1.07-1.1-1.89-2.34-2.67-3.63,0-1.95-.18-3.91.14-5.86.34-.92.5-1.86.48-2.9-.98.72-.89,1.68-.95,2.59-.92-.3-1.39-.86-1.09-1.88.07-.24.05-.53.05-.79.04-1.63.85-2.44,2.44-2.43-.11.34-.27.67-.31,1.02-.04.37-.76.73-.25,1,.54.28.64-.45.83-.81.99-1.83,1.73-3.81,3.01-5.49,2.91-3.83,6.39-7.01,10.45-9.6,3.4-2.17,7.06-3.71,10.87-5.01,1.97-.67,4.05-.75,5.97-1.5,1.04-.08,2.11-.02,2.95-.82h.22c.35.4.82.21,1.25.28,1.36.25,2.73-.2,4.07,0,2.05.31,4.13-.13,6.15.34.69.16.65-.17.62-.61h.02Z"/>
        <path class="cls-1" d="m60.11,112.25c.6,0,1.43.07.95.86-.59.96-.37,1.89-.42,2.86-.31.07-.79-.04-.52.59.79,1.84,1.14,3.85,2.15,5.61l-.05.05c-1.34-.33-1.71-1.51-2-2.57-.86-3.17-1.66-6.37-1.46-9.7.05-.92-.34-1.29-1.14-1.43-.4-.07-.78-.21-1.17-.27-4.83-.8-8.71-3.09-11.38-7.28.79-.23,1.79.53,2.4-.53h0c.58-.08.69-.54.4-.86-.44-.51-.29-1.08-.43-1.62-.28-1.09-.09-2.19-.18-3.27-.14-1.71.36-2.27,2.04-2.04-.81,1.3-.52,2.81-.72,4.22-.35,2.47.26,4.66,1.81,6.71,1.79,2.36,4.26,3.35,6.96,4.05,1.08.28,1.5-.23,1.37-1.28.45-1.24.62-2.52.35-3.85-.21,1.28-.42,2.57-.63,3.85-1.01.91-3.56.36-4.84-1.05,1.07.42,2.16-.05,3.25.07.77.08,1.3-.13,1.14-1.28-.13-.95-.05-1.92-.28-2.93-.43-1.85.21-2.33,2.62-2.33-.11.96-.95,1.72-.62,2.84.93-1.96,1.85-3.92,2.85-6.02-1.02.12-.76,1.05-1.32,1.28-.49.21-.17.88-.63,1.09-.85-.92-.68-2.08-.75-3.19,0-.04.02-.11.05-.11,1.39-.22,2.06-1.39,3-2.22.34-.31.74.02.94.43-.35.78-1.2,1.33-1.12,2.32.63-.73,1.53-1.26,1.66-2.33h0c.91-.63,1.82-1.27,2.15-2.41h0c.82-.46,1.46-1.14,2.17-1.73,1.57-1.27,3.18-2.46,5.14-3.2,1.82-.69,3.68-1.13,5.57-1.51.05-.43.16-.88.13-1.3-.03-.39-.31-.85.21-1.04.45-.17.99-.19,1.43.05.48.27.43.73.25,1.18-.12.31-.2.6.13.83.59.98,1.72,1.1,2.6,1.59,1.72.95,2.87,2.43,3.17,4.24.64,3.91-.68,7.35-3.26,10.31-3.32,3.8-7.58,6.09-12.37,7.47-2.4.69-4.87.97-7.32,1.35-.97,0-1.95-.02-2.91-.02-1.74,0-1.97.22-1.88,1.99.03.6.2,1.19.31,1.79.05-.05.11-.08.16-.13.02-.03.02-.08.03-.13v.02Zm24.99-23.69c.6-.86.14-2.04-1.12-2.58-1.92-.82-3.94-1.11-6.02-.74-3.87.69-7,2.68-9.86,5.29-4.75,4.35-7.27,9.8-8.26,16.06-.11.72-.02,1.31.95,1.4,2.59.22,5.12-.24,7.48-1.13,5.23-1.98,9.88-4.93,13.53-9.26,1.58-1.87,3.22-3.72,3.53-6.31v-.18c.31-.34.25-.51-.22-.52,0-.68-.02-1.36-.02-2.04h0Z"/>
        <path class="cls-1" d="m97.16,3.01c.2-.85.71-.6,1.17-.3.39.25.63.29.7-.25h0c.69-.05,1.32-.07,1.51.86.14.69.02,1.1-.73,1-.93-.12-1.17.47-1.28,1.16-.11.69-.29.89-1.11.84-1.08-.05-2.19.21-3.3.17-.44-.02-.93.07-1-.58,1.35-.82,3.05-.52,4.52-1.33-.59-.35-1.1-.31-1.55-.19-2.11.55-4.21.95-6.2,2.04-2.94,1.64-5.76,3.42-8.42,5.48-.86.66-.89,1.27-.43,2,.67,1.11,1.22,2.25,1.58,3.49.07.25.11.58.46.55.47-.05.32-.44.35-.73.55-.08,1.05.14,1.56.26,1.09.25,1.34.99.98,1.91-.43,1.08-.47,2.07-.06,3.2.29.82-.06,1.79.09,2.72.09.6-.71.47-1.17.5-.02-.36-.03-.71-.05-1.07.31-2.01-.72-3.82-.72-5.97-1.11.98,0,1.91-.31,2.75-.92-.06-1.84-.11-2.43.81-.42-2.26-.66-4.56-1.62-6.7-.55-1.24-.99-1.4-1.91-.43-2.29,2.46-4.71,4.8-6.62,7.59-.63.92-1.32,1.75-2.12,2.52-.66-.35-.21-1-.12-1.27.44-1.43-.53-1.93-1.44-2.5-.22-.14-.48-.21-.72-.31.33-.36.66-.72.99-1.08,2.66-2.88,5.73-5.32,8.83-7.71.68-.53.95-1.07.46-1.8-1.71-2.57-4.03-4.5-6.7-5.94-1.86-1-3.83-1.85-5.82-2.63,1.82-.09,3.42.69,4.99,1.37,3.47,1.5,6.45,3.73,8.95,6.57.6.68,1.2.6,1.76.2,1.11-.82,2.34-1.4,3.56-2.04,4.15-2.2,8.43-4.02,13.14-4.67.33-.05.53-.14.24-.49h0Z"/>
        <path class="cls-1" d="m97.16,3.01c.29.34.09.44-.24.49-4.7.65-8.98,2.46-13.14,4.67-1.21.64-2.44,1.23-3.56,2.04-.56.4-1.16.48-1.76-.2-2.5-2.84-5.48-5.08-8.95-6.57-1.57-.68-3.17-1.46-4.99-1.37,1.99.79,3.96,1.63,5.82,2.63,2.68,1.43,4.99,3.36,6.7,5.94.49.73.22,1.27-.46,1.8-3.1,2.39-6.16,4.82-8.83,7.71-.34.36-.66.72-.99,1.08-.31.22-.76.33-.79.82-.58.26-.79.83-1.09,1.32-.49.23-.85.59-1.08,1.08-.37.27-.74.53-.79,1.05-.48.07-.76.34-.82.82-.66.24-.9.89-1.31,1.36-.8.24-.96,1.03-1.37,1.61-1.95,2.33-3.91,4.66-5.87,7-.09.17-.19.34-.28.51-1.3,1.06-2.33,2.35-3.23,3.75-.34.2-.76.32-.79.82-2.69,3.12-5.39,6.24-8.07,9.36-.82.24-1.06.95-1.38,1.62-.75.2-1.14.81-1.56,1.37-.09.08-.19.16-.28.24-.45.45-.9.9-1.35,1.35-.18.18-.35.36-.52.53-.49.84-1.8.96-1.88,2.16h-.02c-1.37.31-2.11,1.53-3.17,2.29-1.62,1.17-3.26,2.3-4.98,3.3-1.53.9-3,.08-4.36-.38-2.82-.96-5.71-1.54-8.64-1.97-2.91-.42-5.75-.2-8.52.82-1.14.41-2.25.79-2.98,1.87-.4.6-.87.76-.88-.27,1.29-1.36,2.92-2.24,4.68-2.6,2.74-.57,5.55-.72,8.35-.37.4.05.8.02,1.2.02h0c.06.05.12.18.18.18,3.17.08,6,1.49,8.98,2.32.37.1.69.16,1.02-.02,2.14-1.14,4.23-2.35,6-4.02.14-.13.14-.4.2-.6h0c1.36,0,1.91-1.23,2.71-1.95,2.49-2.27,4.82-4.71,7.16-7.15,1.25-1.3,2.4-2.69,3.58-4.06.33-.38.58-.83.4-1.34-.24-.68.14-.77.65-.8h0c.02.21.03.52.34.4.27-.1.53-.33.72-.56,1.82-2.25,3.63-4.51,5.44-6.77.26-.28.53-.56.79-.85.68-.34.82-1.14,1.37-1.6.47-.53,1.02-.97,1.32-1.63.45-.53.91-1.08,1.36-1.61.18-.18.36-.35.53-.53.3-.43.75-.76.78-1.34h0c1.11-.47,1.54-1.54,2.18-2.43.98-.63,1.7-1.48,2.37-2.41,4.01-4.19,7.83-8.57,12.81-11.68.72-.46.79-.76.33-1.24h0c-.87-1.85-2.36-3.21-3.98-4.32-3-2.04-6.28-3.36-9.91-4.12-4.06-.84-8.1-.54-12.15-.7.92-1.03,2.23-.72,3.3-.72,2.6.02,5.22.11,7.81.5.89.13,1.77.57,2.91.35-.26-.21-.34-.31-.44-.34-.53-.17-1.44-.23-1.3-.82.15-.63.89.18,1.39.02.18.07.37.13.56.2,1.49.17,2.85.77,4.29,1.14,1.95.85,3.83,1.79,5.6,3.01,1.48,1.01,2.81,2.15,3.97,3.47.72.82,1.37,1.18,2.34.46,1.72-1.28,3.72-2.11,5.58-3.17,1.16-.46,2.32-.91,3.47-1.37.27-.08.53-.18.8-.26,1.16-.37,2.33-.73,3.49-1.09.38,0,.78.07,1.1-.21.36-.09.77.05,1.08-.27.38-.09.72.06,1.05.23h0Z"/>
        <path class="cls-1" d="m45.87,1.13c-1.92.76-4.01.83-5.97,1.5-3.81,1.3-7.47,2.85-10.87,5.01-4.06,2.59-7.55,5.77-10.45,9.6-1.27,1.69-2.01,3.65-3.01,5.49-.19.36-.29,1.08-.83.81-.52-.27.21-.63.25-1,.03-.34.2-.68.31-1.02.51-.4.47-1.03.67-1.56.43-1.11,1.27-1.95,1.91-2.92,3.35-5.17,8.27-8.52,13.41-11.6,1.52-.91,3.11-1.73,4.84-2.33,2.24-.76,4.54-1.33,6.72-2.29.84-.37,2-.02,3.01,0,0,.1,0,.21.02.31h0Z"/>
        <path class="cls-1" d="m18.46,23.94c-.1-.75.43-1.21.75-1.79,2.62-4.64,6.07-8.57,10.32-11.75,3.01-2.26,6.13-4.36,9.67-5.82,2.43-1,4.82-1.98,7.39-2.56.19-.05,1.37.78.92-.54.42-.12.7-.02.77.46-.08.65-.61.7-1.09.77-3.15.4-6.01,1.65-8.83,3.04-3.51,1.74-6.85,3.75-9.72,6.41-2.75,2.56-5.55,5.09-7.57,8.35-.83,1.34-1.47,2.82-2.59,3.97l.02.02c0-.18-.02-.36-.02-.54h0Z"/>
        <path class="cls-1" d="m92.32,40.82c.72-.18,1.37-.72,2.17-.47,0,.16-.02.31-.02.47-3.48.94-6.88,2.07-9.96,4.01-.61.02-1.05.3-1.34.83-1.55,1.02-3.01,2.15-4.31,3.48-.25.07-.5.43-.76.02.32-1.5,1.32-2.68,1.9-4.05,1.43-3.36,3.3-6.59,3.26-10.41.29-.07.43-.24.47-.54.1-1.16.2-2.33.3-3.49.51-.86.12-1.82.26-2.72.16,0,.32,0,.48-.02.02.1.03.19.05.29,0,.45,0,.89-.02,1.34,0,.81,0,1.62-.02,2.42-.26,1.25-.52,2.5-.78,3.75-.26.98-.52,1.97-.77,2.95-.02.45-.04.89-.06,1.34-.02.08-.02.16-.02.24-1.3,1.56-1.52,3.65-2.58,5.34-.06.1,0,.4.11.47.26.17.55-.02.72-.18,1.09-1.01,2.53-1.47,3.69-2.34.28-.05.6,0,.79-.3,1.23-.89,2.82-.98,4.04-1.88.8-.19,1.59-.38,2.4-.57h0Zm-12.44,6.29s0,.08.02.09c.03.02.08.02.11.02,0-.05-.02-.11-.03-.15-.03.02-.07.03-.1.04h0Z"/>
        <path class="cls-1" d="m45.08,100.97c2.66,4.19,6.54,6.48,11.38,7.28.4.07.78.21,1.17.27.81.14,1.2.51,1.14,1.43-.2,3.33.6,6.52,1.46,9.7.29,1.05.66,2.24,2,2.57.05.03.11.07.16.1l-.1-.15c-1.01-1.75-1.36-3.77-2.15-5.61-.27-.63.2-.52.52-.59.43.38.63.72.61,1.43-.05,1.33.71,2.53,1.4,3.65.35.57.89,1.05.55,1.79-.2.44-.63.46-1.05.4-.86-.11-1.53-.59-1.75-1.4-.47-1.69-1.5-3.17-1.68-4.98-.07-.72-.52-1.41-.28-2.2-.1-.72.31-1.48-.2-2.16,0-.31-.02-.63-.02-.94-.04-2.34-.08-2.14-2.29-2.62-4.62-1.03-8.74-3.01-11.28-7.32-.11-.18-.08-.43-.12-.65.11,0,.23,0,.34-.02h.21s-.02,0-.02,0Z"/>
        <path class="cls-1" d="m64.41,108.76c2.46-.38,4.92-.66,7.32-1.35,4.79-1.38,9.05-3.67,12.37-7.47,2.58-2.95,3.9-6.39,3.26-10.31-.3-1.82-1.44-3.29-3.17-4.24-.89-.49-2.01-.61-2.6-1.59.53.1,1.07.2,1.6.29.8.45,1.59.91,2.4,1.36.26.4.57.72,1.08.8.13.52.29,1.02.8,1.32.34.85.67,1.72.59,2.67.27.72.25,1.43,0,2.15-.02.69-.05,1.38-.06,2.08-.49.18-.64.46-.28.9,0,.34.02.66.03,1-.21-.1-.4-.6-.64,0-.31.72-.66,1.43-.99,2.15-.3.2-.51.47-.54.84-.47.35-.95.7-1.08,1.34-.48.24-.84.6-1.06,1.09-.33.2-.76.3-.79.79-.69.13-1.06.74-1.59,1.1-.89.63-1.79,1.22-2.75,1.74-.79.43-1.86.53-2.36,1.46-1.63.22-3.14.86-4.66,1.39-2.24.77-4.52.83-6.84.82,0-.11-.02-.21-.02-.31h0Z"/>
        <path class="cls-1" d="m84.27,74.41c-.54-1.18-1.79-.98-2.72-1.31-1.16-.41-2.41-.59-3.64-.76-1.09-.16-1.43-.92-1.68-1.8-.04-.13,0-.27-.04-.4-.39-2.08-.38-2.17,1.68-1.88,2.94.41,5.89.14,8.83.23.47.02.93,0,1.4.17-1.05.55-2.22.5-3.3.46-2.45-.11-4.91.06-7.35-.33-.87-.14-1.09.18-.75,1.08.43,1.13.94,1.83,2.3,2,1.6.2,3.15.79,4.72,1.21.26.1.52.19.78.29,1.36.79,2.56,1.75,3.23,3.23-.09.43-.18.86-.27,1.3-.8.85-2.03.73-2.95,1.3-.24,0-.47.02-.72.02-.02-.08-.03-.15-.04-.23-.11-.24-.32-.27-.55-.26-1.21-.21-2.36-.63-3.49-1.11-.72-.37-1.43-.72-2.15-1.09-.67-.84-1.87-1.17-2.21-2.31.11-.02.22-.05.33-.07,1,.27,1.54,1.16,2.33,1.72,2.14,1.51,4.52,2.17,7.09,2.28.56.02,1.2.02,1.32-.78h0c.32,0,.5-.14.52-.47.03-.38-.13-.6-.52-.61h0c.02-.3.06-.62-.27-.81h0c-.34-.87-1.07-1.05-1.88-1.07h.02Z"/>
        <path class="cls-1" d="m66.54,71.99c.56.08,1.16-.19,2.01.34-1.19.24-2.15.44-3.08.64-5.09,1.09-9.65,3.33-13.63,6.6-1.79,1.47-3.4,3.23-4.58,5.3-.11.26-.21.52-.32.79-.93,1.01-1.17,2.37-1.83,3.51-.2.53-.39,1.07-.59,1.61-.14.27-.27.53-.42.8h-.34c-.08-1.29.63-2.34,1.06-3.47.21-.53.53-1.01.52-1.61.47-.22.57-.69.79-1.09.3-.82,1.28-1.32,1.09-2.37.08-.02.17-.03.25-.03.36,0,.52-.21.57-.54,1.58-1.72,3.14-3.47,5.07-4.84.51-.07.74-.51,1.08-.81.18-.16.37-.33.54-.49.44-.02.85-.11,1.08-.55,1.54-.69,3.14-1.27,4.59-2.17.64-.09,1.27-.23,1.85-.53,1.29-.24,2.61-.37,3.76-1.08.18,0,.35-.02.53-.02h0Z"/>
        <path class="cls-1" d="m100.9,66.83c-1.47.61-3.16.46-4.59,1.3-.33.2-1.05.23-1.11-.33-.08-.62.58-.31.92-.4,1.87-.51,3.75-.95,5.6-1.59,2.61-.92,5.11-2.01,7.47-3.43,3.46-2.08,6.65-4.43,7.97-8.51.29-.89.53-.99.98-.68-.24.6-.37,1.2-.34,1.84-.58.72-1.05,1.51-1.36,2.39-.78.14-.82.75-.82,1.37-.9.07-1.43.64-1.85,1.37h0c-.94.45-1.66,1.19-2.41,1.87-.64.1-1,.57-1.36,1.05-1.87.82-3.74,1.64-5.62,2.46-1.05.76-2.39.74-3.51,1.3h.02Z"/>
        <path class="cls-1" d="m56.61,14c.41-.18.06-.82.66-.98.33.99-.22,1.85-.5,2.64-.92,2.62-2.47,4.9-4.16,7.1-1.79,2.34-3.78,4.5-6,6.4-2.02,1.72-4.19,3.28-6.33,4.86-.36.27-.86.5-1.39.37,0-.18,0-.35.02-.53.72-.31,1.5-.54,1.9-1.32.89-.18,1.46-.85,2.13-1.38.58-.29,1.23-.51,1.37-1.27,1.3-.65,2.37-1.56,3.25-2.71.61-.16.95-.64,1.3-1.11.47-.19.58-.67.81-1.05,1.91-1.27,2.88-3.32,4.13-5.13,1.02-1.47,1.91-3.04,2.32-4.84.08,0,.17-.02.25-.04.07-.08.14-.15.21-.23.02-.27.04-.54.05-.82h-.02Z"/>
        <path class="cls-1" d="m58.75,106.35c.13,1.05-.29,1.56-1.37,1.28-2.69-.69-5.17-1.69-6.96-4.05-1.55-2.04-2.16-4.23-1.81-6.71.2-1.41-.09-2.91.72-4.22.11-.43.23-.87.34-1.3.75-.86,1.04-1.98,1.61-2.94.31-.2.52-.45.53-.84.67-.48.69-1.72,1.87-1.63-.1.34-.21.69-.31,1.04-1.78,2.26-3.24,4.66-3.78,7.55-.5,1.21-.56,2.49-.5,3.77.09,1.52.18,3.04,1.58,4.04.02.18.02.35.04.53.82,1,1.49,2.19,2.93,2.43h0c1.28,1.41,3.82,1.96,4.84,1.05h.27,0Z"/>
        <path class="cls-1" d="m55.46,67.11c-1.67-.02-3.17.79-4.8,1-.4.05-.77.21-1.4-.16.96-.29,1.74-.6,2.55-.76,3.05-.64,5.94-1.73,8.72-3.13.6-.31,1.29-.24,1.92.1,2.72,1.44,5.6,2.45,8.64,2.98.39.07.66.25.81.61.48,1.18,1.24,2.34,1.33,3.56.07.96-1.02.58-1.88.41,1.58-.22,1.34-.87.68-1.71-.24-.3-.31-.73-.45-1.11-.29-.76-.74-1.18-1.66-1.3-1.08-.13-2.15-.44-3.13-.98-.56-.37-1.2-.34-1.83-.32-1-1.02-2.34-1.9-3.6-1.69-1.34.22-2.75.87-3.97,1.69-.68.18-1.5.03-1.94.79h0Z"/>
        <path class="cls-1" d="m23.55,40.11c3.19.12,6.36.06,9.46-.87,4.59-1.38,8.91-3.25,12.63-6.33.46-.38.93-.69,1.56-.66h0c-.06.89-1.13.89-1.39,1.59-.55.43-1.39.53-1.58,1.37h0c-.57-.06-1.04.2-1.47.53-3.13,2.41-6.91,3.2-10.57,4.34-2.35.73-4.7.76-7.09.73-.57,0-1.17.03-1.55-.56-.02-.05-.02-.09-.03-.14h.02Z"/>
        <path class="cls-1" d="m83.43,17.23c-.03.29.11.69-.35.73-.36.03-.39-.3-.46-.55-.36-1.24-.91-2.39-1.58-3.49-.44-.73-.43-1.34.43-2,2.66-2.06,5.48-3.84,8.42-5.48,1.98-1.11,4.09-1.5,6.2-2.04.45-.11.96-.17,1.55.19-1.47.81-3.17.51-4.52,1.33-.35.11-.71.21-1.06.32-2.49,1.07-4.88,2.29-7,4.01-.56.43-1.43.46-1.64,1.32-.53.04-.78.54-1.2.76-.54.29-.89.74-.53,1.27.52.76.69,1.72,1.45,2.32.1.44.19.88.29,1.32Z"/>
        <path class="cls-1" d="m47.21,32.25c.05-.47.24-.89.59-1.17,4.06-3.17,6.65-7.45,8.92-11.92.97-1.91,1.29-4.12,1.74-6.24.18,0,.36,0,.53-.02-.08.54-.15,1.09-.23,1.63-.15,1.69-.85,3.22-1.36,4.8-.53,1.08-1.07,2.17-1.6,3.24-.31.18-.26.49-.27.77-.72.57-1.25,1.3-1.62,2.14-.53.59-1.1,1.14-1.37,1.91-.67.46-1.34.92-1.36,1.86-.82.31-1.22,1.08-1.84,1.61-.71.46-1.16,1.3-2.12,1.37h-.02Z"/>
        <path class="cls-1" d="m53.65,85.95c.21-1.69,1.71-2.41,2.72-3.44,3.36-3.42,7.39-5.9,11.84-7.64,1.17-.46,2.4-.92,3.7-.98,0,.16,0,.33,0,.49-.18.1-.37.2-.56.31-.98.37-2.15.2-2.97,1.05-1.31.39-2.62.81-3.78,1.58-.18.1-.34.21-.52.31-1.85,1.17-3.85,2.13-5.36,3.79-.7.18-1.08.72-1.41,1.3-.47.05-.5.41-.53.77-.79,0-1.17.57-1.56,1.14-.5.33-.98.68-1.12,1.32l-.5.03.02-.02Z"/>
        <path class="cls-1" d="m21.67,37.69c.09.14.14.36.27.42.29.14.66.23.43.63-.18.31-.49.03-.72-.04-2.87-.79-5.15-3.96-5.34-6.91-.17-2.64.75-4.94,1.63-7.3.18,0,.36-.02.53-.02,0,0,0-.02-.02-.02-.57,2.11-1.29,4.2-1.37,6.42-.06,1.76.49,3.31,1.43,4.76.75,1.14,1.82,1.76,3.13,2.04v.02Z"/>
        <path class="cls-1" d="m21.16,67.56c1.88-.47,3.71-1.07,5.55-1.63,1.34-.41,2.54.56,3.83.84,2.16.47,4.31.96,6.51,1.2.4.05.74.02.51.57-3.21-.03-6.29-.84-9.33-1.76-.62-.19-1.16-.13-1.8.03-1.73.45-3.43,1.11-5.25,1.15,0-.14,0-.27-.02-.4h0Z"/>
        <path class="cls-1" d="m1.34,66.57c2.79,2.08,6.03,1.98,9.27,1.91.66-.02,1.33.02,2,.03.38.4.9.14,1.34.26-.12.43-.44.57-.82.43-1.47-.52-2.88.39-4.33.08.47.56,1.12.1,1.59.4-1.51.72-2.54-.92-3.96-.81-1.82.14-3.41-.77-5.1-1.26-.02-.32-.05-.64-.08-.96,0,0,.09-.09.09-.09Z"/>
        <path class="cls-1" d="m68.97,87.58c2.01-1.3,4.01-2.62,6.43-3.05.12-.02.2-.26.31-.4,1.24-.1,2.48-.5,3.72-.06-1.89.37-3.75.82-5.57,1.51-1.95.73-3.56,1.92-5.14,3.2-.72.58-1.35,1.27-2.17,1.72-.11-.41.13-.72.29-1.06.48-.42,1.12-.67,1.36-1.34.39.02.6-.23.77-.53h0Z"/>
        <path class="cls-1" d="m51.24.01c1.62.77,3.23-.1,4.84,0,1.69.11,3.37.21,5.05.32.03.44.07.77-.62.61-2.02-.47-4.1-.03-6.15-.34-1.34-.21-2.7.24-4.07,0-.42-.08-.9.11-1.25-.28.67-.53,1.46-.14,2.19-.3h0Z"/>
        <path class="cls-1" d="m38.89,34.4c-.07.69-.72.72-1.14.99-2.21,1.41-4.61,2.42-7.13,3.16-.43.12-.77.08-1.14-.11.26-.16.5-.39.79-.47,2.51-.73,4.86-1.81,7.1-3.15.44-.26.96-.46,1.51-.41h0Z"/>
        <path class="cls-1" d="m17.98,38.41c-1.65-1.24-3.08-2.64-3.86-4.61-.05-.12-.29-.17-.44-.25.09-.26.18-.51.27-.77.08,0,.18,0,.26,0,.78,1.29,1.59,2.54,2.67,3.63.56.57,1.17,1.04,1.79,1.51.4.31.76.6.89,1.1,0,.06.02.11.02.18-.38.04-.72-.05-1.04-.27-.05-.32-.23-.5-.55-.53h0Z"/>
        <path class="cls-1" d="m115.45,43.77c1.08.22,1.33,1.35,2.09,1.92.02.27.03.53.05.8.93,1.86,1.12,3.79.47,5.84.27-3.15-.85-5.82-2.63-8.28,0-.09.02-.18.03-.28h0Z"/>
        <path class="cls-1" d="m43.76,91.58h.34c-.04,1.1-.14,2.2-.11,3.3.04,1.73-.34,3.54.76,5.12.05.32.08.65.13.97-.11,0-.23,0-.34.02-1.1-.9-1.14-2.23-.97-3.38.29-1.89-.11-3.66-.37-5.48h0c.49.14.51-.23.58-.54h0Z"/>
        <path class="cls-1" d="m14.21,32.79c-.09,0-.18,0-.26,0-.8-1.96-.87-3.94-.05-5.91.15.02.31.05.46.06-.32,1.95-.15,3.91-.14,5.86Z"/>
        <path class="cls-1" d="m60.63,98.02c.47-.21.15-.89.63-1.09.56-.24.3-1.17,1.32-1.28-.99,2.1-1.92,4.06-2.85,6.02-.33-1.12.51-1.88.62-2.84.33-.19.25-.51.27-.8h0Z"/>
        <path class="cls-1" d="m64.41,108.76c0,.11.02.21.02.31l-.02.08c-.21-.02-.41-.03-.55.17-.31,0-.62-.02-.93-.02-1.96,0-2.9.99-2.83,2.96,0,.05,0,.1-.03.13-.05.05-.11.09-.16.13-.11-.6-.27-1.19-.31-1.79-.09-1.77.14-1.99,1.88-1.99.97,0,1.95.02,2.91.02h0Z"/>
        <path class="cls-1" d="m57.72,9.51c.96-.33,1.31.14,1.31,1.02,0,.79-.03,1.58-.05,2.37-.18,0-.36,0-.53.02v-2.82c-.67.72-.87,1.49-.82,2.32-.47,0-.4-.34-.48-.56.07-.81.19-1.6.56-2.34h0Z"/>
        <path class="cls-1" d="m27.32,39.19c-.97.02-1.94.06-2.91.05-.36,0-.93.18-.82-.56.94,0,1.88.02,2.82.03.37,0,.85-.14.92.48h0Z"/>
        <path class="cls-1" d="m14.35,26.93c-.15-.02-.31-.05-.46-.06,0-.08,0-.17-.02-.24.06-.91-.03-1.87.95-2.59.02,1.05-.14,1.98-.48,2.9Z"/>
        <path class="cls-1" d="m21.16,67.56c0,.14,0,.27.02.4-1.3.59-2.68.5-4.04.54,1.26-.66,2.66-.73,4.04-.95h0Z"/>
        <path class="cls-1" d="m45.87,1.13c0-.1,0-.21-.02-.31.92-.58,1.91-.73,2.97-.52-.84.79-1.91.73-2.95.82Z"/>
        <path class="cls-1" d="m66.54,90.51c-.34,1.14-1.24,1.78-2.15,2.42.11-.35.21-.7.31-1.05.46-.37.94-.72,1.07-1.34.26,0,.51-.02.77-.02Z"/>
        <path class="cls-1" d="m84.75,27.94c-.16,0-.32,0-.48.02-.02-.18-.05-.35-.08-.53v-2.42c.03-.18.06-.35.09-.52.16.08.32.18.49.26.02.36.03.71.05,1.07-.02.71-.05,1.42-.08,2.12h0Z"/>
        <path class="cls-1" d="m64.4,92.92c-.12,1.07-1.02,1.6-1.66,2.33-.08-.99.77-1.54,1.12-2.32h.54,0Z"/>
        <path class="cls-1" d="m13.95,68.79c-.44-.12-.95.14-1.34-.26,1.26.12,2.51-.4,3.78-.02-.77.44-1.63.2-2.44.29h0Z"/>
        <path class="cls-1" d="m40.18,68.78c1.63-.56,3.25-.53,4.88-.02-1.63,0-3.25,0-4.88.02Z"/>
        <path class="cls-1" d="m58.24,112.52c.51.68.1,1.44.2,2.16-.61-.67-.66-1.39-.2-2.16Z"/>
        <path class="cls-1" d="m20.9,40.02c0-.08,0-.15-.04-.22.23-.04.47-.04.57-.31.36.1.72.21,1.08.31,0,.18-.02.35-.03.53-.52-.14-1.03-.37-1.59-.31Z"/>
        <path class="cls-1" d="m87.71,95.37c-.36-.44-.21-.72.28-.9.04.34.09.69-.28.9Z"/>
        <path class="cls-1" d="m22.5,40.33c0-.18.02-.35.03-.53.34.11.69.21,1.03.31,0,.05.02.1.03.14-.37.02-.72.05-1.09.07Z"/>
        <path class="cls-1" d="m56.08,11.31c.04-.19.03-.43.32-.4.03,0,.08.05.08.08.02.3-.21.29-.4.32h0Z"/>
        <path class="cls-1" d="m43.19,92.12c-.16-.21-.23-.43-.13-.84.05.37.09.61.13.85h0Z"/>
        <path class="cls-1" d="m63.86,109.31c.14-.2.34-.19.55-.17-.11.31-.23.56-.55.17Z"/>
        <path class="cls-1" d="m59.22,16.43c-.05.06-.11.11-.15.18-.04-.05-.08-.11-.11-.17,0-.02.06-.09.08-.09.06.02.12.05.18.08Z"/>
        <path class="cls-1" d="m14.99,60.71c.06-.06.13-.11.19-.18.02.04.05.08.07.11-.08.02-.18.04-.26.05h0Z"/>
        <path class="cls-1" d="m55.65,25.38c-.02-.08-.03-.11-.05-.15.03,0,.07-.02.1-.03-.02.05-.03.1-.05.18h0Z"/>
        <path class="cls-1" d="m59.83,8.9s.05-.08.06-.11c-.02.04-.04.08-.06.11h0Z"/>
        <path class="cls-1" d="m99.03,2.46s-.08-.05-.11-.06c.04.02.08.04.11.06h0Z"/>
        <path class="cls-1" d="m47.48,83.01c-.08,0-.17,0-.25.03.06-.24.14-.24.25-.03Z"/>
        <path class="cls-1" d="m56.56,14.82c-.07.08-.14.15-.21.23.07-.08.14-.15.21-.23Z"/>
        <path class="cls-1" d="m31.37,58.56s-.06-.04-.09-.05c.03.02.05.04.08.06h0Z"/>
        <path class="cls-1" d="m45.87,43.27s.04-.07.05-.1c-.02.03-.04.06-.06.09h0Z"/>
        <path class="cls-1" d="m83.46,38.7s.04-.08.06-.11c-.02.04-.04.08-.06.11h0Z"/>
        <path class="cls-1" d="m76.21,11.05l-.05.09s.04-.06.05-.08h0Z"/>
        <path class="cls-1" d="m44.26,35.21s.07.04.1.05c-.03-.02-.06-.04-.09-.06h0Z"/>
        <path class="cls-1" d="m39.9,52.35c.32-.66.56-1.38,1.38-1.62.15.34.54.27.78.45.85.64,1.15.18,1.11-.62-.08-1.36.53-1.67,1.99-1.08-.71-1.43-.31-2.16.99-2.17,1.01,0,1.36-.5,1.32-1.39-.02-.54.24-.89.71-.98.99-.19,1.04-1.01,1.15-1.72.09-.61.02-1.24.02-1.86.02-.5.45-.63.79-.82.75.32,1.27.21,1.37-.72.06-.55.19-1.01.9-1.13,1.45-.24,1.5-.37.96-1.9.09-.17.19-.34.28-.51.8-.16,2.14,1.05,2.31-.45.17-1.43,1.5-.92,1.91-1.69.06-.11.08-.27.05-.39-.43-1.44.06-1.97,1.53-1.57.3.08.63,0,.6-.32-.07-.87.53-1.9-.53-2.57.4-.58.56-1.37,1.37-1.61.4.18.92.54,1.2.08.21-.37.66-.92.12-1.43.06-.48.34-.76.82-.82.39.43.92.5,1.24.09.35-.44.07-.9-.45-1.14.23-.5.59-.85,1.08-1.08.52.24,1.14.6,1.53.02.25-.38.43-1.13-.43-1.34.03-.5.47-.6.79-.82.24.1.51.16.72.31.91.57,1.88,1.07,1.44,2.5-.08.28-.53.93.12,1.27-.1.35-.26.66-.56.89-.87-.63-1.48-.41-1.67.62-.11.58-.42.84-.89,1.03-1.82.74-2.08,1.66-.99,3.37-.07.48-.49.72-.74,1.08-.6-.16-1.14.13-1.7.23-.04-.02-.08-.04-.11-.06.04.02.08.04.11.06.09,1.17-.11,2.01-1.63,1.92-.8-.05-.89.61-.66,1.25.27.79-.07,1.09-.81,1.12-.45.02-1.05-.03-1.1.51-.09,1.01-.48,2.03,0,3.04-.18.28-.37.56-.56.85-1.26-.67-1.59-.54-1.76.68-.06.49-.34.79-.78.98-1.65.72-1.86,1.25-1.25,3.09-.16.13-.32.26-.48.38-1.15-.95-1.29-.95-1.72.31-.18.54-.56.64-1.03.63-.78-.02-1.33.31-1.35,1.13-.02.85-.48,1.06-1.21,1.02-.6-.03-1.07,0-.81.89.26.86-.34,1.3-1.1,1.24-1.39-.11-1.26.73-1.16,1.62.03.31.41.63,0,.95-1.43-.91-1.62-.83-2.23.86-.07.19-.23.5-.37.5-1.98.13-1.63,1.63-1.73,2.88-.06.04-.11.03-.16-.02-.58-.12-1.17-.48-1.69.19-.4.52.13.79.27,1.17-.55.34-1.1.68-1.65,1.01-.79-.85-1.82-.5-2.75-.5-.48,0-.5.47-.46.81.18,1.25-.86,1.11-1.47,1.14-.66.05-.68-.67-.68-1.2,0-.82.4-1.02,1.21-.91.78.11,1.19-.91.89-2.07h.02c2.53.07,2.82-.27,1.88-2.16.18-.18.35-.36.52-.53.41.36.66,1.12,1.45.54.47-.34.57-.75.34-1.24-.11-.23-.29-.43-.43-.65.09-.08.19-.16.28-.24.3.08.58.19.89.24.54.1,1.17.06,1.42-.43.32-.62-.31-.89-.74-1.18v.02Z"/>
        <path class="cls-1" d="m37.55,60.71c.55-.34,1.1-.68,1.65-1.01.52-.4,1.24-.59,1.42-1.36.05.05.11.06.16.02,1.38-.82,2.67-1.75,3.78-2.91.36-.1.65-.27.79-.64,2.08-1.84,4.08-3.76,5.92-5.85.76-.85,1.75-1.5,2.2-2.6.16-.13.32-.26.48-.38,1.27-1.59,2.53-3.17,3.79-4.75.18-.28.37-.56.56-.85.16-.14.37-.24.49-.41,1.82-2.55,3.62-5.11,5.42-7.67.24-.36.66-.6.74-1.08,1.13-1.71,2.56-3.21,3.55-5.02.3-.23.46-.54.56-.89.8-.76,1.5-1.6,2.12-2.52,1.9-2.79,4.33-5.13,6.62-7.59.92-.98,1.36-.81,1.91.43.95,2.13,1.2,4.43,1.62,6.7.38,3.66.36,7.32-.08,10.98-.6,3.58-1.53,7.06-3.11,10.34-.82,1.72-1.69,3.41-2.54,5.12-.65.53-.98,1.27-1.39,1.97-1.96,2.4-4.08,4.65-6.39,6.72-1.56,1.4-3.23,2.63-4.99,3.75-.34.21-.69.43-1.12.31,1.14-1.46,2.88-2.14,4.26-3.29,2.69-2.22,5.15-4.63,7.23-7.45,2.47-3.35,4.34-7,5.79-10.89.96-2.59,1.37-5.29,1.75-8.02.68-4.8.17-9.51-.95-14.18-.06-.26-.12-.52-.21-.77-.54-1.48-1.01-1.63-2.07-.47-2.12,2.33-4.19,4.71-6.14,7.2-1.71,2.17-3.2,4.49-4.85,6.68-2.86,3.8-5.52,7.75-8.35,11.57-3.03,4.07-6.32,7.97-10.07,11.36-5.72,5.17-8.39,7.61-17.2,11.88.36.14.6.26.87.33.26.07.54.05.79.12,3.59,1.07,7.28,1.06,10.98,1.08,3.85.02,7.45-1.1,11.09-2.04.39-.1.76-.25,1.17-.18-1.01.92-2.35,1.25-3.59,1.54-3.87.9-7.79,1.59-11.79,1.38-3.11-.16-6.19-.72-9.22-1.4-.5-.11-1.2-.21-1.29-.81-.11-.67.65-.57,1.03-.79,2.17-1.28,4.6-2.08,6.6-3.66h0Z"/>
        <path class="cls-1" d="m112.72,42.72c.1.44.49.63.81.85,3.46,2.38,3.43,5.65,2.53,8.77-1.01,3.52-3.6,5.85-6.47,7.9-4.94,3.52-10.61,5.2-16.45,6.37-4.43.89-8.91,1.17-13.43,1.02-1.11-.04-2.22-.18-3.33-.23-1.06-.05-1.05-.78-1.02-1.52.11-3.16,1.24-6,2.81-8.68,2.38-4.07,5.45-7.57,9.22-10.38,4.19-3.13,8.77-5.49,14.1-5.89,3.59-.27,7.17-.15,10.48,1.59.23.12.5.14.76.21h0Zm-30.62,24.39c3.22.06,6.37-.39,9.54-.92,3.61-.6,7.13-1.43,10.54-2.78,5.07-2,9.67-4.65,12.57-9.46,1.39-2.31,1.89-4.93.53-7.51-1.39-2.66-3.91-3.91-6.62-4.5-4.75-1.05-9.38-.59-13.94,1.43-3.99,1.76-7.48,4.09-10.49,7.21-2.54,2.62-4.78,5.44-6.4,8.77-.97,1.99-1.73,3.97-1.9,6.19-.06.8.26,1.07.98,1.26,1.72.46,3.46.31,5.19.34h0Z"/>
        <path class="cls-1" d="m44.87,100.97c-.05-.32-.08-.65-.13-.97.23-.4.41-.82.31-1.27-.4-1.87.23-3.74-.02-5.59-.11-.79.62-1.79-.52-2.36.2-.53.39-1.07.59-1.61,1.67.73,2.1.44,2.11-1.46,0-.69.13-1.41-.27-2.05.11-.26.21-.53.32-.79.46,0,.69.35.98.62.26.24.53.58.92.34.31-.18.49-.53.35-.92-.35-1.05.44-.88.96-.82.92.1,1.47,1.29,1.01,2.06-.34.57.02.98.31,1.41,0,.39-.23.64-.53.84-.49-.57-1.05-.74-1.75-.38-.38.2-.56.6-.39.87.47.77.25,1.66.53,2.45-.11.43-.23.87-.34,1.3-1.69-.24-2.18.32-2.04,2.04.08,1.08-.1,2.18.18,3.27.14.53,0,1.11.43,1.62.28.32.18.78-.4.86-.07-.09.12-.37-.2-.28.07.09.14.19.2.28-.6,1.06-1.61.31-2.4.53h-.11s-.11,0-.11,0l.02.02Z"/>
        <path class="cls-1" d="m74.21,50.73c.4-.69.74-1.44,1.39-1.97.64,1.36,1.64.45,2.5.4.27.4.51.05.76-.02.8-.18,1.91.92,2.4-.35.48-1.25,1.29-1.6,2.47-1.51.04.26.05.53.13.79.18.56-.33,1.31-.4,1.29-2.02-.5-1.75,2.45-3.54,2.32-.49-.04-.59.67-.44,1.09.31.88-.11,1.04-.82.95-.92-.11-1.4.05-1.14,1.18.16.7,0,1.48-.05,2.23-.04.63-.53.63-.98.62-.47,0-.95.11-1.08-.64-.31-1.68-.26-3.36-.25-5.05,0-.69-.08-1.26-.94-1.33v.02Z"/>
        <path class="cls-1" d="m6.41,67.15c-1.14.12-2.2-.26-3.27-.57-.56-.17-1.02-.5-1.07-1.22-.05-.69.31-1.08.82-1.4,1.43-.9,3.09-.91,4.66-1.01,4.75-.32,9.42.18,14.02,1.46.36.1.91-.03.92.55,0,.42-.43.5-.76.64-2.01.92-4.18,1.13-6.31,1.56-2.44.48-4.9.17-7.38.08,4.57-.3,9.16-.5,13.68-2.24-5-1.34-9.87-1.85-14.82-1.55-1.14.07-2.26.5-3.37.79-.5.13-.9.43-.92,1.01-.02.58.46.72.88.85.75.23,1.43.69,2.27.55.35-.05.61.1.62.51l.02-.02v.02Z"/>
        <path class="cls-1" d="m70.67,66.34c-2.61-.43-4.88-1.51-7.17-2.48-.79-.34-.59-.95.05-1.3,2.31-1.27,4.43-2.8,6.43-4.5,1.05-.89,2.01-1.88,3.01-2.82.23-.21.47-.53.79-.34.38.23.07.57-.05.82-1.49,2.98-2.07,6.16-2.13,9.48-.02.95-.29,1.21-.94,1.16v-.02Zm-7.12-3.08c1.08.5,1.91.92,2.78,1.25.87.34,1.78.6,2.68.85,1.74.49,2.11.27,2.08-1.5-.02-1.59.29-3.1.74-4.59.25-.82.47-1.64.74-2.65-2.89,2.47-5.68,4.75-9.03,6.65h0Z"/>
        <path class="cls-1" d="m58.49,62.06c-.21-.04-.5,0-.63-.11-2.59-2.27-4.99-4.69-6.2-8.02-.11-.28-.15-.6-.17-.91-.02-.47.05-.95.6-1.05.47-.08.94.14,1.14.55,1.16,2.46,2.51,4.79,4.46,6.73.07.07,0,.25,0,.38-1.91-1.01-2.78-2.88-3.81-4.61-.37-.6-.7-1.23-1.05-1.85-.14-.24-.29-.53-.6-.37-.3.16-.11.47-.03.72.89,2.58,2.53,4.64,4.39,6.56.63.66,1.57,1.02,1.9,1.97h0Z"/>
        <path class="cls-1" d="m115.45,43.77c0,.09-.02.18-.03.28-1-.24-1.43-1.63-2.69-1.32h0c-.13-.85-.9-.9-1.49-1.09-4.52-1.48-9.12-2.18-13.86-1.15-.95.21-1.94.24-2.91.36,0-.16.02-.31.02-.47.99-.43,2.08-.53,3.12-.56,3.8-.08,7.63-.41,11.38.55,2.42.62,4.75,1.45,6.46,3.41h0Z"/>
        <path class="cls-1" d="m86.42,77.35c-2.29.48-4.26-.24-6.03-1.63-.53-.4-1.03-.84-1.53-1.28-.19-.17-.44-.35-.36-.66.11-.37.43-.42.75-.43,1.12-.06,2.2,0,3.25.51.55.27,1.18.37,1.78.55h0c.51.56,1,1.16,1.88,1.08h0c-.03.31-.05.62.27.81h0v1.08h0l-.02-.02Zm-6.82-3.55c.08.75.63.94.98,1.2,1.34.98,2.65,2.09,4.46,2.07.25,0,.57.1.71-.21.13-.31-.14-.49-.33-.66-1.63-1.53-3.68-1.93-5.81-2.4h0Z"/>
        <path class="cls-1" d="m83.17,45.67c.29-.53.73-.82,1.34-.83.16.36.43.54.82.57.5.04.71.4.7.82-.02.42-.26.72-.75.79-.53.08-1.01.34-1.57.26.02-.61-.02-1.2-.55-1.62Z"/>
        <path class="cls-1" d="m55.8,64.47c.27-.92,1.18-.81,1.82-1.07.69-.27,1.03-.61.85-1.35.43,0,.86.15.95.55.11.46-.38.61-.71.83-.89.6-1.84,1.01-2.93,1.04h0Z"/>
        <path class="cls-1" d="m75.35,74.2c-1.15-.24-2.29-.07-3.42.16,0-.16,0-.33,0-.49.95-.6,2.05-.17,3.07-.39.31-.07.66.22.69.65-.11.02-.22.05-.33.07h0Z"/>
        <path class="cls-1" d="m57.69,59.64c1.3.42,2.21,1.34,2.98,2.43-1.27-.47-2.4-1.11-2.98-2.43Z"/>
        <path class="cls-1" d="m1.25,66.66c-1.25-.3-.39-1.08-.31-1.69.13.53.27,1.06.4,1.59l-.09.09Z"/>
        <path class="cls-1" d="m61.16,61.51h.55c0,.26-.18.37-.39.41-.03,0-.11-.27-.16-.41Z"/>
        <path class="cls-1" d="m6.39,67.16s.08.07.11.1c-.02,0-.05,0-.07-.02s-.02-.06-.03-.09c0,0-.02.02-.02.02Z"/>
        <path class="cls-1" d="m21.45,39.5c-.1.27-.35.27-.57.31-.5-.05-.89-.33-1.3-.6,0-.06,0-.12-.02-.18.72-.23,1.3.14,1.89.47h0Z"/>
        <path class="cls-1" d="m18.49,24.47c-.18,0-.36.02-.53.02,0-.34.15-.54.51-.56,0,.18.02.36.02.54h0Z"/>
        <path class="cls-1" d="m64.39,1.08c-.18-.07-.37-.13-.56-.2.36-.43.49-.21.56.2Z"/>
        <path class="cls-1" d="m60.69,104.76c-.25.53-.24,1.11-.31,1.66-.11.89.3,1.09,1.06.94h.27c.18,0,.36,0,.53.02.81-.02,1.61-.02,2.42-.04,4.44-1.23,8.57-3.11,12.2-5.97,2.13-1.68,4.02-3.57,5.66-5.78.85-1.15,1.6-2.3,2.07-3.64.14-.4.38-.58.76-.66-.31,2.59-1.96,4.44-3.53,6.31-3.65,4.33-8.3,7.28-13.53,9.26-2.37.89-4.89,1.35-7.48,1.13-.98-.08-1.07-.66-.95-1.4.99-6.26,3.52-11.7,8.26-16.06,2.85-2.62,5.99-4.61,9.86-5.29,2.08-.37,4.1-.08,6.02.74,1.26.54,1.72,1.72,1.12,2.58-.76-2-2.27-2.8-4.34-2.91-3.57-.18-6.59,1.21-9.48,3.11-2.96,1.95-5.25,4.59-7.08,7.53-1.23,1.96-2.76,3.96-2.56,6.55-.02.09,0,.18.03.26,0,0,0-.02,0-.02-1.3-.02-.5,1.21-.99,1.67h0Z"/>
        <path class="cls-1" d="m58.75,106.35h-.27c.21-1.28.42-2.57.63-3.85.27,1.34.1,2.61-.35,3.85Z"/>
        <path class="cls-1" d="m85.34,91.12c-.08-.18-.14-.34-.22-.52.47,0,.53.18.22.52Z"/>
        <path class="cls-1" d="m81.25,33.3c.43-3.65.46-7.32.08-10.98.6-.92,1.51-.87,2.43-.81.09.71.18,1.42.27,2.13-.42.51-.59.99.17,1.36v2.42c-.95,1.03-.45,2.14-.18,3.25-.1,1.16-.2,2.33-.3,3.49-.02.3-.18.47-.47.54-.94-.08-1.22-1.1-2.01-1.4Z"/>
        <path class="cls-1" d="m84.04,23.65c-.09-.71-.18-1.42-.27-2.13.31-.83-.79-1.76.31-2.75-.02,2.15,1.03,3.97.72,5.97-.16-.08-.32-.18-.49-.26-.05-.29.04-.63-.26-.84h0Z"/>
        <path class="cls-1" d="m49.35,41.37c0,.63.08,1.26-.02,1.86-.11.72-.16,1.53-1.15,1.72-.47.09-.73.43-.71.98.04.89-.31,1.39-1.32,1.39-1.3,0-1.7.74-.99,2.17-1.46-.58-2.07-.27-1.99,1.08.05.8-.26,1.26-1.11.62-.24-.18-.63-.12-.78-.45,2.69-3.12,5.39-6.24,8.07-9.36h0Z"/>
        <path class="cls-1" d="m59.52,29.29c1.05.67.46,1.69.53,2.57.02.32-.31.4-.6.32-1.46-.4-1.96.13-1.53,1.57.04.11,0,.28-.05.39-.4.78-1.74.27-1.91,1.69-.18,1.5-1.52.29-2.31.45,1.95-2.33,3.91-4.66,5.87-7h0Z"/>
        <path class="cls-1" d="m53.37,36.8c.54,1.53.5,1.66-.96,1.9-.7.11-.83.58-.9,1.13-.11.92-.62,1.04-1.37.72.9-1.4,1.93-2.69,3.23-3.75h0Z"/>
        <path class="cls-1" d="m36.18,55.85c.95,1.88.66,2.23-1.88,2.16.08-1.2,1.39-1.32,1.88-2.16Z"/>
        <path class="cls-1" d="m39.9,52.35c.43.29,1.05.56.74,1.18-.25.49-.87.53-1.42.43-.3-.05-.59-.16-.89-.24.43-.56.82-1.17,1.56-1.37Z"/>
        <path class="cls-1" d="m38.05,53.96c.14.21.32.42.43.65.24.5.14.89-.34,1.24-.79.58-1.04-.18-1.45-.54.45-.45.9-.9,1.35-1.35h0Z"/>
        <path class="cls-1" d="m65.99,22.05c.87.21.69.96.43,1.34-.38.58-1.01.22-1.53-.02.31-.49.51-1.06,1.09-1.32Z"/>
        <path class="cls-1" d="m62.2,26.32c.53.52.09,1.07-.12,1.43-.27.47-.79.1-1.2-.08.41-.47.66-1.12,1.31-1.36h0Z"/>
        <path class="cls-1" d="m63.81,24.45c.51.24.79.7.45,1.14-.32.4-.85.34-1.24-.09.05-.51.43-.78.79-1.05h0Z"/>
        <path class="cls-1" d="m81.25,33.3c.79.3,1.07,1.32,2.01,1.4.04,3.82-1.82,7.05-3.26,10.41-.59,1.37-1.58,2.56-1.9,4.05-.86.05-1.86.96-2.5-.4.85-1.71,1.72-3.4,2.54-5.12,1.57-3.28,2.5-6.77,3.11-10.34h0Z"/>
        <path class="cls-1" d="m83.17,45.67c.54.42.57,1.01.55,1.62-1.18-.09-1.99.25-2.47,1.51-.48,1.26-1.59.18-2.4.35,1.3-1.32,2.76-2.46,4.31-3.48h0Z"/>
        <path class="cls-1" d="m84.02,30.68c-.27-1.1-.76-2.21.18-3.25.02.18.05.35.08.53-.14.9.25,1.85-.26,2.72h0Z"/>
        <path class="cls-1" d="m79.88,47.11s.07-.03.1-.04c0,.05.02.11.03.15-.04,0-.08,0-.11-.02-.02-.02-.02-.06-.02-.09h0Z"/>
        <path class="cls-1" d="m62.28,122.16l.1.15c-.05-.03-.11-.07-.16-.1l.05-.05h0Z"/>
        <path class="cls-1" d="m86.15,75.48c-.89.09-1.37-.52-1.88-1.08.82.03,1.56.2,1.88,1.08Z"/>
        <path class="cls-1" d="m86.41,77.36v-1.08c.39.02.55.23.52.61-.02.33-.21.47-.52.47Z"/>
        <path class="cls-1" d="m86.42,76.29c-.33-.19-.3-.5-.27-.82.34.19.29.5.27.82Z"/>
        <path class="cls-1" d="m83.75,78.97c-.22-.02-.43-.05-.55-.26.23,0,.44.02.55.26Z"/>
        <path class="cls-1" d="m44.52,90.77c1.14.56.42,1.57.52,2.36.24,1.85-.38,3.72.02,5.59.1.45-.08.88-.31,1.27-1.09-1.58-.72-3.39-.76-5.12-.02-1.1.07-2.2.11-3.3.14-.27.28-.53.42-.8h0Z"/>
        <path class="cls-1" d="m46.94,85.66c.4.64.27,1.36.27,2.05,0,1.89-.43,2.19-2.11,1.46.66-1.14.9-2.51,1.83-3.51Z"/>
        <path class="cls-1" d="m49.66,91.35c-.28-.79-.07-1.68-.53-2.45-.17-.28,0-.68.39-.87.7-.36,1.27-.19,1.75.38-.57.96-.85,2.08-1.61,2.94h0Z"/>
        <path class="cls-1" d="m84.04,23.65c.3.21.21.55.26.84-.03.18-.06.35-.09.52-.76-.37-.59-.85-.17-1.36Z"/>
        <path class="cls-1" d="m53.48,46.35c-.45,1.11-1.45,1.75-2.2,2.6-1.84,2.09-3.84,4.01-5.92,5.85-.44,0-.85.02-.79.64-1.11,1.17-2.4,2.1-3.78,2.91.1-1.24-.24-2.75,1.73-2.88.14,0,.3-.31.37-.5.61-1.69.8-1.77,2.23-.86.4-.32.02-.63,0-.95-.1-.88-.23-1.72,1.16-1.62.76.06,1.35-.37,1.1-1.24-.26-.87.21-.91.81-.89.73.03,1.19-.18,1.21-1.02.02-.82.57-1.14,1.35-1.13.47,0,.85-.09,1.03-.63.43-1.25.57-1.27,1.72-.31h0Z"/>
        <path class="cls-1" d="m64.22,32.29c-1.8,2.56-3.61,5.11-5.42,7.67-.12.17-.32.27-.49.41-.48-1.01-.1-2.04,0-3.04.05-.54.65-.5,1.1-.51.74-.02,1.08-.34.81-1.12-.23-.64-.14-1.3.66-1.25,1.52.1,1.72-.74,1.63-1.92h0c.56-.1,1.11-.39,1.7-.23Z"/>
        <path class="cls-1" d="m68.51,26.2c-.99,1.81-2.42,3.31-3.55,5.02-1.09-1.72-.82-2.63.99-3.37.47-.19.78-.45.89-1.03.19-1.03.8-1.25,1.67-.62Z"/>
        <path class="cls-1" d="m57.75,41.21c-1.27,1.59-2.53,3.17-3.79,4.75-.61-1.84-.4-2.37,1.25-3.09.43-.19.72-.5.78-.98.16-1.22.5-1.35,1.76-.68Z"/>
        <path class="cls-1" d="m40.62,58.34c-.18.77-.9.95-1.42,1.36-.14-.37-.66-.65-.27-1.17.51-.67,1.11-.31,1.69-.19Z"/>
        <path class="cls-1" d="m62.51,32.52s-.08-.04-.11-.06c.04.02.08.04.11.06h0Z"/>
        <path class="cls-1" d="m44.56,55.44c-.06-.62.35-.65.79-.64-.14.37-.43.55-.79.64Z"/>
        <path class="cls-1" d="m47.48,100.44c-.07-.09-.14-.19-.2-.28.32-.09.13.19.2.28h0Z"/>
        <path class="cls-1" d="m79.6,73.81c2.13.47,4.19.86,5.81,2.4.18.18.46.35.33.66-.14.31-.46.21-.71.21-1.81.02-3.11-1.08-4.46-2.07-.35-.26-.9-.45-.98-1.2h0Z"/>
        <path class="cls-1" d="m60.69,104.76c.5-.46-.32-1.69.99-1.67,0,.43.03.88.03,1.32,0,.3.08.66-.29.8-.39.14-.49-.28-.72-.44h0Z"/>
        <path class="cls-1" d="m64.67,107.34c-.81.02-1.61.02-2.42.04.66-1.08,1.47-1.09,2.42-.04Z"/>
        <path class="cls-1" d="m84.17,90.05c-.08.03-.17.1-.22.08s-.06-.14-.09-.21c.08-.03.17-.1.22-.08s.06.14.09.21Z"/>
        <path class="cls-1" d="m61.71,107.37h-.27v-.84c.4.28.21.6.27.84Z"/>
        <path class="cls-1" d="m65.54,106.47c-.08.05-.14.11-.21.11s-.14-.06-.2-.1c.07-.04.13-.11.2-.11s.14.06.21.1h0Z"/>
        <path class="cls-1" d="m61.68,103.1c-.04-.08-.05-.17-.03-.26.17.07.31.14.03.26Z"/>
      </g>
    </g>
  </g>
</svg>