<?xml version="1.0" encoding="UTF-8"?>
<svg id="Layer_2" data-name="Layer 2" xmlns="http://www.w3.org/2000/svg" viewBox="0 0 500.33 67.74">
  <defs>
    <style>
      .cls-1 {
        fill: #fff;
        stroke-width: 0px;
      }
    </style>
  </defs>
  <g id="Layer_1-2" data-name="Layer 1">
    <g id="Layer_1-2" data-name="Layer 1-2">
      <g>
        <path class="cls-1" d="m132.2,67.72c.02-.18.06-.35.06-.53,0-8.62,0-17.25-.02-25.88,0-.51.11-.91.51-1.26.36-.31.68-.67,1.02-1,2.91-2.92,5.82-5.85,8.73-8.76.87-.87.55-.72,1.7-.72h30.7c1.24,0,1.11.14,1.11-1.09V3.32c0-1.08-.08-.97.95-.98h9.07c.21,0,.42,0,.63.01.17,0,.28.1.29.27.01.2.01.42.01.63v63.85c0,.21,0,.42.01.63h-10.96v-25.96c0-.27-.01-.54-.01-.81,0-.22-.12-.33-.33-.33-.54-.01-1.08-.03-1.62-.03h-29.6c-.33,0-.65.01-.98.03-.13,0-.23.1-.23.23-.02.27-.02.54-.02.81v24.62c0,.48-.03.96-.05,1.43h-10.96Z"/>
        <path class="cls-1" d="m.21,67.72c-.1-.13,0-.21.08-.29.52-.54,1.03-1.08,1.56-1.61,2.76-2.77,5.53-5.54,8.3-8.3.13-.13.26-.25.38-.38.19-.22.43-.3.72-.29.42.01.84,0,1.26,0h9.42c2.38,0,4.7-.37,6.96-1.13,1.82-.61,3.52-1.5,5.1-2.59,5.04-3.48,8.21-8.25,9.27-14.25,1.16-6.56-.47-12.49-4.74-17.64-2.23-2.69-5-4.69-8.15-6.16-1.33-.62-2.76-.97-4.19-1.28-1.59-.33-3.19-.46-4.81-.46-3.38,0-6.76,0-10.14.02-.29,0-.52-.09-.72-.29-.5-.52-1-1.03-1.5-1.54C6.18,8.71,3.36,5.9.56,3.08c-.12-.12-.24-.27-.35-.4,0-.1,0-.21.01-.31.36,0,.72-.03,1.08-.03,6.82,0,13.65-.01,20.47,0,4.61,0,9.01.98,13.22,2.87,3.81,1.71,7.18,4.04,10.09,7.03,4.18,4.31,7.1,9.35,8.57,15.18.54,2.15.83,4.34.85,6.56,0,.74,0,1.49,0,2.24-.05,3.8-.81,7.46-2.29,10.97-1.5,3.58-3.53,6.84-6.11,9.75-2.56,2.9-5.59,5.21-9,7.02-2.92,1.55-5.99,2.69-9.24,3.32-.47.09-.94.18-1.41.27-.29,0-.59.01-.88.02-.29,0-.59-.01-.89-.01-.15,0-.29.04-.39.17H.21Z"/>
        <path class="cls-1" d="m357.74,67.72c-.02-.57-.05-1.13-.05-1.7V15.24c0-.48,0-.96,0-1.43,0-.33-.09-.4-.44-.42-.48-.01-.96-.02-1.43-.02h-18.22c-.55,0-1.13.11-1.66-.14-.14-.53-.06-1.06-.06-1.6,0-2.72,0-5.43,0-8.15v-.63c.01-.43.05-.48.45-.49.33-.01.65-.01.99-.01h52.34c.96,0,.93-.08.93.92v9.31c0,.18,0,.36-.01.54-.01.17-.14.26-.3.27-.21.01-.42,0-.63,0-6.7,0-13.41-.01-20.11-.01q-.78,0-.79.78v52.31c0,.35,0,.72.01,1.07,0,.06-.02.12-.03.19h-10.98Z"/>
        <path class="cls-1" d="m487.76,67.72c.05-.3-.18-.5-.31-.72-2.97-5.14-5.96-10.28-8.94-15.43-1.54-2.66-3.08-5.32-4.63-7.98-.54-.92-.85-1.9-.84-2.97.05-3.12,2.61-5.53,5.48-5.51.9,0,1.79-.12,2.67-.29,3.39-.69,7.16-3.96,8.06-7.89.9-3.96.06-7.45-2.9-10.35-.75-.74-1.58-1.36-2.49-1.89-1.62-.94-3.38-1.32-5.24-1.32-7,0-14.01,0-21.01.01-.6,0-1.01-.18-1.41-.6-.44-.46-.82-.94-1.14-1.49-1.55-2.69-3.12-5.37-4.68-8.06-.12-.2-.24-.42-.33-.63-.05-.13.02-.23.16-.25.21-.01.42-.01.63-.01,9.34,0,18.67-.01,28.01,0,3.06,0,6,.59,8.79,1.86,3.13,1.43,5.75,3.51,7.94,6.15,2.19,2.64,3.71,5.62,4.43,8.99.09.42.14.83.13,1.24v1.95c0,.16.05.29.17.39v2.51c-.12.15-.13.32-.13.5-.01.55-.03,1.11-.04,1.66v.54c-.15,1.28-.53,2.5-.98,3.71-.83,2.2-2.05,4.18-3.51,6.01-2.14,2.69-4.73,4.8-7.89,6.21-.14.06-.27.12-.41.18-.16.08-.22.2-.14.35.05.11.12.21.17.31,1.77,3.08,3.55,6.16,5.31,9.24,2.54,4.46,5.08,8.92,7.61,13.39v.17c-.21,0-.42,0-.63,0h-11.94.01Z"/>
        <path class="cls-1" d="m318.96,67.72c.1-.2.06-.41.06-.61,0-3.17,0-6.33-.01-9.49v-.35c.01-.31.08-.38.35-.41.21-.02.42-.01.63-.04,2.56-.25,4.65-1.36,6.02-3.57,2.02-3.27,1.79-6.99-.89-9.91-1.22-1.32-2.7-2.26-4.51-2.59-.68-.12-1.36-.16-2.05-.16-5.42,0-10.83.05-16.24,0-5.5-.05-10.1-2.2-13.78-6.26-2.54-2.8-4.16-6.05-4.69-9.79-.89-6.23.74-11.7,5.14-16.29,1.67-1.75,3.55-3.19,5.76-4.2,1.86-.86,3.81-1.39,5.86-1.57.63-.05,1.25-.16,1.88-.12.16.01.28.1.29.27s.01.35.01.54v9.4c0,.18,0,.35-.01.54-.01.13-.1.22-.23.24-.2.03-.42.04-.63.05-2.92.13-6.22,2.16-7.14,6.06-.61,2.6-.18,5.05,1.54,7.18,1.62,2,3.73,3.06,6.31,3.06,5.29.02,10.6,0,15.89,0,.54,0,1.08,0,1.62.03,3.94.17,7.49,1.43,10.6,3.88,2.93,2.31,5.15,5.14,6.43,8.66.63,1.72.95,3.5,1.06,5.34.13,1.99-.05,3.94-.5,5.86-.56,2.39-1.62,4.54-3.1,6.5-2.1,2.8-4.7,4.99-7.93,6.39-1.32.57-2.69.99-4.11,1.21-.44-.01-.88-.12-1.28.16h-2.33,0Z"/>
        <path class="cls-1" d="m72.22,67.72c-.1-.26.12-.38.24-.53,1.31-1.71,2.63-3.4,3.94-5.1,1.19-1.54,2.39-3.06,3.55-4.61.36-.49.76-.64,1.35-.64,3.56.02,7.12.01,10.68.01,9.12,0,18.24,0,27.36,0,.31,0,.65-.15.93.12-.04.31-.26.53-.41.78-1.92,3.09-3.84,6.18-5.76,9.28-.14.23-.26.46-.39.7h-41.48,0Z"/>
        <path class="cls-1" d="m399.05,67.72v-.54c0-.19.08-.35.22-.47.09-.08.18-.16.27-.24,3.27-3.02,6.55-6.04,9.81-9.07.42-.38.83-.58,1.43-.58,10.38.02,20.77.01,31.15.01.98,0,.9-.03.9.95,0,3.13,0,6.27,0,9.4,0,.18.03.35.05.53h-43.82Z"/>
        <path class="cls-1" d="m245.15,66.84c-.59.28-1.24.31-1.87.45-.57.13-1.15.19-1.73.29-.48-.04-.96-.03-1.43.14h-4.67c0-.38-.29-.58-.54-.78-.76-.61-1.56-1.19-2.31-1.81-.33-.27-.76-.37-1.05-.68-.33-.35-.75-.58-1.14-.86-.34-.24-.68-.48-1.01-.74-.59-.45-1.15-.96-1.77-1.35-.99-.61-1.9-1.33-2.84-2.01-.63-.46-1.19-1-1.84-1.41-.98-.62-1.9-1.33-2.84-2.01-.62-.46-1.19-1-1.85-1.4-.97-.59-1.84-1.3-2.76-1.96-.65-.46-1.23-1.04-1.92-1.45-.96-.6-1.84-1.32-2.76-1.96-.63-.44-1.21-.96-1.84-1.4-.61-.42-1.21-.85-1.8-1.3-.49-.38-1.08-.62-1.63-.91-.07-.04-.18,0-.27-.01-.31-.51-.44-1.09-.62-1.65-.78-2.44-1.23-4.93-1.44-7.48,0-.05.01-.12.03-.18.47.01.85.26,1.21.52.68.48,1.35.98,2.03,1.47,1.11.81,2.21,1.61,3.32,2.42,1.39,1.02,2.78,2.04,4.18,3.05.82.59,1.64,1.19,2.46,1.78,1.34.98,2.69,1.96,4.04,2.95,1.11.81,2.21,1.61,3.32,2.42,1.39,1.02,2.78,2.04,4.18,3.06.82.59,1.64,1.18,2.46,1.78,1.28.93,2.54,1.86,3.81,2.8,1.2.88,2.4,1.75,3.6,2.63,1.39,1.02,2.79,2.03,4.19,3.04.96.7,1.93,1.39,2.89,2.09.16.12.21.29.22.47h0Z"/>
        <path class="cls-1" d="m205.28,45.69c.09,0,.2-.03.27.01.55.29,1.14.54,1.63.91.59.45,1.19.88,1.8,1.3.63.44,1.21.96,1.84,1.4.93.64,1.8,1.36,2.76,1.96.68.42,1.26,1,1.92,1.45.92.65,1.8,1.36,2.76,1.96.65.4,1.22.94,1.85,1.4.93.68,1.85,1.39,2.84,2.01.65.41,1.22.95,1.84,1.41.93.68,1.85,1.4,2.84,2.01.63.39,1.18.9,1.77,1.35.33.25.67.5,1.01.74.39.27.81.5,1.14.86.29.31.72.4,1.05.68.75.63,1.55,1.2,2.31,1.81.25.2.53.4.54.78h-1.62c-.45-.23-.93-.18-1.42-.16-6.96-.98-13.02-3.87-18.21-8.56-3.83-3.46-6.69-7.61-8.64-12.38-.12-.3-.29-.59-.29-.93h0Z"/>
        <path class="cls-1" d="m71.57,65.06c-.5.69-1.02,1.37-1.52,2.06-.14.18-.35.33-.34.59h-4.49v-10.08c0-.27-.06-.57.03-.8.23-.55.09-1.05-.07-1.56.53-.83,1.17-1.57,1.76-2.34,1.11-1.43,2.21-2.86,3.32-4.29.2-.26.42-.5.63-.74.16.29.26.59.24.93-.01.27-.04.55.04.8.15.44.13.88.13,1.32v12.94c0,.27,0,.53.01.81,0,.16.1.27.23.35h.01Z"/>
        <path class="cls-1" d="m65.19,55.27c.16.51.29,1.02.07,1.56-.1.23-.03.53-.03.8v10.08h-9.7c.41-.55.8-1.11,1.22-1.65,2.63-3.4,5.27-6.8,7.92-10.19.16-.21.35-.4.53-.6h-.01Z"/>
        <path class="cls-1" d="m500.33,22.92c-.12-.1-.17-.24-.17-.39v-1.95c.06,0,.12,0,.18,0v2.33h0Z"/>
        <path class="cls-1" d="m500.16,27.59c.01-.55.03-1.11.04-1.66,0-.18.01-.35.13-.5v2.15c-.05,0-.12,0-.17,0h0Z"/>
        <path class="cls-1" d="m232.42,67.56c.48-.01.96-.08,1.42.16h-1.44c.01-.05.01-.1.02-.16Z"/>
        <path class="cls-1" d="m240.12,67.72c.46-.18.94-.18,1.43-.14,0,.05.01.09,0,.14h-1.44,0Z"/>
        <path class="cls-1" d="m24.27,67.72c.1-.13.24-.17.39-.17.29,0,.59.01.89.01-.01.05-.03.1-.02.16h-1.26Z"/>
        <path class="cls-1" d="m321.29,67.72c.4-.28.84-.17,1.28-.16-.02.05-.02.1-.02.16h-1.26Z"/>
        <path class="cls-1" d="m25.53,67.72c0-.05,0-.1.02-.16.29,0,.59-.01.88-.02-.01.06-.01.12,0,.18h-.9Z"/>
        <path class="cls-1" d="m500.16,27.59c.05-.01.12-.01.17,0v.54h-.16v-.54h0Z"/>
        <path class="cls-1" d="m368.7,67.72c0-.06.02-.12.03-.19l.15.19h-.18,0Z"/>
        <path class="cls-1" d="m399.23,29.73c.33-.01.65-.03.98-.03h42.19c.33.01.4.09.41.44,0,.3,0,.6,0,.89v8.77q0,.81-.76.81c-10.65,0-21.31-.01-31.96-.01-3.47,0-6.94,0-10.41.01-.12,0-.24,0-.35-.01-.18-.01-.25-.13-.27-.29,0-.09,0-.18,0-.27v-9.94c0-.06.01-.12.02-.18.05-.06.11-.13.16-.19h0Z"/>
        <path class="cls-1" d="m103.46,2.67c-.98,1.28-1.95,2.57-2.93,3.84-1.58,2.06-3.18,4.11-4.77,6.16-.09.12-.19.23-.27.35-.16.25-.4.33-.7.32-.57-.01-1.14,0-1.71,0-9.45,0-18.91,0-28.36,0-2.66,0-5.32,0-7.98,0-.57,0-1.13.02-1.71.03-.09,0-.2-.01-.21-.12-.01-.08.02-.17.08-.23,1.04-1.3,2.09-2.61,3.15-3.91,1.67-2.07,3.34-4.13,5.01-6.2q.47-.58,1.18-.58h38.14c.35,0,.72.02,1.07.03,0,.1,0,.2,0,.29h0Z"/>
        <path class="cls-1" d="m399.24,2.38c.33-.01.65-.04.98-.04h41.54c.24,0,.48,0,.72,0,.22,0,.31.14.32.35v9.85c0,.18,0,.36,0,.54-.01.16-.1.28-.28.29-.15.01-.3.01-.45.01-9.9,0-19.8-.01-29.7-.02-.6,0-1.2-.03-1.79,0-.42.02-.73-.12-1.02-.42-1.62-1.64-3.25-3.25-4.89-4.88-1.62-1.62-3.25-3.26-4.87-4.89-.2-.21-.46-.38-.58-.66.03-.04.03-.08.01-.12h.01Z"/>
        <path class="cls-1" d="m270.67,38.88c.03.66-.14,1.3-.27,1.94-.53,2.45-1.26,4.84-2.3,7.12-.52,1.13-1.06,2.26-1.77,3.3-.48.05-.85-.13-1.23-.42-.77-.6-1.58-1.16-2.37-1.73-.79-.58-1.58-1.16-2.37-1.74-1.34-.98-2.68-1.96-4.03-2.94-1.11-.81-2.2-1.6-3.31-2.41-.93-.68-1.86-1.38-2.79-2.06-.83-.61-1.67-1.23-2.51-1.84-.23-.16-.25-.39-.25-.63.63-.01,1.25-.03,1.88-.04.21,0,.42,0,.63-.02.5-.08.72-.33.76-.83,0-.12,0-.24,0-.35v-4.47c0-.18,0-.36-.03-.53-.05-.33-.25-.54-.59-.57-.29-.03-.59-.03-.89-.03h-12.27c-.33,0-.65-.03-.98-.04.03-.38-.19-.61-.48-.78-1.11-.69-2.12-1.52-3.19-2.27-.38-.27-.49-.55-.46-.96.33-.01.65-.03.98-.03h16.2c.27,0,.54.01.81,0,.62-.04.85-.26.91-.87.02-.18.03-.35.05-.53.42,0,.74.2,1.02.48.2.18.38.38.59.54,1.64,1.19,3.29,2.36,4.92,3.55,1.94,1.43,3.86,2.88,5.81,4.3,2.07,1.51,4.17,2.97,6.22,4.5.42.31.81.46,1.3.43v-.05Z"/>
        <path class="cls-1" d="m270.67,38.88c-.5.04-.89-.12-1.3-.43-2.05-1.53-4.15-3-6.22-4.5-1.94-1.42-3.87-2.87-5.81-4.3-1.63-1.19-3.28-2.37-4.92-3.55-.22-.16-.4-.35-.59-.54-.29-.27-.61-.48-1.02-.48-.01-.63-.03-1.25-.04-1.88,0-.92,0-1.85-.01-2.77-.01-.48-.23-.72-.68-.8-.35-.05-.72-.06-1.07-.06h-8.78c-.33,0-.65-.03-.98-.04,0-.31-.18-.5-.42-.65-1.04-.63-1.99-1.4-2.98-2.11-1.08-.78-2.16-1.56-3.24-2.35-1.27-.93-2.54-1.86-3.81-2.79-.98-.72-1.96-1.43-2.95-2.15-1.39-1.01-2.79-2.01-4.18-3.03-.46-.33-.93-.64-1.33-1.04-.2-.2-.33-.42-.3-.71.98-.75,2.12-1.19,3.22-1.7,1.51-.7,3.08-1.23,4.69-1.7.11-.03.23-.03.35-.04.07.5.47.74.82,1.01.81.61,1.63,1.19,2.45,1.79,1.34.98,2.69,1.96,4.03,2.95,1.11.81,2.21,1.61,3.32,2.42,1.39,1.02,2.78,2.03,4.18,3.05.82.59,1.64,1.18,2.46,1.77,1.37,1,2.74,2.01,4.1,3,1.08.79,2.16,1.57,3.25,2.36,1.42,1.03,2.83,2.07,4.25,3.1.82.59,1.64,1.19,2.45,1.78,1.34.98,2.69,1.96,4.03,2.94,1.11.81,2.21,1.61,3.32,2.42,1.06.77,2.13,1.52,3.17,2.31.29.22.58.28.91.26.14,1.04.04,2.07.03,3.11,0,.98-.14,1.95-.24,2.93-.01.14-.08.28-.12.42h0Z"/>
        <path class="cls-1" d="m245.15,66.84c0-.18-.05-.35-.22-.47-.96-.7-1.93-1.39-2.89-2.09-1.4-1.02-2.79-2.03-4.19-3.04-1.2-.87-2.4-1.75-3.6-2.63-1.27-.93-2.54-1.86-3.81-2.8-.82-.59-1.64-1.18-2.46-1.78-1.39-1.02-2.78-2.04-4.18-3.06-1.11-.81-2.21-1.61-3.32-2.42-1.34-.98-2.69-1.96-4.04-2.95-.82-.59-1.64-1.19-2.46-1.78-1.39-1.02-2.79-2.03-4.18-3.05-1.11-.81-2.21-1.61-3.32-2.42-.68-.49-1.34-.99-2.03-1.47-.37-.25-.74-.5-1.21-.52-.01-.03-.03-.05-.03-.08-.17-2.08-.14-4.16.18-6.23.33.03.63.18.89.38.43.31.87.62,1.3.93,1.11.81,2.21,1.61,3.31,2.42,1.27.93,2.54,1.86,3.81,2.78,1.2.87,2.39,1.75,3.6,2.63,1.08.78,2.16,1.57,3.25,2.35.89.65,1.79,1.28,2.66,1.94.35.27.71.43,1.15.4.01.27.04.53.04.8.01.98.02,1.96.03,2.95,0,.67.01.67.72.68h5.92c.3,0,.59.03.89.04.03.45.37.65.68.88.61.43,1.23.83,1.82,1.28.87.67,1.83,1.22,2.64,1.98.28.26.6.5.93.68.96.55,1.82,1.23,2.69,1.9,1.35,1.02,2.74,1.99,4.11,2.98,1.08.79,2.13,1.61,3.23,2.37,1.15.79,2.26,1.64,3.36,2.5.55.44,1.23.76,1.56,1.44-.56.4-1.22.61-1.84.88-1.48.64-3.01,1.12-4.56,1.54-.14.04-.29.03-.44.05h0Z"/>
        <path class="cls-1" d="m271,32.42c-.33.02-.63-.04-.91-.26-1.04-.78-2.12-1.54-3.17-2.31-1.11-.81-2.21-1.61-3.32-2.42-1.34-.98-2.69-1.96-4.03-2.94-.82-.59-1.64-1.19-2.45-1.78-1.42-1.04-2.83-2.07-4.25-3.1-1.08-.79-2.16-1.57-3.25-2.36-1.37-1-2.74-2.01-4.1-3-.82-.59-1.64-1.18-2.46-1.77-1.39-1.02-2.78-2.03-4.18-3.05-1.11-.81-2.21-1.61-3.32-2.42-1.34-.98-2.69-1.96-4.03-2.95-.82-.59-1.64-1.17-2.45-1.79-.35-.27-.75-.5-.82-1.01.83-.33,1.71-.46,2.59-.63,1.26-.24,2.52-.44,3.79-.48.15,0,.29.01.44.02,0,.27.15.45.34.6.25.2.51.42.79.57,1.02.56,1.9,1.32,2.85,1.99,1.39.98,2.74,1.99,4.11,3,1.08.78,2.16,1.57,3.24,2.36,1.39,1.02,2.78,2.04,4.18,3.05.82.59,1.64,1.18,2.46,1.77,1.34.98,2.69,1.96,4.03,2.95,1.13.83,2.25,1.64,3.38,2.47,1.25.91,2.49,1.83,3.74,2.74,1.54,1.13,3.12,2.18,4.58,3.4.34.29.74.5,1.21.53.32.77.42,1.6.57,2.41.24,1.26.38,2.52.45,3.79.01.2,0,.42-.01.62h0Z"/>
        <path class="cls-1" d="m269.99,25.59c-.47-.01-.87-.24-1.21-.53-1.46-1.22-3.05-2.27-4.58-3.4-1.25-.91-2.49-1.83-3.74-2.74-1.13-.83-2.25-1.65-3.38-2.47-1.34-.98-2.68-1.96-4.03-2.95-.82-.59-1.64-1.18-2.46-1.77-1.39-1.02-2.78-2.03-4.18-3.05-1.08-.79-2.16-1.57-3.24-2.36-1.37-1-2.72-2.01-4.11-3-.94-.67-1.82-1.43-2.85-1.99-.29-.16-.54-.37-.79-.57-.19-.15-.34-.33-.34-.6,1.09-.24,2.2-.16,3.3-.1.95.05,1.9.12,2.85.23,3.25.4,6.38,1.25,9.39,2.54,4.09,1.76,7.67,4.26,10.79,7.4,3.11,3.13,5.48,6.75,7.13,10.84.49,1.21.93,2.45,1.27,3.72.07.26.1.53.16.78h0Z"/>
        <path class="cls-1" d="m204.31,25.24c.11-.74.38-1.43.61-2.14.63-1.92,1.47-3.75,2.44-5.53.11-.2.26-.39.4-.59.21.12.45.19.62.35,1.08.99,2.35,1.71,3.49,2.6.89.69,1.84,1.3,2.72,2.01.4.32.88.5,1.26.85.75.68,1.61,1.21,2.41,1.84.87.68,1.79,1.27,2.67,1.92,1.33.99,2.64,2.02,4.05,2.9.38.24.82.53.8,1.1-.5.02-1.02.02-1.52.05-.5.03-.75.29-.8.79v5.19c.05.48.31.76.81.81.27.03.54.02.81.02h9.6c.33,0,.65.03.98.04-.01.25.03.48.23.65.2.18.38.38.59.54.93.69,1.87,1.37,2.82,2.03.26.18.33.4.31.68-.2.01-.42.04-.62.04h-12.05c-.2,0-.42-.03-.62-.04,0-.23-.14-.38-.29-.54-.44-.5-1.01-.83-1.51-1.24-1.28-1.02-2.75-1.78-3.94-2.92-.06-.06-.16-.09-.23-.14-1.22-.85-2.47-1.66-3.65-2.57-.61-.46-1.25-.89-1.84-1.38-1.2-.98-2.55-1.74-3.72-2.76-.84-.74-1.81-1.35-2.76-1.95-.98-.61-1.75-1.53-2.85-1.98-.16-.06-.28-.22-.4-.35-.22-.25-.5-.29-.81-.3h0Z"/>
        <path class="cls-1" d="m91.73,21.11c.42-.72.98-1.34,1.49-2,2.33-3.02,4.67-6.03,7.01-9.04.73-.94,1.49-1.86,2.23-2.78.23.1.31.27.23.5-.21.61-.18,1.25-.07,1.86.09.48.12.94.12,1.41,0,3.76,0,7.51,0,11.27,0,.67.09,1.3.39,1.9-.1.15-.17.31-.28.45-2.75,3.55-5.49,7.12-8.25,10.66-.63.82-1.3,1.62-1.94,2.44-.12-.03-.27-.04-.28-.18-.08-.59-.24-1.15-.23-1.75.02-4.52.01-9.04,0-13.56,0-.27,0-.53,0-.81-.01-.26-.19-.35-.42-.38h0Z"/>
        <path class="cls-1" d="m225.76,30.55c.02-.57-.42-.86-.8-1.1-1.41-.88-2.72-1.91-4.05-2.9-.88-.65-1.8-1.25-2.67-1.92-.8-.62-1.66-1.15-2.41-1.84-.38-.34-.85-.53-1.26-.85-.87-.71-1.82-1.32-2.72-2.01-1.15-.89-2.42-1.62-3.49-2.6-.17-.16-.41-.23-.62-.35.14-.46.44-.84.7-1.24,1.31-2.03,2.76-3.95,4.54-5.61.01.4.28.67.58.85,1.18.74,2.25,1.64,3.39,2.44.8.56,1.57,1.16,2.37,1.73,1.74,1.23,3.37,2.62,5.23,3.68.27.15.48.35.48.7-.33.04-.65.06-.97.12-.36.08-.55.33-.61.68-.02.12-.01.24-.01.35,0,1.52,0,3.04-.03,4.56-.02.93.36,1.26,1.3,1.25,2.09-.04,4.18-.01,6.27-.01.3,0,.59.03.89.03-.03.41.08.7.46.96,1.06.76,2.07,1.59,3.19,2.27.29.18.52.41.48.78-.2.01-.42.05-.62.05h-9c-.2,0-.42-.03-.62-.04h0Z"/>
        <path class="cls-1" d="m225.04,19.53c0-.34-.23-.55-.48-.7-1.86-1.06-3.49-2.45-5.23-3.68-.8-.57-1.57-1.17-2.37-1.73-1.14-.8-2.21-1.69-3.39-2.44-.3-.19-.56-.45-.58-.85,1.12-1.24,2.4-2.31,3.74-3.31,1.05-.78,2.11-1.56,3.29-2.14-.03.29.1.5.3.71.4.4.87.71,1.33,1.04,1.39,1.02,2.79,2.02,4.18,3.03.99.72,1.97,1.43,2.95,2.15,1.27.93,2.53,1.86,3.81,2.79,1.08.79,2.16,1.58,3.24,2.35.99.71,1.94,1.48,2.98,2.11.24.14.42.34.42.65-.24.01-.47.04-.71.04h-12.77c-.24,0-.47-.03-.71-.04h0Z"/>
        <path class="cls-1" d="m239.58,41.37c.01-.28-.05-.5-.31-.68-.95-.66-1.88-1.34-2.82-2.03-.21-.16-.4-.36-.59-.54-.2-.18-.23-.4-.23-.65.2-.01.42-.03.62-.03h10.61c.2,0,.42.03.62.04,0,.25.01.47.25.63.84.61,1.68,1.22,2.51,1.84.93.68,1.86,1.38,2.79,2.06,1.1.81,2.2,1.61,3.31,2.41,1.34.98,2.68,1.96,4.03,2.94.79.58,1.58,1.16,2.37,1.74.79.58,1.6,1.14,2.37,1.73.38.29.75.47,1.23.42-.03.08-.05.17-.1.25-1.03,1.64-2.12,3.25-3.43,4.69-.1.11-.23.2-.33.29-.62.03-1.06-.37-1.51-.68-1.34-.91-2.59-1.96-3.94-2.87-1.03-.69-1.98-1.51-3-2.21-.42-.29-.74-.68-1.19-.93-.67-.38-1.33-.78-1.74-1.47-.08-.14-.28-.21-.42-.31.03-.23.09-.47.1-.7,0-1.6,0-3.21,0-4.82,0-.09,0-.18,0-.27-.05-.48-.31-.74-.81-.78-.24-.02-.48-.01-.72-.01h-8.66c-.33,0-.65-.03-.98-.04h0Z"/>
        <path class="cls-1" d="m250.65,47.99c.14.1.33.18.42.31.42.7,1.07,1.09,1.74,1.47.44.25.77.63,1.19.93,1.02.7,1.97,1.52,3,2.21,1.36.9,2.6,1.95,3.94,2.87.46.31.89.71,1.51.68-.16.21-.29.44-.48.63-1.55,1.6-3.21,3.08-5.03,4.37-.14.1-.3.18-.46.28-.08-.25-.26-.38-.47-.51-.45-.29-.93-.55-1.32-.91-.64-.59-1.34-1.08-2.05-1.57-.41-.29-.82-.59-1.19-.93-.31-.28-.61-.57-1.04-.66-.18-.04-.33-.14-.45-.27-.56-.59-1.25-1-1.9-1.47-.46-.33-.95-.61-1.34-1.03-.27-.29-.57-.53-.96-.61-.25-.05-.42-.23-.59-.39-.21-.2-.44-.4-.68-.57-.69-.46-1.36-.96-2.02-1.45-.33-.25-.59-.6-.98-.77-.58-.25-1.04-.65-1.5-1.08-.26-.24-.53-.48-.86-.62-.21-.09-.3-.28-.31-.5.29-.01.59-.04.89-.04h5.81c1.34,0,2.68,0,4.02,0,.4,0,.77-.05,1.08-.33v-.02Z"/>
        <path class="cls-1" d="m91.73,21.11c.23.03.4.12.42.38.01.27,0,.53,0,.81,0,4.52,0,9.04,0,13.56,0,.61.16,1.17.23,1.75.02.14.16.15.28.18-.91,1.2-1.84,2.4-2.75,3.6-1.16,1.51-2.32,3.01-3.48,4.51-.18.23-.38.45-.58.67-.16-.03-.3-.09-.31-.26-.02-.27-.02-.54-.02-.81,0-3.79-.01-7.58,0-11.37,0-.84-.08-1.66-.3-2.47-.06-.24-.12-.49-.02-.7.23-.48.1-.93-.04-1.39.47-.76,1.06-1.43,1.61-2.14,1.51-1.96,3.03-3.91,4.54-5.87.13-.16.28-.31.42-.46h0Z"/>
        <path class="cls-1" d="m103.13,24.23c-.3-.6-.4-1.23-.39-1.9.01-3.76,0-7.51,0-11.27,0-.48-.04-.94-.12-1.41-.11-.61-.14-1.24.07-1.86.08-.24-.01-.4-.23-.5.51-.69,1.02-1.38,1.55-2.06.65-.85,1.32-1.69,1.96-2.53.18-.23.37-.36.67-.36,1.04,0,2.07-.1,3.12-.01-.03.57.08,1.14-.07,1.69-.09.33-.12.64-.12.97,0,2.35-.02,4.71.01,7.07,0,.68.14,1.35.24,2.03.02.18.09.34.13.52.05.22.22.26.4.29-.13.2-.25.4-.4.59-2.14,2.77-4.27,5.53-6.41,8.3-.13.16-.28.31-.42.46h0Z"/>
        <path class="cls-1" d="m238.87,48.37c0,.23.1.42.31.5.34.14.6.38.86.62.46.42.92.83,1.5,1.08.4.17.65.53.98.77.67.49,1.34.99,2.02,1.45.25.17.47.36.68.57.17.16.33.33.59.39.39.09.7.33.96.61.39.42.88.7,1.34,1.03.65.47,1.34.89,1.9,1.47.12.13.27.23.45.27.43.1.72.38,1.04.66.38.33.78.64,1.19.93.7.49,1.41.98,2.05,1.57.39.35.87.63,1.32.91.21.13.4.27.47.51-1.4,1.05-2.89,1.94-4.51,2.63-.33-.68-1-1-1.56-1.44-1.1-.86-2.21-1.71-3.36-2.5-1.11-.76-2.16-1.58-3.23-2.37-1.36-1-2.76-1.96-4.11-2.98-.87-.66-1.73-1.35-2.69-1.9-.33-.19-.65-.42-.93-.68-.81-.76-1.77-1.31-2.64-1.98-.59-.45-1.21-.85-1.82-1.28-.31-.23-.65-.44-.68-.88.15-.01.29-.04.44-.04h7.02c.15,0,.29.03.44.04h0Z"/>
        <path class="cls-1" d="m204.31,25.24c.31,0,.59.05.81.3.12.13.25.29.4.35,1.1.45,1.86,1.37,2.85,1.98.96.59,1.92,1.21,2.76,1.95,1.17,1.02,2.52,1.79,3.72,2.76.59.48,1.23.91,1.84,1.38,1.18.9,2.43,1.71,3.65,2.57.08.05.16.08.23.14,1.19,1.14,2.66,1.9,3.94,2.92.51.41,1.08.74,1.51,1.24.14.16.28.31.29.54-.59.01-1.19.02-1.78.04-.81.03-1.07.29-1.11,1.06-.02.47-.03.95-.05,1.42-.44.04-.81-.13-1.15-.4-.87-.66-1.77-1.3-2.66-1.94-1.08-.78-2.17-1.56-3.25-2.35-1.2-.87-2.39-1.75-3.6-2.63-1.27-.93-2.54-1.86-3.81-2.78-1.11-.81-2.2-1.61-3.31-2.42-.43-.31-.87-.62-1.3-.93-.27-.2-.56-.34-.89-.38.14-1.64.41-3.25.92-4.82h0Z"/>
        <path class="cls-1" d="m75.61,41.87c.13-.38.42-.64.65-.94,1.28-1.67,2.58-3.33,3.88-4.99.09-.12.21-.2.31-.31.2.14.2.35.2.56,0,.42-.05.85.05,1.24.12.47.13.94.13,1.41v12.85c0,.38-.05.78.17,1.13-.24.48-.61.87-.94,1.3-1.21,1.58-2.44,3.16-3.66,4.73-.11.14-.24.27-.35.4-.04-.53-.11-1.06-.32-1.56-.12-.29-.1-.59-.1-.88v-12.77c0-.2-.05-.44.03-.62.22-.54.13-1.04-.05-1.56h0Z"/>
        <path class="cls-1" d="m81.01,52.83c-.23-.35-.17-.74-.17-1.13v-12.85c0-.47,0-.94-.13-1.41-.1-.39-.04-.83-.05-1.24,0-.21,0-.42-.2-.56.25-.55.69-.97,1.05-1.44,1.08-1.43,2.19-2.83,3.29-4.24.11-.14.24-.26.36-.39.13.46.27.91.04,1.39-.1.21-.04.46.02.7.22.81.3,1.62.3,2.47-.02,3.79,0,7.58,0,11.37,0,.27,0,.54.02.81.01.17.16.23.31.26-.57.91-1.28,1.71-1.92,2.56-.84,1.11-1.71,2.21-2.56,3.31-.11.14-.24.26-.35.39h0Z"/>
        <path class="cls-1" d="m75.61,41.87c.17.51.27,1.02.05,1.56-.08.18-.03.41-.03.62v12.77c0,.29-.03.59.1.88.21.5.28,1.03.32,1.56-.19.41-.5.74-.78,1.08-1.11,1.45-2.22,2.89-3.34,4.33-.11.14-.25.26-.36.39-.14-.08-.23-.2-.23-.35,0-.27-.01-.53-.01-.81v-12.94c0-.44.02-.89-.13-1.32-.08-.24-.05-.53-.04-.8.01-.34-.08-.64-.24-.93.79-1.04,1.58-2.08,2.37-3.12.61-.81,1.23-1.6,1.86-2.39.14-.18.32-.35.48-.52h-.01Z"/>
        <path class="cls-1" d="m110.35,14.89c-.18-.03-.35-.08-.4-.29-.04-.17-.11-.34-.13-.52-.09-.68-.23-1.35-.24-2.03-.03-2.35-.01-4.71-.01-7.07,0-.33.03-.64.12-.97.15-.55.04-1.13.07-1.69.47-.1.94-.12,1.42-.13,1.69-.03,3.39-.03,5.08-.11,1.25-.05,2.5-.08,3.75-.1.02.12.04.25.06.38-1.47,1.92-2.94,3.84-4.42,5.76-1.64,2.13-3.29,4.26-4.93,6.38-.11.14-.24.26-.36.39h0Z"/>
        <path class="cls-1" d="m103.46,2.67c0-.1,0-.2,0-.29.22.07.22.1,0,.29Z"/>
        <path class="cls-1" d="m.22,2.37c0,.1,0,.21-.01.31-.05-.03-.11-.05-.14-.1-.12-.14-.08-.19.16-.23H.22Z"/>
        <path class="cls-1" d="m120.06,2.35c-.02-.12-.04-.25-.06-.38.28.08.29.12.06.38Z"/>
        <path class="cls-1" d="m399.23,29.73c-.05.06-.11.13-.16.19-.03-.13.02-.2.16-.19Z"/>
        <path class="cls-1" d="m399.24,2.38s.01.08-.01.12c-.04-.03-.12-.06-.12-.08.01-.06.07-.08.13-.04Z"/>
        <path class="cls-1" d="m227.4,21.81c.8,0,1.41.61,1.42,1.41,0,.76-.64,1.43-1.41,1.44-.72.01-1.45-.7-1.43-1.44.01-.7.62-1.45,1.43-1.41h0Z"/>
        <path class="cls-1" d="m227.44,35.63c-.74.01-1.44-.65-1.46-1.4-.02-.74.65-1.43,1.41-1.45.77-.01,1.42.61,1.44,1.39.01.78-.61,1.44-1.39,1.45h0Z"/>
        <path class="cls-1" d="m227.39,46.26c-.78,0-1.43-.65-1.42-1.43.01-.74.72-1.39,1.49-1.37.74.03,1.34.65,1.36,1.4,0,.78-.63,1.41-1.43,1.41Z"/>
      </g>
    </g>
  </g>
</svg>