<?xml version="1.0" encoding="UTF-8"?>
<svg id="Layer_2" data-name="Layer 2" xmlns="http://www.w3.org/2000/svg" viewBox="0 0 433.67 99.16">
  <defs>
    <style>
      .cls-1 {
        fill: #fff;
        stroke-width: 0px;
      }
    </style>
  </defs>
  <g id="Layer_1-2" data-name="Layer 1">
    <g id="Layer_1-2" data-name="Layer 1-2">
      <g>
        <path class="cls-1" d="m85.62,37.05c-2.02,4.68-4.06,9.34-6.08,14.02-.23.53-.46,1.06-.7,1.59h18.18l-11.42-15.61h.01Z"/>
        <path class="cls-1" d="m58.63,0h-14.31c5.15,8.1,10.29,16.22,15.43,24.33l.8-1.1.04-.04.03-.04c1.11-1.45,2.23-2.9,3.34-4.35,1.11-1.45,2.23-2.91,3.35-4.36.13-.18.27-.34.4-.52.1-.14.21-.28.32-.42l.06-.09L58.63,0Z"/>
        <path class="cls-1" d="m97.04,0c-4.78,11.01-9.55,22.03-14.33,33.05-2.36,5.44-4.72,10.87-7.08,16.32-.47,1.1-.95,2.19-1.43,3.29h-29.88l17.88-24.45,1.8-2.45c2.23-2.91,4.45-5.82,6.69-8.71.25-.34.52-.67.77-1.01L82.73,0h14.31Z"/>
        <polygon class="cls-1" points="0 52.66 0 0 36.55 0 36.55 8.69 9.71 8.69 9.71 21.39 34.97 21.39 34.97 30.08 9.71 30.08 9.71 43.97 36.55 43.97 36.55 52.66 0 52.66"/>
        <path class="cls-1" d="m101.12,33.83c0-11.76,7.18-19.58,18.64-19.58,9.79,0,16.61,5.8,18.23,14.88h-9.75c-1.15-4.46-4.02-7.22-8.48-7.22-5.84,0-8.96,4.65-8.96,11.92s3.35,11.96,8.96,11.96c4.3,0,7.35-2.6,8.48-7.22h9.75c-1.69,8.93-8.37,14.88-18.23,14.88-11.53,0-18.64-8.05-18.64-19.62"/>
        <path class="cls-1" d="m153.23,36.87c.75,5.8,3.87,9.12,8.69,9.12,3.16,0,5.56-1.34,7.14-4.02h10.27c-2.64,7.03-8.84,11.49-17.41,11.49-11.48,0-18.23-8.05-18.23-19.62s6.83-19.58,18.23-19.58,18.36,7.81,18.36,19.58c0,1.26-.08,2.17-.15,3.03h-26.89Zm.08-6.9h17.25c-.91-5.37-3.83-8.26-8.65-8.26s-7.7,2.88-8.61,8.26"/>
        <rect class="cls-1" x="187.17" width="9.32" height="52.66"/>
        <rect class="cls-1" x="204.16" width="9.32" height="52.66"/>
        <path class="cls-1" d="m229.92,36.87c.75,5.8,3.87,9.12,8.69,9.12,3.16,0,5.56-1.34,7.14-4.02h10.27c-2.64,7.03-8.84,11.49-17.41,11.49-11.49,0-18.23-8.05-18.23-19.62s6.83-19.58,18.23-19.58,18.36,7.81,18.36,19.58c0,1.26-.08,2.17-.15,3.03h-26.89Zm.08-6.9h17.25c-.91-5.37-3.83-8.26-8.65-8.26s-7.7,2.88-8.61,8.26"/>
        <path class="cls-1" d="m295.53,27.08v25.58h-9.32v-23.53c0-4.86-2.6-7.18-6.51-7.18s-6.51,2.33-6.51,7.18v23.53h-9.32V15.05h9.28v4.43c1.97-3.03,5.88-5.21,10.46-5.21,7.38,0,11.92,5.01,11.92,12.83"/>
        <path class="cls-1" d="m302.45,33.83c0-11.76,7.18-19.58,18.64-19.58,9.79,0,16.61,5.8,18.23,14.88h-9.75c-1.15-4.46-4.02-7.22-8.48-7.22-5.84,0-8.96,4.65-8.96,11.92s3.35,11.96,8.96,11.96c4.3,0,7.35-2.6,8.48-7.22h9.75c-1.69,8.93-8.37,14.88-18.23,14.88-11.53,0-18.64-8.05-18.64-19.62"/>
        <path class="cls-1" d="m345.74,0h9.32v9.19h-9.32V0Zm0,15.05h9.32v37.61h-9.32V15.05Z"/>
        <path class="cls-1" d="m362.33,42.28c0-6.99,5.6-10.54,12.91-11.21l4.34-.39c3.91-.35,6.2-1.1,6.2-4.19s-2.72-4.58-6.2-4.58c-3.91,0-6.36,1.5-7.11,4.61h-9.28c1.02-7.31,7.81-12.28,15.98-12.28,10.42,0,15.94,5.84,15.94,14.29v24.12h-9.08v-4.74c-2.53,4.11-6.64,5.53-10.73,5.53-8.17,0-12.98-4.97-12.98-11.18m23.68-3.35v-4.97c-.78,2.17-2.84,2.96-6.99,3.55l-2.88.39c-3.09.43-4.54,1.86-4.54,4.02,0,2.64,2.53,4.15,6.01,4.15,5.56,0,8.41-3.2,8.41-7.14"/>
        <path class="cls-1" d="m401.24,41.21h8.93c.52,2.92,3.59,4.78,7.74,4.78,3.91,0,6.51-1.34,6.51-4.02,0-1.5-1.02-2.72-3.4-3.24l-8.69-1.93c-7.14-1.62-10.27-5.06-10.27-10.54,0-7.38,6.71-12,14.96-12,8.69,0,15.67,4.89,15.87,12.24h-8.93c-.39-2.96-3.16-4.78-6.94-4.78-3.16,0-5.69,1.34-5.69,3.79,0,1.58.87,2.64,3.31,3.2l8.76,1.93c6.9,1.5,10.27,5.25,10.27,10.77,0,7.38-6.83,12.04-15.79,12.04s-16.35-5.13-16.66-12.24"/>
        <g>
          <path class="cls-1" d="m17.47,89.52c-1.02.53-3.3,1.25-6.21,1.25-6.52,0-10.76-4.43-10.76-11.03s4.55-11.48,11.61-11.48c2.33,0,4.37.58,5.45,1.11l-.9,3.03c-.94-.53-2.41-1.02-4.55-1.02-4.96,0-7.64,3.67-7.64,8.18,0,5.01,3.21,8.08,7.5,8.08,2.24,0,3.7-.58,4.83-1.07,0,0,.67,2.95.67,2.95Z"/>
          <path class="cls-1" d="m68.16,79.33c0,7.99-5.54,11.48-10.76,11.48-5.85,0-10.36-4.29-10.36-11.11,0-7.23,4.73-11.48,10.72-11.48s10.41,4.51,10.41,11.13h-.01Zm-17.14.23c0,4.73,2.72,8.31,6.56,8.31s6.56-3.53,6.56-8.4c0-3.67-1.83-8.31-6.47-8.31s-6.65,4.29-6.65,8.4Z"/>
          <path class="cls-1" d="m99.64,75.44c0-2.54-.04-4.73-.18-6.74h3.44l.14,4.24h.18c.99-2.91,3.35-4.73,5.98-4.73.44,0,.76.05,1.11.14v3.7c-.4-.09-.8-.14-1.34-.14-2.77,0-4.73,2.1-5.27,5.04-.09.53-.18,1.16-.18,1.83v11.52h-3.88s0-14.87,0-14.87Z"/>
          <path class="cls-1" d="m140.79,75.76c0-2.77-.09-5.01-.18-7.06h3.53l.18,3.7h.09c1.61-2.64,4.15-4.2,7.69-4.2,5.22,0,9.15,4.43,9.15,10.99,0,7.78-4.73,11.61-9.82,11.61-2.86,0-5.36-1.25-6.65-3.39h-.09v11.75h-3.88v-23.4h-.01Zm3.88,5.77c0,.58.09,1.11.18,1.61.72,2.72,3.09,4.6,5.89,4.6,4.16,0,6.56-3.39,6.56-8.36,0-4.34-2.28-8.04-6.44-8.04-2.68,0-5.18,1.92-5.94,4.87-.14.49-.27,1.07-.27,1.61v3.7h.01Z"/>
          <path class="cls-1" d="m212.29,79.33c0,7.99-5.54,11.48-10.76,11.48-5.85,0-10.36-4.29-10.36-11.11,0-7.23,4.73-11.48,10.72-11.48s10.41,4.51,10.41,11.13h-.01Zm-17.14.23c0,4.73,2.72,8.31,6.56,8.31s6.56-3.53,6.56-8.4c0-3.67-1.83-8.31-6.47-8.31s-6.65,4.29-6.65,8.4h0Z"/>
          <path class="cls-1" d="m243.78,75.44c0-2.54-.05-4.73-.18-6.74h3.44l.14,4.24h.18c.99-2.91,3.35-4.73,5.98-4.73.44,0,.76.05,1.11.14v3.7c-.4-.09-.81-.14-1.34-.14-2.77,0-4.73,2.1-5.27,5.04-.09.53-.18,1.16-.18,1.83v11.52h-3.88s0-14.87,0-14.87Z"/>
          <path class="cls-1" d="m296.85,90.31l-.32-2.72h-.14c-1.2,1.69-3.53,3.21-6.61,3.21-4.37,0-6.61-3.09-6.61-6.21,0-5.22,4.64-8.08,13-8.04v-.44c0-1.78-.49-5.01-4.92-5.01-2.01,0-4.11.62-5.63,1.61l-.9-2.59c1.78-1.16,4.37-1.92,7.11-1.92,6.61,0,8.22,4.51,8.22,8.84v8.08c0,1.87.09,3.7.35,5.18h-3.58.03Zm-.58-11.03c-4.29-.09-9.15.67-9.15,4.87,0,2.54,1.69,3.76,3.7,3.76,2.82,0,4.6-1.78,5.22-3.62.14-.4.23-.85.23-1.25v-3.76h0Z"/>
          <path class="cls-1" d="m337.66,62.5v6.21h5.63v3h-5.63v11.66c0,2.68.76,4.2,2.95,4.2,1.02,0,1.78-.14,2.28-.27l.18,2.95c-.76.32-1.96.53-3.49.53-1.83,0-3.3-.58-4.24-1.66-1.11-1.16-1.52-3.09-1.52-5.63v-11.78h-3.35v-3h3.35v-5.18l3.84-1.02h0Z"/>
          <path class="cls-1" d="m376.42,80.22c.09,5.32,3.48,7.5,7.41,7.5,2.82,0,4.51-.49,5.98-1.11l.67,2.82c-1.39.62-3.76,1.34-7.19,1.34-6.65,0-10.63-4.37-10.63-10.9s3.84-11.66,10.14-11.66c7.06,0,8.93,6.21,8.93,10.18,0,.8-.09,1.43-.14,1.83h-15.18.03Zm11.52-2.81c.04-2.5-1.02-6.38-5.45-6.38-3.97,0-5.71,3.67-6.03,6.38h11.48Z"/>
        </g>
      </g>
    </g>
  </g>
</svg>