<?xml version="1.0" encoding="UTF-8"?>
<svg id="Layer_2" data-name="Layer 2" xmlns="http://www.w3.org/2000/svg" viewBox="0 0 408.17 145.28">
  <defs>
    <style>
      .cls-1 {
        fill: #fff;
        stroke-width: 0px;
      }
    </style>
  </defs>
  <g id="Layer_1-2" data-name="Layer 1">
    <g id="Calque_1" data-name="Calque 1">
      <g>
        <path class="cls-1" d="m324.75,82.63c1.51-4.45,3.01-8.89,4.54-13.39,1.06.57,2.08,1.11,3.09,1.67,4.14,2.26,8.29,4.54,12.44,6.8,4.45,2.43,8.9,4.85,13.35,7.28,5.73,3.12,11.46,6.22,17.17,9.37,2.7,1.49,5.24,3.23,7.44,5.42,1.26,1.26,2.34,2.65,3.19,4.23.97,1.81,1.18,3.72,1,5.73-.23,2.53-1.35,4.65-2.94,6.56-1.68,2.01-3.75,3.52-5.98,4.88-3.22,1.95-6.76,2.91-10.39,3.64-3.33.68-6.71,1.09-10.1,1.37-3.64.3-7.28.48-10.93.48-19.23,0-38.45-.03-57.68.01-5.94.01-11.21-1.85-15.99-5.26-.12-.08-.24-.17-.38-.28-.67.43-1.31.86-1.98,1.27-2.37,1.45-4.94,2.42-7.62,3.11-.55.14-1.1.25-1.65.39-1.23.33-2.49.3-3.74.3-3.94,0-7.89,0-11.83,0-1.63,0-3.24-.18-4.82-.59-2.68-.71-5.03-1.97-6.88-4.08-.08-.09-.15-.19-.19-.24-.89.59-1.7,1.2-2.57,1.67-1.98,1.08-4.13,1.73-6.33,2.16-2.12.41-4.27.7-6.41,1.03-.29.04-.59.04-.88.04-14.84,0-29.68,0-44.52,0-3.27,0-6.48-.49-9.53-1.75-3.5-1.45-6.25-3.78-8.28-6.97-1.85-2.92-2.86-6.13-3.41-9.52-.33-2.05-.43-4.11-.33-6.18.02-.34,0-.69,0-1.04,0-25.87,0-51.73,0-77.6,0-2.13.13-4.23.6-6.31.94-4.09,2.86-7.62,5.85-10.57,2.49-2.46,5.41-4.25,8.69-5.46.34-.13.72-.14,1.08-.18.22-.03.44,0,.67,0,67.66,0,135.33,0,203,0,1.1,0,2.14.13,3.18.51,3.87,1.42,7.25,3.52,9.81,6.82,1.99,2.56,3.23,5.45,3.75,8.64.15.92.25,1.86.25,2.79.01,23.13,0,46.27,0,69.4,0,.24-.02.48-.04.83-.91-.48-1.72-.92-2.54-1.35-3.29-1.78-6.57-3.58-9.88-5.32-.56-.3-.75-.63-.75-1.25,0-19.71-.02-39.41-.03-59.12,0-1.51-.13-3-.59-4.45-.51-1.6-1.39-2.93-2.95-3.71-.69-.35-1.42-.54-2.2-.56-.47-.01-.94,0-1.41,0-64.51,0-129.02,0-193.53,0-.98,0-1.98.04-2.94.2-3.12.52-5.01,2.43-5.87,5.42-.36,1.26-.46,2.56-.42,3.87.01.39.01.79.01,1.18v77.08c0,1.38.07,2.75.39,4.1.91,3.78,3.75,6.07,7.38,6.4.39.04.79.04,1.18.04h39.34c1.95,0,3.89-.13,5.77-.68,1.21-.35,2.35-.87,3.31-1.72.77-.68,1.22-1.52,1.35-2.55.2-1.54-.16-2.93-.97-4.23-.59-.95-1.33-1.76-2.2-2.47-5.41-4.39-10.82-8.78-16.23-13.17-5.96-4.84-11.93-9.68-17.89-14.52-2.2-1.79-4.41-3.56-6.58-5.37-1.57-1.3-2.88-2.82-3.64-4.76-.72-1.85-.71-3.69-.05-5.55.71-1.99,1.98-3.6,3.42-5.11,1.51-1.58,3.38-2.59,5.31-3.55,5.32-2.67,10.63-5.38,15.93-8.08,5.7-2.9,11.41-5.8,17.11-8.7,5.46-2.77,10.92-5.55,16.39-8.33.92-.47,1.84-.94,2.84-1.45.03.24.08.42.08.6,0,4.88,0,9.75.02,14.63,0,.52-.22.75-.63.95-3.49,1.72-6.97,3.44-10.46,5.16-4.3,2.13-8.6,4.26-12.89,6.4-3.37,1.67-6.75,3.34-10.12,5.02-1.54.77-3.08,1.55-4.57,2.39-.65.37-1.24.89-1.78,1.42-1.66,1.66-1.86,3.65-.63,5.64.51.83,1.15,1.54,1.9,2.15,5.78,4.71,11.56,9.42,17.34,14.14,5.98,4.87,11.96,9.71,17.92,14.61,2.6,2.14,4.7,4.69,6,7.84,1.2,2.9,1.69,5.9,1.09,9.03-.01.07,0,.15,0,.29.22.02.43.04.64.04,4.76,0,9.51,0,14.27,0,1.8,0,3.53-.3,5.14-1.16,2.82-1.5,4.28-3.89,4.3-7.06.04-8.67.02-17.34.02-26.02v-1.11c.29-.03.52-.07.75-.07h14.42c.19,0,.39.03.67.05.01.33.03.64.03.95,0,9.07,0,18.13,0,27.2,0,1.1.17,2.16.64,3.15.71,1.5,1.91,2.49,3.35,3.21,1.93.96,4,1.4,6.14,1.4,18.44.01,36.88.01,55.31,0,3.45,0,6.9-.22,10.27-1.04,1.63-.39,3.21-.88,4.48-2.11,2.05-1.97,2.14-4.07.19-6.13-.79-.83-1.74-1.44-2.73-1.99-4.91-2.72-9.81-5.44-14.72-8.17-3.79-2.1-7.57-4.2-11.36-6.31-2.5-1.38-4.99-2.77-7.49-4.16-.1-.06-.2-.13-.35-.24h0Z"/>
        <path class="cls-1" d="m0,70.39V5.28C0,4.37,0,3.46,0,2.55c0-.55.11-1.08.42-1.55C.82.39,1.38.03,2.13,0c.27,0,.54,0,.81,0,44.79,0,89.58,0,134.37,0,1.7,0,2.86.63,2.86,2.87-.02,44.96-.01,89.92-.02,134.88,0,.46-.04.94-.15,1.38-.17.73-.66,1.21-1.38,1.38-.35.09-.73.12-1.09.16-.17.02-.34,0-.52,0H2.94c-.42,0-.84,0-1.25-.1-1.05-.23-1.56-.84-1.66-1.89-.03-.32-.01-.64-.01-.96v-67.33h-.01Zm63.89-27.54s.03.1.04.15c.16,0,.32.02.47,0,.78-.1,1.56-.24,2.34-.31,3.21-.3,6.39-.19,9.54.56,2.1.5,4.05,1.38,5.99,2.26,3.74,1.7,7.24,3.77,10.46,6.32,6.67,5.29,12.93,11.03,18.87,17.11,4.21,4.31,6.98,9.43,8.34,15.3.68,2.95.82,5.94.71,8.95-.16,4.71-1.35,9.14-3.55,13.29-3.65,6.9-9.08,11.88-16.28,14.9-3.22,1.35-6.59,2.17-10.1,2.3-1.92.07-3.84.01-5.76.01H29.61c-.25,0-.5-.02-.74.01-.23.03-.49.05-.59.36.84.6,1.66,1.18,2.47,1.78,5.75,4.22,12.05,7.34,18.83,9.52,5.65,1.81,11.46,2.83,17.4,3.1,4.84.22,9.66-.08,14.43-.9,4.92-.84,9.68-2.23,14.3-4.13,8.07-3.32,15.23-8.02,21.49-14.1,5.31-5.15,9.62-11.05,13.02-17.63,4.85-9.39,7.31-19.38,7.59-29.93.09-3.33-.16-6.65-.58-9.95-.53-4.13-1.42-8.19-2.71-12.16-.92-2.84-2-5.61-3.26-8.3-.28-.59-.62-.92-1.34-.92-11.41.02-22.82.01-34.23.01-6.19,0-12.37,0-18.56,0-1.8,0-3.6.05-5.38.29-2.45.33-4.84.9-7.15,1.77-.24.09-.46.21-.69.32v.02Zm45.92-27.23c-.2-.23-.28-.35-.38-.43-.38-.28-.77-.54-1.15-.8-5.72-3.99-11.94-6.95-18.61-8.98-5.25-1.59-10.61-2.56-16.1-2.85-3.46-.18-6.9-.11-10.33.25-3.41.35-6.77.98-10.08,1.84-4.81,1.26-9.43,2.98-13.85,5.24-6.79,3.48-12.84,7.97-18.11,13.49-6.46,6.77-11.35,14.53-14.6,23.31-2.31,6.24-3.74,12.68-4.16,19.34-.32,5.01-.12,9.99.68,14.95.63,3.87,1.49,7.68,2.8,11.38.67,1.9,1.44,3.77,2.16,5.65.24.63.69.93,1.37.91h.37c17.33-.01,34.66-.02,51.99-.05,2.56,0,5.13.13,7.67-.28,2.34-.37,4.62-.99,6.82-1.87.14-.06.26-.17.52-.35-.29,0-.41,0-.52,0-1.34.14-2.69.31-4.04.43-2.73.25-5.41-.06-8.06-.71-2.21-.54-4.31-1.39-6.35-2.38-2.62-1.26-5.22-2.59-7.58-4.28-3.97-2.85-7.7-6-11.3-9.29-3.26-2.97-6.36-6.11-9.5-9.2-1.1-1.09-2.17-2.23-3.11-3.46-3.43-4.46-5.52-9.5-6.28-15.09-.49-3.59-.44-7.18.25-10.74.95-4.94,2.94-9.43,6.02-13.42,5.04-6.54,11.62-10.59,19.74-12.13,2.24-.42,4.5-.46,6.78-.46,13.61.02,27.21,0,40.82.01h15.16c.28,0,.55-.03.97-.06h0ZM84.39,1.85c0,.06,0,.13,0,.19.21.06.41.13.62.18,3.07.8,6.16,1.54,9.13,2.66,4.09,1.54,8.04,3.37,11.76,5.66,6.51,4.01,12.24,8.91,17.21,14.74,5.51,6.47,9.67,13.68,12.49,21.69.89,2.53,1.64,5.1,2.24,7.72.05.24.06.52.43.76.04-.48.11-.86.11-1.24,0-2.07-.02-4.14-.02-6.21,0-14.06.01-28.13.02-42.19,0-.88-.03-1.77-.08-2.66-.04-.78-.38-1.16-1.15-1.3-.38-.07-.78-.09-1.17-.09h-50.35c-.41,0-.82.05-1.23.08h0ZM1.9,54.91c.07,0,.14.02.21.03.47-1.69.9-3.39,1.42-5.07.53-1.69,1.1-3.37,1.75-5.02.64-1.65,1.34-3.28,2.11-4.87.75-1.57,1.57-3.12,2.45-4.63.89-1.53,1.84-3.03,2.85-4.49s2.07-2.88,3.19-4.25c1.12-1.38,2.29-2.71,3.51-4,1.21-1.29,2.48-2.54,3.78-3.74,1.3-1.2,2.66-2.35,4.05-3.45,1.39-1.1,2.82-2.15,4.29-3.14,1.47-.99,2.98-1.92,4.52-2.8,1.52-.86,3.08-1.66,4.66-2.39,1.6-.75,3.24-1.43,4.9-2.05,1.66-.62,3.35-1.16,5.05-1.65,1.68-.49,3.39-.89,5.09-1.33,0-.06,0-.13-.02-.19-.5-.03-1-.09-1.51-.09-4.56,0-9.12,0-13.68,0-11.78,0-23.56.02-35.34.04-.69,0-1.38,0-2.07.05-.79.06-1.14.42-1.22,1.21-.03.29-.02.59-.02.88v49.8c0,.38.03.77.04,1.15h0Zm83.85,83.73c0,.08.02.16.03.25h.85c11.95,0,23.9,0,35.86,0,4.68,0,9.37-.03,14.05-.05,1.37,0,1.76-.41,1.78-1.76.02-1.28.04-2.56.04-3.84v-45.81c0-.37,0-.74-.02-1.11,0-.25-.05-.49-.07-.74-.24.3-.35.59-.44.9-.4,1.39-.79,2.79-1.18,4.19-2.21,7.92-5.92,15.1-10.84,21.66-5.39,7.19-11.88,13.2-19.56,17.9-6.07,3.71-12.53,6.48-19.47,8.1-.35.08-.69.21-1.03.31h0Zm-31.43.21c0-.06.01-.12.02-.18-1.67-.47-3.36-.91-5.02-1.43-1.64-.52-3.27-1.08-4.87-1.72-1.62-.64-3.22-1.34-4.79-2.11-1.55-.75-3.07-1.57-4.56-2.43-1.51-.88-2.99-1.82-4.43-2.81-1.42-.98-2.8-2.02-4.14-3.1-1.36-1.1-2.68-2.25-3.95-3.44-1.26-1.18-2.47-2.41-3.64-3.68-1.18-1.29-2.33-2.61-3.42-3.97-1.07-1.35-2.09-2.74-3.05-4.17-.98-1.45-1.91-2.93-2.78-4.44-.86-1.49-1.67-3.01-2.41-4.57-.75-1.58-1.44-3.18-2.07-4.81-.62-1.6-1.17-3.24-1.68-4.88-.51-1.64-.94-3.31-1.44-5.11-.29.4-.22.7-.22.97v49.73c0,.32,0,.64.02.96.06.76.4,1.1,1.17,1.16.61.04,1.23.08,1.84.08,16.24,0,32.48,0,48.72,0,.23,0,.47-.03.7-.05h0Zm-40.08-29.95c.27.45.46.71.59.99.29.6.77.87,1.42.89.25,0,.49.02.74.02,19.84-.02,39.68-.05,59.52-.07,4.3,0,8.42-.84,12.35-2.56,9.04-3.96,14.89-10.75,17.71-20.17,1.42-4.73,1.63-9.54.67-14.38-.44-2.21-1.19-4.31-2.01-6.4-.12-.29-.22-.6-.72-.56.05.27.08.51.15.73,1.36,4.89,1.66,9.83.81,14.84-1.05,6.16-3.68,11.55-7.88,16.16-4.8,5.26-10.71,8.59-17.71,9.94-2.3.45-4.64.55-6.99.55-19.17,0-38.35,0-57.52,0-.31,0-.62.01-1.11.02h0ZM124.72,30.49c-.36-.55-.58-1-.92-1.35-.24-.25-.61-.38-.95-.5-.22-.08-.49-.03-.73-.03-19.27.01-38.55.02-57.82.05-1.35,0-2.71.09-4.06.25-4.37.49-8.44,1.9-12.21,4.14-5.11,3.03-9.04,7.19-11.77,12.45-2.36,4.56-3.55,9.43-3.56,14.56,0,3.65.72,7.19,2.03,10.6.2.53.38,1.07.59,1.59.12.29.28.57.74.48-.06-.27-.12-.5-.17-.74-.38-1.85-.89-3.69-1.1-5.56-.34-3.01-.26-6.04.22-9.05.72-4.47,2.3-8.6,4.79-12.36,3.84-5.8,9.01-9.98,15.52-12.47,3.12-1.19,6.36-1.92,9.72-1.97,2.89-.04,5.77-.03,8.65-.03h49.32c.51,0,1.02-.04,1.7-.07h0Zm-25.06,34.52c-.01.06-.04.13-.04.2.02.34.03.69.07,1.03.36,2.82.4,5.65.07,8.47-.48,4.1-1.72,7.97-3.72,11.59-5.59,10.13-16.24,16.67-28.02,16.61-6.63-.04-13.26-.02-19.89-.03-7.15,0-14.29,0-21.44,0-4.85,0-9.71,0-14.56-.01-.5,0-1,.04-1.55.18.16.29.31.5.39.72.3.87.92,1.08,1.8,1.07,2.24-.04,4.48-.02,6.73-.02,17.35,0,34.7,0,52.05-.02.98,0,1.97-.04,2.95-.19,3.6-.52,7.07-1.5,10.33-3.17,6.27-3.21,10.93-7.98,13.99-14.31,1.49-3.08,2.43-6.32,2.87-9.72.52-3.96.21-7.86-.81-11.71-.19-.72-.38-.81-1.2-.69h0Zm-61.2,8.85c-.03-.32-.05-.56-.08-.79-.22-1.41-.47-2.81-.66-4.23-.28-2.13-.24-4.27-.02-6.41.25-2.38.72-4.72,1.48-6.99,1.73-5.17,4.6-9.61,8.58-13.34,4.37-4.09,9.47-6.74,15.32-7.97,2.38-.5,4.78-.64,7.2-.64,4.66,0,9.32.01,13.97.01,13.58,0,27.16,0,40.74-.01.34,0,.69.03,1.04,0,.2-.02.38-.12.55-.17-.39-1.31-1.17-1.75-2.46-1.73-6.09.06-12.18.02-18.26.03-13.23.03-26.47.07-39.71.09-3.72,0-7.29.71-10.73,2.11-4.33,1.76-8.15,4.26-11.34,7.69-3.04,3.28-5.29,7.03-6.74,11.26-1.11,3.24-1.69,6.58-1.7,10,0,2.47.29,4.91.9,7.31.25.98.53,1.94.83,2.91.14.46.37.87,1.06.88h0Zm90.17-37.42c-.23-.4-.4-.64-.51-.91-.3-.74-.84-.99-1.63-.99-18.85.02-37.71.01-56.56.04-1.52,0-3.05.12-4.57.32-3.5.47-6.79,1.59-9.92,3.22-7.28,3.8-12.26,9.61-15.03,17.31-2.11,5.88-2.4,11.88-.84,17.94.07.29.16.57.29.83.16.31.48.33.78.25.32-.08.28-.36.26-.61,0-.1-.04-.19-.05-.29-.11-1.27-.26-2.55-.31-3.82-.08-2.12.07-4.23.4-6.33.47-2.96,1.29-5.82,2.6-8.51,3.5-7.16,8.83-12.49,16.15-15.76,2.99-1.34,6.1-2.23,9.37-2.49,1.72-.13,3.44-.17,5.17-.17,11.43,0,22.87.01,34.31.02,6.38,0,12.76-.01,19.15-.03.26,0,.52-.02.94-.04h0Zm-21.57,31.55c-.07.04-.13.07-.2.1.07.23.12.46.2.68.14.39.3.78.43,1.18.65,2.02.99,4.1,1.22,6.22.42,3.76.18,7.48-.71,11.14-1.76,7.24-5.59,13.19-11.46,17.78-5.54,4.34-11.87,6.6-18.92,6.78-1.5.04-3.01.05-4.51.05H18.33c-.37,0-.74,0-1.11,0-.23,0-.46.05-.81.09.28.37.5.63.68.92.34.53.84.71,1.45.71,1.04-.01,2.07.02,3.1.02h57.67c3.55,0,7.01-.54,10.37-1.72,4.82-1.71,9.07-4.31,12.52-8.11,6.44-7.09,9.3-15.4,8.28-24.97-.38-3.56-1.44-6.93-2.99-10.14-.13-.25-.29-.49-.43-.74h0Zm-5.01-2.36c.05.34.07.64.14.92.88,3.59.89,7.22.57,10.86-.34,3.82-1.46,7.44-3.2,10.84-3.3,6.42-8.16,11.29-14.66,14.49-3.14,1.55-6.45,2.51-9.93,2.94-2.04.25-4.08.25-6.12.25-18.43-.02-36.87-.02-55.3-.03-.36,0-.72.04-1.09.06.32,1.34.84,1.79,2.08,1.81h.59c19.25,0,38.49-.01,57.74-.03,1.13,0,2.26-.05,3.39-.12,3.5-.23,6.84-1.13,10.04-2.55,6.26-2.78,11.09-7.16,14.46-13.12,2.66-4.7,4.01-9.75,4.12-15.15.05-2.38-.29-4.71-.82-7.02-.26-1.15-.63-2.28-.96-3.41-.13-.44-.35-.83-1.03-.75h0Zm7.8,5s-.09.04-.14.06c.02.13.03.28.08.41,1.26,3.19,1.87,6.51,2.02,9.93.25,5.62-.78,10.97-3.31,16.01-3.12,6.2-7.78,10.92-13.89,14.18-4.6,2.46-9.56,3.6-14.77,3.6-2.22,0-4.44-.04-6.65-.04H20.61c-.39,0-.79,0-1.18.03-.18,0-.37.05-.67.09.29.35.54.59.71.87.45.7,1.08.88,1.89.88,19.08-.02,38.16-.01,57.24-.01.69,0,1.38-.1,2.07-.05,3.18.22,6.31-.11,9.37-.92,7.66-2.03,13.82-6.22,18.24-12.84,4.45-6.66,6.13-13.99,5-21.94-.47-3.34-1.53-6.51-3.02-9.53-.12-.25-.28-.48-.42-.72h.01ZM21.54,117.88c.75,1.01,1.44,1.8,2.7,1.72.39-.03.79-.02,1.18-.02h54.13c1.7,0,3.4,0,5.1-.04,1.38-.03,2.76-.02,4.14-.16,3.54-.34,6.89-1.39,10.09-2.92,11.89-5.64,18.82-18.42,17.54-31.04-.38-3.73-1.4-7.28-3-10.67-.12-.25-.27-.49-.41-.73-.05.02-.1.04-.16.07.05.25.09.51.17.76.27.95.57,1.88.82,2.84,1.16,4.43,1.25,8.91.52,13.41-.77,4.73-2.54,9.08-5.32,13.01-3.68,5.2-8.44,9.06-14.35,11.45-3.72,1.51-7.58,2.25-11.6,2.25-16.71,0-33.43,0-50.14,0h-10.21c-.36,0-.71.04-1.22.08h0Zm9.05-49.09l.23-.09c-.07-.25-.15-.5-.22-.75-.44-1.59-.97-3.15-1.31-4.76-.64-3.08-.75-6.19-.48-9.33.31-3.64,1.17-7.14,2.7-10.45,3.27-7.07,8.4-12.37,15.43-15.78,2.92-1.42,6-2.36,9.22-2.76,1.78-.22,3.59-.28,5.38-.28,18.88-.01,37.76,0,56.64,0,.34,0,.69,0,1.04-.03.15-.01.3-.08.51-.15-.73-.97-1.4-1.67-2.72-1.67-18.86.04-37.71.03-56.57.04-1.35,0-2.71.02-4.06.08-3.65.16-7.17.97-10.52,2.43-7.35,3.2-12.78,8.4-16.13,15.7-1.61,3.5-2.59,7.17-2.84,11.02-.29,4.67.5,9.17,2.21,13.52.44,1.11.98,2.18,1.48,3.26h0Zm2.91,2.7c.07-.21.1-.26.09-.3-.06-.24-.13-.47-.21-.71-.96-2.73-1.53-5.55-1.71-8.44-.27-4.32.22-8.55,1.61-12.66,2.36-6.96,6.64-12.47,12.73-16.55,5.41-3.63,11.42-5.33,17.92-5.33h57.16c.2,0,.4.02.59,0,.16-.02.3-.1.49-.16-.47-1.08-1.2-1.65-2.37-1.6-.91.04-1.82.05-2.73.05-4.17,0-8.33-.01-12.5-.01h-30.69c-3.87,0-7.74-.03-11.61-.05-2.84-.02-5.65.18-8.43.86-5.71,1.4-10.75,4.05-14.85,8.26-6.77,6.94-9.85,15.28-9.06,24.99.31,3.77,1.41,7.33,3,10.75.13.28.31.54.54.93h0Zm-8.83,49.41c.86.96,1.62,1.62,2.89,1.62,13.29-.04,26.57-.04,39.86-.05,5.84,0,11.68-.02,17.53,0,2.29.01,4.58.04,6.86-.2,4.43-.47,8.54-1.88,12.37-4.12,4.93-2.88,8.71-6.89,11.45-11.87,2.51-4.57,3.78-9.48,3.88-14.7.05-2.65-.32-5.25-.96-7.82-.46-1.82-1.08-3.58-1.84-5.29-.16-.36-.38-.7-.56-1.05-.07.03-.13.05-.2.08.11.39.21.78.33,1.17.73,2.23,1.17,4.52,1.38,6.86.22,2.36.19,4.72-.11,7.07-.29,2.33-.82,4.6-1.6,6.81-2.01,5.73-5.42,10.47-10.13,14.27-5.65,4.56-12.09,7.03-19.4,7.03-19.99.02-39.98,0-59.97,0-.37,0-.74,0-1.11.02-.19.01-.37.08-.68.15h0ZM116.68,21.52l.05-.21c-.27-.28-.55-.55-.8-.84-.38-.44-.87-.62-1.44-.61h-.67c-13.8,0-27.6.02-41.4.03-4.81,0-9.61,0-14.42-.02-2.37,0-4.73,0-7.08.31-3.8.5-7.37,1.7-10.74,3.51-4.86,2.62-8.7,6.32-11.6,11.01-2.95,4.77-4.46,9.99-4.65,15.59-.08,2.27.13,4.52.59,6.75.57,2.76,1.46,5.41,2.74,7.93.1.2.24.38.36.58.05-.02.1-.05.15-.07-.06-.23-.12-.46-.2-.68-.92-2.54-1.48-5.15-1.73-7.83-.33-3.59-.13-7.14.7-10.64,1.52-6.49,4.79-11.99,9.72-16.46,6.01-5.46,13.12-8.19,21.25-8.26,1.45-.01,2.91.01,4.36.01h45.69c2.73,0,5.47,0,8.2-.02.3,0,.61-.05.92-.07h0Zm-3.11-2.95c-.75-.86-1.41-1.52-2.45-1.61-.39-.03-.79-.03-1.18-.03-19.18,0-38.35,0-57.53-.01-4.84,0-9.41,1.03-13.78,3.11-12.32,5.86-18.47,18.77-17.56,30.26.32,4,1.37,7.79,3.09,11.4.11.23.26.45.42.72.06-.14.11-.18.1-.22-.06-.24-.11-.48-.19-.71-.89-2.5-1.39-5.07-1.62-7.7-.3-3.56-.1-7.08.73-10.56,1.62-6.78,5.1-12.44,10.39-16.96,5.79-4.95,12.52-7.58,20.16-7.62,13.73-.06,27.46-.01,41.19,0,5.72,0,11.44.01,17.15.01.3,0,.61-.04,1.07-.08h0ZM9.09,100.01c.16.42.27.72.39,1.01.25.63.68.85,1.38.85,10.47-.02,20.95-.02,31.42-.02,8.43,0,16.86,0,25.29.02,2.05,0,4.08-.17,6.1-.56,3.79-.73,7.32-2.13,10.59-4.17,5.69-3.53,9.75-8.45,12.32-14.6,1.23-2.95,1.97-6.03,2.27-9.21.26-2.72.08-5.41-.37-8.09-.13-.81-.48-.97-1.35-.71.04.24.07.48.11.71.65,4.19.54,8.35-.66,12.43-1.4,4.74-3.87,8.83-7.58,12.1-1.73,1.53-3.62,2.89-5.48,4.25-5.12,3.74-10.89,5.65-17.21,5.84-3.52.11-7.05.06-10.57.06-15.16,0-30.32-.02-45.48-.02-.34,0-.67.05-1.15.09h0Zm34.25-24.97c-.02-.32-.02-.59-.06-.85-.68-3.99-.57-7.95.48-11.86,1.3-4.82,3.75-8.98,7.4-12.39,1.36-1.27,2.89-2.37,4.36-3.52,5.87-4.63,12.53-6.98,20.03-6.97,17.67.02,35.34,0,53.01,0,.32,0,.64,0,.96-.01.18-.01.37-.07.63-.13-.22-.47-.42-.86-.59-1.26-.17-.39-.47-.54-.88-.53-.47.01-.94.01-1.41.01-18.29,0-36.57,0-54.86.01-1.4,0-2.81.12-4.19.31-2.89.4-5.67,1.25-8.33,2.45-6.34,2.88-11.18,7.36-14.52,13.47-1.75,3.2-2.89,6.61-3.47,10.22-.54,3.34-.49,6.67.09,9.99.15.88.3,1,1.34,1.04h0Zm29.6-5.31c0-1.54-1.26-2.81-2.75-2.8-1.56,0-2.67,1.14-2.67,2.74s1.26,2.78,2.84,2.77c1.55,0,2.59-1.1,2.57-2.71Z"/>
        <path class="cls-1" d="m278.58,33.76h-7.32c-.04-.06-.13-.15-.18-.25-1.21-2.38-3.18-3.76-5.77-4.27-3.22-.63-7.04.49-9.14,3.87-1.17,1.89-1.8,3.97-2.13,6.16-.41,2.76-.29,5.51.18,8.23.41,2.38,1.21,4.62,2.76,6.52,1.66,2.02,3.77,3.26,6.4,3.37,3.26.13,6.08-1,8.4-3.31.17-.17.35-.4.36-.61.03-1.55.02-3.1.02-4.75-.91,0-1.76-.02-2.61-.02h-5.2v-6.41c.57-.15,13.96-.17,14.76,0v.78c0,4.73,0,9.46.01,14.18,0,.54-.17.93-.53,1.3-1.85,1.99-4.08,3.39-6.61,4.34-3.64,1.36-7.4,1.67-11.2,1.06-4.8-.77-8.48-3.28-10.92-7.52-1.4-2.42-2.21-5.04-2.7-7.77-.79-4.39-.56-8.73.57-13.03.84-3.21,2.28-6.12,4.65-8.51,2.18-2.18,4.78-3.57,7.78-4.26,1.48-.34,2.97-.45,4.48-.38,2.33.11,4.59.54,6.7,1.57,2.99,1.45,5.09,3.73,6.39,6.77.4.92.72,1.88.85,2.93h0Z"/>
        <path class="cls-1" d="m341.1,54.21c-.91,3.03-1.82,6.04-2.73,9.07h-7.38c4.5-13.41,8.97-26.74,13.44-40.08h7.48c4.57,13.32,9.15,26.65,13.72,39.98-.63.19-5.47.25-7.4.1-1.03-2.99-2.07-6.02-3.12-9.08h-14.02,0Zm11.77-6.67c-.09-.86-4.47-14.53-4.81-14.98-1.56,5-3.11,9.95-4.69,14.98h9.5,0Z"/>
        <path class="cls-1" d="m328.29,34.53c-.39,0-.73.01-1.07,0-1.94-.09-3.89-.21-5.83-.29-.42-.02-.59-.21-.75-.55-.8-1.64-2.01-2.89-3.64-3.74-3.41-1.8-7.03-.7-9.04,2.14-.86,1.22-1.44,2.57-1.83,4.01-1.13,4.24-1.13,8.52-.42,12.82.33,1.98,1,3.86,2.24,5.48,1.38,1.82,3.21,2.91,5.51,3.02,2.46.12,4.48-.83,5.93-2.84.61-.85,1.07-1.81,1.64-2.81h7.13c-.22,1.15-.59,2.22-1.01,3.26-1.16,2.87-2.85,5.34-5.46,7.08-2.19,1.46-4.62,2.17-7.26,2.1-2.08-.05-4.12-.32-6.07-1.09-2.97-1.17-5.22-3.19-6.88-5.9-1.09-1.77-1.86-3.69-2.39-5.69-.8-3.01-1.18-6.09-1.04-9.21.13-3.09.6-6.13,1.66-9.04,1.22-3.36,3.12-6.25,6.14-8.28,2.95-1.98,6.2-2.8,9.75-2.46,2.27.21,4.4.81,6.33,2.02,2.41,1.52,4.1,3.66,5.21,6.25.32.75.58,1.51.83,2.29.14.44.21.9.32,1.43h0Z"/>
        <path class="cls-1" d="m292.37,24.13v39.97c-.53.16-5.7.2-6.69.06-.17-.52-.23-38.93-.07-39.98.51-.17,5.68-.21,6.76-.05Z"/>
        <path class="cls-1" d="m345.71,131.53h8.2c.22,0,.45,0,.67.02.43.05.6.24.63.67.01.2,0,.39,0,.59,0,2.8-.01,5.61,0,8.42,0,.96.14,1.37-1.41,1.36-4.19-.01-8.37,0-12.56,0h-3.77c-.22,0-.45,0-.66-.04-.34-.08-.56-.29-.58-.67,0-.15,0-.29,0-.44v-8.79c0-.15,0-.29,0-.44.05-.42.23-.6.67-.65.22-.02.44-.01.67-.01h8.13Z"/>
        <path class="cls-1" d="m249.5,145.28h-6.13c-.81,0-.94-.13-.94-.95,0-3.05,0-6.1,0-9.15,0-.75.16-.91.92-.91,4.16,0,8.32,0,12.48,0,.76,0,.88.14.88.92v9.15c0,.84-.1.93-.93.94-2.09,0-4.18,0-6.28,0Z"/>
        <path class="cls-1" d="m271.48,145.28h-6.14c-.86,0-.97-.1-.97-.98,0-3.01,0-6.01,0-9.01,0-.17.02-.34.04-.51.03-.29.21-.44.48-.47.2-.02.39-.03.59-.03h12.05c.13,0,.25,0,.37,0,.59.04.73.17.73.77,0,1.45,0,2.91,0,4.36v4.95c0,.84-.09.93-.94.93h-6.21Z"/>
        <path class="cls-1" d="m397.74,69.94c.37,1.01.74,2,1.11,3.02-.29.14-.55.27-.8.4-.9.48-1.4,1.21-1.44,2.24,0,.2,0,.39,0,.59-.03,1.53,1.01,2.54,2.4,2.85,1.14.25,2.3.28,3.44,0,1.1-.26,2.03-.79,2.49-1.88.35-.83.25-1.69.09-2.54-.04-.19-.12-.38-.2-.56-.44-1.07-.6-1.16-1.88-.96v3.33h-2.82v-6.57c.21-.02.42-.05.63-.05,1.41,0,2.81.01,4.22-.01.44,0,.75.16,1.03.46,1,1.04,1.61,2.28,1.92,3.68.38,1.73.31,3.43-.42,5.06-.64,1.45-1.75,2.44-3.21,3-2.38.91-4.78.91-7.14-.04-1.82-.73-2.89-2.14-3.34-4.05-.36-1.5-.29-2.97.16-4.44.47-1.51,1.5-2.51,2.87-3.22.22-.11.44-.21.67-.31.04-.02.09,0,.21,0h0Z"/>
        <path class="cls-1" d="m402.24,59.93c1.89-1.23,3.72-2.42,5.63-3.67.04.28.1.45.1.63,0,.91,0,1.82.01,2.73,0,.37-.12.58-.43.76-1.31.78-2.6,1.59-3.89,2.39-.69.43-.99,1.09-.9,1.98.83.08,1.68.03,2.53.04.86,0,1.72,0,2.66,0,.07,1.16.03,2.23.03,3.35h-14.17c-.02-.27-.04-.48-.04-.7,0-1.6-.01-3.2,0-4.8.01-1.01.14-2.02.58-2.95.96-2.01,2.7-2.67,4.85-2.28,1.15.21,2.01.88,2.63,1.86.12.19.24.37.42.65h0Zm-2.35,4.86c0-.76.02-1.44,0-2.13-.01-.34-.09-.68-.2-1-.22-.63-.75-.94-1.51-.93-.73,0-1.19.31-1.39.97-.29,1-.13,2.03-.15,3.09h3.25Z"/>
        <path class="cls-1" d="m393.59,49.69c.07-2.26.62-4.12,2.27-5.51,1.17-.98,2.58-1.41,4.08-1.55,1.78-.16,3.48.09,5.06.99,1.49.85,2.43,2.14,2.87,3.77.47,1.76.42,3.52-.29,5.21-.8,1.94-2.32,3.09-4.31,3.6-1.8.46-3.6.45-5.39-.16-2.4-.83-3.7-2.56-4.14-5.01-.09-.5-.11-1.02-.15-1.35h0Zm7.18,3.5s.01-.05.02-.08c.32-.02.64-.01.96-.06,1.8-.25,3.62-1.21,3.42-3.89-.1-1.33-.74-2.22-1.92-2.72-1.29-.54-2.65-.58-3.99-.26-1.48.35-2.55,1.2-2.69,3.09-.12,1.61.57,3.05,2.26,3.53.63.18,1.29.27,1.94.4h0Z"/>
        <path class="cls-1" d="m405.06,4.58h2.78c.16.52.21,9.54.06,10.57h-14.01c-.16-.5-.2-9.27-.04-10.19h2.85c.05,1.14.02,2.27.02,3.39,0,1.13,0,2.26,0,3.42h2.55c.11-2.08-.01-4.15.07-6.26h2.79c.04,2.08,0,4.15.03,6.26h2.82c.02-.29.06-.57.06-.85,0-1.82,0-3.64,0-5.47v-.87h.01Z"/>
        <path class="cls-1" d="m393.76,29.29c.29-.02.48-.05.67-.05,2.71,0,5.42-.03,8.12.02.75.01,1.52.16,2.23.4,1.24.42,2.17,1.3,2.67,2.5.95,2.26,1,4.55-.18,6.76-.61,1.14-1.63,1.84-2.87,2.13-.69.17-1.41.25-2.12.26-2.59.03-5.17.01-7.76.01h-.63c-.17-.58-.2-2.55-.05-3.4.25-.01.5-.04.77-.04h7.39c.39,0,.79,0,1.18-.04,1.09-.11,1.9-.96,1.95-2.06.02-.46.03-.95-.08-1.39-.23-.96-1.1-1.63-2.16-1.74-.37-.04-.74-.03-1.11-.03h-7.92c-.23-.55-.09-1.09-.11-1.62-.02-.54,0-1.08,0-1.7h0Z"/>
        <path class="cls-1" d="m403.03,23.9h4.93c.02,1.13.04,2.2-.01,3.32h-14.12c-.02-.21-.06-.4-.06-.59,0-1.67-.05-3.35.02-5.02.03-.83.18-1.67.43-2.46.48-1.47,1.57-2.35,3.09-2.66,2.26-.45,4.7.52,5.45,3.11.2.67.22,1.41.26,2.11.04.68,0,1.37,0,2.18h0Zm-2.8-.02c-.03-1,.12-1.93-.11-2.85-.2-.81-.85-1.26-1.77-1.26-.85,0-1.45.42-1.63,1.22-.21.94-.09,1.89-.1,2.88h3.6Z"/>
      </g>
    </g>
  </g>
</svg>