<?xml version="1.0" encoding="UTF-8"?>
<svg id="Layer_2" data-name="Layer 2" xmlns="http://www.w3.org/2000/svg" viewBox="0 0 173.79 173.72">
  <defs>
    <style>
      .cls-1 {
        fill: #fff;
        stroke-width: 0px;
      }
    </style>
  </defs>
  <g id="Layer_1-2" data-name="Layer 1">
    <g id="Layer_1-2" data-name="Layer 1-2">
      <g>
        <path class="cls-1" d="m156.83,38.19c.21.8.56.73,1.1.4.3-.18.74-.12,1.11-.16-.17.33-.35.67-.52,1.01-.14.29-.26.59-.39.88.33-.03.65-.07.98-.09.36-.02.72-.02,1.08-.02-.16.3-.26.69-.51.88-.49.38-.88.68-.37,1.06.76-.1,1.35-.18,1.94-.25-.33.52-.65,1.04-1.1,1.77.23.05.53.17.84.18.44.01.88-.05,1.31-.09-.25.33-.52.65-.73,1-.16.26-.25.57-.45,1.06.48-.08.58-.09.69-.11.49-.08.97-.16,1.46-.24-.27.38-.59.74-.81,1.14-.14.26-.15.6-.19.8.83-.04,1.41-.06,1.99-.09-.32.47-.65.94-1.11,1.61-.02-.04.09.21.22.49.28-.11.49-.25.71-.27.36-.03.74,0,1.1.01-.19.3-.32.72-.59.89-.53.33-.96.57-.26,1.17.32-.12.63-.3.96-.34.25-.03.51.13.77.21-.13.24-.21.52-.39.71-.18.18-.5.22-.68.41-.12.12-.14.41-.08.58.04.11.28.17.45.22.06.02.15-.06.22-.06.44,0,.88.02,1.32.03-.31.32-.61.64-.93.95-.11.1-.25.16-.37.24,0,.78.37.79.97.61.32-.09.72.07,1.08.11-.24.28-.44.67-.74.82-.6.3-.76.59-.44.91.77.06,1.35.11,1.93.16-.39.43-.77.87-1.33,1.49.16.09.42.3.71.36.43.1.88.09,1.32.13-.36.31-.72.62-1.09.93-.09.07-.18.13-.58.41.51.19.82.35,1.15.42.36.08.74.07,1.11.11-.26.3-.52.59-.77.89-.19.23-.37.47-.55.7.28.08.56.16.83.23.39.1.78.2,1.17.3-.3.24-.58.5-.89.72-.15.11-.35.15-.57.25-.05.66.21.85.86.75.34-.06.72.09,1.08.15-.28.28-.57.55-.83.85-.22.25-.41.53-.62.8.09.08.17.16.26.24.33-.06.67-.18,1-.16.25.02.49.21.74.33-.16.22-.29.48-.5.66-.13.11-.4.04-.54.15-.18.14-.29.37-.42.57.23.12.45.27.69.35.13.04.31-.07.45-.03.27.07.52.19.77.3-.19.23-.34.58-.59.68-.51.21-1.24.17-.7,1.14.31-.06.65-.18.97-.15.25.02.47.24.71.37-.17.21-.3.46-.5.61-.18.13-.47.09-.64.21-.17.13-.26.37-.38.57.2.12.4.27.62.35.12.04.32-.12.44-.08.31.12.6.29.9.44-.24.19-.44.48-.71.56-.53.15-1.13.17-.78.98.08.03.14.08.21.09.51.11,1.02.22,1.53.33-.4.24-.82.46-1.19.74-.18.13-.33.38-.35.6-.01.09.28.28.47.34.17.06.4-.05.57,0,.27.1.51.28.77.42-.24.2-.45.44-.71.59-.19.1-.5.01-.66.13-.14.1-.24.41-.19.57.05.15.3.26.49.34.43.18.86.32,1.3.47-.45.21-.89.42-1.34.62-.07.03-.13.06-.23.11-.24.78.18.86.83.85.31,0,.62.24.94.37-.27.19-.54.39-.82.58-.3.21-.6.41-.91.62.33.13.68.24,1,.39.27.13.52.32.78.47-.23.18-.44.39-.69.54-.31.2-.65.35-.98.53.32.17.64.33.95.51.29.17.57.37.86.56-.27.15-.52.38-.81.43-.53.1-1.13.04-.88.96.26.02.54-.02.76.08.34.14.64.38.95.58-.3.16-.6.43-.91.44-.65.03-1.06.14-.88.71.67.34,1.19.61,1.71.87-.53.24-1.05.49-1.82.85.21.19.44.45.71.65.32.23.68.4,1.02.6-.34.16-.68.31-1.01.47-.27.13-.53.28-.8.42.27.19.53.39.81.58.3.2.62.38.93.57-.34.15-.69.31-1.03.47-.27.13-.55.26-.82.38.25.21.49.43.75.62.29.22.6.41.9.61-.35.13-.71.25-1.05.4-.31.13-.62.29-.92.44.04.12.08.24.12.35.32.09.67.13.96.28.26.13.45.38.67.59-.28.13-.56.37-.84.35-.63-.03-1.2-.13-.99.8.54.27,1.06.52,1.57.77-.49.15-.99.27-1.45.46-.2.08-.4.31-.47.51-.03.09.23.34.4.43.16.09.41,0,.56.1.22.15.39.39.58.59-.22.15-.43.37-.67.41-.33.06-.68-.02-1.03-.04-.44.78.05.9.63,1.06.29.08.51.42.77.64-.32.12-.63.26-.95.37-.33.11-.68.19-1.02.29.28.23.56.45.83.7.24.22.47.47.7.7-.33.09-.65.18-.98.27-.33.09-.65.18-.98.27.26.24.52.47.79.71.24.21.47.42.71.63-.31.13-.61.28-.93.39-.35.12-.71.18-1.06.27.27.24.56.46.81.72.22.24.4.52.59.78-.3.07-.59.15-.89.22-.34.08-.68.16-1.02.25.23.23.47.45.7.68.24.24.47.49.7.74-.32.09-.65.29-.95.26-.56-.07-1.09-.25-1.08.68.31.12.66.18.93.37.21.15.33.44.48.67-.25.11-.48.28-.74.31-.21.03-.45-.18-.65-.15-.21.03-.46.18-.58.36-.06.09.12.39.26.52.35.33.74.62,1.11.92-.56.02-1.11.03-1.67.05-.04,0-.08,0-.18.01-.33.45-.43.78.29,1.07.33.13.54.56.8.85-.4.03-.81.03-1.21.1-.33.06-.63.2-1.06.34.23.28.25.32.28.34.41.34,1.22.8,1.16.99-.28.87-.92.1-1.4.15-.25.03-.47.29-.72.46.16.2.2.27.25.31.39.35.79.7,1.19,1.04-.5.01-1.01-.03-1.51.05-.26.04-.49.29-.83.5.24.19.34.25.42.33.35.34.69.68,1.03,1.02-.46,0-.92-.02-1.38.02-.23.02-.44.16-.66.24.09.21.15.47.3.62.15.16.47.17.58.34.15.21.17.5.24.77-.24.05-.47.15-.7.12-.22-.02-.41-.25-.63-.26-.22-.01-.44.13-.67.2.08.22.13.45.26.64.07.12.3.13.38.24.18.27.3.58.44.88-.3.02-.6.07-.9.05-.18-.02-.34-.21-.52-.22-.19,0-.53.08-.55.17-.04.21.03.47.15.66.09.14.37.16.47.3.17.25.26.56.39.84-.31.03-.62.07-.92.06-.14,0-.27-.21-.4-.2-.25.02-.49.12-.74.18.08.21.13.45.26.63.11.14.37.17.47.31.16.21.24.49.36.73-.27.06-.55.19-.82.17-.21-.01-.4-.27-.61-.29-.21-.02-.44.11-.67.17.07.22.09.48.23.65.13.17.45.21.55.39.13.23.12.53.18.81-.24.02-.5.09-.73.04-.21-.04-.39-.28-.6-.31s-.45.07-.67.11c.05.22.06.46.16.66.06.12.29.15.36.27.17.29.28.61.41.92-.31,0-.62.02-.93,0-.36-.03-.73-.1-1.09-.15.2.34.41.66.58,1.01.13.27.2.58.3.87-.3,0-.64.08-.9-.03-.5-.22-.98-.83-1.29.18.04.07.08.14.12.2.3.43.6.86.89,1.29-.46-.1-.92-.24-1.39-.28-.29-.02-.59.12-.78.16.36.73.64,1.28.92,1.83-.55-.11-1.11-.22-1.93-.38.01.19-.03.54.08.82.16.41.43.77.66,1.15-.46-.11-.92-.22-1.38-.34-.11-.03-.2-.12-.35-.21-.47.29-.75.53-.17,1.08.29.27.41.72.6,1.09-.4-.07-.8-.15-1.19-.22-.29-.05-.58-.1-.87-.15.1.31.19.62.29.92.12.35.25.71.37,1.06-.36-.09-.73-.2-1.09-.28-.29-.07-.58-.12-.87-.18.02.25-.02.53.06.76.15.42.36.83.54,1.24-.44-.16-.89-.32-1.33-.49-.1-.04-.19-.12-.31-.2-1.57.82,1.2,1.4-.11,2.23-.15-.07-.44-.26-.76-.37-.28-.1-.58-.12-.88-.18.05.28.06.58.15.85.1.33.27.63.4.95-.08.07-.15.14-.23.22-.31-.14-.61-.32-.93-.42-.28-.08-.58-.08-.87-.11.06.26.08.53.18.77.12.32.3.62.45.92-.08.09-.16.17-.24.26-.34-.15-.67-.33-1.02-.45-.27-.09-.56-.11-.85-.16.04.26.06.52.11.78.07.36.15.72.23,1.08-.33-.12-.66-.25-1-.34-.27-.07-.56-.09-.84-.13.04.26.09.52.13.77,0,.03.07.05.08.08.09.38.16.75.24,1.13-.35-.13-.78-.18-1.02-.42-.43-.44-.74-.67-1.18.05.18.25.44.5.55.8.1.27.04.61.05.92-.29-.09-.64-.11-.84-.29-.44-.39-.77-1.08-1.32-.16.03.08.05.12.06.15.19.5.66,1.33.53,1.43-.69.57-.86-.37-1.3-.6-.23-.12-.59-.02-.95-.02.08.32.09.39.12.46.17.5.62,1.32.47,1.44-.72.61-.82-.4-1.25-.62-.24-.12-.59-.05-1-.06.13.35.18.45.21.56.13.47.26.94.39,1.42-.4-.23-.79-.48-1.21-.68-.2-.1-.44-.12-.67-.18-.03.26-.09.51-.08.77,0,.13.2.25.22.39.04.3.02.61.02.91-.29-.1-.62-.15-.85-.32s-.38-.47-.9-.77c-.06.32-.18.64-.18.95,0,.44.1.87.16,1.3-.36-.26-.71-.55-1.1-.76-.27-.14-.59-.18-.82-.24.06.86.1,1.46.14,2.06-.47-.3-.93-.61-1.64-1.07-.27.06-.54.25-.2.93.16.33.06.79.07,1.19-.31-.21-.62-.42-.94-.62-.25-.16-.52-.3-.77-.44-.02.32-.05.64-.07.96-.02.37-.02.74-.03,1.12-.31-.22-.7-.37-.9-.66-.36-.54-.66-.73-1.12-.15.02.08.04.15.05.23.06.52.13,1.03.19,1.55-.36-.3-.69-.65-1.09-.89-.25-.15-.6-.15-.98-.23.04.34.04.38.05.41.08.52.36,1.42.2,1.51-.82.45-.75-.54-1.13-.87-.14-.12-.48-.24-.55-.17-.15.14-.25.41-.25.62s.21.42.22.64c.01.24-.1.48-.16.72-.26-.1-.54-.16-.75-.32-.14-.1-.13-.39-.27-.49-.2-.15-.47-.22-.71-.32-.06.22-.13.44-.18.67-.01.06.07.14.07.21-.01.38-.04.75-.06,1.12-.29-.23-.68-.4-.85-.7-.29-.53-.54-.85-1.16-.26.1.29.27.59.3.91.03.25-.12.52-.19.78-.25-.12-.53-.2-.74-.36-.13-.1-.12-.39-.25-.5-.19-.16-.45-.23-.68-.34-.08.21-.2.43-.21.65-.01.18.17.36.16.54-.01.26-.12.51-.19.77-.26-.15-.54-.26-.76-.45-.13-.11-.11-.39-.24-.51-.16-.15-.46-.32-.61-.26-.16.07-.26.38-.29.61-.02.17.18.37.16.54-.03.27-.16.53-.24.79-.26-.17-.57-.29-.75-.52-.18-.22-.24-.55-.35-.85-.72-.02-.88.26-.71.91.08.33-.08.71-.13,1.07-.28-.24-.55-.48-.83-.71-.25-.21-.5-.41-.75-.61-.06.29-.12.58-.19.86-.08.37-.17.74-.25,1.11-.25-.27-.5-.55-.76-.81-.21-.21-.42-.41-.63-.62-.11.3-.24.6-.33.91-.11.34-.18.69-.27,1.03-.25-.27-.5-.56-.77-.82-.21-.21-.44-.38-.66-.57-.09.27-.19.55-.27.83-.09.36-.16.72-.24,1.09-.25-.26-.5-.53-.76-.79-.26-.25-.53-.49-.8-.74-.09.09-.18.17-.26.26.04.3.13.61.09.89-.04.29-.21.57-.33.85-.23-.21-.58-.39-.65-.64-.16-.55-.18-1.12-1.1-.71.03.34.12.71.09,1.08-.01.22-.2.43-.31.64-.22-.15-.48-.27-.64-.47-.13-.17-.09-.47-.21-.64-.12-.18-.36-.27-.55-.4-.13.2-.3.38-.38.59-.04.12.12.31.08.44-.1.32-.27.61-.41.91-.2-.23-.49-.42-.59-.68-.19-.53-.19-1.22-1.05-.75-.03.11-.05.18-.06.25-.08.48-.07,1.33-.25,1.38-.86.2-.57-.63-.77-1.06-.09-.19-.36-.3-.54-.45-.14.18-.3.36-.4.56-.06.12.05.32,0,.45-.11.28-.27.54-.4.81-.21-.26-.45-.5-.63-.78-.07-.11.01-.34-.07-.44-.12-.16-.33-.34-.5-.34-.15,0-.31.23-.45.38-.04.04.01.15-.01.22-.15.4-.3.8-.45,1.2-.2-.36-.38-.74-.61-1.08-.14-.21-.37-.36-.56-.54-.14.18-.33.35-.42.55-.17.41-.29.84-.43,1.26-.22-.43-.43-.86-.65-1.3-.05-.1-.07-.21-.12-.35-.83-.21-.8.33-.87.89-.03.3-.3.57-.46.86-.16-.26-.41-.5-.46-.78-.13-.6-.19-1.18-1.07-.77.01.2.09.41.03.57-.15.38-.35.73-.53,1.09-.16-.34-.31-.69-.49-1.02-.15-.26-.33-.5-.5-.75-.17.27-.35.54-.52.82-.19.32-.38.64-.57.96-.15-.3-.28-.62-.45-.91-.18-.33-.4-.66-.59-.98l-.34.16c-.03.37,0,.77-.11,1.11-.08.24-.36.41-.56.62-.15-.23-.35-.43-.45-.68-.08-.2.04-.49-.05-.68-.09-.19-.33-.37-.53-.41-.11-.02-.35.23-.41.4-.08.2.04.49-.06.67-.12.23-.38.38-.58.56-.15-.19-.36-.35-.43-.57-.07-.25.03-.55-.03-.8-.05-.17-.29-.44-.39-.42-.21.05-.43.23-.56.41-.09.14.02.4-.06.56-.14.26-.36.48-.55.72-.16-.26-.39-.5-.47-.77-.08-.28-.02-.6-.28-1.13-.24.23-.52.43-.72.69-.24.31-.42.66-.62,1-.14-.38-.3-.75-.41-1.13-.05-.17,0-.37-.28-.78-.24.24-.5.46-.71.71-.25.3-.46.64-.68.97-.1-.39-.22-.78-.31-1.17-.03-.15,0-.3,0-.47-.7-.44-.9-.11-1.06.55-.08.32-.44.57-.67.85-.1-.33-.19-.66-.31-.98-.11-.31-.26-.6-.39-.9-.2.24-.4.49-.6.74-.22.27-.43.55-.64.82-.14-.3-.27-.6-.41-.91-.14-.33-.28-.67-.42-1-.19.27-.38.56-.59.82-.21.26-.46.49-.68.74-.12-.33-.24-.65-.34-.98-.11-.35-.19-.71-.28-1.07-.13.02-.27.04-.4.06-.11.32-.17.66-.34.94-.15.24-.42.41-.64.61-.12-.28-.38-.58-.33-.83.13-.63.25-1.15-.72-1.12-.12.38-.19.76-.37,1.08-.1.18-.38.27-.57.4-.12-.2-.31-.39-.35-.61-.04-.21.12-.47.08-.67-.05-.25-.23-.47-.36-.7-.2.17-.41.33-.59.53-.07.07-.02.25-.08.33-.21.23-.44.43-.66.65-.12-.28-.3-.55-.35-.84-.04-.21.16-.45.13-.66-.03-.18-.2-.43-.36-.47-.15-.04-.42.09-.54.24-.14.17-.11.47-.25.63-.19.21-.48.33-.73.48-.08-.26-.26-.52-.23-.76.08-.55.46-1.17-.53-1.24-.05.06-.11.11-.15.18-.31.43-.62.86-.92,1.3-.06-.5-.09-1.01-.18-1.5-.03-.19-.17-.44-.31-.5-.16-.06-.43.05-.57.18-.13.11-.09.39-.22.51-.23.23-.53.41-.79.61-.06-.3-.14-.59-.18-.89-.05-.36-.07-.73-.11-1.09-.29.26-.56.54-.87.78-.24.19-.5.34-.76.5-.07-.3-.16-.6-.21-.91-.02-.1.12-.22.11-.32-.04-.26-.12-.52-.18-.78-.25.15-.52.27-.74.44-.31.25-.59.55-.89.83-.03-.41-.04-.83-.09-1.23-.04-.32-.13-.64-.19-.96h-.38c-.17.33-.3.69-.53.97-.16.19-.47.26-.71.38-.07-.25-.21-.51-.21-.76,0-.21.23-.43.21-.64-.01-.22-.15-.48-.31-.61-.08-.06-.41.08-.54.21-.15.15-.16.45-.32.6-.19.18-.46.28-.69.41-.07-.29-.18-.58-.2-.88,0-.17.2-.35.19-.53,0-.22-.07-.55-.22-.63-.14-.08-.45.07-.63.2-.14.1-.14.38-.27.49-.23.18-.52.29-.78.43-.04-.3-.11-.6-.12-.9,0-.14.18-.29.17-.41-.03-.26-.14-.5-.21-.76-.21.09-.45.16-.63.29-.11.08-.12.3-.23.39-.24.19-.51.34-.77.5-.05-.33-.22-.7-.13-.98.19-.55.61-1.08-.15-1.19-.63.45-1.1.79-1.58,1.13v-1.7c-.22-.66-.53-.41-.91.14-.19.27-.62.36-.95.54.02-.35.05-.69.06-1.04.01-.33.01-.65.02-.98-.28.15-.57.29-.85.45-.32.18-.63.37-.95.56.02-.37.04-.74.04-1.12,0-.32,0-.65,0-.97-.27.13-.53.26-.8.4-.35.18-.7.38-1.05.56.07-.4.16-.8.19-1.21.02-.28-.04-.57-.06-.86-.24.1-.5.18-.73.3-.36.2-.69.44-1.04.67.06-.43.1-.87.18-1.3.03-.14.14-.27.4-.75-.54.07-.88.05-1.17.17-.4.18-.76.46-1.13.69.1-.47.2-.93.31-1.4.03-.11.09-.21.29-.65-.49.07-.84.07-1.14.18-.41.15-.78.39-1.17.59.11-.42.21-.85.33-1.27.04-.14.15-.27.44-.77-.6.1-.94.12-1.24.22-.41.15-.79.37-1.18.56.1-.39.23-.78.3-1.18.05-.28.02-.58.02-.86-.27.1-.55.2-.82.3-.37.14-.74.27-1.11.41.09-.36.09-.79.3-1.06.4-.52.46-.86-.38-1.19-.2.24-.4.58-.68.83-.16.14-.45.14-.68.21-.04-.27-.15-.56-.1-.82.04-.2.33-.34.4-.54.07-.24.02-.51.02-.77-.23.03-.47.03-.68.11-.13.05-.19.26-.32.32-.28.13-.58.21-.87.31.03-.33-.02-.69.09-.99.1-.27.36-.48.83-1.06-.64.04-.99,0-1.29.1-.35.12-.66.36-.99.55-.1-.09-.21-.18-.31-.27.19-.36.4-.71.55-1.09.08-.21.06-.46.08-.69-.26.01-.54-.03-.77.06-.35.14-.65.38-.98.58-.1-.09-.21-.17-.31-.26.24-.51.48-1.01.85-1.8-.39.03-.72.02-1.04.07-.37.06-.73.17-1.09.26.1-.33.21-.66.3-1,.08-.28.13-.57.2-.86-.29.05-.59.08-.86.17-.36.11-.71.27-1.06.41-.08-.09-.15-.19-.23-.29.32-.49.64-.98,1.15-1.77-.52.04-.86.02-1.18.09-.39.08-.78.23-1.16.35.14-.38.29-.75.42-1.14.09-.28.16-.56.24-.85-.29.03-.58.05-.87.1-.4.07-.79.17-1.18.26.18-.37.38-.73.53-1.11.11-.27.15-.56.23-.84-.29.04-.59.06-.88.12-.37.08-.74.19-1.1.28.15-.38.31-.75.46-1.12.11-.27.19-.55.29-.83-.26,0-.52-.03-.78,0-.43.06-.86.16-1.29.25.23-.38.44-.78.69-1.15.08-.12.25-.18.35-.24-.22-.82-.56-.79-1.11-.45-.3.18-.72.16-1.09.23.17-.37.35-.73.52-1.1.12-.27.22-.54.33-.81-.26-.03-.51-.09-.77-.07-.43.03-.86.11-1.29.17.26-.37.51-.74.77-1.11.06-.09.17-.16.26-.24-.09-.83-.46-.77-1.06-.43-.3.17-.72.1-1.09.13.18-.33.35-.66.52-1,.14-.29.27-.58.4-.87-.3,0-.59,0-.89.02-.38.02-.76.05-1.15.08.22-.34.45-.68.65-1.03.16-.29.27-.6.41-.9-.88.06-1.48.1-2.08.14.33-.48.65-.97,1.13-1.66-.2-.07-.5-.24-.8-.25-.46-.03-.92.05-1.39.08.32-.36.65-.72.97-1.08.08-.08.17-.15.26-.22,0-.12,0-.25,0-.37-.35-.03-.71-.07-1.06-.09-.37-.02-.74-.02-1.11-.03.21-.31.43-.61.62-.92.17-.27.31-.55.47-.83-.3-.02-.59-.03-.88-.05-.37-.01-.75-.02-1.12-.03.21-.3.43-.6.63-.91.18-.27.34-.54.51-.82-.32-.03-.64-.05-.96-.08-.37-.03-.73-.08-1.09-.12.21-.27.41-.54.62-.81.21-.26.42-.52.63-.78-.35-.04-.7-.09-1.05-.13-.33-.04-.65-.09-.98-.13.18-.28.36-.56.56-.83.21-.29.42-.57.63-.85-.33-.03-.65-.05-.97-.08-.35-.04-.69-.09-1.04-.14.23-.29.46-.58.69-.87.2-.26.39-.51.59-.77-.33-.04-.65-.08-.98-.12-.34-.05-.68-.11-1.02-.16.24-.28.47-.56.7-.85.2-.26.39-.52.58-.79-.29-.06-.58-.12-.87-.17-.37-.06-.74-.09-1.1-.13.24-.28.48-.56.71-.84.21-.25.4-.51.6-.77-.29-.06-.57-.12-.86-.18-.38-.08-.75-.15-1.13-.22.27-.26.54-.52.81-.79.21-.21.4-.43.6-.64-.31-.1-.61-.23-.92-.31-.35-.09-.7-.15-1.05-.22.26-.26.53-.52.78-.78.21-.21.41-.43.62-.65-.22-.12-.44-.3-.68-.35-.44-.11-.89-.14-1.33-.21.39-.28.77-.57,1.16-.85.09-.07.2-.12.3-.18.16-.92-.41-.74-.97-.71-.32.02-.65-.17-.97-.26.24-.24.47-.48.71-.72.25-.25.5-.49.76-.73-.32-.08-.64-.15-.96-.24-.33-.09-.65-.21-.97-.31.23-.23.46-.47.7-.69.27-.24.55-.47.82-.71-.35-.09-.71-.18-1.06-.28-.3-.09-.59-.21-.89-.33.16-.22.29-.48.5-.65.32-.28.7-.5,1.05-.74-.44-.1-.87-.21-1.3-.31-.15-.03-.3-.06-.46-.09-.26-.94.47-.84.98-1.02.2-.07.33-.32.5-.49-.21-.16-.4-.38-.63-.47-.42-.15-.87-.22-1.31-.32.41-.25.81-.5,1.22-.75.09-.06.21-.07.35-.12.17-.75-.09-.94-.84-.82-.3.05-.65-.27-.98-.41.28-.19.56-.37.84-.57.31-.21.6-.44.91-.66-.07-.11-.13-.21-.2-.32-.37,0-.75.06-1.1-.02-.25-.06-.45-.3-.67-.46.2-.19.37-.41.6-.55.15-.09.42.01.56-.08.21-.15.37-.39.54-.59-.2-.13-.39-.3-.61-.36-.21-.06-.48.06-.68-.02-.21-.08-.5-.3-.5-.47,0-.18.25-.44.45-.53.23-.1.56.02.79-.09.18-.09.35-.35.38-.56.02-.11-.26-.33-.43-.38-.25-.07-.55.04-.8-.04-.21-.07-.51-.3-.5-.45,0-.19.25-.45.45-.54.23-.1.56.02.79-.09.19-.09.38-.33.43-.54.02-.1-.25-.34-.43-.4-.25-.08-.54.01-.8-.06-.18-.05-.49-.26-.47-.34.05-.22.2-.48.38-.58.22-.12.54-.03.78-.14.19-.09.31-.32.47-.49-.17-.15-.32-.36-.52-.44-.2-.08-.48.03-.68-.05-.21-.09-.36-.3-.54-.46.17-.18.32-.39.52-.51.15-.09.4.01.56-.06.24-.1.44-.29.65-.44-.23-.19-.45-.39-.69-.56-.08-.06-.25.02-.33-.03-.23-.13-.43-.31-.65-.47.24-.18.46-.42.73-.53.19-.08.47.09.67.02.16-.06.32-.3.36-.48.03-.12-.14-.33-.27-.42-.11-.08-.31-.02-.44-.08-.34-.16-.67-.36-1-.54.33-.16.67-.31.99-.48.32-.16.62-.34,1.04-.57-.31-.26-.36-.32-.43-.35-.49-.21-1.41-.42-1.41-.6.03-.95.88-.32,1.32-.53.19-.09.37-.34.42-.55.03-.1-.24-.32-.41-.4-.16-.08-.41.01-.56-.07-.26-.16-.47-.4-.71-.61.28-.14.55-.28.83-.4.1-.04.25.04.34,0,.25-.15.48-.33.72-.5-.21-.16-.41-.34-.63-.49-.34-.22-.69-.43-1.04-.64.38-.14.77-.26,1.15-.43.27-.12.51-.29.76-.44-.24-.18-.48-.37-.72-.55-.29-.22-.57-.44-.86-.66.35-.12.7-.24,1.05-.36.32-.12.63-.25.95-.38-.03-.13-.06-.25-.09-.38-.36-.1-.74-.15-1.07-.32-.22-.11-.35-.4-.51-.6.24-.13.47-.31.72-.37.21-.04.46.13.67.09.17-.03.41-.22.43-.38.03-.16-.1-.45-.25-.53-.26-.14-.6-.13-.87-.27-.17-.09-.27-.32-.41-.48.19-.15.37-.38.59-.43.24-.06.54.1.79.05.21-.04.4-.24.59-.37-.14-.19-.25-.42-.43-.56-.14-.1-.4-.04-.54-.14-.22-.16-.38-.4-.57-.6.24-.13.47-.32.73-.38.21-.05.47.11.68.06.21-.05.39-.24.59-.36-.13-.19-.24-.41-.41-.55-.14-.11-.39-.07-.54-.17-.22-.16-.39-.38-.58-.58.27-.15.52-.35.8-.42.2-.05.45.15.66.13.18-.02.49-.19.5-.31,0-.21-.13-.46-.29-.62-.12-.12-.4-.06-.53-.18-.22-.19-.39-.45-.58-.69.25-.1.5-.27.76-.28.33-.02.67.08,1.01.12.09-.1.17-.19.26-.29-.25-.26-.49-.52-.74-.77-.24-.24-.49-.47-.74-.71.35-.1.7-.2,1.05-.3.32-.09.63-.17.95-.25-.23-.23-.47-.46-.7-.69-.23-.24-.46-.49-.69-.73.34-.09.68-.18,1.03-.26.36-.09.72-.16,1.07-.24l-.06-.34c-.09-.06-.18-.12-.27-.19-.39-.3-.78-.6-1.17-.9.46-.05.93-.09,1.39-.17.22-.04.54-.13.61-.29.06-.15-.12-.43-.26-.61-.08-.1-.31-.07-.42-.17-.23-.21-.43-.46-.64-.7.33-.1.67-.32.97-.27.56.1,1.15.47,1.15-.28-.53-.59-.92-1.03-1.3-1.46.57-.05,1.15-.1,1.98-.17.3-.27.18-.57-.44-.88-.31-.15-.51-.54-.77-.82.4-.04.8-.07,1.19-.12.29-.04.57-.1.85-.16-.12-.23-.21-.49-.36-.7-.25-.33-.54-.62-.81-.92.44-.01.87-.03,1.31-.03.14,0,.28.09.79.26-.17-.53-.2-.87-.36-1.12-.24-.37-.57-.67-.86-1,.48.02.96.04,1.44.07.11,0,.21.06.67.21-.14-.5-.17-.83-.33-1.09-.24-.37-.56-.68-.85-1.02.47.03.95.05,1.42.08.11,0,.22.06.33.1.59-.46.42-.76-.14-1.11-.29-.18-.42-.61-.62-.92.37,0,.74.01,1.11,0,.3,0,.6-.01.9-.02-.15-.28-.29-.57-.45-.85-.18-.32-.38-.63-.57-.95.37.01.74.03,1.1.03.32,0,.65-.03.97-.04-.17-.28-.33-.55-.5-.83-.18-.29-.36-.58-.55-.87.36-.01.73-.04,1.09-.03.33,0,.66.03.98.05-.14-.29-.28-.58-.43-.86-.17-.32-.36-.64-.54-.95.37.02.75.01,1.12.08.21.04.4.2.62.32.73-.49.42-.81-.09-1.2-.26-.2-.37-.57-.55-.87.37,0,.79-.11,1.09.03.54.27.97.56,1.16-.37-.26-.2-.57-.38-.78-.64-.16-.2-.19-.5-.28-.76.3-.02.63-.14.89-.05.5.18,1,.96,1.36-.2-.24-.19-.52-.35-.69-.59-.17-.24-.22-.57-.32-.87.3,0,.65-.08.9.04.48.21.93.89,1.32-.09-.03-.08-.05-.15-.09-.21-.29-.47-.58-.93-.88-1.4.47.14.93.3,1.41.39.21.04.49,0,.66-.12.08-.05,0-.39-.07-.57-.05-.13-.26-.19-.32-.32-.15-.31-.24-.64-.36-.97.34.05.73,0,1,.17.49.3.89.69,1.23-.2-.15-.16-.35-.3-.45-.49-.18-.35-.3-.72-.44-1.09.36.09.73.18,1.09.26.35.08.71.14,1.12.22-.37-.86-.62-1.42-.87-1.99.59.17,1.18.33,2.03.57-.04-.27-.04-.61-.15-.92-.13-.35-.35-.66-.53-.99l.3-.32c.49.27.97.55,1.74.98-.03-.45.02-.8-.09-1.1-.12-.36-.38-.67-.53-.92.88-1.07,1.51,1.31,2.31,0-.28-.53-.53-1.01-.78-1.48.09-.09.18-.19.27-.28.33.17.65.36.99.49.25.09.52.1.79.14-.03-.26,0-.54-.09-.77-.13-.35-.34-.68-.46-.92.93-1.01,1.39,1.38,2.3.01-.17-.23-.4-.45-.51-.72-.12-.3-.13-.65-.19-.98.32.09.71.09.95.29.44.37.77,1,1.28.04-.23-.3-.5-.58-.67-.92-.09-.2-.01-.48,0-.72.25.01.51-.03.74.05.16.06.24.31.4.39.26.13.55.19.82.27-.02-.3-.03-.59-.07-.88-.06-.39-.14-.79-.21-1.18.36.2.72.42,1.1.58.3.12.64.15.96.22.03-.12.07-.23.11-.34-.17-.25-.39-.48-.49-.75-.1-.28-.09-.6-.12-.91.32.1.65.18.96.32.12.06.18.28.3.33.21.09.44.1.67.15.04-.22.12-.45.1-.67,0-.13-.21-.24-.24-.38-.06-.33-.07-.66-.1-1,.31.12.63.21.93.35.33.15.63.35.94.53-.03-.35-.07-.69-.09-1.04-.03-.34-.05-.69-.07-1.03.31.14.71.19.92.42.37.42.63.96,1.09.42-.1-.75-.18-1.36-.26-1.98.5.3,1,.6,1.73,1.03.05-.16.23-.45.23-.74,0-.46-.09-.93-.14-1.39.38.31.76.62,1.14.92.06.05.11.1.22.2.73-.1.76-.44.43-1.07-.16-.29-.06-.71-.09-1.08.33.18.65.36.97.55.28.16.57.32.85.47,0-.33-.01-.66-.02-.99,0-.34-.02-.68-.03-1.02.32.17.65.34.97.52.28.16.55.34.83.51.01-.32.02-.65.04-.97.02-.37.05-.74.08-1.1.28.2.64.33.82.6.34.49.59.97,1.2.23-.14-.33-.35-.67-.42-1.03-.04-.21.13-.46.2-.69.23.08.51.09.67.24.19.17.22.5.41.68.15.14.43.16.65.23.06-.22.19-.44.18-.65-.02-.21-.24-.41-.25-.63-.02-.23.11-.47.17-.7.26.09.56.13.76.29.16.13.17.45.33.59.16.15.42.18.64.27.07-.22.2-.43.21-.65,0-.17-.19-.35-.19-.53,0-.27.09-.53.14-.8.27.13.62.2.79.41.34.42.41,1.32,1.05.69.04-.78.07-1.33.1-1.89.44.36.89.72,1.33,1.08.56.25.7-.03.54-.69-.09-.37.08-.81.13-1.21.27.27.52.56.8.81.26.23.54.42.82.63.09-.09.18-.18.26-.26-.08-.33-.22-.65-.22-.97,0-.3.15-.59.24-.89.24.18.57.32.71.56.27.48.33,1.21,1.2.57-.04-.16-.12-.35-.11-.52.03-.41.11-.81.17-1.22.27.3.54.6.82.89.19.19.41.34.62.51.11-.27.26-.54.33-.82.03-.12-.15-.3-.12-.43.06-.26.2-.5.31-.75.23.15.53.25.66.47.27.44.2,1.26,1.18.76-.06-.35-.17-.71-.15-1.07.02-.24.23-.48.35-.72.2.14.44.26.59.44.11.13.06.41.18.53.18.19.43.31.65.45.1-.21.24-.42.29-.65.03-.17-.13-.38-.09-.56.06-.27.21-.51.32-.76.22.16.47.28.63.48.13.17.1.47.23.64.13.17.38.26.57.39.12-.2.29-.38.36-.6.04-.12-.13-.31-.09-.44.09-.32.23-.63.35-.94.21.22.44.43.64.66.24.28.44.59.67.89.11-.37.21-.75.34-1.11.1-.28.25-.54.38-.81.22.22.45.43.65.67.23.27.43.57.65.85.12-.34.23-.68.36-1.02.11-.29.23-.56.34-.85.24.29.47.58.71.86.21.24.43.46.65.69.11-.28.24-.55.34-.84.13-.35.24-.7.35-1.05.22.3.46.58.64.89.11.19.13.43.21.69.67.09.89-.11.83-.81-.03-.35.27-.74.41-1.11.19.33.37.66.57.97.17.26.37.49.55.73.14-.29.29-.58.43-.88.16-.34.3-.68.46-1.02.2.32.39.63.59.95.16.26.33.51.5.76.17-.28.35-.55.5-.83.17-.32.33-.65.48-.97.19.32.37.64.58.94.19.28.42.54.64.81.36-.81.61-1.38.86-1.94.26.49.53.99.93,1.74.53.21.63-.26.66-.93.01-.28.24-.55.37-.83.21.26.43.5.61.78.2.31.35.65.52.97.17-.33.34-.66.52-.99.15-.26.3-.52.46-.78.19.27.4.54.58.82.19.31.35.64.52.96.19-.3.38-.59.57-.89.18-.29.34-.59.51-.88.18.31.4.61.54.94.08.2.04.45.06.71.53.14,1.04.48,1.2-.45.07-.41.38-.77.57-1.16.16.42.32.84.47,1.26.04.1.02.23.04.4.59.28.94.27,1.02-.56.03-.32.38-.61.59-.92.15.34.29.68.44,1.02.12.27.27.53.4.8.2-.25.41-.49.6-.75.22-.29.41-.6.62-.9.15.34.29.68.44,1.02.12.28.24.56.37.84.21-.25.43-.5.63-.76.22-.28.42-.58.64-.87.13.35.26.69.4,1.04.11.28.22.55.33.83.22-.24.45-.47.66-.71.23-.28.44-.57.66-.86.12.35.22.69.35,1.04.1.27.23.54.35.81.21-.21.42-.4.61-.62.26-.31.5-.63.75-.95.1.37.18.74.3,1.1.09.29.24.56.36.84.21-.24.43-.48.63-.72.22-.27.43-.54.65-.8.13.34.26.67.4,1.01.12.3.24.59.36.89.2-.17.42-.33.59-.52.26-.3.49-.62.73-.94.08.42.17.85.24,1.27.02.11-.01.23-.02.37.62.52.86.2,1.1-.41.12-.3.5-.5.77-.74.07.33.11.67.21.99.09.31.23.61.35.91.21-.21.41-.42.61-.63.26-.26.51-.53.77-.79.09.33.18.67.27,1.01.08.32.15.64.23.96.24-.21.49-.42.72-.64.26-.25.51-.52.77-.78.07.36.14.72.22,1.08.06.3.13.59.19.89.25-.19.51-.38.75-.59.28-.24.54-.51.81-.76.07.37.14.74.21,1.11.05.29.09.59.14.88.26-.19.53-.36.78-.57.29-.24.56-.5.83-.74.06.36.1.72.17,1.08.06.32.15.62.23.94.23-.19.47-.37.7-.56.28-.24.55-.5.82-.75.06.37.11.74.16,1.11.05.3.09.6.14.9.26-.19.53-.37.78-.57.29-.23.58-.47.86-.71.04.38.07.77.13,1.15.05.31.13.62.2.92.23-.18.45-.38.68-.55.29-.22.6-.43.9-.65.03.36.05.73.09,1.09.03.3.06.59.09.89.28-.18.56-.34.83-.53.3-.21.58-.45.87-.68.03.37.06.74.09,1.11.03.32.06.64.09.96.27-.18.54-.36.81-.54.3-.2.6-.4.91-.6,0,.38,0,.75.01,1.13.01.34.04.68.06,1.03.12,0,.24.02.37.03.15-.21.27-.45.45-.62.27-.25.6-.45.9-.67.02.37.05.74.07,1.1.02.36.03.73.05,1.3.39-.27.46-.3.51-.35.39-.35.96-1.08,1.14-.99.86.42-.05.92-.08,1.41,0,.19.08.53.17.55.21.04.45-.06.66-.15.09-.03.1-.22.19-.28.31-.2.64-.38.96-.56-.03.38.05.8-.1,1.12-.27.57-.31.92.48,1.06.18-.27.33-.6.58-.82.19-.17.5-.21.76-.32.05.27.17.54.14.8-.02.21-.28.39-.31.6-.03.22.09.45.15.68.22-.06.47-.09.66-.21.15-.09.19-.36.34-.45.25-.15.56-.21.84-.31,0,.3.05.61,0,.9-.03.18-.25.32-.27.49-.02.22.08.44.13.67.23-.06.48-.06.67-.18.18-.12.24-.41.42-.53.19-.14.45-.17.68-.25.06.27.23.57.16.8-.11.35-.37.65-.46,1.3.32-.08.66-.13.96-.26.39-.17.76-.4,1.14-.6-.11.44-.22.88-.34,1.31-.04.14-.13.27-.37.73.52-.06.86-.03,1.14-.14.43-.17.83-.42,1.24-.64-.14.46-.28.91-.42,1.37-.03.11-.09.21-.28.63.48-.05.81-.02,1.08-.12.44-.16.84-.42,1.26-.63-.15.45-.3.91-.45,1.36-.04.11-.09.21-.14.31.31.67.62.59,1.09.11.26-.26.73-.3,1.1-.43-.1.36-.1.79-.31,1.07-.4.53-.43.86.43,1.15.06-.1.12-.33.27-.42.35-.21.74-.36,1.12-.53-.09.39-.08.86-.3,1.16-.41.56-.38.87.44,1.12.1-.14.2-.39.38-.5.32-.18.68-.27,1.03-.41-.08.36-.04.83-.25,1.07-.45.52-.57.87.08,1.16.53-.33,1-.63,1.39-.87,1.09.9-1.29,1.48.12,2.31.16-.13.3-.29.46-.35.35-.12.72-.2,1.08-.29-.1.34-.21.67-.29,1.01-.07.28-.09.58-.14.87.23-.02.47,0,.69-.06.4-.1.8-.24,1.2-.36-.18.41-.36.82-.54,1.23-.05.1-.11.2-.38.69.64-.11,1-.18,1.35-.24.33-.05.65-.1.98-.15-.08.3-.16.6-.25.9-.1.31-.21.62-.31.93.31-.06.63-.13.94-.19.37-.07.74-.15,1.11-.22-.15.35-.31.7-.44,1.06-.13.33-.23.68-.34,1.02.12.05.25.11.37.16.27-.2.52-.46.82-.58.26-.11.59-.07.89-.09-.07.29-.06.65-.23.86-.33.43-1.16.73-.16,1.36.29-.21.54-.46.85-.59.23-.1.53-.04.8-.06-.06.3-.07.62-.2.89-.09.19-.41.27-.5.46-.09.19-.07.49.02.68.04.09.39.09.57.03.21-.07.36-.31.57-.37.25-.07.53-.03.8-.03-.07.29-.1.6-.22.86-.07.15-.35.21-.42.37-.1.22-.1.5-.14.75.23.01.46.04.69.02.1,0,.18-.17.28-.18.35-.07.7-.1,1.05-.15-.15.34-.27.7-.47,1.01-.11.18-.35.29-.58.48h.03ZM86.9,4.26C42.56,4.07,4.35,40.02,4.27,86.73c-.08,46.36,37.61,82.76,82.61,82.76,45.2,0,82.52-36.57,82.64-82.39.12-46.51-37.86-83-82.61-82.84h0Z"/>
        <path class="cls-1" d="m168.6,86.87c.27,43.98-35.69,82.01-82.25,81.75-45.75-.26-82.02-38.05-81.21-83.28C5.92,41.39,42.06,4.75,87.54,5.09c45.26.34,81.31,37.52,81.05,81.78h0Zm-151.03,7.04H6.54c3.34,27.48,16.37,48.66,40.2,62.66,26.58,15.62,59.49,14.43,85.13-3.02,20.97-14.27,32.45-34.39,35.34-59.73-3.69,0-7.09-.01-10.49.03-.21,0-.54.45-.59.73-.24,1.28-.45,2.57-.57,3.86-.1,1.13-.63,1.34-1.63.95.25-1.82.5-3.62.74-5.41-.27-.09-.38-.16-.48-.16-3.68,0-7.37,0-11.05-.03-.71,0-.76.42-.84.96-1.83,12.44-7.1,23.24-16.17,31.92-14.75,14.11-32.39,19.26-52.22,14.5-20.06-4.81-33.43-17.6-40.21-37.1-1.13-3.27-1.73-6.72-2.59-10.18h-12c.26,1.9.5,3.7.75,5.5-1.02.36-1.5.16-1.61-.93-.15-1.52-.44-3.02-.67-4.56h0Zm149.38-14.61c-2.59-36.27-34.13-72.73-79.77-72.93C42.22,6.16,9.63,41.83,6.83,79.17c.13.04.28.11.42.11,3.22,0,6.45,0,9.67.03.78,0,.83-.47.9-1.04.21-1.58.46-3.16.69-4.7h1.47c-.28,1.91-.54,3.74-.8,5.53.24.11.3.17.37.17,3.72.02,7.44.04,11.16,0,.28,0,.73-.48.81-.81.28-1.11.38-2.26.62-3.38,6.33-28.96,33.81-47.95,63.13-43.51,15.21,2.3,27.39,9.85,36.62,22.1,5.42,7.19,8.81,15.3,10.18,24.22.17,1.12.58,1.49,1.74,1.46,3.14-.09,6.29-.03,9.44-.03.41,0,.81-.04,1.36-.07-.29-1.96-.56-3.8-.83-5.63,1.44-.18,1.44-.18,1.63,1.04.2,1.29.35,2.58.6,3.86.06.3.47.76.72.76,3.37.05,6.74.03,10.2.03h0Zm-134.53,7.57c.02,29.73,23.94,54.07,53.74,54.46,30.1.4,55.22-23.7,55.21-54.48-.02-31.04-25.31-54.33-54.19-54.47-29.83-.14-54.75,24.14-54.75,54.49h0Zm-1.35,5.45v-11.51c-.19-.02-.37-.05-.55-.05-7.66,0-15.33,0-23-.02-.88,0-1.02.41-1.02,1.12,0,3.06.02,6.13-.04,9.19-.02,1.04.3,1.36,1.37,1.35,7.36-.05,14.72-.03,22.08-.03.38,0,.75-.03,1.17-.05h0Zm111.62-.06c.21.04.43.11.65.11,7.67,0,15.34,0,23.01.02.71,0,.94-.24.93-.93-.03-3.18-.05-6.35,0-9.53.02-.99-.36-1.2-1.27-1.19-7.44.03-14.88.02-22.32.02-.36,0-.72.05-.99.06v11.44Z"/>
        <path class="cls-1" d="m89.58,151.82c-.92.46-1.61.8-2.26,1.13-.2-.78.2-1.15,1.27-1.23,2.9-.21,5.78-.53,8.67-.85,1.53-.17,1.69-.1,1.86,1.58-.93-1.92-2.24-.89-3.49-.92.09.78.16,1.41.22,2.05.06.58.37.78.94.68.62-.11,1.24-.17,1.86-.25l.05.3c-.83.15-1.65.31-2.62.49.13.97.26,1.89.4,2.94,1.38-.1,2.75.06,3.5-1.52,0,1.41-.09,1.51-1.38,1.69-1.09.16-2.17.32-3.36.49-.26-1.78-.52-3.44-.75-5.09-.2-1.46-.29-1.55-1.73-1.41-1.88.19-1.87.18-1.75,2.06.1,1.56.17,3.12.26,4.76-.5.03-.86.05-1.29.07-.13-2.24-.25-4.4-.4-6.98h0Z"/>
        <path class="cls-1" d="m77.41,151.5c-.36,2.18-.71,4.32-1.09,6.62-.41-.09-.79-.18-1.27-.28.33-2.19.66-4.29.99-6.45-1-.53-1.79-.39-2.42.8.15-1.56.35-1.7,1.64-1.5,1.88.3,3.77.6,5.66.82.77.09.99.5.98,1.14-.02,1.11-.12,2.22-.14,3.32-.02,1.66.54,2.44,1.72,2.5,1.31.07,2.1-.73,2.25-2.35.11-1.3.16-2.6.25-3.9,0-.13.07-.25.11-.37.14.02.28.04.42.06-.23,1.89-.31,3.81-.73,5.65-.26,1.15-1.62,1.52-3.24,1.24-1.22-.21-2.02-1.07-2.07-2.39-.04-1.15.05-2.29.1-3.44.04-.8-.12-1.34-1.12-1.27-.63.04-1.28-.12-2.04-.2h0Z"/>
        <path class="cls-1" d="m42.19,138.83c-.84.95-1.51,1.71-2.28,2.58-.33-.26-.64-.51-.95-.75,1.18-2.1,3.37-3.43,4.16-5.83.66.56,1.54,1.25,2.35,2.01.74.71,1.35,1.54.79,2.63-.58,1.13-1.57,1.03-2.81.67-.14,1.37-.27,2.66-.4,4.02-2.07-1.3-.41-3.38-.86-5.33Zm.18-.24c1.17,1.22,2.62,1.02,2.89-.4.09-.47-.39-1.04-.61-1.57-.36.16-.8.24-1.07.5-.46.44-.82.98-1.21,1.47h0Z"/>
        <path class="cls-1" d="m33.7,124.28c.84.81.43,1.96-1.24,3.46.28.37.56.76.85,1.13.28.36.57.71.94,1.15.86-.63,1.67-1.24,2.57-1.9.27.35.51.67.74.98-1.65,1.76-4.01,2.68-5.27,4.73-1.08-1.05-1.07-1.34.31-2.45.38-.31.77-.62,1.3-1.05-.61-.78-1.18-1.51-1.83-2.34-.95.72-1.82,1.38-2.77,2.1-.28-.35-.52-.67-.74-.95,1.55-1.88,4.12-2.59,5.14-4.88h0Z"/>
        <path class="cls-1" d="m22.64,110.71c-1.13.42-2.12.8-3.2,1.21-.18-.36-.35-.68-.54-1.05,2-1.39,4.69-1.36,6.34-3.23.56.96-.16,1.95-2.16,2.96.32.86.65,1.72,1.03,2.73,1.01-.38,1.96-.73,3.01-1.11.16.39.31.76.46,1.12-2.04,1.27-4.61,1.38-6.36,3.08-.79-1.22-.67-1.61.93-2.27.49-.2.97-.41,1.56-.66-.35-.92-.67-1.77-1.05-2.77h0Z"/>
        <path class="cls-1" d="m110.54,152.52c0,2.1-1.43,3.54-3.52,3.54-2.06,0-3.69-1.79-3.66-4.05.03-2.03,1.57-3.51,3.63-3.5,2.04.01,3.55,1.72,3.55,4Zm-.97.72c-.51-1.17-.9-2.42-1.59-3.46-.3-.46-1.3-.78-1.86-.64-.55.14-1.18.86-1.34,1.44-.39,1.39.15,2.71.89,3.9.48.77,1.15,1.37,2.19,1.08,1.11-.31,1.45-1.15,1.72-2.31h0Z"/>
        <path class="cls-1" d="m30.25,125.34c-.7.32-1.4.55-2,.94-.67.42-1.17.39-1.73-.15-1.27-1.24-2.15-2.63-1.64-4.49.45-1.63,1.58-2.57,3.24-2.86,2.23-.38,4.51,1.8,4.13,4.03-.08.46-.54.86-.82,1.29-.08-.05-.16-.11-.24-.16.22-.47.62-.93.61-1.4,0-.61-.19-1.3-.53-1.8-.95-1.39-3.05-1.11-4.94.58-1.31,1.17-1.36,2.61-.22,3.81.65.68,1.09.15,1.59-.14,1.39-.81,1.76-.75,2.55.35h0Z"/>
        <path class="cls-1" d="m135.5,129.95c.4-.83,1.27-1.17,2.35-1.16,1.59.02,3.17,0,4.76,0,.03-.14.06-.27.09-.41-1.18-.98-2.36-1.95-3.54-2.93.09-.12.18-.23.28-.35,1.83,1.47,3.66,2.93,5.49,4.4l-.11.44h-6.86c-.05.15-.09.29-.14.44,1.3,1.05,2.59,2.1,3.89,3.15-2.36-.65-3.6-3.19-6.2-3.58h0Z"/>
        <path class="cls-1" d="m52.95,144.65c-.81,1.45-1.62,2.9-2.43,4.36-.09-.05-.18-.1-.27-.15.53-2.3,2.84-3.95,2.67-6.59.7.25,1.31.75,1.5,1.79.31,1.69.73,3.35,1.18,5.38.91-1.63,1.67-2.99,2.43-4.35.13.07.26.15.39.22-1.12,2.07-2.24,4.14-3.37,6.2l-.37-.06c-.49-2.25-.98-4.5-1.47-6.75-.09-.01-.18-.03-.26-.04h0Z"/>
        <path class="cls-1" d="m151.42,113.85c1.18.04,2.19-.25,2.54-1.49.12-.44.05-1.17-.24-1.42-.3-.25-1.04-.24-1.45-.04-.71.35-1.31.93-1.95,1.42-.8.62-1.66.84-2.54.23-.87-.61-.77-1.53-.54-2.4.49-1.85,1.56-2.42,3.22-1.56-.46.03-.77-.04-.99.08-.55.28-1.24.54-1.52,1.01-.24.39-.18,1.23.1,1.6.18.24,1.06.15,1.51-.06.61-.28,1.11-.81,1.65-1.24.82-.64,1.68-1.18,2.69-.42.97.72.87,1.71.56,2.71-.09.29-.21.58-.35.85-.68,1.27-1.35,1.48-2.71.76h0Z"/>
        <path class="cls-1" d="m57.77,150.47c-.08,1.12.12,2.14,1.3,2.54.47.15,1.26.14,1.53-.14.27-.28.23-1.08.03-1.53-.3-.69-.85-1.26-1.29-1.89-.57-.81-.83-1.69-.17-2.54.71-.92,1.67-.78,2.61-.42,1.74.66,2.16,1.59,1.23,3.3,0-.59.01-.89,0-1.19-.04-.94-.6-1.5-1.44-1.7-.35-.08-.93.04-1.12.29-.22.29-.31.91-.14,1.22.42.8,1.02,1.52,1.54,2.27.51.74.78,1.5.22,2.34-.56.83-1.4.89-2.25.7-.55-.12-1.09-.36-1.57-.66-1.13-.7-1.24-1.31-.48-2.59h0Z"/>
        <path class="cls-1" d="m122.82,143.48c-.79-.66-1.62-1.23-2.61-.63-.41.25-.9.9-.84,1.28.06.38.75.82,1.23.91.77.15,1.6.01,2.41.06.87.06,1.72.28,1.99,1.26.28,1.01-.12,1.8-.96,2.38-.35.24-.71.46-1.09.62-1.37.58-1.95.34-2.72-1.24.47.31.79.7,1.12.71.72.02,1.48-.04,2.14-.29.3-.11.6-.76.55-1.11-.06-.35-.52-.8-.89-.89-.65-.18-1.36-.15-2.05-.15-1.77-.02-2.61-.49-2.78-1.6-.15-1.01.69-2.02,2.11-2.52,1.34-.48,1.86-.24,2.39,1.21h0Z"/>
        <path class="cls-1" d="m143.92,117.92c.6-1.21,1.23-2.57,1.92-3.88.5-.94,1.15-.52,1.77-.13-1.81-.15-1.77,1.46-2.51,2.49.87.44,1.65.83,2.5,1.25.45-.87.88-1.68,1.3-2.49l.3.15c-.36.81-.72,1.62-1.14,2.57.88.43,1.75.85,2.67,1.3.66-1.23,1.6-2.26.62-3.88,1.05.7,1.27,1.32.74,2.24-.56.95-1,1.97-1.54,3.07-1.74-.85-3.4-1.69-5.09-2.46-.42-.19-.94-.15-1.54-.23h0Z"/>
        <path class="cls-1" d="m41.11,135.1c.38-1.38.15-1.84-1.56-3.1-.63.59-1.26,1.17-1.92,1.79.68.75,1.26,1.4,1.84,2.04-.07.08-.14.15-.21.23-.65-.61-1.29-1.22-2-1.89-.68.71-1.34,1.38-2.06,2.13.85.87,1.41,2.13,3.02,1.87-.77.69-1.04.73-1.69.18-.96-.81-1.91-1.64-2.8-2.41,1.59-2.25,3.88-3.37,4.84-5.46.87.81,2.04,1.83,3.1,2.95.67.71.11,1.21-.56,1.66h0Z"/>
        <path class="cls-1" d="m139.04,134.51c1.12,1.32.53,1.65-2.49,4.47-2.03-1.22-3.01-3.8-5.54-4.49.99-1,2.05-2.1,3.15-3.15.71-.67,1.24-.22,1.87.58-1.83-.79-2.36.65-3.31,1.44.66.7,1.26,1.33,2.1,2.23.64-.85,1.18-1.58,1.72-2.31.12.11.24.22.35.33-.59.68-1.19,1.36-1.86,2.11.74.67,1.44,1.31,2.14,1.95,1.57-1.1,1.95-1.74,1.86-3.17h0Z"/>
        <path class="cls-1" d="m145.23,120.12c-1.7-.3-2.53.04-3.08,1.14-.52,1.05-.26,2.04.92,3,.59.47,1.25.91,1.95,1.18,2,.77,3.65-.63,3.35-2.75-.04-.32-.12-.63-.21-1.12,1.38,1.86-.03,4.84-2.29,5.21-1.63.27-3.49-.73-4.26-2.31-.73-1.5-.37-3.2.91-4.39.97-.9,1.74-.91,2.69.04h0Z"/>
        <path class="cls-1" d="m129.14,139c-.69-.24-1.21-.54-1.75-.6-1.38-.15-2.76,1.45-2.24,2.75.42,1.06,1.09,2.14,1.93,2.9,1.56,1.42,3.65.53,4.02-1.57.04-.25.06-.51.1-.87.58,1.4-.22,2.85-1.89,3.63-1.74.81-3.64.11-4.66-1.71-1.06-1.91-.55-3.99,1.27-5.1,1.4-.85,2.31-.72,3.23.58h0Z"/>
        <path class="cls-1" d="m115.33,149.23c-.66.32-1.33.65-2.07,1.01.42,1.02.83,2,1.27,3.07-.38.19-.7.35-1.07.54-1.42-1.98-1.47-4.65-3.42-6.33,1.22-.51,2.54-1.1,3.88-1.63.98-.38,1.13.37,1.34,1.11-1.19-1.28-2.14-.24-3.28.21.36.86.69,1.66,1.06,2.55.78-.28,1.47-.54,2.16-.79.05.09.09.18.14.27h0Z"/>
        <path class="cls-1" d="m66.16,155.81c-.43-.14-.77-.24-1.24-.39.65-2.13,1.28-4.2,1.9-6.26-1.24-.7-1.46-.67-2.49.33.17-1.01.44-1.61,1.58-1.22,1.49.51,3.01.95,4.52,1.42-.03.11-.06.21-.08.32-.69-.17-1.39-.33-2.17-.52-.68,2.13-1.33,4.19-2.01,6.32h0Z"/>
        <path class="cls-1" d="m135,140.43c-1.29,1.23-1.49,1.22-2.67-.13-1.12-1.3-2.25-2.59-3.48-4.02.35-.28.63-.52.93-.76,1.98,1.38,2.78,4.01,5.22,4.92h0Z"/>
        <path class="cls-1" d="m28.42,115.06c.23.43.38.74.56,1.09-1.89,1.44-4.47,1.8-6.1,3.62-.88-1.16-.8-1.55.72-2.31,1.57-.78,3.13-1.56,4.81-2.4Z"/>
        <path class="cls-1" d="m50.73,140.75c.38.24.69.44,1.01.65-.94,2.19-2.96,3.77-3.43,6.17-1.38-.5-1.53-.88-.65-2.23.92-1.42,1.85-2.82,2.78-4.22.06-.09.15-.18.3-.36h0Z"/>
        <path class="cls-1" d="m71.39,149.97c.99-.09,1.31.24,1.01,1.26-.41,1.39-.71,2.81-.98,4.24-.1.53-.02,1.11-.02,1.66-1.45-.12-1.65-.36-1.3-1.93.36-1.64.76-3.27,1.15-4.91.03-.11.09-.21.14-.33h0Z"/>
        <path class="cls-1" d="m27.12,40.69c3.09,2.03,6.04,3.97,8.99,5.9.45.29.9.59,1.37.84.66.35,1.3.44,1.87-.22.11-.13.35-.15.75-.02-.65.91-1.21,1.91-1.98,2.71-.66.69-1.52.28-2.22-.15-1.36-.84-2.7-1.73-4.14-2.66-1.09,1.66-2.14,3.25-3.27,4.96,1.95,1.3,3.85,2.56,5.82,3.88-.5.77-.95,1.47-1.49,2.3-.37-.23-.71-.44-1.04-.66-2.56-1.68-5.11-3.39-7.69-5.05-1.23-.79-2.43-2.1-4.05-.38-.07-.13-.14-.26-.21-.38.69-.94,1.27-2.02,2.14-2.77.36-.31,1.42-.1,1.99.19,1.25.64,2.4,1.49,3.75,2.36,1.09-1.64,2.15-3.25,3.28-4.96-1.8-1.2-3.54-2.35-5.38-3.58.51-.78.98-1.5,1.51-2.31h0Z"/>
        <path class="cls-1" d="m42.8,37.95c.38.25.77.48,1.15.74,1.95,1.34,4.29,1.04,5.66-.9.38-.54.57-1.43.45-2.08-.17-.92-.97-1.51-1.95-1.47-1.64.06-3.28.27-4.92.36-.87.05-1.78.13-2.61-.08-2.43-.61-3.48-3.11-2.19-5.24,1.21-2,3.04-3.26,5.38-3.53.63-.07,1.43.38,1.98.81.57.44.93,1.14,1.39,1.73l-.27.31c-.37-.23-.76-.45-1.12-.7-1.85-1.29-3.58-1.24-5.11.21-.7.66-1.19,1.43-.79,2.45.4,1.02,1.2,1.53,2.24,1.46,1.72-.12,3.42-.37,5.13-.57,1.33-.16,2.62-.14,3.69.8,1.22,1.07,1.59,2.91.8,4.42-1.09,2.07-2.86,3.37-5.08,4.03-1.26.38-2.34.14-3.08-1.07-.29-.47-.67-.9-1.01-1.34.09-.11.18-.22.27-.33h0Z"/>
        <path class="cls-1" d="m69.2,14.46c1.12-.61,1.8-.22,2.54.6,2.26,2.5,4.61,4.92,6.94,7.37.2.21.44.39.94.5-.57-3.34-1.14-6.69-1.73-10.13.6-.08,1.07-.15,1.66-.23.78,4.44,1.54,8.8,2.31,13.18-1.05.48-1.75.43-2.55-.46-2.51-2.79-5.13-5.48-7.98-8.13.21,1.31.41,2.63.64,3.94.32,1.85.65,3.69,1,5.53.1.56-.03.98-.65.91-.36-.04-.96-.29-1-.53-.76-4.06-1.44-8.13-2.14-12.21-.02-.11.02-.22.03-.35h0Z"/>
        <path class="cls-1" d="m119.09,34.79c-1.18-.31-1.92-.7-1.85-2.08.09-1.48.04-3.02-.26-4.46-.14-.67-1.03-1.19-1.76-1.96-1.03,1.94-1.88,3.54-2.76,5.2-.5-.26-.92-.49-1.48-.78,2.08-4.01,4.13-7.97,6.23-12.04,1.58.85,3.14,1.58,4.59,2.48,1.83,1.12,2.46,2.83,1.87,4.59-.66,1.95-2.04,2.84-4.25,2.74-.15,0-.3-.01-.65-.03.1,2.1.21,4.18.31,6.34h0Zm-3.43-9.42c1.15.56,2.14,1.14,3.2,1.53,1.25.46,2.4-.15,3.02-1.41.58-1.18.38-2.31-.7-3.05-.93-.64-1.97-1.12-3.08-1.74-.83,1.58-1.59,3.02-2.45,4.67Z"/>
        <path class="cls-1" d="m64.09,15.75c1.19,3.28,2.36,6.46,3.48,9.65.12.34.07.76.02,1.14-.29,2.13-2.04,3.78-4.43,4.22-2.18.4-4.07-.35-5.01-2.36-1.32-2.83-2.41-5.77-3.66-8.79.58-.24,1.05-.44,1.59-.66,1.12,2.77,2.17,5.47,3.3,8.14.92,2.17,2.58,2.78,4.65,1.8,1.71-.8,2.35-2.16,1.71-3.96-.83-2.3-1.77-4.56-2.67-6.84-.2-.5-.39-.99-.64-1.62.49-.21.96-.41,1.65-.71h0Z"/>
        <path class="cls-1" d="m134.14,33.31c-.75-.54-1.5-.8-1.26-2.03.29-1.45-1.63-3.14-3.11-2.99-1.42.14-2.32,1.68-1.63,2.98.65,1.21,1.54,2.28,2.24,3.47.99,1.68.68,3.34-.75,4.52-.15.12-.31.23-.47.32-1.48.85-3.43.56-5.01-.74-1.68-1.38-2.34-3.18-1.74-4.85.09-.24.24-.46.41-.77.85.48,1.54.81,1.15,2.07-.33,1.05.41,1.89,1.22,2.53.8.63,1.68.94,2.67.56,1.23-.48,1.72-1.81,1.03-3.04-.58-1.03-1.36-1.94-2-2.94-1.19-1.86-1-3.54.51-4.84.2-.17.43-.33.66-.45,1.56-.8,3.61-.27,5.21,1.32,1.5,1.49,1.79,3.01.86,4.88h0Z"/>
        <path class="cls-1" d="m101.91,13.78c-1.26,2.4-2.53,4.84-3.8,7.27-.82,1.56-1.68,3.1-2.43,4.69-.32.68-.77.75-1.38.66-.58-.09-1.05-.18-1.23-.94-1.02-4.35-2.11-8.69-3.17-13.03,1.42-.34,1.69-.17,2.01,1.17.76,3.24,1.51,6.48,2.28,9.72.08.32.19.63.36,1.19,1.11-2.15,2.1-4.08,3.1-6.02.63-1.23,1.34-2.42,1.85-3.7.47-1.19,1.15-1.61,2.42-1.01h0Z"/>
        <path class="cls-1" d="m105.92,14.73c2.38.75,4.59,1.45,6.89,2.17-.13.43-.25.81-.39,1.3-1.78-.54-3.48-1.06-5.29-1.6-.47,1.47-.9,2.84-1.39,4.37,1.58.52,3.08,1.01,4.57,1.49.04,1.09-.32,1.4-1.31,1.03-1.14-.43-2.33-.73-3.67-1.14-.47,1.49-.93,2.92-1.43,4.5,1.77.58,3.46,1.13,5.25,1.71-.13.43-.24.81-.38,1.3-2.32-.73-4.57-1.43-6.92-2.17,1.36-4.32,2.7-8.58,4.07-12.95h0Z"/>
        <path class="cls-1" d="m31.11,36.25c.74-.74,1.33-1.33,1.98-1.99,2.49,2.35,4.96,4.69,7.43,7.02.14.13.27.27.41.4,1.01.91,1.95,2.09,3.64.96-.76,1.08-1.41,2.2-2.63,2.66-.39.15-1.12-.06-1.46-.37-3.14-2.85-6.22-5.75-9.37-8.68h0Z"/>
        <path class="cls-1" d="m155.09,56.82c-2.47,0-4.88.05-7.29-.02-1.35-.04-2.55.2-3.71.92-.87.54-1.82.96-2.85,1.5-.27-.5-.52-.94-.81-1.47,1.24-.66,2.41-1.21,3.51-1.89.62-.39,1.23-.9,1.66-1.49,1.59-2.19,3.1-4.44,4.67-6.72.86.88,1.07,1.6.23,2.6-1.3,1.55-2.42,3.24-3.78,5.1.84,0,1.46,0,2.07,0,1.42-.03,2.84,0,4.25-.12,1.15-.1,1.82.27,2.05,1.6h0Z"/>
        <path class="cls-1" d="m141.95,38.51c.38-.28.68-.51,1.09-.81,1.85,2.39,3.67,4.73,5.56,7.18-.33.29-.64.55-1.03.89-.77-.97-1.49-1.88-2.31-2.91-3.22,2.48-6.38,4.92-9.61,7.41-.37-.46-.67-.84-1.06-1.32,3.19-2.48,6.35-4.93,9.6-7.45-.75-1-1.45-1.94-2.24-2.98h0Z"/>
        <path class="cls-1" d="m84.64,12.49h1.54v13.39h-1.54v-13.39Z"/>
        <path class="cls-1" d="m129.84,43.68c3.2-3.4,6.24-6.62,9.33-9.88.48.46.83.8,1.15,1.11-3.2,3.25-6.32,6.42-9.57,9.72-.4-.41-.75-.78-.91-.94h0Z"/>
        <path class="cls-1" d="m33.9,86.8c0-29.29,23.81-53.02,53.05-52.99,29.11.03,53.36,23.82,52.97,53.79-.38,28.72-23.76,52.49-53.43,52.28-30.02-.21-52.85-24.91-52.59-53.08h0Zm54.69-28.45v1.3c0,9.7,0,19.41,0,29.12,0,.84,0,1.7.11,2.53,1.61,11.07,7.63,18.66,18.1,22.63,2.76,1.05,5.67,1.55,8.83,1.42v-1.53c0-9.51,0-19.03,0-28.54,0-1.18-.07-2.38-.23-3.55-1.76-13.3-13.13-23.28-26.8-23.37h0Zm-3.41,56.89c.02-.38.06-.8.06-1.21,0-8.09-.02-16.18.03-24.27,0-1.1-.29-1.43-1.41-1.42-8.09.05-16.18.03-24.27.03h-1.2c-2.6,12.13,14.39,29.13,26.79,26.87h0Zm-26.98-43.35c0,7.45,6.12,13.55,13.54,13.51,7.39-.04,13.52-6.21,13.5-13.62-.02-7.34-6.07-13.51-13.49-13.48-8.55.03-13.79,7.14-13.55,13.59h0Z"/>
        <path class="cls-1" d="m15.46,87.82c.5.17.99.4,1.5.48.34.06.72-.09,1.09-.15-.18-.29-.3-.67-.55-.84-.37-.25-.95-.23-1.24-.53-.41-.42-.85-1-.89-1.54-.08-.9.77-1.44,1.96-1.45,1.32-.01,1.84.38,2,1.7-.56-.18-1.02-.37-1.5-.45-.32-.06-.67.05-1.01.09.17.29.28.68.53.85.4.27.93.34,1.36.58,1.09.61,1.14,1.93.15,2.64-1.15.82-2.93.29-3.4-1.38h0Z"/>
        <path class="cls-1" d="m14.28,84.9c-.5,0-.97-.06-1.41.03-.22.04-.57.38-.54.51.06.26.32.48.53.69.06.06.23-.02.33.02.34.13.67.29,1,.44-.34.19-.69.53-1.03.53-.96,0-.96.5-.77,1.35.49,0,.99-.05,1.46.02.22.03.39.32.59.5-.19.18-.37.5-.57.51-.88.06-1.76.03-2.75.03v-5.66c.9,0,1.75.02,2.58,0,.73-.02.87.3.59,1.05h0Z"/>
        <path class="cls-1" d="m21.73,89.45v-4.47c-.54-.06-.95-.1-1.37-.14-.3-.69-.14-1.01.64-.99.88.03,1.76-.04,2.63.03.32.03.62.32.93.49-.3.18-.6.37-.92.53-.13.06-.3.05-.58.09v4.47h-1.34Z"/>
        <path class="cls-1" d="m27.09,88.91c-.56.31-.88.63-1.13.59-.27-.04-.5-.42-.74-.65.26-.22.51-.58.79-.61.26-.02.55.32,1.08.67h0Z"/>
        <path class="cls-1" d="m155.47,86.41c-.01,2.13-.79,3.12-2.33,3.08-1-.03-1.74-.51-1.93-1.46-.18-.87-.21-1.82-.09-2.7.17-1.28,1.01-1.9,2.19-1.86,1.18.05,1.92.75,2.1,2.01.05.34.05.68.06.92h0Zm-1.27.06c-.02-.26.03-.53-.08-.71-.24-.38-.56-.71-.85-1.06-.32.32-.83.59-.92.97-.15.56-.1,1.22.05,1.78.08.3.59.74.82.7.34-.07.67-.48.88-.82.14-.23.08-.59.1-.86h0Z"/>
        <path class="cls-1" d="m159.64,87.82c.48.08.87.11,1.24.2.37.09.86.44,1.06.31.3-.19.4-.71.68-1.3-.54.1-.78.16-1.02.19-1.17.14-1.82-.26-2.09-1.27-.25-.95.21-1.95,1.04-2.3,1.04-.43,2.31-.12,2.69.78.6,1.39.56,2.84-.03,4.23-.38.89-1.23.95-2.06.83-.83-.12-1.34-.62-1.51-1.67h0Zm3.04-2.3c-.5-.41-.79-.83-1.08-.83s-.59.41-.88.64c.26.31.47.78.79.89.22.08.61-.35,1.16-.7h0Z"/>
        <path class="cls-1" d="m146.01,89.43c.37-.67.54-1.12.83-1.47.58-.7,1.27-1.31,1.8-2.05.17-.24-.03-.75-.05-1.14-.35.1-.7.2-1.04.32-.36.12-.71.26-1.17.43-.18-1.02.22-1.68.89-1.8.76-.14,1.76-.11,2.33.3.41.3.54,1.42.35,2.04-.25.78-.95,1.42-1.56,2.27.48.03.88,0,1.25.09.24.06.42.3.63.46-.19.19-.37.52-.57.53-1.1.05-2.2.03-3.69.03h0Z"/>
        <path class="cls-1" d="m156.96,89.52c0-.91.06-1.68-.02-2.42-.09-.86.48-1.91-.67-2.53-.12-.06-.02-.55-.02-.89h2.06v5.78c-.36.02-.76.04-1.36.07h0Z"/>
      </g>
    </g>
  </g>
</svg>