<?xml version="1.0" encoding="UTF-8"?>
<svg id="Layer_2" data-name="Layer 2" xmlns="http://www.w3.org/2000/svg" viewBox="0 0 250.38 158.66">
  <defs>
    <style>
      .cls-1 {
        fill: #fff;
        stroke-width: 0px;
      }
    </style>
  </defs>
  <g id="Layer_1-2" data-name="Layer 1">
    <g id="Layer_1-2" data-name="Layer 1-2">
      <g>
        <path class="cls-1" d="m54.29,157.52c.83-4.33,1.62-8.37,2.38-12.39.42-2.15.71-4.34,1.26-6.45.33-1.25-.17-1.63-1.17-2.07-4.19-1.87-8.46-3.63-12.53-5.73-11.17-5.78-21.26-13.02-29.52-22.6-7.18-8.34-12.32-17.73-14.07-28.72-2.34-14.73,1.62-27.8,10.82-39.37,7.23-9.1,16.44-15.78,26.6-21.23,12.56-6.75,25.97-11.13,39.86-14.14,11.7-2.54,23.54-3.95,35.52-4.53,18.45-.9,36.72.31,54.86,3.81,15.93,3.07,31.3,7.8,45.59,15.6,12.03,6.56,22.51,14.92,29.53,27.01,3.61,6.22,5.8,12.92,6.59,20.07,1,9.14-.12,18-3.47,26.57-2.71,6.93-6.65,13.1-11.57,18.64-10.34,11.67-23.25,19.7-37.28,26.09-17.61,8.02-36.13,12.9-55.14,16.14-12.57,2.14-25.23,3.44-37.96,4.08-4.17.21-8.34.33-12.53.35-6.74.03-13.47.08-20.19-.11-5.78-.16-11.55-.64-17.6-.99h.01Zm70.09-70.27h1.95c14.01,0,28.01-.02,42.02.03,1.35,0,1.93-.43,2.28-1.69,1.15-4.12,1.69-8.3,1.35-12.55-.74-9.35-5.17-16.38-13.67-20.59-6.56-3.25-13.58-3.58-20.68-2.64-8.26,1.09-15.47,4.49-20.77,11.05-7.34,9.09-9.6,19.58-7.18,30.89,1.87,8.75,7.04,15.1,15.42,18.62,5.6,2.35,11.45,2.69,17.38,1.83,9.66-1.39,17.56-5.76,23.01-14.04,1.03-1.57,1.78-3.32,2.7-5.06-.49-.18-.64-.27-.78-.27-5.43-.01-10.87-.03-16.3,0-.44,0-1.02.33-1.27.7-3.99,5.72-12.08,6.49-17.41,4.58-4.9-1.75-8.11-6-8.02-10.86h-.02Zm-11.95-37.82h-13.2c.97-5.08,1.89-9.94,2.86-15.02h-2.11c-4.28,0-8.57.08-12.85-.04-1.61-.04-2.14.53-2.43,2.02-2.86,14.79-5.85,29.55-8.66,44.35-.83,4.39-1.65,8.85-1.74,13.29-.17,8.7,4.68,14.99,12.69,17.45,3.97,1.21,8.03,1.19,12.1,1.07.37,0,.94-.6,1.03-1.01.7-3.16,1.32-6.33,1.95-9.5.31-1.56.61-3.13.96-4.94-1.63,0-3.05.16-4.42-.04-1.41-.2-2.93-.47-4.12-1.2-3.08-1.91-3.29-5.13-2.75-8.22,1.24-7.18,2.75-14.32,4.12-21.5.22-1.17.76-1.48,1.9-1.45,2.71.08,5.43.02,8.15.02,3.41,0,3.47.01,4.18-3.34.82-3.87,1.52-7.76,2.33-11.94h.02Zm91.14-14.94c-.73-.03-1.25-.08-1.75-.08-4.44,0-8.88.04-13.32-.03-1.42-.02-1.98.4-2.25,1.83-2.72,14.07-5.6,28.1-8.26,42.18-.99,5.21-2,10.48-2.19,15.75-.33,8.56,4.92,15.03,13.16,17.42,3.83,1.11,7.72,1.11,11.64.99.39-.01,1.01-.66,1.1-1.11.8-3.67,1.52-7.34,2.24-11.03.2-1.03.31-2.09.49-3.28-1.68,0-3.08.03-4.49,0-3.38-.09-6.2-2.42-6.65-5.71-.2-1.47-.19-3.05.08-4.51,2.08-10.95,4.24-21.89,6.38-32.83,1.26-6.44,2.52-12.89,3.82-19.55v-.02Zm-129.47,21.79c-.4-.08-.65-.16-.91-.16-4.97,0-9.93.01-14.9-.02-1.19,0-1.3.73-1.47,1.6-.99,5.17-1.97,10.34-2.99,15.52-2.45,12.42-4.94,24.85-7.39,37.28-.12.63-.17,1.28-.27,2.1h1.89c4.34,0,8.68-.07,13.01.03,1.48.03,2.07-.37,2.36-1.88,2.24-11.61,4.58-23.21,6.86-34.81,1.28-6.49,2.52-12.98,3.81-19.64v-.02Zm-15.6-6.68c5.53,0,10.79.02,16.06-.06.38,0,.98-.71,1.09-1.18.61-2.7,1.11-5.41,1.62-8.13.35-1.87.66-3.74.98-5.59-.36-.12-.51-.22-.65-.22-5.07-.01-10.13-.06-15.2.02-.43,0-1.1.72-1.21,1.2-.76,3.51-1.42,7.05-2.1,10.58-.19,1.01-.36,2.04-.6,3.35l.02.02Z"/>
        <path class="cls-1" d="m126.4,74.16c1.3-4.18,3.8-7.17,7.39-9.15,5.26-2.91,10.74-3.6,16.3-.81,3.43,1.72,5.9,6.56,5.14,9.96h-28.83Z"/>
      </g>
    </g>
  </g>
</svg>