<?xml version="1.0" encoding="UTF-8"?>
<svg id="Layer_2" data-name="Layer 2" xmlns="http://www.w3.org/2000/svg" viewBox="0 0 327.22 98.21">
  <defs>
    <style>
      .cls-1 {
        fill: #fff;
        stroke-width: 0px;
      }
    </style>
  </defs>
  <g id="Layer_1-2" data-name="Layer 1">
    <g id="Layer_1-2" data-name="Layer 1-2">
      <g>
        <path class="cls-1" d="m253,33.25c-2.19.78-3.66-1.3-5.61-1.4-.75-.04-1.62-1.11-2.17-.13-.42.75.35,1.53.94,2.08.72.66,1.51,1.29,2.35,1.8,2.14,1.32,3.93,2.74,4.04,5.62.1,2.46,2.7,3.22,3.9,4.97-.21.14-.41.28-.62.42-5.82-4.42-11.68-8.81-17.45-13.3-1.36-1.05-2.29-2.48-2.34-4.37-.05-2.18-.86-3.1-3.27-2.1-2.47,1.02-4.85,2.08-7.06,3.83,1.18,1.03,2.35.27,3.51.86-2.52,1.74-5.28,2.78-7.85,4.15-2.57,1.37-5.15,2.71-5.28,6.23-.04.97-.81,1.76-1.68,2.36-2.69,1.84-5.58,3.21-9.18,4.12,1.54-4.49,6.79-5.16,8.15-9.26-.8-.9-1.51.33-2.67.31,2.45-3.22,4.89-6.11,6.97-9.28,1.23-1.88,1.01-3.16-.92-4.18-1.11-.59-2.2-1.33-3.38-1.64-2.25-.58-3.91-1.78-4.9-3.87-.6-1.27-1.26-1.22-2.23-.32-1.94,1.79-3.04,4.09-3.58,6.55-.42,1.92-1.26,3.31-2.83,4.36-2.02,1.36-3.41,3.13-3.94,5.58-.18.84-.68,1.67-1.18,2.39-.75,1.06-1.7,1.5-2.51.05-1.49-2.69-2.71-1.21-3.76.27-.97,1.36-1.54,3.18-4.4,1.68,1.52,2.28.6,2.9-.86,3.69-2.94,1.59-5.59,3.64-8.15,5.81-1.62,1.38-3.35,2.56-5.53,2.87-.5-.86.27-1.15.68-1.54,10.25-9.71,20.16-19.74,30.01-29.86,1.13-1.15,2.37-2.23,3.7-3.15,4.4-3.07,8.06-2.21,10.75,2.53.59,1.03,1.55,1.47,2.42,2.06,1.26.86,2.66,1.55,3.85,2.5,2.81,2.22,2.77,2.26,5.2-.7,1.64-1.64,3.28-3.31,4.94-4.93,1.23-1.21,2.94-2.17,4.36-1.25,2.49,1.61,3.86.21,5.41-1.25,6.2-4.37,12.32-8.8,16.75-15.14,2.46-3.52,3.94-3.33,6.96-.5,6.08,5.69,10.67,12.84,17.46,17.82,1.23.9,2.58,1.64,3.88,2.45.81.51,1.64.7,2.53.15,1.61-1.01,3.04-.6,4.03.84,3.46,5.08,8.74,7.72,13.91,10.51,3.18,1.72,5.81,3.99,7.78,6.97.88,1.32,1.9,2.41,3.18,3.27.68.46,1.55.86,1.21,1.84-.42,1.19.92,2.81-.38,3.45-.64.31-1.99-.87-3.03-1.35-2.62-1.19-5.26-2.35-7.88-3.54-1.06-.48-2.29-.8-3.13-1.55-6.08-5.38-14.04-5.58-21.26-7.79-1.02-.32-2.08-.52-3.58-.9,3.02-.8,5.58-.96,8.24-.69.57.06,2.66,2.09,2.34-.94-.04-.36.76,0,1.15.13,1.84.62,3.68,1.25,5.77,1.56-1.93-2.78-3.69-5.65-6.72-7.33-1.04-.58-2.33-.56-3.4.07-3.35,1.94-6.48,1.03-9.41-.84-3.81-2.44-7.69-4.68-12.1-6.1,4.01-2.69,7.59-.36,11.3.78-3.19-3.89-6.59-7.41-10.82-10.01-2.1-1.29-4.05-2.77-5.4-4.86-.71-1.11-1.23-.92-2.07-.17-2.27,1.99-3.89,4.34-3.85,7.43.03,2.26-1.12,3.32-3.1,3.74-1.32.28-2.67.44-4.01.62-1.97.26-3.61,1-4.68,2.8-.59,1-1.15,2.31-2.33,2.52-3.65.64-.84,2.08-.18,2.46,4.36,2.53,8.76,4.99,12.92,7.85l.08-.02.02-.03Z"/>
        <path class="cls-1" d="m161.74,71.7c0,8.05-.09,15.45.06,22.85.04,2.19-.62,2.66-2.69,2.62-6.31-.12-6.32-.03-6.32-6.3,0-10.25.04-20.5-.04-30.75-.02-1.85.44-2.31,2.35-2.49,3.9-.38,6.49.92,8.93,4.05,5.59,7.17,11.6,14.01,17.84,21.45,0-7.98.08-15.38-.05-22.77-.03-2.07.42-2.95,2.63-2.67,2.13.27,4.95-.88,6.27.43,1.32,1.32.38,4.13.39,6.29.04,10.16-.02,20.32.05,30.47.01,1.7-.36,2.17-2.18,2.31-4.1.33-6.98-.74-9.59-4.3-4.59-6.27-9.87-12.03-14.86-18-.78-.93-1.6-1.82-2.81-3.21h.01Z"/>
        <path class="cls-1" d="m43.59,77.24c0-5.81.06-11.61-.04-17.41-.03-1.62.32-2.22,2.06-2.14,5.87.29,11.81-.62,17.59.81,8.83,2.18,14.27,9.79,14.14,19.38-.13,9.15-6.09,16.8-14.78,18.66-5.91,1.26-11.93.33-17.89.58-1.59.07-1.06-1.16-1.07-1.92-.04-5.99-.02-11.97-.02-17.96Zm9.04,0c0,3.54-.02,7.08.02,10.62,0,.63-.31,1.38.81,1.68,3.9,1.05,10.38-1.27,12.49-4.76,2.79-4.61,3.05-9.46.29-14.12-2.73-4.62-7.34-5.4-12.28-5.25-1.41.04-1.34.81-1.34,1.76.02,3.36,0,6.72,0,10.07h0Z"/>
        <path class="cls-1" d="m277.8,82.45c0,4.25-.07,8.49.03,12.73.04,1.53-.4,1.95-1.94,1.98-6.9.1-6.9.16-6.9-6.77,0-10.15.04-20.31-.04-30.46-.02-1.75.42-2.32,2.23-2.25,4.43.17,8.88.04,13.32.19,6.19.21,10.21,3.69,11.57,9.79,1.16,5.2-1.38,10.25-6.78,12.75-1.91.88-1.11,1.51-.39,2.46,3.46,4.6,6.91,9.21,10.7,14.25-3.69,0-6.91-.03-10.12.02-1.43.02-1.73-1.21-2.29-2.03-2.79-4-5.48-8.07-8.2-12.11-.2-.3-.31-.66-.45-.99-.25.15-.5.31-.74.46v-.02Zm0-12.34c0,1.27.07,2.54-.02,3.8-.09,1.36.33,1.98,1.81,1.93,1.65-.05,3.24-.25,4.7-1.03,2.28-1.23,3.32-3.98,2.49-6.51-.82-2.5-4.54-4.4-7.72-3.55-2.53.68-.75,3.04-1.25,4.56-.08.25-.01.54-.01.81h0Z"/>
        <path class="cls-1" d="m227.07,71.66c0-4.08.04-8.16-.03-12.24-.02-1.25.29-1.67,1.64-1.73,7.18-.34,7.18-.39,7.18,6.8,0,5.53-.08,11.07.03,16.6.11,5.88,3.19,8.89,8.44,8.5,4.09-.3,6.66-2.89,6.7-7.04.08-7.53.1-15.05.01-22.58-.02-1.76.44-2.28,2.25-2.28,6.97,0,7.05-.07,6.95,6.77-.09,6.7.33,13.41-.29,20.11-.68,7.26-5.99,13.2-15.18,13.63-11.71.54-18.24-6.98-17.72-17,.16-3.16.03-6.35.03-9.52h0Z"/>
        <path class="cls-1" d="m34.15,97.12c-4.38,0-4.49.04-5.93-4.13-.84-2.43-1.98-3.65-4.8-3.36-3.14.32-6.33.16-9.5.04-1.51-.06-2.42.36-2.73,1.87-.95,4.58-3.52,6.39-8.33,5.66-3.31-.5-3.34-.09-2.05-3.29,4.4-10.91,8.89-21.79,13.08-32.77,1.05-2.75,2.39-3.65,5.25-3.49,4.59.25,4.55.09,6.2,4.33,4.07,10.45,8.18,20.89,12.3,31.32,1.51,3.82,1.55,3.81-2.66,3.81h-.82Zm-14.7-27.62c-1.64,4.38-3.07,8.22-4.52,12.06-.34.92-.13,1.35.91,1.33,2.36-.03,4.72-.04,7.08.01,1.06.02,1.3-.51,1.01-1.32-1.4-3.88-2.85-7.73-4.47-12.08h0Z"/>
        <path class="cls-1" d="m123.07,77.49c0-5.89.07-11.79-.04-17.69-.03-1.67.41-2.14,2.1-2.11,6.08.1,12.16.09,18.24.01,1.56-.02,1.97.48,1.99,2.01.09,5.74.15,5.74-5.58,5.74-1.81,0-3.64.14-5.44-.04-2-.19-2.39.64-2.36,2.46.07,5.27-.01,5.27,5.24,5.27,1.81,0,3.63.05,5.44-.02,1.19-.05,1.72.17,1.78,1.58.28,6.08.34,6.08-5.7,6.08h-.27c-7.15,0-7.1,0-6.48,7.28.1,1.24.56,1.5,1.66,1.48,3.18-.05,6.35.06,9.53-.05,1.59-.05,2.2.29,2.2,2.06.02,5.57.1,5.57-5.44,5.57-4.9,0-9.8-.09-14.7.05-1.85.05-2.23-.56-2.2-2.27.1-5.8.04-11.61.04-17.41h0Z"/>
        <path class="cls-1" d="m304.88,77.5c0-5.89.05-11.78-.04-17.66-.03-1.61.31-2.19,2.06-2.16,6.07.11,12.14.1,18.21,0,1.72-.03,2.09.57,2.1,2.18.02,5.58.09,5.58-5.46,5.58-1.81,0-3.64.17-5.43-.04-2.29-.27-2.67.72-2.62,2.75.12,4.99.03,4.99,4.96,4.99h4.08c2.34,0,3.51,1.2,3.51,3.59,0,2.7-1.38,4.05-4.14,4.05-2.27,0-4.53.04-6.8-.02-1.15-.03-1.72.35-1.57,1.55.02.18,0,.36,0,.54-.12,4.44,2.04,6.67,6.47,6.67h1.63c5.4,0,5.33,0,5.37,5.37.02,1.75-.42,2.3-2.24,2.27-5.98-.11-11.96-.13-17.94,0-1.85.04-2.22-.56-2.2-2.27.1-5.8.04-11.6.04-17.39h0Z"/>
        <path class="cls-1" d="m79,57.99c.41-.15.49-.21.58-.21,6.06-.31,10.16,2.37,12.29,8.04,2.1,5.54,4.29,11.05,6.51,16.75.92-.58,1.03-1.45,1.33-2.22,2.73-6.94,5.53-13.85,8.19-20.81.54-1.41,1.23-2.01,2.73-1.82,2.46.31,4.99-.49,7.42.41-.89,2.24-1.74,4.5-2.68,6.72-4.27,10.1-8.62,20.18-12.81,30.32-.69,1.67-1.56,2.25-3.19,1.96-1.64-.3-3.57.93-4.67-1.75-5.1-12.47-10.42-24.85-15.71-37.37h0Z"/>
        <path class="cls-1" d="m213.48,81.31c0,4.62-.05,9.24.03,13.85.03,1.47-.28,2.12-1.9,1.99-2.24-.18-5.15.68-6.56-.43-1.5-1.18-.44-4.22-.46-6.44-.07-7.42-.09-14.85.02-22.27.03-1.94-.35-2.97-2.49-2.57-.17.03-.36,0-.54,0-6.03,0-5.99,0-5.6-6.2.07-1.16.37-1.55,1.55-1.54,7.7.04,15.41-.24,23.09.14,3.52.17.84,3.44,1.49,5.17.37.99.59,2.66-1.61,2.45-1.44-.14-2.91.09-4.34-.05-2.03-.21-2.83.33-2.73,2.59.2,4.43.06,8.87.06,13.31Z"/>
        <path class="cls-1" d="m143.21,40.22c0,3.71-.11,7.43.04,11.14.08,1.86-.58,2.24-2.29,2.2-3.8-.08-3.8,0-3.8-3.91,0-1.9-.08-3.81.03-5.7.08-1.43-.41-1.91-1.84-1.85-2.44.1-4.9.13-7.34,0-1.56-.09-1.76.6-1.72,1.9.08,2.53-.07,5.08.06,7.6.08,1.58-.47,2.13-1.99,1.94-.71-.09-1.45-.08-2.17,0-1.47.17-2.06-.27-2.05-1.9.08-7.7.08-15.4,0-23.09-.02-1.65.63-1.91,2.08-1.92,4.1-.03,4.1-.09,4.1,3.89,0,1.54.09,3.09-.03,4.62-.11,1.47.46,1.98,1.85,1.77.09-.01.18,0,.27,0,2.8-.07,6.35.87,8.18-.5,1.77-1.32.54-5.08.52-7.75-.02-1.79.65-2.06,2.21-2.04,3.9.03,3.9-.04,3.9,3.82v9.78h0Z"/>
        <path class="cls-1" d="m240.82,17.75c-1.55,1.45-2.92,2.85-5.41,1.25-1.42-.92-3.13.04-4.36,1.25-1.66,1.63-3.3,3.29-4.94,4.93-7.38-3.49-10.21-10.52-6.78-16.85,2.76-5.08,8.8-7.43,14.15-5.51,5.76,2.08,8.81,7.55,7.58,13.61-.09.44-.16.88-.24,1.32h0Z"/>
        <path class="cls-1" d="m71.84,39.89c0-3.8.06-7.61-.03-11.41-.03-1.43.38-1.88,1.82-1.85,3.89.09,7.79.13,11.69,0,2.42-.08,1.65,1.57,1.72,2.76.07,1.21.4,2.65-1.75,2.42-1.53-.16-3.08-.11-4.61,0-.92.07-2.34-.63-2.65.51-.37,1.34-.14,2.88,0,4.31.07.66.83.53,1.35.54,1.54.02,3.1.17,4.61-.03,2.29-.31,2.62.72,2.63,2.72.01,1.92-.52,2.61-2.42,2.36-1.07-.14-2.19.11-3.26-.05-2.5-.38-3.09.6-3.14,3.07-.05,2.66.7,3.61,3.3,3.19.88-.14,1.81-.02,2.71-.02,3.56,0,3.54.03,3.28,3.66-.07.97-.24,1.5-1.36,1.49-4.17-.04-8.34-.06-12.51.01-1.37.02-1.39-.7-1.38-1.7.02-3.99.01-7.97.01-11.96h0Z"/>
        <path class="cls-1" d="m55.1,43.9c2.19-5.61,4.12-10.54,6.05-15.47.55-1.42,5.74-2.67,6.78-1.6.46.48.1.99-.11,1.48-3.36,7.95-6.75,15.87-10.02,23.86-.68,1.67-1.89,1.26-3.09,1.38-1.26.13-1.91-.32-2.41-1.53-3.21-7.71-6.45-15.41-9.8-23.06-.9-2.05-.29-2.24,1.67-2.37,2.97-.2,4.65.48,5.59,3.68,1.31,4.43,3.35,8.65,5.35,13.64h0Z"/>
        <path class="cls-1" d="m149.2,39.9c0-3.81.05-7.61-.03-11.42-.03-1.38.32-1.89,1.79-1.85,3.99.1,7.98.08,11.97.02,2.54-.04,1.35,1.81,1.49,2.88.15,1.07.48,2.47-1.55,2.27-1.44-.14-2.9-.03-4.35-.03-3.33,0-4.03.98-3.32,4.36.21,1.02.81,1.03,1.55,1.03,1.63,0,3.29.19,4.89-.04,2.42-.35,2.23,1.05,2.33,2.7.1,1.85-.35,2.69-2.34,2.4-1.07-.15-2.2.12-3.26-.05-2.7-.44-3.31.68-3.25,3.25.05,2.27.42,3.39,2.95,3.01,1.33-.2,2.73.09,4.07-.07,1.97-.23,2.31.59,2.39,2.41.09,2.26-.51,2.95-2.82,2.81-3.61-.22-7.25-.11-10.87-.03-1.32.03-1.7-.4-1.68-1.69.07-3.99.03-7.97.03-11.96h0Z"/>
        <path class="cls-1" d="m13.91,39.88c0-3.8.06-7.6-.03-11.41-.03-1.44.46-1.82,1.86-1.85,4.21-.1,4.2-.16,4.2,4.11,0,4.89.17,9.78-.07,14.66-.13,2.64.83,3.32,3.19,3.02.98-.13,2,.09,2.98-.04,1.97-.27,2.29.62,2.38,2.41.11,2.27-.53,2.96-2.82,2.8-3.25-.22-6.52-.14-9.77-.02-1.6.06-1.99-.51-1.96-2.01.09-3.89.03-7.78.03-11.67h0Z"/>
        <path class="cls-1" d="m104.59,42.66c0-2.9-.1-5.8.04-8.69.09-1.76-.41-2.3-2.22-2.25-3.79.1-3.74-.03-3.49-3.62.09-1.26.6-1.46,1.67-1.45,4.8.03,9.6.09,14.4-.02,2.49-.05,1.51,1.68,1.62,2.8.12,1.22.36,2.42-1.75,2.4-4.11-.04-4.11.1-4.11,4.34,0,5.07-.05,10.14.03,15.21.03,1.57-.28,2.43-2.06,2.16-.71-.11-1.45-.09-2.17,0-1.49.18-2.07-.32-2-1.92.12-2.98.03-5.98.03-8.96h0Z"/>
        <path class="cls-1" d="m38.2,40.22c0,3.8-.07,7.59.04,11.39.04,1.56-.49,2.31-1.97,1.87-1.38-.41-3.95,1.38-4.04-1.32-.24-8.03-.07-16.08-.1-24.13,0-1.07.35-1.46,1.41-1.38.9.07,1.82.1,2.71,0,1.52-.18,2.03.35,1.99,1.92-.11,3.88-.04,7.77-.04,11.66h0Z"/>
        <path class="cls-1" d="m252.92,33.27c.06.2.12.4.17.6-.16-.04-.42-.05-.46-.14-.13-.28.06-.44.36-.47.01,0-.08.02-.08.02Z"/>
        <path class="cls-1" d="m256.46,46.17c.34.18.62.41.57.86-.09.07-.19.14-.28.21-.31-.22-.6-.44-.91-.65.21-.14.41-.28.62-.42h0Z"/>
        <path class="cls-1" d="m257.03,47.03c.21.04.5.05.31.38-.03.04-.38-.1-.59-.16.09-.07.19-.14.28-.21h0Z"/>
      </g>
    </g>
  </g>
</svg>