<?xml version="1.0" encoding="UTF-8"?>
<svg id="Layer_2" data-name="Layer 2" xmlns="http://www.w3.org/2000/svg" viewBox="0 0 287.18 112.07">
  <defs>
    <style>
      .cls-1 {
        fill: #fff;
        stroke-width: 0px;
      }
    </style>
  </defs>
  <g id="Layer_1-2" data-name="Layer 1">
    <g id="Calque_1" data-name="Calque 1">
      <g>
        <g>
          <path class="cls-1" d="m51.5,37.44c.05.11.18.16.3.11.05-.02.09-.06.11-.11l3.93-8.12c.07-.14.07-.29,0-.44l-10.44-22.49c-.05-.1,0-.23.1-.27L58.49.04c.18-.08.39,0,.47.17l28.22,60.82c.03.07,0,.16-.07.19-.02,0-.04.01-.05.01h-15.96c-.15.01-.25-.06-.32-.19-3.62-7.75-7.24-15.5-10.84-23.24-.09-.19-.15-.29-.19-.31-.19-.11-.33-.07-.43.13l-3.72,7.91c-.12.24-.12.53,0,.78l6.85,14.67c.07.16.02.24-.15.24h-15.93c-.15,0-.28-.08-.34-.22l-10.94-23.56c-.06-.13-.21-.18-.34-.13-.06.03-.1.07-.13.13-2.78,6.16-5.51,12.53-8.95,18.39-2.59,4.41-6.55,8.55-11.48,9.86-4.44,1.18-9.77.25-14.01-1.46-.13-.05-.2-.21-.14-.34,0,0,0,0,0-.01l6.09-13.07c.06-.13.21-.19.35-.14.66.23,1.31.41,1.93.55,9.44,1.99,14.05-3.74,17.66-11.33,1.7-3.58,3.38-7.15,5.02-10.71.06-.12.06-.27,0-.39L20.65,6.4c-.07-.15-.03-.26.12-.32L33.73.03c.17-.08.37,0,.45.17h0l17.31,37.24Z"/>
          <path class="cls-1" d="m256.12,26.34v34.72c0,.09-.08.17-.17.17h-11.48c-.09,0-.17-.08-.17-.17h0l-.02-34.71c0-.09-.08-.17-.17-.17h-3.44c-.09,0-.17-.08-.17-.17v-7.06c0-.09.08-.17.17-.17h3.47c.09,0,.17-.07.17-.17h0v-8.23c0-.06.03-.13.09-.15l11.48-5.34c.09-.04.19,0,.23.08.01.02.02.05.02.08v13.56c-.01.09.06.17.16.17h5.66c.09,0,.17.08.17.18h0v7.06c-.01.09-.09.17-.18.17h-5.64c-.09-.01-.17.06-.17.16h-.01Z"/>
          <path class="cls-1" d="m281.21,26.37v34.64c0,.11-.09.2-.2.2h-11.44c-.11,0-.2-.09-.2-.2h0V26.37c0-.11-.08-.2-.19-.2h-3.38c-.11,0-.2-.09-.2-.2l-.03-6.95c0-.11.09-.2.2-.2h0l3.4-.03c.11,0,.2-.09.2-.2h0v-8.17c0-.08.05-.15.12-.18l11.42-5.33c.1-.05.22,0,.27.1.01.03.02.05.02.09v13.51c0,.11.08.2.19.2h5.58c.11,0,.2.09.2.21h0v6.96c-.01.11-.1.2-.21.2h-5.56c-.11,0-.2.1-.2.21h0Z"/>
          <path class="cls-1" d="m110.57,57.6c-.08-.53-.3-.59-.66-.21-5.06,5.46-14.86,7-19.77.46-4.24-5.65-2.96-13.96,2-18.84,4.2-4.13,11.65-6.08,17.73-6.57.13-.01.21-.08.22-.21.48-3.98-2.56-5.73-6-5.96-4.47-.3-8.52.86-12.16,3.46-.09.06-.21.04-.27-.05-.02-.03-.04-.07-.04-.11v-8.23c.01-.13.08-.23.2-.29,6.05-2.79,12.33-3.75,18.86-2.91,7.57.98,11.32,5.86,11.32,13.25,0,9.88-.01,19.76-.04,29.64,0,.11-.05.17-.17.17h-10.52c-.1,0-.19-.08-.2-.17l-.52-3.45h0Zm-9.69-5.98c1.74,2.03,5.19,1.77,7.01.09,2.84-2.63,2.27-7.29,2.23-10.77,0-.13-.06-.19-.19-.19-4.87-.15-11.47,2.31-10.21,8.3.23,1.08.62,1.94,1.17,2.58Z"/>
          <path class="cls-1" d="m140.61,22.76c.02.11.12.18.23.16.05,0,.1-.04.13-.08,2.84-4.25,6.82-5.75,11.92-4.51.24.06.4.27.4.51v9.52c0,.09-.07.16-.16.16-.03,0-.05,0-.07-.01-3.83-1.87-7.99-2.03-11.17,1.31-.68.71-.9,1.03-.9,2.08.01,9.71,0,19.41,0,29.12,0,.11-.09.2-.2.2h-11.31c-.19,0-.28-.09-.28-.28V19.01c0-.13.1-.24.24-.24h10.37c.13,0,.25.11.27.24l.54,3.75h0Z"/>
          <path class="cls-1" d="m169.11,22.65c3.07-4.06,6.95-5.75,12-4.2.15.04.22.14.22.3v9.59c0,.17-.08.22-.24.16-4.45-1.67-7.81-2.18-11.35,1.47-.56.57-.7,1.01-.7,1.86v29.21c0,.1-.09.19-.19.19h-11.42c-.13,0-.19-.06-.19-.19V18.95c0-.12.06-.17.17-.17h10.44c.15-.01.24.06.26.21l.51,3.53c.06.42.22.47.48.12h.01Z"/>
          <path class="cls-1" d="m234.46,55.68c-4.12,6.27-13.2,7.7-19.93,5.56-7.61-2.41-10.34-9.09-10.79-16.44-.27-4.47-.21-8.58.19-12.33.12-1.1.4-2.34.86-3.72,2.64-7.94,9.11-11.25,17.12-10.89,9.55.42,15.24,7.17,15.71,16.45.17,3.43.22,6.86.15,10.29-.09,4.15-1.19,7.84-3.31,11.07h0Zm-12.85-29.46c-5.12-.83-6.08,4.68-6.02,8.34.05,3.69-.03,7.39-.03,11.08,0,3.51.9,8.85,5.91,8.12,3.12-.46,4.2-3.73,4.3-6.57.12-3.65.13-8.02.02-13.13-.06-2.96-.64-7.26-4.19-7.83h0Z"/>
          <rect class="cls-1" x="185.74" y="18.77" width="11.81" height="42.45" rx=".15" ry=".15"/>
        </g>
        <g>
          <path class="cls-1" d="m193.08,81.17c.19,4.25-3.18,7.85-7.54,8.05h0c-4.36.2-8.05-3.08-8.24-7.33-.19-4.25,3.18-7.85,7.54-8.05h0c4.36-.2,8.05,3.08,8.24,7.33Zm-7.73,5.05c2.48-.09,4.41-2.25,4.32-4.83-.09-2.58-2.17-4.61-4.65-4.52-2.48.09-4.41,2.25-4.32,4.83s2.17,4.61,4.65,4.52h0Z"/>
          <path class="cls-1" d="m146.75,85.62h-6.01c-.08,0-.16.05-.19.13l-1.25,3.06c-.03.08-.11.13-.19.13h-2.86c-.11,0-.21-.08-.21-.2,0-.03,0-.06.02-.08l6.15-14.55c.03-.08.11-.13.19-.12h2.75c.08,0,.16.04.19.12l6.17,14.55c.04.1,0,.22-.11.27-.03.01-.05.02-.08.02h-2.94c-.08,0-.16-.04-.19-.12l-1.25-3.08c-.03-.08-.11-.13-.19-.13h0Zm-4.93-3.03c-.03.06,0,.13.06.16.01,0,.03.01.05.01h3.6c.06,0,.12-.05.12-.12,0-.01,0-.03-.01-.04l-1.79-4.41c-.03-.06-.1-.09-.16-.06-.03.01-.05.04-.06.06l-1.81,4.4h0Z"/>
          <path class="cls-1" d="m226.31,85.61l-6,.02c-.08,0-.16.05-.19.13l-1.22,3.06c-.03.08-.11.13-.19.13h-2.89c-.11.01-.21-.08-.21-.19,0-.03,0-.06.02-.08l6.15-14.55c.03-.08.11-.13.19-.12h2.75c.08-.01.16.04.19.11l6.17,14.57c.04.1,0,.22-.11.27-.03.01-.05.02-.08.02h-2.97c-.08,0-.16-.05-.19-.13l-1.24-3.1c-.03-.08-.11-.13-.19-.13h0Zm-4.89-3.05c-.03.06,0,.13.06.16.01,0,.03.01.05.01h3.59c.06,0,.12-.05.12-.12,0-.01,0-.03-.01-.04l-1.78-4.37c-.03-.06-.1-.09-.16-.06-.03.01-.05.04-.06.06l-1.8,4.36h0Z"/>
          <rect class="cls-1" x="41.64" y="74.1" width="3.23" height="14.87" rx=".19" ry=".19"/>
          <path class="cls-1" d="m54.34,79.89v8.91c0,.07-.06.13-.13.13h0l-2.95.04c-.07,0-.13-.06-.13-.13v-14.63c0-.07.06-.13.13-.13l2.8.02s.08.02.1.05l6.7,8.83c.04.05.12.06.18.02.03-.03.05-.06.05-.1l-.02-8.64c0-.07.05-.13.12-.13h0l2.97-.05c.07,0,.13.05.13.12h0v14.62c0,.07-.06.12-.13.12l-2.62-.04s-.08-.02-.1-.05l-6.88-9.05c-.04-.05-.12-.06-.18-.02-.03.03-.05.06-.05.1h0Z"/>
          <path class="cls-1" d="m72.56,77.11l-4.13.02c-.1,0-.18-.08-.18-.18h0v-2.67c0-.1.08-.18.18-.18h11.92c.1,0,.18.09.18.19h0l-.03,2.64c0,.1-.08.18-.18.18l-4.12.02c-.1,0-.18.08-.18.18h0v11.49c0,.1-.09.18-.19.18h0l-2.91-.04c-.1,0-.18-.08-.18-.18v-11.47c0-.1-.08-.18-.18-.18h0Z"/>
          <path class="cls-1" d="m87.86,79.98h6.61c.1-.01.18.06.18.16v2.57c0,.1-.08.18-.18.18h-6.64c-.1,0-.18.08-.18.17l.02,2.81c0,.1.08.18.18.18h7.67c.1,0,.18.07.18.17v2.53c0,.1-.08.18-.17.18h-10.9c-.1,0-.18-.08-.18-.18v-14.48c0-.1.08-.18.18-.18h0l10.83-.02c.1,0,.18.08.18.18h0l-.02,2.57c0,.1-.08.18-.18.18h-7.6c-.1,0-.18.08-.18.17l.02,2.61c0,.1.08.18.18.18h0Z"/>
          <path class="cls-1" d="m104.37,84.43v4.24c0,.14-.12.25-.26.25l-2.84.04c-.1,0-.18-.08-.18-.18v-14.5c0-.1.06-.16.17-.16,3.18-.08,5.71-.07,7.56.04,5.38.31,6.26,7.09,1.68,9.47-.12.06-.15.15-.06.27l3.28,4.81c.05.08.03.18-.05.23-.03.02-.06.03-.09.03l-3.32-.03c-.13,0-.22-.05-.3-.16l-2.95-4.44c-.05-.08-.15-.14-.25-.14l-2.2.02c-.14,0-.21.07-.21.21h0Zm.02-7.21v3.95c0,.08.06.15.14.15h3.44c1.21,0,2.19-.91,2.2-2.04h0v-.16c0-1.13-.98-2.04-2.19-2.05h-3.44c-.08,0-.15.06-.15.14h0Z"/>
          <path class="cls-1" d="m122.05,79.92v8.91c.01.08-.05.14-.12.14h-2.97c-.08,0-.14-.05-.14-.13h0v-14.61c0-.08.06-.14.14-.14h2.8s.08.03.1.06l6.67,8.77c.04.06.13.07.19.03.03-.03.05-.06.05-.11l-.02-8.58c0-.08.06-.14.14-.14h0l2.97-.04c.08,0,.14.06.14.13h0s0,14.57,0,14.57c0,.08-.06.14-.14.14h-2.58s-.08-.01-.11-.04l-6.88-9.05c-.04-.06-.13-.07-.19-.03-.03.03-.05.06-.05.11h0Z"/>
          <path class="cls-1" d="m160.18,77.28v11.51c-.01.08-.08.15-.16.15l-2.95.04c-.08,0-.15-.06-.15-.15h0v-11.57c0-.08-.06-.15-.15-.15h-4.24c-.08,0-.15-.06-.15-.14v-2.71c0-.08.07-.15.15-.15h11.99c.08,0,.15.06.15.15h0v2.7c-.01.08-.08.15-.17.15l-4.17.02c-.08,0-.15.07-.15.15h0Z"/>
          <rect class="cls-1" x="168.95" y="74.09" width="3.27" height="14.85" rx=".16" ry=".16"/>
          <path class="cls-1" d="m201.5,88.98l-3-.08c-.07,0-.12-.06-.12-.13v-14.55c0-.07.05-.13.12-.13h2.83s.08,0,.1.04l6.67,8.8c.04.05.12.06.18.02.03-.03.05-.06.05-.1v-8.63c0-.07.06-.13.13-.13h2.95c.07,0,.13.05.13.12h0v14.61c0,.07-.05.13-.12.13h0l-2.56.02s-.08-.02-.1-.05l-6.9-9.09c-.04-.05-.12-.06-.18-.02-.03.03-.05.06-.05.1v8.94c.01.07-.04.13-.11.13h0Z"/>
          <path class="cls-1" d="m238.36,85.98h6.96c.12,0,.22.1.22.22h0v2.53c0,.12-.09.22-.22.22h-10.2c-.12,0-.22-.1-.22-.22h0v-14.42c0-.12.1-.22.22-.22h2.79c.12,0,.22.1.22.23v11.45c0,.12.1.22.22.22h0Z"/>
        </g>
        <g>
          <path class="cls-1" d="m78.87,104.06c.18.1.39.24.64.42s.48.42.69.71c.22.29.4.63.55,1.01.15.39.23.83.23,1.32,0,.56-.1,1.1-.3,1.6-.2.5-.46.94-.81,1.31-.34.37-.74.67-1.21.89-.46.22-.95.33-1.47.33h-8.02v-14.45h7.67c.49,0,.96.1,1.4.31.44.21.82.49,1.15.84.32.35.58.77.77,1.25.19.48.28.99.28,1.53,0,.37-.06.72-.17,1.03-.12.32-.25.6-.41.85-.16.25-.33.46-.51.63s-.35.31-.48.4h0Zm-.95-2.71c0-.48-.15-.89-.46-1.22-.3-.33-.68-.5-1.12-.5h-4.8v3.41h4.8c.44,0,.82-.16,1.12-.49s.46-.73.46-1.21Zm-1.18,7.9c.25,0,.49-.05.7-.15.22-.1.4-.24.56-.41.16-.17.28-.38.38-.62.09-.24.14-.49.14-.76,0-.54-.17-.99-.52-1.36s-.77-.56-1.26-.56h-5.2v3.86h5.2Z"/>
          <path class="cls-1" d="m96.34,111.67h-2.47l-1.19-3.25h-6.47l-1.19,3.25h-2.49l5.31-14.45h3.21l5.29,14.45h0Zm-4.55-5.66l-2.35-6.39-2.33,6.39h4.69,0Z"/>
          <path class="cls-1" d="m108.06,104.06c.18.1.39.24.64.42s.48.42.69.71c.22.29.4.63.55,1.01.15.39.23.83.23,1.32,0,.56-.1,1.1-.3,1.6-.2.5-.46.94-.81,1.31-.34.37-.74.67-1.21.89-.46.22-.95.33-1.47.33h-8.02v-14.45h7.67c.49,0,.96.1,1.4.31.44.21.82.49,1.15.84.32.35.58.77.77,1.25.19.48.28.99.28,1.53,0,.37-.06.72-.17,1.03-.12.32-.25.6-.41.85-.16.25-.33.46-.51.63s-.35.31-.48.4h0Zm-.95-2.69c0-.48-.15-.89-.46-1.23-.3-.34-.68-.51-1.12-.51h-4.8v3.41h4.8c.44,0,.82-.16,1.12-.48s.46-.72.46-1.2Zm-1.18,7.88c.25,0,.49-.05.7-.15.22-.1.4-.24.56-.41.16-.17.28-.38.38-.62.09-.24.14-.49.14-.76,0-.54-.17-.99-.52-1.36s-.77-.56-1.26-.56h-5.2v3.86h5.2Z"/>
          <path class="cls-1" d="m121.39,99.7v3.49h6.81v2.5h-6.81v3.47h8.23v2.5h-10.68v-14.45h10.68v2.48h-8.23Z"/>
          <path class="cls-1" d="m143.99,99.06l-7.79,10.19h7.79v2.42h-11.17v-1.78l7.85-10.26h-7.85v-2.42h11.17v1.84h0Z"/>
          <path class="cls-1" d="m158.1,99.06l-7.79,10.19h7.79v2.42h-11.17v-1.78l7.85-10.26h-7.85v-2.42h11.17v1.84h0Z"/>
          <path class="cls-1" d="m166.69,96.82c.96,0,1.86.2,2.71.6.85.4,1.59.94,2.23,1.63s1.14,1.5,1.51,2.42c.37.92.55,1.91.55,2.96s-.18,2.03-.55,2.96-.87,1.73-1.51,2.43c-.64.7-1.38,1.25-2.23,1.64-.85.4-1.75.6-2.71.6s-1.86-.2-2.71-.6c-.85-.4-1.59-.95-2.22-1.64-.63-.69-1.13-1.5-1.5-2.43-.37-.92-.55-1.91-.55-2.96s.18-2.03.55-2.96c.37-.92.87-1.73,1.5-2.42.63-.69,1.37-1.23,2.22-1.63.85-.4,1.75-.6,2.71-.6Zm0,12.57c.63,0,1.22-.13,1.77-.39s1.03-.62,1.44-1.07c.41-.45.74-.98.98-1.58.24-.61.36-1.25.36-1.92s-.12-1.34-.36-1.93c-.24-.6-.56-1.12-.98-1.56-.41-.44-.89-.79-1.44-1.05-.55-.26-1.14-.39-1.77-.39s-1.21.13-1.76.39c-.56.26-1.04.61-1.44,1.05s-.73.96-.97,1.56c-.24.6-.36,1.25-.36,1.93s.12,1.32.36,1.92c.24.61.56,1.13.97,1.58.4.45.89.8,1.44,1.07.56.26,1.14.39,1.76.39Z"/>
          <path class="cls-1" d="m188.39,97.22v8.09c0,.92-.17,1.8-.49,2.63-.33.83-.77,1.54-1.34,2.15-.56.61-1.22,1.09-1.97,1.45-.75.36-1.56.54-2.42.54s-1.67-.18-2.42-.54c-.75-.36-1.41-.84-1.97-1.45s-1.01-1.32-1.34-2.15c-.33-.83-.49-1.7-.49-2.63v-8.09h2.45v8.09c0,.56.1,1.09.3,1.59.19.5.46.93.81,1.3.34.37.74.67,1.21.88.46.21.95.32,1.47.32s1.01-.11,1.47-.32c.46-.21.86-.51,1.21-.88s.61-.81.82-1.3c.2-.5.3-1.03.3-1.59v-8.09h2.43,0Z"/>
          <path class="cls-1" d="m203.53,111.67h-2.47l-1.19-3.25h-6.47l-1.19,3.25h-2.49l5.31-14.45h3.21l5.29,14.45h0Zm-4.55-5.66l-2.35-6.39-2.33,6.39h4.69,0Z"/>
          <path class="cls-1" d="m218.01,111.67h-2.88l-3.06-4.44h-4v4.44h-2.45v-14.45h6.96c.64,0,1.25.13,1.81.39.56.26,1.05.62,1.47,1.08.42.45.75.99,1,1.59.24.61.37,1.26.37,1.94,0,.99-.24,1.89-.73,2.69-.49.8-1.12,1.4-1.91,1.8l3.42,4.96h0Zm-5.5-7.03c.32,0,.61-.06.88-.19.27-.12.51-.3.72-.52.21-.22.37-.48.49-.77s.18-.61.18-.94-.06-.64-.18-.94c-.12-.3-.28-.55-.49-.78-.21-.22-.45-.4-.72-.53-.27-.13-.56-.2-.88-.2h-4.44v4.86h4.44Z"/>
        </g>
      </g>
    </g>
  </g>
</svg>