<?xml version="1.0" encoding="UTF-8"?>
<svg id="Layer_2" data-name="Layer 2" xmlns="http://www.w3.org/2000/svg" viewBox="0 0 293.93 95.75">
  <defs>
    <style>
      .cls-1 {
        fill: #fff;
        stroke-width: 0px;
      }
    </style>
  </defs>
  <g id="Layer_1-2" data-name="Layer 1">
    <g id="Layer_1-2" data-name="Layer 1-2">
      <g>
        <path class="cls-1" d="m73.13,75.76h-21.69c-.68,0-1.2-.3-1.75-.72-2.64-2.06-6.5-1.2-7.92,1.8-1.3,2.77,1.41,6.45,3.78,6.33,1.86-.1,3.8.29,4.89-1.94.42-.86,1.58-.8,2.51-.8,6.33.01,12.67-.02,19,.07,1.67.02,2.9-.56,3.91-1.79,1-1.21,4.26-1.86,5.42-.97.54.42.72,1.17.72,1.92-.03,4.86-.08,9.71-.03,14.57.02,1.39-.59,1.53-1.76,1.53-14.05-.04-28.1-.02-42.15-.02H2.64c-2,0-2.58-.6-2.59-2.82-.03-5.9-.03-11.81-.03-17.72,0-24.01.02-48.02-.02-72.03C0,1.45.51.71,2.33.72c23.22.05,46.43.07,69.65.04,1.97,0,3.82.78,5.83.4-.11.76-.57,1.12-1.05,1.21-4.69.89-7.9,4.1-11.27,7.05-2.91,2.55-4.9,5.82-6.91,9.04-.55.88-1.1,1.2-2.03,1.14-.46-.03-.95-.2-1.37-.11-3.85.87-6.42-1.01-8.82-3.72-1.77-2-3.89-3.69-5.88-5.51-.92-.84-1.33-1.83-1.38-3.1-.1-2.89-2.18-4.58-5.49-4.31-2.56.21-4.34,1.57-4.37,4.62-.02,2.5,2.29,4.8,4.83,4.76,1.32-.03,2.21.53,3.09,1.36,2.57,2.43,5.17,4.88,7.55,7.46,2.68,2.91,5.62,3.82,9.31,3.32.68-.09,1.35-.14,1.35.89,0,.87-.17,1.58-1.18,1.72-.46.06-.92.05-1.38.05-6.73.01-13.46-.12-20.18.1-2.76.09-4.76-.66-6.5-2.74-1.3-1.56-2.89-2.86-4.33-4.31-.79-.8-1.28-1.68-1.32-2.92-.06-2.36-1.89-4.03-4.02-4.16-3.79-.23-5.3,1.58-5.83,4.52-.36,2.02,1.43,4.7,3.68,4.86,3.52.24,5.66,2.44,7.57,4.82,2.88,3.58,6.21,5.2,10.99,4.85,6.17-.45,12.39-.13,18.59-.08.69,0,2.01-.63,1.87.87-.11,1.09.07,2.65-1.72,2.8-.85.07-1.71,0-2.57.01-11.93.08-23.85.16-35.77.22-.82,0-1.74.27-2.34-.61-1.43-2.07-3.61-1.91-5.69-1.72-2.07.19-3.98,3.55-3.32,5.55,1.1,3.37,3.36,4.67,6.73,3.83.36-.09.87-.22,1.02-.49,1.22-2.22,3.29-1.85,5.29-1.86,10.16-.02,20.32-.07,30.47-.1,1.71,0,3.42.08,5.13.12.82.02,1.7-.26,1.65,1.18-.04,1.2-.39,1.57-1.6,1.56-4.81-.07-9.63.03-14.44-.08-1.58-.04-2.75.4-3.83,1.5-4.68,4.76-9.57,9.28-14.56,13.71-2,1.77-6.06,1.54-7.69-.53-1.62-2.06-3.77-1.29-5.6-1.02-1.86.28-2.55,2.24-2.89,3.92-.35,1.75.49,3.2,1.97,4.23,2.22,1.56,3.73,1.64,5.99.02,1.49-1.07,3.13-1.05,4.69-.82,3.57.54,6.18-.78,8.58-3.31,3.7-3.9,7.65-7.58,11.43-11.41,1.04-1.05,2.14-1.51,3.62-1.5,4.35.05,8.71.03,13.06-.04,1.49-.02,2.31.45,2.04,2.03-.33,1.89,1.41,3.23,1.25,5.15-.1,1.27-.3,1.64-1.63,1.55-4.08-.27-8.17-.38-12.25.01-.91.09-1.47-.23-2.1-.96-2.11-2.45-5.68-2.61-7.74-.49-1.68,1.72-1.74,4.49-.15,6.3,1.83,2.09,4.68,2.64,6.56,1.02,1.1-.95,2.22-1.18,3.56-1.17,4.95.03,9.9.06,14.84-.04,1.31-.03,2.07.51,2.74,1.46.94,1.32,1.9,2.61,2.86,3.91.26.35.89.52.7,1.06-.21.61-.8.24-1.2.24-12,.02-24.01.08-36.01-.05-2.53-.03-4.39.81-6.07,2.5-1.67,1.68-3.39,3.31-5.03,5.01-.81.84-1.6,1.32-2.88,1.31-2.25-.01-4.1,1.57-4.53,3.52-.5,2.27.41,4.48,2.27,5.47,3.43,1.83,7.28-.41,7.21-4.25-.03-1.37.23-2.28,1.57-3.14,1.61-1.02,2.96-2.53,4.35-3.89,2.12-2.07,4.66-1.72,7.18-1.77.39,0,.78.07,1.16.12.62.08,1.59-.34,1.77.37.23.91-.95.79-1.45,1.2-.67.53-1.49.34-2.26.36-2.54.08-4.19,1.74-4.42,4.18-.24,2.58,1.56,4.82,3.96,4.93,3.65.16,4.87-.39,5.55-3.97.25-1.28.84-2.07,1.62-2.93,2.66-2.94,5.7-4.48,9.94-4.23,6.64.38,13.33.33,19.97.03,2.52-.11,4.7.23,6.96,1.14.77.31,1.11.72,1.84,1.75v-.02Z"/>
        <path class="cls-1" d="m93.14,74.34c-5.44.36-10.52-.54-15.23-2.68-8.25-3.75-14.21-9.65-16.34-18.74-1.78-7.59-.85-15.05,1.27-22.41,3.83-13.29,11.98-22.79,25.14-27.7,3.86-1.44,7.91-2,12.03-2.49,3.67-.44,7.37-.45,10.84.09,4.51.7,9.01,2.14,13.05,4.58,4.07,2.46,7.36,5.62,9.55,9.87,1.65,3.22,2.56,6.64,3.07,10.2.94,6.62-.24,13.04-2.01,19.36-1.75,6.25-4.74,11.87-9.24,16.64-4.98,5.28-10.93,8.98-17.89,11.13-4.71,1.46-9.45,2.65-14.24,2.15h0Zm21.81-44c.11-2.57-.08-5.07-1-7.5-2.04-5.39-8.35-6.9-13.28-6.06-6.7,1.14-11.13,5.38-14.03,11.27-3.05,6.2-4.59,12.71-4,19.69.46,5.37,4.51,9.74,9.65,10.15,6.97.57,12.39-2.35,16.49-7.87,4.35-5.85,5.67-12.64,6.17-19.69h0Z"/>
        <path class="cls-1" d="m193.68,8.64c2.51,0,5.01.06,7.52-.03,1.33-.05,1.7.58,1.41,1.65-1.74,6.48-2.49,13.16-3.92,19.7-.26,1.19.41,1.4,1.34,1.08.47-.16.98-.47,1.26-.87,1.9-2.67,4.61-4.04,7.69-4.76,5.07-1.19,9.97-.87,14.3,2.28,3.32,2.41,5.32,5.91,6.18,9.81,1.28,5.79,1.11,11.64-.71,17.35-1.78,5.55-4.3,10.69-8.92,14.53-6.8,5.63-15.91,7.21-23.71,2.14-1.07-.69-1.8-2-2.48-3.15-.44-.75-.87-1.11-1.68-.94-.85.18-.91.9-.79,1.55.2,1.07-.22,2.07-.46,3.03-.24.92-.79,2.03-2.14,1.66-2.78-.76-5.62-.35-8.42-.34-1.93,0-3.87-.26-5.84.25-1.15.3-1.14-.99-.94-1.66,1.01-3.39,1.35-6.89,2.02-10.33.84-4.27,1.56-8.56,2.31-12.85.73-4.16,1.42-8.32,2.14-12.48.85-4.91,1.71-9.82,2.6-14.73.57-3.14,1.2-6.28,1.81-9.42.05-.25.12-.5.14-.76.18-1.81,1.17-2.71,2.96-2.7h6.33s-.01-.02-.01-.02Zm.67,45.08c0,.98-.06,1.97.01,2.95.15,2.13,2.61,4.93,4.54,5.19,3.82.51,6.92-.77,9.19-3.86,1.99-2.72,2.96-5.88,3.66-9.11.54-2.48.54-4.97-.16-7.46-1.36-4.81-9.62-4.45-12.26-1.65-3.7,3.94-5.03,8.69-4.98,13.94h0Z"/>
        <path class="cls-1" d="m285.86,26.34c1.37-.98,2.91-.44,4.36-.42,1.23.02,2.88-.73,3.56.14.49.63-.38,2.22-.5,3.4-.21,1.98-.94,3.89-.8,5.91.06.88-.44,1.12-1.22,1.12-1.98,0-3.95,0-5.93.03-2.72.03-2.82.11-3.15,2.76-.77,5.96-2.04,11.83-3.15,17.74-.4,2.13.63,3.58,2.8,3.67,1.64.07,3.29.11,4.94.06,1.08-.03,1.4.26,1.15,1.38-.78,3.36-1.53,6.73-1.82,10.18-.08.94-.77,1.41-1.8,1.39-5.62-.13-11.25.33-16.83-.77-3.79-.75-6.9-4.21-7.1-8.03-.14-2.83.52-5.5,1.03-8.23.78-4.21,1.46-8.44,2.18-12.67.32-1.89.45-3.84,1-5.67.49-1.62-.18-1.82-1.45-1.8-1.25.02-2.51-.03-3.76.06-1.01.08-1.46-.13-1.34-1.27.31-2.81,1.19-5.53,1.31-8.38.03-.72.69-.96,1.46-.93,1.45.06,2.9-.02,4.35.03,1.19.04,1.82-.46,1.99-1.64.51-3.41,1.08-6.82,1.55-10.24.13-1,.7-1.15,1.48-1.15,5.27-.01,10.55-.02,15.82-.03,1.42,0,.97,1.06.85,1.69-.67,3.44-1.42,6.86-2.2,10.28-.13.6.24.63.54.81-.19.66.2.66.66.57h0Z"/>
        <path class="cls-1" d="m157.26,26.34c.71-.74,1.55-.48,2.37-.31.03.54.31.77.85.62.57,1.66-.83,3.1-.56,4.72.08.46-.41,1.12.31,1.35.68.21,1.15-.09,1.61-.73,1.88-2.68,4.1-5.04,7.37-6.03,2.99-.9,6.06-1.22,9.2-1.04-.83,4.97-1.63,9.82-2.62,14.64-.29,1.4-.83,1.43-1.93,1.48-2.48.13-4.94-.2-7.45.3-4.98.98-7.57,4.31-8.85,8.74-1.09,3.78-1.72,7.69-2.42,11.57-.64,3.53-1.1,7.1-1.61,10.65-.16,1.12-.92,1.06-1.75,1.05-4.29-.03-8.58-.03-12.86-.03-.57,0-1.13.01-1.72.22-1.49.51-2.13-.16-1.78-1.65,1.34-5.65,1.95-11.44,3.13-17.12.93-4.5,1.87-9,2.51-13.53.64-4.57,2.03-9.01,2.18-13.65.03-.76,0-1.46,1.04-1.55,4.07-.32,8.15-.24,12.23-.06.14,0,.28.24.41.37h.34,0Z"/>
        <path class="cls-1" d="m230.46,73.76c-.44-1.73-.05-3.25.41-4.7,1.25-3.97,1.75-8.14,2.35-12.16,1-6.65,2.49-13.2,3.37-19.86.45-3.37,1.34-6.66,1.64-10.04.1-1.15.67-1.25,1.52-1.25,5.07,0,10.15.03,15.22-.03,1.18-.01,1.52.34,1.28,1.5-.98,4.76-1.96,9.52-2.83,14.29-.76,4.17-1.33,8.38-2.07,12.55-.81,4.57-1.74,9.13-2.59,13.69-.25,1.32-.54,2.65-.58,3.98-.03,1.2-.4,1.59-1.62,1.57-4.42-.06-8.83-.01-13.25,0-.96,0-1.92-.12-2.85.46h0Z"/>
        <path class="cls-1" d="m250.45,8.67c2.5,0,5,.01,7.51,0,1.34,0,1.91.27,1.37,1.86-.92,2.72-1.35,5.6-1.63,8.45-.1.99-.48,1.17-1.34,1.17-5.13-.03-10.27-.03-15.41,0-.82,0-1.23-.16-1.13-1.07.39-3.18,1.32-6.29,1.24-9.54-.02-.92.95-.9,1.69-.9h7.7v.03h0Z"/>
        <path class="cls-1" d="m90.19,86.29c-.26-1.73.41-3.82-.36-5.87-.26-.7.35-.93.94-.82.91.17,2.44-.67,2.55.96.12,1.93.32,3.9-.19,5.84-.65,2.45.23,3.34,2.71,2.87.51-.1,1.04-.13,1.56-.13,8.89-.04,17.78-.1,26.67-.07,1.5,0,2.59-.52,3.59-1.55,1.15-1.19,4.01-1.22,5.13-.05,1.1,1.15,2.24,2.18,1.45,4.2-.81,2.1-2.42,2.99-4.25,3.58-.82.27-1.66-.6-2.22-1.32-.84-1.08-1.9-1.3-3.25-1.37-8.73-.42-17.46-.36-26.19-.35-2.29,0-4.52.6-6.82.44-.98-.07-1.41-.2-1.34-1.29.1-1.57.03-3.14.03-5.05h0Z"/>
        <path class="cls-1" d="m263.97,86.65c-.34,2.25-.61,5.09-1.26,7.84-.42,1.74-2.13.69-3.24.82-1.2.13-1.11-.98-1-1.69.25-1.71.76-3.38.97-5.09.13-1.07,1-2.59-.92-3-1.89-.41-3.41.79-3.65,2.57-.26,1.92-.55,3.83-.92,5.73-.25,1.29-3.49,2.26-4.41,1.36-.38-.37-.26-.91-.15-1.3.94-3.09,1.23-6.31,1.75-9.48.36-2.2,1.56-1.96,3.05-1.79,1.42.17,2.84.25,4.27-.09,1.33-.31,2.69-.41,4.04.11,1.7.66,1.47,2.09,1.47,4h0Z"/>
        <path class="cls-1" d="m149.91,89.42c-.92,0-1.85-.04-2.76.01-.87.05-2.12-.44-1.94,1.29.14,1.4.9,2.07,2.22,2.25.7.09,1.37-.23,1.8-.61,1.17-1.05,2.55-.67,3.74-.49,1.25.19.62,1.28.13,1.76-1.9,1.85-4.45,2.41-6.83,1.94-4.14-.82-5.9-3.22-5.37-6.59.61-3.86,3.63-6.85,7.55-6.63.92.05,1.87-.11,2.75.07,3.05.62,4.33,2.64,3.94,5.84-.12.99-.7,1.17-1.47,1.18-1.25.02-2.5,0-3.76,0v-.02h0Zm-1.25-2.33c.69-.24,1.91.42,2.05-.84.14-1.24-.95-1.13-1.8-1.13-.85,0-1.89-.16-1.99,1-.11,1.31,1.04.78,1.75.97h0Z"/>
        <path class="cls-1" d="m239.55,82.35c.82.18,1.76-.11,2.77.25,2.37.84,3.76,2.47,3.76,4.9,0,5.56-6.47,9.64-11.68,7.36-2.4-1.05-3.68-3.83-2.95-6.4,1.29-4.55,3.32-6.11,8.1-6.11h0Zm-1.24,2.75c-1.44.12-1.87,1.97-2.47,3.65-.71,1.97-.2,3.47,1.27,3.82,1.79.43,3.64-.79,3.87-2.65.1-.77.21-1.52.39-2.28.41-1.76-.33-2.55-3.07-2.55h0Z"/>
        <path class="cls-1" d="m176.64,89.42c-.76,0-1.23-.08-1.67.02-.68.16-1.7-.6-2,.52-.25.89-.09,1.83.65,2.53.78.75,1.73.77,2.52.19,1.26-.91,2.62-1.09,4.06-.88,1.07.15,1.33.61.52,1.54-2.41,2.77-9.05,2.66-11.31-.18-1.46-1.84-.92-5.7.35-7.64,2.72-4.13,7.72-3.61,10.84-2.5,1.62.58,2.75,3.66,2.27,5.27-.16.54-.3.8-.86.77-1.9-.13-3.73.74-5.35.38h0Zm-.34-2.32c.83-.06,1.88-.25,1.94-.97.08-.97-1.12-1.35-1.82-1.23-.63.11-1.94-.06-1.85,1.21.08,1.03,1.06.86,1.74.99Z"/>
        <path class="cls-1" d="m98.11,81.09c-.22-1.34-.06-2.62,2.17-2.33.7.09.98.22,1.09.96.2,1.25,1.06,1.46,2.29,1.43,3.82-.1,7.64-.04,11.46-.03.8,0,1.55.02,2.15-.69,1.34-1.6,3.61-2.14,5.42-1.36,1.85.79,2.64,2.43,2.33,4.84-.21,1.65-1.38,2.47-2.78,2.91-1.28.41-2.77.77-3.77-.55-1.32-1.74-2.95-2.25-5.11-2.16-4.01.16-8.02-.08-12.03.21-3.22.24-3.22.16-3.23-3.22h0Z"/>
        <path class="cls-1" d="m200.68,91.01c-1.64,2.89-3.88,4.22-6.93,4.36-2.75.12-5.16-.46-6.19-3.33-1.52-4.27,1.07-8.9,5.48-9.59,1.96-.3,4.16-.99,6.05.67.48.43,1.01.81,1.44,1.29.41.47.65,1.07.44,1.64-.24.62-.9.67-1.51.67-1.23-.01-2.34,0-3.37-1.09-1.39-1.46-4.04.18-4.55,2.75-.11.57-.06,1.18-.07,1.77-.03.95.04,1.94,1.04,2.34.96.39,2.33.21,2.75-.47,1.06-1.71,2.33-1.49,3.84-1.02.36.11.78.02,1.56.02h0Z"/>
        <path class="cls-1" d="m285.27,82.36c2.45-.22,4.54.58,5.99,2.75.34.51.69,1.07-.3,1.26-1.5.3-2.99,1.03-4.33-.55-.93-1.1-2.14-1.1-3.26-.12-1.4,1.21-2.15,4.09-1.52,5.74.52,1.36,2.35,1.78,3.52.37,1.41-1.69,2.86-1.01,4.4-.84.59.07.73.25.47.89-.83,2.09-4.72,3.76-8.33,3.46-2.04-.16-4.18-2.02-4.47-3.99-.82-5.57,2.89-9.52,7.83-8.99h0Z"/>
        <path class="cls-1" d="m214.73,82.2c.32,1.56.18,2.85-1.82,2.87-1.08.01-1.3.78-1.51,1.48-.36,1.22-.64,2.46-.84,3.71-.15.92-.17,1.89,1.23,1.94.75.03,1.17.42,1.14,1.27-.03.7-.1,1.2-.9,1.51-1.76.68-3.56.65-5.02-.33-1.38-.92-.85-2.52-.51-3.94.35-1.5.5-3.05.83-4.56.17-.82-.59-.73-.9-1.06-1.11-1.18-.97-2.34.56-2.72,1.18-.29,1.19-.97,1.18-1.87-.04-2.44,2-1.39,3.12-1.7,1.53-.43,1.29.85,1.21,1.7-.17,1.8.68,2.15,2.24,1.68h0Z"/>
        <path class="cls-1" d="m164.22,77.63c1.62-.42,1.9.46,1.6,1.98-.96,4.91-1.75,9.85-2.88,14.72-.29,1.24-2.06.92-3.19.99-1.1.06-.71-.94-.64-1.46.54-3.87,1.13-7.74,1.78-11.59.11-.65.12-1.28.18-1.93.24-2.5.49-2.7,3.15-2.7h0Z"/>
        <path class="cls-1" d="m218.66,95.35c-1.6.19-1.55-1.04-1.37-2.06.51-2.9,1.1-5.79,1.77-8.65.6-2.57,1.37-2.92,3.91-1.81,1.21.53,2.3.49,3.32-.3,1.05-.81,1.6-1.04,1.7.72.14,2.48,0,2.88-2.49,2.97-2.12.08-2.06,2.12-2.98,3.22-.41.49-.55,1.62-.53,2.58.08,2.88-.35,3.25-3.34,3.33h0Z"/>
        <path class="cls-1" d="m271.51,82.39c2.65.03,2.64.07,2.11,2.53-.66,3.07-1.35,6.13-1.8,9.25-.28,1.89-2.17,1-3.39,1.19-1.05.16-1.07-.7-.87-1.28,1.07-3.25.87-6.71,1.79-10.01.42-1.51.9-1.98,2.16-1.68h0Z"/>
        <path class="cls-1" d="m272.12,77.62c1.06.04,2.44-.14,2.48,1.01.05,1.28-1.16,1.62-2.46,1.83-1.66.28-2.52.12-2.23-1.77.24-1.54,1.48-.85,2.21-1.06h0Z"/>
        <path class="cls-1" d="m160.48,26.64c-.54.15-.82-.08-.85-.62.38-.48.88-.43,1.22-.07.3.32-.23.45-.36.68Z"/>
        <path class="cls-1" d="m285.86,26.34c-.46.09-.85.1-.66-.57.36.03.88-.12.66.57Z"/>
        <path class="cls-1" d="m157.26,26.34h-.34c-.2-.25-.16-.44.18-.44.33,0,.38.2.16.44h0Z"/>
      </g>
    </g>
  </g>
</svg>