<?xml version="1.0" encoding="UTF-8"?>
<svg id="Layer_2" data-name="Layer 2" xmlns="http://www.w3.org/2000/svg" viewBox="0 0 293.35 183.63">
  <defs>
    <style>
      .cls-1 {
        fill: #fff;
        stroke-width: 0px;
      }
    </style>
  </defs>
  <g id="Layer_1-2" data-name="Layer 1">
    <g id="Layer_1-2" data-name="Layer 1-2">
      <g>
        <path class="cls-1" d="m79.44,81.82c-.67,2.65-1.18,5.31-1.07,8.07.21,5.07,1.18,5.89,6.33,5,4.78-.83,7.69-3.5,8.66-8.3,1.23-6.01-.83-10.97-5.47-14.54-6.76-5.19-14.48-5.37-22.19-2.27-4.23,1.7-6.27,7.14-5.44,12.23.84,5.17,4.76,9.1,5.6,14.24-.45.56-.35,1.24-.45,1.88-.82,5.27-3.22,5.9-8.9,2.36-3.25-4.15-5.17-8.8-5.33-14.09-.21-1.24-.73-2.52.33-3.63.46-.55,1.97.84,1.75-.67-.57-3.81.84-7.29,1.5-10.88.41-1.15,1.21-2.13,1.65-3.63-.47,1.17-.99,1.93-1.41,2.76-1.03,1.51.31,4.28-2.6,4.78-1.78-1.15-1.03-2.7-.52-4.07,3.14-8.47,8.78-14.01,18.3-14.87,3.45.17,6.89.86,10.34.01,11.87,1.4,21.57,10.73,22.73,22.39.56,5.58.87,11.24-1.1,16.72-1.19,3.32-2.94,6.36-6.16,7.93-3.09,1.51-3.38,2.99-1.67,5.86,4.7,7.91,10.02,15.15,18.37,19.68,6.07,3.3,12.51,4.44,18.92,1.55,4.04-1.83,5.74.1,7.3,2.96,2.49,4.56,1.21,8.79-2.14,12.18-2.84,2.88-5.21,7.4-10.71,5.26.61-1.44,1.83-1.65,3.2-1.62-1.97-.02-3.89.73-5.89.59-3.93-.82-7.49-2.5-10.73-4.85,2.4,1.6,4.81,3.17,7.55,4.14.79.68,1.43,1.41.89,2.55-4.96-.43-8.6-3.33-12.1-6.41-11.33-9.95-18.79-22.7-26.13-35.53-.76-1.31-1.44-2.68-2.7-3.87.41,3.85-3.41,8.47,2.85,11.23,2.11.93,2.27,3.42,1.54,5.49-2.07,5.89-5.49,10.99-9.54,15.73-1.52,1.78-3.41,1.7-5.16.77-2.62-1.39-3.84-4.15-2.76-6.57,6.23-14.07.45-28.36,1.19-42.52.11-2.03-1.05-3.55-2.38-4.95-.24-1.66-1.04-3.21-.87-4.97.16-1.72.84-2.96,2.69-3.14,2.9-.29,5.83-.2,8.73-.05,3.51.19,2,3.35,3,5.02h.01Z"/>
        <path class="cls-1" d="m151.74,50.11c-1.25,2.17-2.5,4.34-3.76,6.51l-.69-.25c1.66-4.64,3.31-9.27,4.97-13.91,2.22-1.07,1.36-3.4,1.78-5.02,1.36-5.23,6.16-7.88,8.63-12.2,2.63-.09,4.49-1.52,6.43-3.1,3.61-2.94,7.81-4.7,12.57-4.88,3.38,1.18,6.74-.81,10.13-.1,12.36,2.63,23.9,1.44,34.58-7.83-2.94,10.14-7.47,18.35-13.76,25.62-1.29,1.49-2.48,2.83-2.12,4.91-.05.4-.27.61-.67.66-5.88,6.51-14.06,9.99-20.81,15.36-.87.68-1.92,1.51-3.28,1.18-9.28,1.86-18.2.79-26.69-3.36-4.72-2.32-4.88-3.2-1.96-7.73,2.59-5.73,7.96-8.13,13.21-10.65,1.24-.59,2.71-.61,3.85-1.45,4.39-1.54,9.01-2,13.52-2.95-4.71,1.03-9.59,1.26-14.11,3.24-7.38,2.32-13.71,6.06-17.97,12.68-.93,1.45-2.29,2.53-3.88,3.3h.01Z"/>
        <path class="cls-1" d="m156.43,96.34c-5.57-.94-7.02-3.95-3.92-8.42,1.17-1.67,2.59-3.21,4.05-4.66,5.45-5.44,6.71-5.13,9,2.14,1.8.27,2.11-1.48,3.04-2.29,5.13-4.5,8.83-4.57,13.25.55,2.29,2.65,3.01,2.28,5.14-.3,5.13-6.21,11.34-4.87,14.58,2.76,2.54,6.01,1.59,12.48,2.44,18.73.3,2.16-.19,4.49,2.65,5.57.81.31,1.48,1.45,1.82,2.36,1.51,3.9-7.67,16.65-11.83,16.03-3.72-.55-3.52-4.04-2.73-6.48,2.66-8.12,1.4-16.19.4-24.31-.3-2.45-1.26-4.44-3.95-4.64-2.93-.22-4.61,1.78-5,4.29-1.08,7.02-2.91,14.21,3.16,20.25,1.92,1.92,2.43,4.56,1.43,7.18-1.12,2.89-3.77,1.74-5.88,1.9-1.38.1-2.78.02-4.16-.01-6.62-.16-8.43-3.51-4.95-9.14,2.12-3.45,1.86-19.39-.37-22.46-1.02-1.41-2.43-1.88-4.08-1.6-2.39.4-3.68,2.17-4.03,4.21-1.07,6.28-1.24,12.54,1.67,18.52.82,1.69,1.76,3.36,2.23,5.13.95,3.57-.21,5.66-4.39,5.35-2.24-.16-4.51-.05-6.77-.1-5.23-.12-7.72-3.99-4.51-7.98,2.4-2.99,2.9-5.91,2.9-9.31.16-.06.33-.16.5-.16.15,0,.29.14.43.21-1.46-4.33,1.91-9.41-2.16-13.32h.01Z"/>
        <path class="cls-1" d="m245.05,82.07c3.24,2.22,2.52,5.58.9,7.69-5.31,6.94-5.16,15.31-7.11,23.12-2.11,8.39-3.09,17.07-6.38,25.16-3.24,7.95-8.53,10.59-15.8,7.96-.72-.26-1.26-1.02-1.88-1.54-.14-.63,1.91-.31.69-1.15-1.38-.94-2.32-2.09-2.57-2.71.19.29-.36,1.08-1.04,1.86-3.58-5.47-3.59-9-.29-13.3,2.13-2.76,4.08-2.91,6.11,0,.4.56.67,1.25,1.17,1.7,1.56,1.36.98,5.8,3.28,4.57,2.93-1.56,5.08-5.18,4.26-9.16-.45-2.14-1.43-4.19-2.17-6.27.09-2.34-1.34-4.25-1.92-6.4-.45-1.96-1-3.89-1.4-5.88-.35-1.72-1.12-3.35-1.71-5.01.33,2.22,2.17,4.15,1.38,6.61-.35.42-.74.5-1.21.21-3.31-7.15-5-15.07-10.65-21.12-1.29-1.39-1.51-3.53-.59-5.28.99-1.91,2.81-2.27,4.82-1.4,3.73,1.29,7.52.69,11.3.32,3.22,2.32,3.31,5.11.74,7.77-1.88,1.96-1.9,3.73-.89,6,1.85,4.16,3.52,8.4,6.26,12.57.99-4.15,2.07-8.29,2.95-12.48.55-2.59-1.13-4.47-2.47-6.48-3.05-4.61-1.65-7.21,3.93-7.57,3.4,1.02,6.84.57,10.28.25v-.02Z"/>
        <path class="cls-1" d="m209.85,40.52c.16-.27.38-.5.67-.66,1.43-.33,2.57-1.3,4.34-.86,18.38,4.52,36.36,10.07,52.43,20.32,8.5,5.42,16.08,11.85,21.16,20.75,5.96,10.46,6.64,21.32,1.15,31.87-10.55,20.24-28.84,31.56-49.38,40-.16-.17-.33-.36-.5-.53.68-2.55,3.2-2.81,5.03-3.9,4.51-2.69,9.68-4.41,12.94-8.88,1.97-3.19,5.8-4.07,8.37-6.61,5.09-5.04,10.04-10.18,14.09-16.09,6.88-8.19,8.6-17.45,5.85-27.63-.09-.32-.19-.66-.33-.95-1.24-2.33-2.09-6.07-5.29-5.23-3.85,1.02-1.57,4.44-1.07,6.9.45,2.16,1.21,4.24,1.5,6.45.1,9.56-2.23,18.28-9.01,25.47-.87.21-1.67.32-1.57-.98,15.12-23.6,4.5-42.17-11.56-54.61-13.41-10.39-28.89-16.51-44.98-21.44-1.62-.5-4.59-.02-3.82-3.37h-.01Z"/>
        <path class="cls-1" d="m137.8,123.49c-1.83-.61-2-2.06-2.01-3.68-.02-2.73.02-5.49-.31-8.18-.29-2.24,1.05-5.52-2.86-6.06-3.73-.52-8.84,2.63-9.56,5.73-.38,1.62-.02,3.07,1.31,4.15,1.3,1.04,2.84,1.59,4.29.5,2.83-2.12,3.69-.22,4.09,1.97.62,3.43.89,7.15-2.64,9.21-3.67,2.13-7.64,1.95-11.12-.83-5.13-4.1-7.25-11.95-5.13-18.67,1.98-6.27,7.34-9.78,15.69-10.31,4.64-.29,5.83-1.8,4.13-5.21-1.28-2.55-3.55-2.69-5.75-1.8-1.71.69-3.19,2.01-4.67,3.15-1.97,1.51-4.08,3.21-6.46,1.31-2.26-1.8-3.5-4.41-2.07-7.3,2.89-5.85,8.18-8.99,16.28-7.95,7.14.92,11.43,4.96,12,11.32.47,5.27.84,10.55,1.24,15.83.32,4.36.09,8.65,3.97,12.2,2.6,2.38,2.21,5.68-1.46,7.59-3.66,1.9-7.21.66-9.01-3.04,2.4-1.91-.25-4.1,0-4.91-.25.86,2.13,3.04.06,5.01v-.02Z"/>
        <path class="cls-1" d="m123.27,4.85c4.15,4.78,8.09,9.41,15.07,10.96,2.94.66,5.47,4.51,7.5,7.39,1.98,2.8,3.07,6.21,4.56,9.35-.5,3.28,1.18,7.08-2.36,9.63-2.29.47-2.44-1.36-2.94-2.74-.74-2.05-1.82-3.93-2.69-5.6.83,3.19,4.69,5.95,2.27,10.15-1.03,4.15-1.33,4.26-5.9,3.19-2.48-.58-4.65-2.14-7.28-2.18-2.78-1.41-5.01-3.35-6.25-6.25.05-1.36.37-2.83-.48-3.99-6.02-8.13-4.35-17.53-4.54-26.6-.04-1.71-.16-4.15,3.02-3.32v.02Z"/>
        <path class="cls-1" d="m88.29,45.08c-1.04.89-2.32.78-3.56.74-2.8-.26-5.29.97-7.92,1.55-.67.15-1.05.45-.4.22.01,0,.14.29.21.45-13.4,4.46-26.7,9.07-38.51,17.09-10.71,7.28-19.08,16.18-22.26,29.01-.3.35-.67.58-1.12.72-.46.05-.92.01-1.36-.11-.43-.2-.73-.52-.93-.95-.07-.46-.06-.9.04-1.36.67-2.17,1.31-4.34,1.34-6.63.07-.71.25-1.39.53-2.05,5.55-9.8,12.47-18.44,21.93-24.82-2.29-.12-4.1,4.1-6.67.45,15.88-8.66,32.77-14.33,50.81-16.61,1.48-.19,2.9-.64,4.35-.98.92.79,3.62-.05,2.93,1.54-.62,1.41.84,1.12.62,1.75h-.02Z"/>
        <path class="cls-1" d="m78.54,165.9c-15.52-4.9-30.18-11.55-43.73-20.51,1.12-.67,2.31-.69,3.58-.06-9.46-7.64-18.35-16.01-23.32-27.6-1.2-3.73-3.89-7.23-2.03-11.48.46-.29.95-.43,1.49-.42.53.07.99.31,1.38.68,2.24,8.55,6.83,15.87,12.38,22.66,1.48,3.42,3.89,5.91,7.44,7.28,13.6,11.22,29.18,19.11,45.14,26.38,1.88,2.97-.46,2.86-2.33,3.1h0Z"/>
        <path class="cls-1" d="m123.27,166.05c29.5,1.33,58.16-3.64,86.43-11.39,1.08-.33,1.31.14,1.07,1.08-24.84,9.52-50.4,15.58-77.21,15.2-6.69-.1-13.44-.64-19.91-2.73,2.59-3.4,6.63-.5,9.62-2.16Z"/>
        <path class="cls-1" d="m270.22,119.96l.93.88c-1.66,6.01-6.36,9.76-10.8,13.59-3.1,2.68-6.38,5.17-9.68,7.61-8.65,5.69-17.58,10.87-28.31,15,2.37-.77,3.67-1.57,5.18-1.04.47.17.84.48,1.14.88-9,4.39-18.52,7.18-28.32,9.14-1.18-.55-2.62-.71-3.25-2.08,12.58-4.64,25.26-9.05,37.15-15.33,13.82-7.31,26.34-16.2,35.96-28.65h0Z"/>
        <path class="cls-1" d="m78.54,165.9c1.39-.58,2-1.74,2.33-3.1,13.94,4.9,27.88,9.8,42.37,12.99,1.34.3,2.7.41,4.07.61,2.36,1.2,5.43-.53,7.5,1.81.3.11.61.2.93.27.2,1-.07,1.51-1.2,1.12-19.14-2.66-37.83-7.1-55.98-13.7h-.01Z"/>
        <path class="cls-1" d="m264.33,80.09c12.68,10.18,12.32,26.07-.59,36.17,5.83-12.01,6.57-23.4.59-36.17Z"/>
        <path class="cls-1" d="m9.9,123.89c-14.19-17.58-13.04-38.54,2.89-52.53.68.57.9,1.33.88,2.18-2.99,5.71-6.67,11.07-7.95,17.6-2,10.24-1.85,20.01,4.59,28.88.51.69.84,1.49.97,2.36-.06.87-.31,1.56-1.39,1.52h.01Z"/>
        <path class="cls-1" d="m27.84,114.35c-10.9-11.63-10.02-24.62,2.81-34.42-6.74,11.8-6.48,22.99-2.81,34.42Z"/>
        <path class="cls-1" d="m88.29,45.08c-2-.25-1.57-3.02-3.55-3.3,12.15-2.7,24.49-3.62,36.89-4.1.92-.04,1.86.67,2.79,1.03l-.1-.09c0,1.86-1.61,1.64-2.64,1.69-11.29.56-22.3,2.99-33.41,4.76h.01Z"/>
        <path class="cls-1" d="m9.9,123.89c.32-.33.63-.67.95-1,3.07-.24,3.66,2.69,5.32,4.19,3.17,2.84,6.04,6.02,9.02,9.06-3.67-4-7.05-8.22-9.42-13.11-.79-1.64-2.06-3.24-1.07-5.24.43-.33.87-.32,1.3,0,5.81,11.55,15.2,20.14,24.88,28.58-2.63,1.59-3.64-3.09-6.07-.97-9.64-5.65-18.17-12.56-24.9-21.48v-.02Z"/>
        <path class="cls-1" d="m123.27,166.05c-3,1.64-6.46,1.24-9.62,2.16-13.85-1.88-26.74-6.71-39.29-12.53-.19-.92,0-1.43,1.09-1.02,15.41,6,31.36,9.77,47.83,11.39h-.01Z"/>
        <path class="cls-1" d="m158.67,46.2c-3.47,2.93-3.11,4.78,1.26,6.57,7.76,3.16,15.63,4.74,24.01,3.57.56-.07,1.2.47,1.8.72-9.97,4.86-25.24,2.13-33.26-5.94,1.96-4.49,2.95-5.27,6.19-4.92Z"/>
        <path class="cls-1" d="m197.1,163.94c1.49.07,2.66.62,3.25,2.08-11.43,3.77-23.27,5.66-35.14,7.35-1.25.09-2.89,1.38-3.33-1.04,11.74-2.8,23.49-5.59,35.23-8.39h0Z"/>
        <path class="cls-1" d="m29.59,59.37c3.89,1.54,6.09-3.14,9.69-2.71.67,1.77-.77,2.07-1.67,2.71-8.63,6.11-15.8,13.49-20.8,22.82-.37.71-1.19,1.18-1.8,1.76-.68-.51-.94-1.21-1.03-2.02-.04-1.91.79-3.45,2.08-4.8,3.83-4.61,7.75-9.15,10.87-14.25-.21-.52-.51-1.02-.57-1.59.84-1.02,1.93-1.62,3.24-1.9v-.02Z"/>
        <path class="cls-1" d="m123.27,4.85c-.63.83-2.26.47-2.12,2.33.68,9.32-2.08,19.16,4.64,27.54.99,1.24,1.12,2.88-.51,4.04l-.46-.2s-.5.07-.48.07l.1.09c-.21-1.49-.07-2.95-.93-4.4-6.36-10.7-4.76-22.1-2.76-33.49.05-.25.48-.43.97-.83.55,1.69,1.07,3.26,1.57,4.85h-.01Z"/>
        <path class="cls-1" d="m249.52,78c1.46-.87,3.02-.16,4.54-.25,3.36-.2,5.14-2.34,5.14-5.19,0-3.17-2.02-5.42-5.57-5.33-3.05.07-5.26,1.41-5.4,4.82-.06,1.5-.12,3-.19,4.49-3.06-3.72-1.9-7.03,1.41-9.66,2.91-2.31,6.12-1.92,8.9.48,2.83,2.44,3.47,5.54,1.36,8.63-2.6,3.82-6.16,4.49-10.2,2.01Z"/>
        <path class="cls-1" d="m158.67,46.2c-3.88-.58-3.9,3.53-6.19,4.92-.25-.33-.51-.67-.76-1,4.86-8.39,12.12-13.77,21.42-16.61,1.17-.43,1.39.12,1.19,1.1-4.5,1.51-8.69,3.51-12.53,6.4-1.93,1.45-2.57,3.19-3.14,5.19h0Z"/>
        <path class="cls-1" d="m79.44,81.82c-1.54-3.4-9.18-5.85-12.28-3.79-2.7,1.8.05,4.77-1.26,6.93-2.57-2.5-3.22-6.53-.98-8.12,3.63-2.57,8.7-1.36,13-.62,2.75.47,2.24,3.37,1.52,5.6Z"/>
        <path class="cls-1" d="m156.43,96.34c1.14-.24,2.94-1.93,3.14.55.36,4.36.52,8.8.06,13.13-.21,1.97-1.21-.51-1.97-.41-1.72-4.3-.42-8.88-1.24-13.26h.01Z"/>
        <path class="cls-1" d="m147.06,41.83c2.21-.84,2.23-2.68,2.28-4.61.05-1.61-.63-3.43,1.05-4.7,1.57,2.76.94,5.54.04,8.32-1.2,3.66-2.42,7.3-3.64,11.01-.17-.93-.35-1.9-.52-2.85-.02-2.42-2.16-5.07.79-7.16Z"/>
        <path class="cls-1" d="m162.66,25.25c.17.4.58,1.07.5,1.14-5.32,4.35-8.45,9.92-9.58,16.61-.09.53-.2,1.54-1.04.43-.19-.25-.2-.63-.29-.95.71-7.36,4.3-13.04,10.41-17.22h0Z"/>
        <path class="cls-1" d="m55.83,70.85c-1.14,5.02-1.74,10.11-2.49,15.44-.35-1.12-.68-2.24-1.03-3.36-1.36-2.63-1.24-5.24.16-7.82l-.05.02c.74-1.86,1.49-3.71,2.23-5.57,1.03-.15,1.52.19,1.18,1.28Z"/>
        <path class="cls-1" d="m147.06,41.83c-1.28,2.28,1.64,5.01-.79,7.16-.45-.05-.89-.11-1.34-.16-1.03-1.61.07-3.46-.58-5.11,1.36-5.12-2.42-8.61-4.88-13.71,4.91,3.41,5.27,8.21,7.6,11.8h0Z"/>
        <path class="cls-1" d="m26.36,61.28c.37.36.76.72,1.13,1.08-4.78,3.88-8.48,9.12-14.6,11.3-.04-.77-.06-1.52-.1-2.29,4.02-4.03,8.47-7.49,13.57-10.08h0Z"/>
        <path class="cls-1" d="m144.34,43.73c1.65,1.54,1.09,3.32.58,5.11-4.75-.36-9.33-1.21-13.41-3.83,1.98-2.16,3.42.21,4.97.72,5.18,1.72,5.39,1.76,7.86-1.98h0Z"/>
        <path class="cls-1" d="m161.87,172.33c.84,1.15,2.21.72,3.33,1.04-5.55,1.29-11.17,2.06-16.88,2.17-.25-.25-.33-.51-.25-.76s.17-.37.25-.37c4.51-.69,9.04-1.39,13.55-2.08Z"/>
        <path class="cls-1" d="m211.86,142.45c.92-1.87-.78-3.56-.27-6.17,2.18,3.11,3.22,6.64,7.25,7.42-1.51,1.6-2.88.43-4.05.76-.97-.67-1.95-1.34-2.91-2.01h-.01Z"/>
        <path class="cls-1" d="m137.8,123.49c.58-3.42-1.71-6.84.56-11.78.46,4.7.88,7.99,1.04,11.29.04.87-1.02.52-1.66.38l.06.1Z"/>
        <path class="cls-1" d="m154.48,182.3c-5.08.53-9.95-.77-14.87-1.66.81-1.35,2.39-.29,3.38-1.08,3.79.68,7.59,1.36,11.37,2.05.36.09.5.22.41.4-.09.19-.19.29-.29.29h0Z"/>
        <path class="cls-1" d="m121.09,151.56c-.33-.61-.67-1.2-1.02-1.81.69-1.28,2.21-.19,3.05-1.04,2.47-.21,4.95-.42,7.41-.63.12.17.25.35.37.52-1.61.72-3.24,1.43-4.85,2.14-1.62.52-3.12,1.74-4.98.81h.01Z"/>
        <path class="cls-1" d="m223.16,113.45c.67,2.12,3.01,3.98,1.08,6.52-2.45-3.11-3.43-6.89-4.87-10.46h1.08c2.28.38,1.75,2.67,2.73,3.93h-.01Z"/>
        <path class="cls-1" d="m56.53,100.49c.1-.12.26-.38.31-.37,4.35,1.65,7.36.36,9.05-3.87.92,2.9.62,5.44-2.5,6.84-3.1,1.39-5.24-.02-6.85-2.62h0Z"/>
        <path class="cls-1" d="m228.67,156.88c-.43-.05-.87-.09-1.31-.14,2.63-3.73,8.34-6.04,12.61-5.09l.24.29c-3.51,2.42-7.33,4.12-11.54,4.95h.01Z"/>
        <path class="cls-1" d="m52.47,75.12c-.05,2.6-.1,5.21-.16,7.82-1.21.89-.73,2.32-1.12,3.47-.71-3.88-2.59-7.9,1.26-11.29h.01Z"/>
        <path class="cls-1" d="m148.33,174.4v1.14c-3.51,1.44-7.1.41-10.62,1.4-.04-.47-.06-.94-.1-1.4,3.58-.37,7.15-.76,10.73-1.13h-.01Z"/>
        <path class="cls-1" d="m154.48,182.3c-.04-.22-.07-.46-.12-.68,3.22-.38,6.41-.51,10.61,1.96-4.38-.41-7.54.97-10.49-1.28Z"/>
        <path class="cls-1" d="m191.8,17.17c-3.36,1.35-6.73,1.74-10.13.1,3.2-.51,6.38-1.09,9.58-1.49,1.03-.12.81.74.55,1.39Z"/>
        <path class="cls-1" d="m75.44,154.67c-.36.33-.73.68-1.09,1.02-3.02-1.4-6.06-2.79-9.09-4.19,3.84-.16,7.09,1.25,10.18,3.17Z"/>
        <path class="cls-1" d="m35.72,136.42c-3.62-.26-7.07-3.63-7.44-7.28,2.48,2.43,4.96,4.85,7.44,7.28Z"/>
        <path class="cls-1" d="m76.61,48.04c-.42-.19-.84-.38-1.26-.57,2.97-1.4,5.91-2.97,9.38-1.65-2.54,1.3-5.33,1.74-8.12,2.22Z"/>
        <path class="cls-1" d="m134.8,178.2c-2.69.14-5.04-1.03-7.5-1.81,1.66-.29,3.32-.61,5-.84,2.07-.3,3.55.05,2.5,2.65Z"/>
        <path class="cls-1" d="m80.53,56.21c-3.45,1.52-6.89,1.56-10.34-.01,3.45-1.05,6.89-.59,10.34.01Z"/>
        <path class="cls-1" d="m15.9,106.49c-.3-.02-.59-.04-.88-.05-2.28-4.08-2.24-8.17-.02-12.26.29-.01.57-.02.86-.04.02,4.12.04,8.23.06,12.35h-.01Z"/>
        <path class="cls-1" d="m224.24,82.02c-3.81,1.18-7.6,1.76-11.3-.32,3.78-.15,7.55-.38,11.3.32Z"/>
        <path class="cls-1" d="m210.77,155.75c-.36-.36-.72-.72-1.07-1.08,1.87-1.21,3.98-1.64,6.83-1.92-1.76,2.19-3.82,2.49-5.75,3h-.01Z"/>
        <path class="cls-1" d="m142.99,179.57c-.88,1.13-2.24.73-3.38,1.08-1.71-.31-3.62.31-5.09-1.05.4-.37.81-.74,1.2-1.12,2.42.37,4.85.73,7.26,1.1h.01Z"/>
        <path class="cls-1" d="m245.05,82.07c-3.46,1.17-6.89,1.55-10.28-.25,3.43-.32,6.87-.64,10.28.25Z"/>
        <path class="cls-1" d="m70.66,93.26c1.44,7.07,2.02,14.18,1.44,22.15-2.95-7.76-2.05-14.96-1.44-22.15Z"/>
        <path class="cls-1" d="m123.12,148.71c-.69,1.26-2.02.74-3.05,1.04-4.46-1.09-7.99-3.63-12.15-7.99,6.32,1.86,9.84,6.53,15.21,6.95h-.01Z"/>
        <path class="cls-1" d="m95.91,83.71c-.99-3.12-1.81-5.73-2.76-8.73,3.51,3.53,3.62,3.87,2.76,8.73Z"/>
        <path class="cls-1" d="m55.83,70.85c-.4-.42-.78-.86-1.18-1.28.64-1.92,1.57-3.64,4.72-5.35-1.56,2.91-2.55,4.77-3.55,6.63Z"/>
        <path class="cls-1" d="m174.34,34.61c-.4-.37-.79-.74-1.19-1.1,5.24-2.6,11.34-1.92,16.67-4.25.82-.36,1.81.11,1.8,1.13,0,.98-.87,1.25-1.83,1.29-5.29.26-10.45,1.24-15.46,2.94h.01Z"/>
        <path class="cls-1" d="m193.95,28.92c3.25-.79,6.5-1.59,9.73-2.38-2.89,2.33-5.92,3.98-9.73,2.38Z"/>
        <path class="cls-1" d="m177.49,96.88c2.78,4.81,1.87,8.69,1.6,12.48-2.24-3.47-1.4-7.34-1.6-12.48Z"/>
        <path class="cls-1" d="m196.56,98.42c.92,3.68,1.2,6.57.45,10.9-1.49-4.3-1.26-7.2-.45-10.9Z"/>
        <path class="cls-1" d="m223.16,113.45c-.9-1.31-1.82-2.62-2.73-3.93-.92-2.95-1.85-5.9-2.78-8.85,3.11,3.81,5.03,8.02,5.5,12.78Z"/>
        <path class="cls-1" d="m235.94,96.06c-.1,3.5-.9,6.82-2.96,10.6-.97-4.59,1.5-7.44,2.96-10.6Z"/>
        <path class="cls-1" d="m250.35,141.39c1.66-2.93,4.72-4.4,7.25-6.25,5.45-3.99,9.48-9.12,13.55-14.29,5.33-7.75,8.83-16.06,8.42-25.63,1.09-1.46-.06-2.94-.02-4.41.06-2.47.79-4.74,3.4-4.92,2.73-.2,3.43,2.19,3.87,4.51,1.77,9.68-.68,18.38-6.19,26.39-5.11,7.97-11.06,15.13-19.49,19.98-.99.57-1.64,1.71-2.45,2.58-1.5.82-2.54,2.23-4.09,2.97-1.67.79-3.24,1.26-4.23-.92h-.01Z"/>
        <path class="cls-1" d="m280.6,116.78c1.71-5.78,5.04-10.98,5.47-17.28.22-3.4-.73-6.63-.42-9.98.12-1.39-1.03-2.89-2.42-2.85-1.67.05-2.42,1.61-2.64,3.26-.25,1.77.66,3.77-1.03,5.28-.87-3.1-1.65-6.21-2.63-9.27-.83-2.59.2-4.25,2.38-5.48,2.45-1.38,3.83.15,5.12,1.88,6.82,9.15,5.03,26.82-3.83,34.43h0Z"/>
        <path class="cls-1" d="m250.35,141.39c3.56,2.39,5.38-2.05,8.33-2.06-3.07,4.76-8.53,6.16-12.99,8.95-1.87,1.18-4.23,1.55-5.71,3.36-4.62.68-8.64,2.81-12.61,5.09-2.76-.63-4.8,2.64-9.18,1.09,12.05-4.74,21.96-10.86,32.18-16.45h-.01Z"/>
        <path class="cls-1" d="m115.11,109.76c.1-2.47,1.15-4.38,4.67-6.48-3.12,4.62-2.57,8.68-2.93,12.61-3.05-1.35-.31-4.31-1.75-6.12Z"/>
        <path class="cls-1" d="m115.11,109.76c2.34,1.55.1,4.38,1.75,6.12,0,1.45.78,2.94-.22,4.41-2.09-3.36-2.03-6.92-1.52-10.54Z"/>
        <path class="cls-1" d="m122.74,125.04c-2.17.38-3.63-.36-4.59-2.52,2.63-.81,3.25,1.56,4.59,2.52Z"/>
        <path class="cls-1" d="m131.67,23.27c3.56.73,5.45,3.28,6.99,6.27-2.33-2.09-4.66-4.18-6.99-6.27Z"/>
        <path class="cls-1" d="m12.89,73.65c4.83-3.81,8.66-8.89,14.6-11.3.81-.16,2.7-.92,1.38.87-3.72,5-7.87,9.67-11.86,14.48-.72-.62-.5-1.56-.79-2.33-8.48,7.83-13.21,27.58-5.95,40-2.52-8.68-2.78-17.75-.26-26.74.73-2.63.74-6.37,4.95-6.81.02.71.05,1.41.07,2.12-.02.66-.06,1.31-.09,1.97-1.29,2.24-1.8,4.7-2.03,7.23-.02.33-.05.68-.06,1.03-.77,8.01-.92,15.95,2.13,23.61,2.36,8.04,7.98,14.03,12.99,20.53-7.09-3.62-11.75-9.89-17.11-15.4-11.95-13.51-8.92-36.9,2.03-49.25h0Z"/>
        <path class="cls-1" d="m14.96,117.77c-4.26-6.58-3.71-14.06-4-21.36-.05-1.07.9-1.77,1.87-2.26.35,0,.69.02,1.05.02,1,4.09.37,8.18,0,12.27-1.39,4.15,1.72,7.49,2.13,11.32h-1.05Z"/>
        <path class="cls-1" d="m13.87,106.45c-.89-4.09.11-8.18,0-12.27h1.1c0,4.09.01,8.17.02,12.26-.38,0-.76,0-1.14.01h.01Z"/>
        <path class="cls-1" d="m12.88,93.14c-1.46-3-.31-5.28,2.03-7.23.15,2.63-.29,5.11-2.03,7.23Z"/>
        <path class="cls-1" d="m14.93,81.82c-4.18,4.16-4.71,9.67-5.08,14.99-.46,6.76-.61,13.61,2.47,20.01.42.88.97,2.11-.5,2.49-1.23.32-1.71-.88-2.17-1.78-4.96-9.56-5.8-19.6-2.27-29.61,2.08-5.91,4.24-12.22,10.49-16.01,1.5,2.4-1.14,3.89-.87,5.8-1.29,1.08-1.9,2.5-2.07,4.13Z"/>
        <path class="cls-1" d="m251.55,75.59c-.27-2.59-2.94-5.85,1.85-6.78,1.24-.24,2.57.19,3.05,1.43.62,1.56-1.17,1.24-1.78,1.85-1.07,1.05-2.33,1.98-3.11,3.51h0Z"/>
      </g>
    </g>
  </g>
</svg>