<?xml version="1.0" encoding="UTF-8"?>
<svg id="Layer_2" data-name="Layer 2" xmlns="http://www.w3.org/2000/svg" viewBox="0 0 326.64 131.41">
  <defs>
    <style>
      .cls-1 {
        fill: #fff;
        stroke-width: 0px;
      }
    </style>
  </defs>
  <g id="Layer_1-2" data-name="Layer 1">
    <g id="Layer_1-2" data-name="Layer 1-2">
      <g>
        <path class="cls-1" d="m60.05,57.64c10.13-3.36,14.14-.04,16.82,8.21,4.51,13.87,10.3,27.32,16.33,42.93,6.8-17.79,12.88-33.72,19.84-51.9,6.87,17.76,12.97,33.52,19.9,51.46,6.71-18.88,12.76-35.86,18.81-52.85,1.54.6,3.07,1.2,4.61,1.81-8.43,24.07-16.87,48.13-25.31,72.2-1.2.21-2.41.43-3.61.64-5.93-15.15-11.86-30.29-18.44-47.11-6.47,16.72-12.24,31.69-18.02,46.65-1.11.07-2.23.15-3.33.22-9.12-23.9-18.24-47.78-27.57-72.25h-.01Z"/>
        <path class="cls-1" d="m28.02,131.28c-11.51-.2-20.82-4.5-26.17-15.06-1.18-2.34-.34-5.69-.43-8.57,2.37,1.44,4.83,2.75,7.11,4.34,6.06,4.23,11.64,10.98,18.18,12.08,5.15.86,13.89-3.85,16.51-8.59,2.19-3.95-.36-13.33-4.07-17.11-6.79-6.91-16.04-11.37-24.14-17.03C1.64,71.99-2.47,62.3,1.38,49.68c3.33-10.94,13.44-17.53,26.49-17.28,12.12.23,22.91,7.36,25.51,17.37.48,1.86-1.02,4.23-1.61,6.37-1.94-1.09-4.17-1.89-5.79-3.36-4.72-4.25-8.52-10.15-13.94-12.83-7.17-3.53-14.56-1.09-19.17,6.04-4.75,7.34-1.77,13.73,4.29,18.3,8.75,6.61,18.32,12.15,27.17,18.65,11.83,8.69,15.34,18.81,11.35,30.52-3.75,11.01-14.26,17.78-27.67,17.83h.01Z"/>
        <path class="cls-1" d="m319.94,58.66c-5.25-7.03-7.93-12.02-11.89-15.59-7.39-6.65-19.26-5.63-24.72,1.3-5.61,7.12-4.27,14.57,5.05,21.64,7.87,5.97,16.65,10.72,24.71,16.45,11.43,8.1,15.67,18.08,12.56,29.25-3.23,11.59-11.76,17.22-23.09,19.23-12.04,2.14-24.93-3.1-30.41-13.07-1.52-2.77-.73-6.81-.98-10.28,2.53,1.84,5.19,3.55,7.56,5.58,3.84,3.26,6.99,7.76,11.35,9.9,7.95,3.92,16.1,2.8,21.7-4.65,6.07-8.09,2.78-15.62-3.96-21.34-5.54-4.71-12.23-8.04-18.13-12.37-5.27-3.87-10.93-7.65-15.06-12.59-7.13-8.53-6.56-18.39-1.39-27.8,4.67-8.49,16.94-13.45,27.77-11.72,10.62,1.7,18.5,7.14,21.77,17.65.6,1.95-1.52,4.77-2.82,8.4h-.02Z"/>
        <path class="cls-1" d="m205.24,130.72c-4.06-2.59-8.11-5.18-13.23-8.43-.41.33-2.48,2.38-4.91,3.9-8.15,5.13-16.51,6.58-24.28-.52-6.54-5.96-7.67-19.47-.39-25.93,7.43-6.58,16.68-11.79,26.01-15.31,8.49-3.21,7.97-8.16,6.39-14.52-1.87-7.51-6.75-12.18-14.35-9.43-3.25,1.17-4.95,6.76-7.2,10.42-1.82,2.95-3.07,6.34-5.34,8.86-.52.58-5.75-1.29-6.02-2.62-.76-3.66-1.2-8.16.31-11.36,4.09-8.68,19.33-12.97,31.42-10.19,10.98,2.52,14.69,9.95,14.72,20.19.04,17.24,0,34.46,0,51.69-1.04,1.07-2.09,2.15-3.13,3.22h0Zm-9.58-45.55c-8.37,5.51-16.14,8.73-20.92,14.44-3.05,3.65-2.78,11.25-1.67,16.6.47,2.25,7.3,5.09,10.6,4.44,6.33-1.27,12.49-4.39,12.07-13.02-.32-6.48-.06-12.99-.06-22.46h-.01Z"/>
        <path class="cls-1" d="m51.44,18.37c9.38-5.46,22.09-5.26,32.38,2.52,29.39,22.24,58.02,21.02,88.56,2.4,13.34-8.14,28.89-9.77,43.94-1.61-17.54-3.58-32.17,1.55-46.37,12.21-32.23,24.22-56.38,23.27-89.09-.2-9.16-6.56-20.15-10.58-29.41-15.31h-.01Z"/>
        <path class="cls-1" d="m234.68,128.7h-12.33v-26.27c0-23.44.5-46.9-.22-70.31-.3-9.45,4.13-11.94,12.55-13.03v109.62h0Z"/>
        <path class="cls-1" d="m259.29,128.72h-9.53c-.55-1.22-1.35-2.18-1.36-3.15-.16-20.15-.65-40.31.05-60.43.14-3.96,4.89-7.77,7.52-11.64,1.11.55,2.21,1.11,3.33,1.66v73.58h-.01Z"/>
        <path class="cls-1" d="m78.65,10.87c8.15-3.39,16.93-2.16,24.65,3.57,16.69,12.4,33.32,12.35,51.32,2.57,7.98-4.34,17.44-5.94,26.5-7.15-8.97,4.87-18.22,9.31-26.87,14.69-19.47,12.11-35.04,11.58-53.99-1.67-6.79-4.75-14.53-8.13-21.61-12Z"/>
        <path class="cls-1" d="m96.01.01c5.27,1.27,11.51,1.17,15.65,4.06,13.06,9.1,25.44,8.72,38.83,1.04,4.75-2.72,10.68-3.34,16.74-2.84-12.2,5.06-24.3,13.85-36.6,14.1-11.76.25-23.73-8.37-35.59-13.1.32-1.09.64-2.18.96-3.27h0Z"/>
        <path class="cls-1" d="m263.81,26.92c-4.3,2.88-7.25,6.39-9.81,6.12-2.61-.26-4.83-4.24-7.23-6.59,2.69-2.43,5.13-6.28,8.14-6.8,2.09-.36,4.98,3.87,8.9,7.27Z"/>
      </g>
    </g>
  </g>
</svg>