<?xml version="1.0" encoding="UTF-8"?>
<svg id="Layer_2" data-name="Layer 2" xmlns="http://www.w3.org/2000/svg" viewBox="0 0 425.23 133.41">
  <defs>
    <style>
      .cls-1 {
        fill: #fff;
        stroke-width: 0px;
      }
    </style>
  </defs>
  <g id="Layer_1-2" data-name="Layer 1">
    <g id="Layer_1-2" data-name="Layer 1-2">
      <g>
        <path class="cls-1" d="m69.14,0c1.32.29,2.61.57,3.9.85,2.79.59,5.6,1.17,8.39,1.77,2.67.57,5.33,1.18,8,1.75,1.71.37,3.44.7,5.15,1.06,1.8.37,3.6.77,5.4,1.13,1.93.4,3.86.8,5.8,1.16.6.11.78.25.64.92-.41,1.95-.73,3.92-1.07,5.88-.04.24-.08.49-.04.71.03.15.18.35.31.38,3.81.9,7.63,1.8,11.46,2.66.47.11.57.33.5.72-.23,1.3-.46,2.6-.71,3.89-.72,3.68-1.45,7.37-2.19,11.04-.62,3.08-1.26,6.17-1.87,9.25-.8,3.98-1.59,7.96-2.39,11.94-1.2,5.98-2.41,11.96-3.6,17.94-.58,2.92-1.16,5.83-1.7,8.75-.13.72-.46,1.17-1.09,1.56-3.55,2.23-7.05,4.52-10.57,6.79-3.61,2.33-7.22,4.66-10.83,7-2.75,1.78-5.5,3.57-8.25,5.36-1.58,1.03-3.16,2.07-4.77,3.06-.23.14-.69.13-.93-.02-1.78-1.09-3.52-2.23-5.28-3.36-6.46-4.16-12.93-8.32-19.39-12.49-3.4-2.19-6.79-4.38-10.16-6.61-.32-.21-.59-.65-.67-1.02-.95-4.59-1.87-9.19-2.79-13.78-.93-4.64-1.83-9.28-2.76-13.92-1.05-5.21-2.11-10.41-3.16-15.63-.92-4.58-1.81-9.15-2.71-13.73-.4-2-.81-4-1.24-5.99-.1-.48-.01-.63.48-.74,2.45-.54,4.9-1.14,7.34-1.71,1.37-.32,2.74-.66,4.12-.93.5-.1.52-.3.44-.71-.4-2.15-.77-4.31-1.17-6.46-.08-.45.07-.62.5-.71,3.65-.75,7.29-1.52,10.94-2.28,4.26-.89,8.52-1.79,12.79-2.68,2.59-.54,5.18-1.08,7.77-1.62,1.7-.36,3.39-.73,5.08-1.09.12-.03.25-.06.35-.09h0ZM25.56,21.56c0,.15-.03.21-.01.28.51,2.53,1.03,5.05,1.54,7.58,2.27,11.38,4.54,22.76,6.8,34.13,1.08,5.43,2.17,10.85,3.26,16.28.05.24.16.53.34.66,1.4,1.01,2.81,1.99,4.24,2.95.33.22.76.3,1.09.52,8.58,5.52,17.16,11.05,25.73,16.6.51.33.86.33,1.38,0,10.26-6.64,20.54-13.26,30.8-19.91.28-.18.53-.57.6-.9,1.33-6.51,2.62-13.02,3.93-19.53,2.38-11.88,4.75-23.77,7.13-35.65.2-.99.38-1.98.57-2.99-4.19-.99-8.3-1.96-12.4-2.94.44-2.55.86-5,1.29-7.47-.17-.05-.28-.08-.38-.1-10.66-2.24-21.32-4.48-31.98-6.72-.2-.04-.43,0-.64.04-9.05,1.89-18.09,3.79-27.14,5.68-1.67.35-3.35.71-5.08,1.08.43,2.51.86,4.98,1.29,7.49-4.15.98-8.24,1.95-12.36,2.92h.01Z"/>
        <path class="cls-1" d="m56.06,133.36c1.98-5.43,6.55-8.18,11.28-10.95-.72-.45-1.31-.83-1.91-1.18-3.56-2.08-7.1-4.18-10.69-6.23-2.56-1.46-5.15-2.87-7.75-4.26-3.48-1.86-7.01-3.63-10.46-5.54-3.3-1.82-6.54-3.76-9.8-5.66-.27-.16-.48-.42-.64-.71,1.03.57,2.06,1.16,3.1,1.71,2.68,1.42,5.38,2.82,8.07,4.22,1.73.9,3.46,1.81,5.21,2.67,2.35,1.16,4.73,2.28,7.09,3.43,1.4.68,2.81,1.36,4.2,2.08,3.37,1.74,6.74,3.49,10.08,5.28,1.65.88,3.22,1.88,4.86,2.79.23.12.64.14.86.01,4.73-2.53,9.41-5.14,14.17-7.61,3.64-1.89,7.38-3.57,11.06-5.38,1.46-.72,2.87-1.54,4.32-2.27,1.65-.83,3.34-1.56,4.97-2.41,1.48-.77,2.9-1.66,4.34-2.49.36-.2.72-.4,1.07-.61,1.08-.65,2.15-1.3,3.23-1.94.33-.2.65-.4,1.01-.55-1.54,1.48-3.29,2.63-5.16,3.65-2.07,1.13-4.07,2.41-6.13,3.55-1.65.91-3.37,1.7-5.05,2.57-1.19.62-2.36,1.3-3.53,1.95-.16.09-.29.23-.44.34.03.08.05.16.08.24.36-.09.73-.16,1.08-.28,1.42-.52,2.8-1.22,4.26-1.55,3.12-.7,6.13-.16,8.95,1.33.47.25.93.5,1.39.76,0,.08,0,.16,0,.24-.4.15-.8.32-1.21.45-2.92.86-5.91,1.34-8.94.98-1.77-.21-3.5-.77-5.25-1.17-.1-.02-.22-.1-.26-.18-.38-.73-.92-.5-1.43-.22-2.55,1.4-5.08,2.83-7.62,4.23-1.67.92-3.38,1.78-5.03,2.74-2.71,1.56-5.38,3.17-8.06,4.76-.07.04-.12.12-.25.26.67.42,1.31.8,1.92,1.22,1.56,1.06,3.14,2.1,4.66,3.22,1.74,1.29,2.95,3.05,4.01,4.91.28.49.54,1,.81,1.5l-.17.16c-.18-.12-.37-.22-.53-.36-3.75-3.25-7.81-6.08-11.86-8.93-.63-.45-1.08-.4-1.68.02-4.02,2.86-8.04,5.7-11.76,8.95-.14.12-.31.19-.47.28h0Z"/>
        <path class="cls-1" d="m131.62,57.12c.06-.46.17-.93.17-1.39.01-2.63,1.01-4.89,2.64-6.9.51-.62,1.05-1.21,1.59-1.8.1-.11.32-.23.43-.19.11.04.2.27.21.42.36,3.81-.7,7.11-3.5,9.79-.14.13-.29.26-.45.37-.65.48-1.26.58-2.02.14-2.83-1.65-4.8-4.01-6.01-7.03-.15-.38-.28-.77-.4-1.17-.02-.07.01-.16.02-.24,2.51.42,6.52,2.58,7.32,7.99h0Z"/>
        <path class="cls-1" d="m6.96,56.73c.58-4.19,3.08-6.56,7.16-7.7-.17.61-.27,1.09-.44,1.54-1.21,3.05-3.3,5.37-6.1,7.06-.6.36-1.14.38-1.74-.05-1.61-1.15-2.63-2.75-3.4-4.52-.77-1.77-.97-3.64-.84-5.55.02-.22.16-.42.24-.64.2.1.44.16.59.32,1.66,1.69,3.04,3.57,3.72,5.87.28.93.35,1.91.51,2.88.04.23.06.46.09.69.07.03.14.06.21.09h0Z"/>
        <path class="cls-1" d="m73.69,117.76c-.02-1.34.31-2.52.77-3.67,1.35-3.37,3.68-6.01,6.35-8.39.67-.6,1.41-1.13,2.21-1.64.12,2.19-.28,4.26-1.08,6.25-1.6,4-4.78,5.85-8.25,7.45h0Z"/>
        <path class="cls-1" d="m64.65,117.84c-.43-.23-.77-.39-1.09-.59-1.19-.75-2.41-1.46-3.55-2.29-2.27-1.64-3.56-3.94-4.18-6.62-.28-1.2-.41-2.43-.58-3.65-.03-.18.1-.38.16-.58.17.07.36.12.51.22,2.64,1.93,4.84,4.28,6.6,7.03,1.15,1.79,1.93,3.73,2.19,5.86.02.16-.03.32-.06.61h0Z"/>
        <path class="cls-1" d="m56.68,121.9c-3.77-.01-6.88-.65-9.93-1.65-.16-.05-.29-.21-.43-.32.12-.12.21-.26.35-.34,2.61-1.5,5.37-2.4,8.43-2.25,1.57.08,3.04.49,4.43,1.17,1.05.52,2.08,1.08,3.11,1.64.12.06.19.2.28.3-.13.12-.25.29-.41.35-2.05.79-4.17,1.14-5.82,1.09h0Z"/>
        <path class="cls-1" d="m82.35,121.95c-2.25,0-4.41-.37-6.5-1.16-.14-.05-.26-.2-.33-.34-.03-.05.1-.23.19-.28,1.55-.77,3.06-1.65,4.68-2.24,2.43-.89,4.94-.86,7.4,0,1.3.46,2.55,1.07,3.81,1.62.17.08.29.26.44.4-.15.11-.28.28-.45.32-1.91.46-3.82.97-5.75,1.34-1.14.22-2.32.24-3.49.34h0Z"/>
        <path class="cls-1" d="m46.51,116.83c-3,0-5.87-.65-8.7-1.52-.13-.04-.29-.15-.32-.26-.02-.08.12-.27.22-.32,1.87-.98,3.78-1.84,5.86-2.28,2.76-.58,5.28.04,7.69,1.41.66.37,1.36.66,2.04,1.01.15.08.28.21.41.32-.13.13-.24.33-.4.37-1.22.36-2.45.75-3.7.99-1.01.2-2.07.2-3.11.29h0Z"/>
        <path class="cls-1" d="m91.45,116.76c-1.98.1-4.16-.34-6.27-1.13-.2-.08-.35-.28-.52-.41.18-.12.34-.27.53-.37.67-.36,1.36-.67,2.02-1.05,2.92-1.67,5.96-2.04,9.14-.89,1.36.49,2.67,1.12,4,1.7.18.08.3.28.45.42-.16.12-.31.28-.49.33-2.79.88-5.63,1.44-8.85,1.4h0Z"/>
        <path class="cls-1" d="m36.03,105.3c-.19.25-.3.57-.49.63-1.45.44-2.88,1.04-4.37,1.19-3.69.38-7.21-.4-10.49-2.17-.32-.17-.61-.37-.92-.56.02-.08.04-.15.06-.23,1-.26,1.98-.62,3-.77,2.16-.32,4.34-.59,6.52-.76.6-.05,1.26.23,1.84.49,1.2.55,2.36,1.2,3.55,1.78.36.17.77.24,1.31.4h0Z"/>
        <path class="cls-1" d="m108.83,107.27c-2.13,0-4.13-.52-6.07-1.31-.15-.06-.25-.26-.33-.42-.02-.04.13-.2.23-.24.87-.38,1.74-.73,2.61-1.12.49-.22,1.01-.44,1.43-.76,1.07-.82,2.26-.81,3.52-.76,2.66.11,5.22.73,7.8,1.34.17.04.31.19.47.28-.12.14-.21.32-.36.41-2.03,1.22-4.26,1.91-6.59,2.28-.89.14-1.8.2-2.71.3h0Z"/>
        <path class="cls-1" d="m55.21,112.83c-3.42-1.64-6.31-3.72-7.94-7.18-.89-1.9-1.36-3.89-1.43-6.16.4.22.68.33.91.5,3,2.2,5.43,4.89,7.15,8.21.69,1.33,1.12,2.71,1.33,4.17.02.12,0,.25-.02.45h0Z"/>
        <path class="cls-1" d="m83.04,112.6c.13-.64.19-1.3.39-1.91,1.32-4,3.81-7.16,7.04-9.78.58-.47,1.19-.89,1.87-1.28.1,2.25-.43,4.31-1.4,6.27-1.64,3.3-4.4,5.34-7.9,6.71h0Z"/>
        <path class="cls-1" d="m92.06,108.2c.28-2.42,1.21-4.38,2.41-6.25,1.41-2.19,5.34-5.99,6.67-6.38-.02.45-.04.86-.07,1.28-.15,1.98-.58,3.89-1.43,5.71-.87,1.88-2.38,3.06-4.17,3.95-.83.42-1.66.84-2.5,1.26-.25.12-.5.24-.93.44h0Z"/>
        <path class="cls-1" d="m37.21,95.6c3.88,1.64,9.84,10.09,8.88,12.52-.41-.18-.83-.33-1.23-.54-.85-.44-1.67-.93-2.52-1.36-2.48-1.24-3.81-3.36-4.45-5.94-.32-1.3-.46-2.64-.68-3.97-.03-.2,0-.41,0-.71h0Z"/>
        <path class="cls-1" d="m37.53,112.09c-2.75.07-5.4-.48-8-1.29-.15-.04-.34-.19-.36-.31-.02-.11.15-.29.28-.36,2.7-1.55,5.56-2.45,8.71-2.12,1.97.21,3.81.81,5.57,1.71.23.12.49.18.72.29.16.08.31.18.47.27-.13.17-.24.44-.41.51-.74.29-1.5.62-2.27.77-1.55.29-3.12.47-4.69.7,0-.06-.01-.12-.02-.17h0Z"/>
        <path class="cls-1" d="m22.88,101.41c-3.92-.13-7.29-1.59-10.32-3.96-.33-.26-.57-.64-.86-.96.44-.08.87-.23,1.31-.25,4.74-.2,9.12.95,13.07,3.63.05.04.11.07.16.11.2.17.4.34.6.5-.27.15-.53.37-.81.43-1.04.2-2.09.33-3.14.49h0Z"/>
        <path class="cls-1" d="m124.03,96.19c.72.04,1.43.07,2.15.12.15.01.29.12.44.19-.07.15-.1.36-.22.44-1.16.8-2.28,1.67-3.51,2.35-2.74,1.52-5.7,2.19-8.83,1.94-.77-.06-1.53-.3-2.28-.51-.33-.09-.57-.36-.1-.62,2.22-1.27,4.4-2.65,6.95-3.18,1.78-.36,3.59-.59,5.39-.88,0,.04.02.09.03.14h0Z"/>
        <path class="cls-1" d="m6.02,87.23c3.16.51,6.4.57,9.03,2.63,1.57,1.22,2.79,2.79,4.22,4.36-3.04.51-5.59-.27-7.97-1.68-2.19-1.3-4.01-3.03-5.28-5.3h0Z"/>
        <path class="cls-1" d="m132.21,87.29c-.48,3.44-9.6,8.28-12.99,6.94.09-.4,3.15-3.72,3.89-4.36,2.01-1.73,7.11-2.54,9.09-2.59h0Z"/>
        <path class="cls-1" d="m12.73,86.11c-3.69.62-10.8-5.14-11.1-9.11,3.1,1,5.97,2.28,8.32,4.53,1.02.98,2.81,3.98,2.78,4.58h0Z"/>
        <path class="cls-1" d="m101.24,103.45c.32-1.04.57-2.11.97-3.11,1.11-2.82,2.81-5.27,4.81-7.53.34-.39.68-.79,1.05-1.15.24-.24.46-.2.53.2.32,1.85.26,3.66-.37,5.45-.85,2.44-2.51,4.17-4.76,5.37-.64.34-1.32.63-1.98.94l-.25-.16h0Z"/>
        <path class="cls-1" d="m136.71,77.06c-.41,1.42-1.06,2.56-1.85,3.62-1.73,2.3-3.87,4.09-6.67,4.97-.68.21-1.39.32-2.09.45-.17.03-.45,0-.51-.1-.08-.12-.03-.38.05-.53,1.67-3.12,3.91-5.64,7.26-7.04,1.21-.5,2.37-1.14,3.81-1.38h0Z"/>
        <path class="cls-1" d="m36.97,103.74c-2.67-1.3-5.06-2.65-6.37-5.3-1.02-2.06-1.3-4.2-.86-6.44.03-.13.17-.36.21-.36.2.04.42.12.55.26.62.69,1.24,1.39,1.82,2.13,1.91,2.43,3.54,5.02,4.4,8.03.15.51.16,1.05.26,1.68h0Z"/>
        <path class="cls-1" d="m23.69,86.36c2.14,1.71,5.02,10.36,4.22,12.52-2.2-1.42-4.33-2.88-5.07-5.58-.65-2.38-.15-4.65.85-6.94Z"/>
        <path class="cls-1" d="m110.2,98.96c.16-4.71,1.63-8.81,4.32-12.53.9,1.83,1.41,3.73,1.17,5.77-.4,3.32-2.68,5.14-5.49,6.76h0Z"/>
        <path class="cls-1" d="m129.54,77.11c.57-2.07,1.12-4.06,2.5-5.71,1.7-2.03,3.83-3.49,6.25-4.66.37,3.96-4.6,9.84-8.75,10.37h0Z"/>
        <path class="cls-1" d="m127.25,43c.14-1.14.25-2.26.43-3.36.11-.66.26-.68.79-.25,1.9,1.51,3.18,3.43,3.67,5.81.3,1.48.18,2.94-.73,4.23-.41.58-.62.63-1.22.21-1.44-1.01-2.26-2.44-2.61-4.13-.17-.82-.23-1.67-.33-2.5h0Z"/>
        <path class="cls-1" d="m0,66.78c4.4,2.24,7.94,5.1,8.69,10.3C5.36,77.29-.09,70.92,0,66.78Z"/>
        <path class="cls-1" d="m10.47,38.96c.63,3.09.98,6-.61,8.74-.44.76-1.17,1.37-1.83,1.98-.44.41-.83.27-1.16-.26-1.09-1.78-1.02-3.64-.34-5.51.65-1.76,1.7-3.26,3.19-4.43.2-.16.41-.29.74-.53h0Z"/>
        <path class="cls-1" d="m119.71,80.58c1.22,1.7,2,3.52,2.3,5.51.2,1.36-.16,2.65-1.05,3.72-.81.98-1.71,1.9-2.58,2.84-.11.12-.27.19-.4.29-1.19-2.27.2-10.5,1.73-12.36h0Z"/>
        <path class="cls-1" d="m18.7,80.63c1.6,1.93,2.7,10.2,1.62,12.48-.84-.91-1.65-1.77-2.44-2.65-1.5-1.66-1.97-3.52-1.29-5.72.4-1.3.93-2.52,1.69-3.64.12-.17.27-.31.41-.47h0Z"/>
        <path class="cls-1" d="m122.75,73.07c1.25,1.2,2.27,2.42,2.96,3.89,1.08,2.27.94,4.48-.31,6.64-.25.43-.42.9-.65,1.34-.07.14-.25.33-.35.31-.16-.03-.35-.19-.41-.34-1.44-3.53-2.12-7.18-1.56-11,.04-.26.18-.5.31-.85h0Z"/>
        <path class="cls-1" d="m138.24,56.55c-.01,3.62-1.1,6.65-3.56,9.08-.76.75-1.74,1.27-2.64,1.86-.42.28-.61.05-.55-.4.5-3.79,1.95-7.06,5.13-9.4.31-.23.59-.51.9-.74.19-.14.42-.24.72-.4Z"/>
        <path class="cls-1" d="m15.6,73.09c1.12,2.15.01,10.37-1.65,12.26-1.35-1.99-2.39-4.05-1.97-6.52.41-2.38,1.78-4.2,3.62-5.74h0Z"/>
        <path class="cls-1" d="m.12,56.7c3.04.73,7.29,7.84,6.53,10.81-3.14-.69-6.8-6.03-6.53-10.81Z"/>
        <path class="cls-1" d="m9.71,76.74c-1.77-3.54.77-10.54,4.02-11.16.61,2.7-1.86,9.6-4.02,11.16Z"/>
        <path class="cls-1" d="m124.56,65.61c3.2.48,5.88,7.74,4.14,11.1-1.93-.91-4.65-8.16-4.14-11.1Z"/>
        <path class="cls-1" d="m131.01,67.47c-2.3-.81-5.08-5.46-6.06-10.09.42.14.8.2,1.1.38,2.22,1.36,3.93,3.15,4.54,5.75.26,1.09.31,2.22.45,3.33.02.18-.02.37-.04.63h0Z"/>
        <path class="cls-1" d="m13.28,57.38c-.18,1.86-.72,3.42-1.48,4.92-.93,1.84-2.22,3.42-3.77,4.78-.16.14-.41.2-.61.29-.05-.21-.16-.43-.15-.65.09-2.34.58-4.55,2.06-6.45.87-1.12,1.97-1.95,3.18-2.64.19-.11.43-.14.77-.25h0Z"/>
        <path class="cls-1" d="m97.44,20.65c2.7.64,5.32,1.26,7.95,1.88,1.33.31,2.65.62,3.98.93.31.07.47.18.39.58-1.73,8.54-3.44,17.09-5.15,25.63-1.62,8.13-3.24,16.25-4.86,24.38-.27,1.36-.52,2.72-.83,4.07-.07.31-.32.66-.58.84-7.62,4.94-15.27,9.85-22.9,14.78-2.07,1.34-4.14,2.68-6.2,4.01-3.11-2-6.22-4.01-9.33-6.01-4.79-3.09-9.59-6.18-14.37-9.28-.2-.13-.38-.42-.4-.65-.23-2.09-.43-4.18-.63-6.28-.01-.16.04-.33.11-.48.34-.67.38-1.32-.06-1.97-.1-.15-.19-.36-.17-.53.31-3.27-.33-6.44-.92-9.62-.48-2.62-.66-5.26-.1-7.9.17-.82-.53-.66-1-1-.15.99-.34,1.87-.4,2.76-.18,2.66.11,5.29.68,7.89.55,2.49.77,5.02.61,7.57-.01.23-.13.5-.28.67-.53.58-.57,1.22-.4,1.94.07.32.08.66.03.98-.22,1.38-.48,2.76-.74,4.25-.73-.47-1.42-.9-2.08-1.37-.14-.1-.2-.36-.24-.57-1.24-6.2-2.47-12.4-3.71-18.6-1.02-5.1-2.07-10.21-3.08-15.32-1.02-5.12-2.03-10.24-3.04-15.36-.31-1.57-.59-3.14-.96-4.69-.13-.54,0-.66.49-.77,3.89-.91,7.78-1.84,11.76-2.78-.17-1.01-.32-2.03-.5-3.04-.23-1.3-.47-2.59-.72-3.89-.08-.41.12-.52.48-.59,2.47-.51,4.95-1.04,7.42-1.56,5.05-1.07,10.09-2.15,15.14-3.22,2.07-.44,4.12-.94,6.2-1.26.73-.11,1.52.2,2.28.36,4.86,1.02,9.71,2.06,14.56,3.09,4.12.87,8.24,1.74,12.37,2.6.42.09.51.26.43.67-.42,2.25-.81,4.5-1.21,6.84h-.01Zm2.06,29.07c-.14-.07-.23-.12-.32-.16-3.28-1.42-6.57-2.84-9.86-4.26-3.52-1.53-7.04-3.08-10.57-4.6-3.16-1.36-6.35-2.68-9.49-4.08-.36-.16-.57-.16-.89-.04-10.24,4.3-20.48,8.6-30.72,12.9-.17.07-.32.16-.57.29.26.12.42.21.6.28,10.22,3.93,20.44,7.85,30.66,11.77.31.12.53.16.9,0,1.23-.56,2.54-.93,3.79-1.43,4.03-1.6,8.05-3.24,12.07-4.84,4.68-1.86,9.37-3.7,14.06-5.55.11-.04.19-.15.32-.27h0Zm-45.95,8.57c-2,3.05-2.88,6.42-3.74,9.84.53.15,1.01.28,1.48.42,6.07,1.78,11.81,4.34,17.18,7.69.4.25.68.21,1.03,0,1.16-.72,2.31-1.45,3.5-2.12,4.28-2.43,8.71-4.47,13.44-5.87.17-.05.4-.41.37-.59-.12-.74-.33-1.46-.52-2.19-.57-2.16-1.32-4.26-2.34-6.26-.2-.4-.41-.47-.82-.3-1.04.41-2.11.77-3.15,1.16-3.36,1.27-6.73,2.54-10.08,3.86-.54.21-.97.16-1.46-.02-2.71-1.04-5.44-2.06-8.16-3.08-2.23-.84-4.45-1.67-6.72-2.52h0Z"/>
        <path class="cls-1" d="m43.57,75.71v5.35h-.18v-5.35h.18Z"/>
        <path class="cls-1" d="m44.32,77.15c.1,1.52.2,3.04.3,4.57-.08.03-.16.05-.24.08-.11-.23-.3-.45-.3-.68-.03-1.32-.01-2.63-.01-3.96.08,0,.17-.01.25-.02h0Z"/>
      </g>
      <g>
        <g>
          <g>
            <path class="cls-1" d="m199.91,29.99c-1.25,3.85-2.37,7.3-3.52,10.75-1.05,3.18-2.18,6.33-3.21,9.5-.58,1.8-2.02,1.32-3.29,1.36-1.13.04-1.67-.69-1.99-1.58-1.89-5.42-3.7-10.87-5.63-16.27-1.64-4.61-3.32-9.23-5.15-13.77-.46-1.15-1.62-2.01-2.36-3.07-.41-.57-.63-1.27-.93-1.91.56-.18,1.12-.48,1.69-.49,3.98-.11,7.96-.19,11.93-.21.41,0,1.13.4,1.14.64.02.51-.21,1.36-.54,1.48-1.52.55-1.47,1.6-1.09,2.78.96,2.97,1.98,5.91,2.97,8.87.88,2.63,1.73,5.26,2.62,7.88.42,1.24.91,2.45,1.74,3.72.34-.85.7-1.67,1.01-2.53,1.13-3.26,2.26-6.52,3.34-9.8.13-.38.09-.89-.04-1.29-.81-2.42-1.62-4.85-2.57-7.22-.29-.7-1.04-1.22-1.62-1.79-.32-.32-.79-.53-1-.89s-.36-1.02-.18-1.26c.24-.31.86-.45,1.31-.44,2.8.05,5.59.22,8.39.25,1.6.02,3.21-.2,4.81-.22.42,0,.84.33,1.24.51-.25.43-.48.88-.79,1.26-.12.16-.4.22-.6.31-.68.29-1.86.45-1.96.87-.2.86.05,1.89.34,2.79,1.18,3.81,2.42,7.61,3.65,11.42.74,2.3,1.48,4.58,2.26,6.86.09.25.42.42.81.78.37-1.21.7-2.22.99-3.24,1.27-4.57,2.57-9.13,3.77-13.71.26-.99.22-2.1.15-3.13-.1-1.36-.94-2.12-2.29-2.26-.51-.05-1-.11-1.51-.15-.88-.07-.97-.63-.93-1.35.03-.8.47-1.01,1.16-.98,2.11.1,4.25.48,6.32.23,4.23-.52,8.41.23,12.61.07,2.43-.1,4.85-.2,7.27-.3.76-.03,1.68-.04,1.65.92-.01.42-.81,1.05-1.36,1.19-2.11.55-2.48.79-2.49,3.03-.04,8.9-.02,17.8.01,26.69,0,1.93.55,2.36,2.52,3.02.59.2,1.41.9,1.43,1.41.04.9-.9.92-1.67.92-4.74,0-9.46.02-14.2-.03-.37,0-1.05-.52-1.04-.77.03-.71,0-1.62,1.13-1.71,2.55-.23,2.75-.46,2.75-2.99,0-8.76-.01-17.53-.04-26.28,0-1.1.3-2.49-1.19-2.88-1.57-.41-3.18-.96-4.69.47-1.36,1.29-2.08,2.87-2.62,4.56-1.43,4.53-2.78,9.07-4.19,13.59-1.54,4.93-3.13,9.85-4.64,14.78-.3.99-.81,1.27-1.78,1.26-2.88-.03-2.92-.11-3.77-2.85-1.34-4.32-2.78-8.61-4.2-12.91-.6-1.85-1.24-3.67-1.99-5.87h.02Z"/>
            <path class="cls-1" d="m413.4,33.24c.09.12.14.27.25.32,4.08,1.56,5.36,5,6.05,8.88.26,1.52.6,3.03,1.08,4.49.55,1.74,1.26,1.89,2.85.97.43-.25,1.07-.16,1.6-.23-.12.59-.04,1.36-.38,1.77-2.07,2.42-4.97,2.66-7.77,2.26-5.3-.74-5.53-3.35-6.47-7.92-.45-2.19-.77-4.41-1.42-6.53-.8-2.65-1.86-3.26-4.66-3.27h-1.38c0,4.53-.02,8.94.01,13.36,0,1.21.67,1.79,1.92,1.85.74.03,1.69.09,1.65,1.22-.04,1.15-.92,1.19-1.79,1.19-4.59,0-9.19.02-13.78.02-.73,0-1.65.08-1.58-1.01.05-.93.69-1.47,1.67-1.46,2.25.02,2.8-.15,2.8-2.97,0-8.99-.13-17.98-.24-26.96-.02-1.7-.59-2.25-2.24-2.58-.41-.08-.88-.27-1.13-.58s-.48-.91-.34-1.21c.12-.26.77-.42,1.18-.42,3.67.05,7.34.19,11,.25,2.83.04,5.69-.19,8.5.09,3.05.3,6.05,1.22,8.18,3.62,2.02,2.29,2.24,5.05,1.45,7.97-.88,3.2-3.16,4.96-6.01,6.22-.25.11-.51.2-.75.33-.11.05-.16.21-.25.33v.02Zm-10.58-7.89h.1c0,1.78-.04,3.57.03,5.35.02.43.35,1.11.69,1.22,2.93.92,6.72-1,7.45-4.01.44-1.78.34-3.71.32-5.57-.04-3.63-2.98-6.13-6.57-5.69-1,.12-1.69.53-1.73,1.73-.05,2.33-.2,4.65-.31,6.97h.01Z"/>
            <path class="cls-1" d="m290.74,51.61c-2.76,0-5.52-.02-8.26.01-.97.01-1.64-.19-1.68-1.29-.03-1.1.64-1.25,1.53-1.16,1.41.13,2.18-.56,2.32-1.92.1-.96.18-1.91.16-2.87-.14-7.83-.32-15.67-.47-23.5,0-.46.07-.91.09-1.37.09-2.14-.32-2.56-2.41-2.85-.42-.05-.97-.46-1.11-.84-.29-.76-.02-1.35.98-1.3,1.6.09,3.21.21,4.8.19,3.76-.04,7.53-.29,11.28-.19,2.45.07,4.94.36,7.32.96,6.14,1.54,10.06,5.46,11.41,11.69,1.33,6.16.68,12.05-3.11,17.34-1.99,2.77-4.86,4.34-7.9,5.66-3.87,1.68-7.98,1.43-12.04,1.45h-2.89v-.02h-.01Zm2.98-18.72h0c0,4.22-.03,8.44,0,12.65.03,3.13.66,3.71,3.71,3.65.42,0,.82,0,1.24-.04,2.69-.21,4.88-1.26,6.49-3.54,1.32-1.86,1.85-3.93,2.21-6.09.93-5.55.77-11.03-.98-16.42-.88-2.71-2.58-4.76-5.36-5.66-1.2-.38-2.51-.48-3.77-.65-2.13-.27-2.92.27-3.43,2.35-.11.44-.12.91-.12,1.36v12.37h0Z"/>
            <path class="cls-1" d="m350.69,31.79c.1-5.9,2.52-10.66,7.18-14.25,2.78-2.14,6.04-3.11,9.52-3.35,2.8-.19,5.54.13,8.25.99,5.61,1.77,9.15,5.55,10.66,11.09,1.92,7.1,1.12,13.86-3.71,19.69-2.75,3.31-6.44,5.07-10.72,5.66-3.94.55-7.75.22-11.42-1.4-4.36-1.92-7.43-5.13-8.75-9.67-.81-2.8-.94-5.8-1.38-8.7.13-.02.25-.04.38-.05h0Zm27.09,1.99c-.29-2.91-.36-5.58-.85-8.16-.69-3.65-2.31-6.81-5.81-8.66-1.96-1.02-4.4-.67-6.16.69-2.7,2.09-3.97,5.03-4.46,8.16-.54,3.45-.75,7.01-.58,10.5.15,3.54,1.02,7.03,3.24,9.97,2.94,3.9,6.9,4.51,10.35,1.42,1.92-1.71,2.9-4.12,3.42-6.57.52-2.48.6-5.05.86-7.36h0Z"/>
            <path class="cls-1" d="m250.37,25.29c-.05,1-.2,1.58-.11,2.13.77,4.8.32,9.6.23,14.42-.03,1.69.03,3.4.23,5.07.14,1.14.79,2.02,2.13,2.15,1.03.11,2.48.13,2.35,1.49-.13,1.37-1.59,1.04-2.6,1.04-2.3.01-4.59,0-6.89-.01-.44,0-.88-.07-1.41-.1.12-1.33.26-2.26,1.85-2.49.6-.09,1.44-1.25,1.49-1.97.24-3.52.3-7.04.34-10.57.05-5.41.04-10.8.04-16.21,0-.68-.23-1.35-.25-2.03-.03-.93-.62-1.37-1.38-1.37-1.54,0-2.22-.73-2.22-2.33h3.29c1.78,0,3.57-.08,5.34.05.64.04,1.41.45,1.81.93,2.88,3.47,5.67,7.02,8.49,10.54,2.55,3.16,5.09,6.33,7.67,9.46.23.27.67.37,1.02.56.12-.36.34-.71.34-1.08-.05-4.44-.14-8.89-.22-13.33,0-.41.01-.82.08-1.23.35-2.34-.08-3.01-2.35-3.65-.35-.1-.86-.07-1.02-.3-.35-.47-.57-1.07-.7-1.64-.02-.08.71-.49,1.1-.49,2.78-.05,5.57-.09,8.35,0,.51.01,1,.57,1.49.89-.34.46-.59,1.15-1.04,1.34-2.27.94-2.57,1.21-2.58,3.72-.04,6.01-.02,12.01-.03,18.02,0,3.89,0,7.78-.08,11.66,0,.53-.44,1.47-.7,1.48-1.04.04-2.27.08-3.11-.42-.97-.58-1.63-1.7-2.36-2.63-3.79-4.75-7.56-9.5-11.35-14.25-2.02-2.54-4.05-5.05-6.09-7.58-.26-.33-.57-.64-1.14-1.27v-.02Z"/>
            <path class="cls-1" d="m324.24,49.48c-.21.51-.27,1.05-.58,1.31-.44.37-1.04.7-1.58.71-.24,0-.71-.79-.73-1.23-.05-1.19.15-2.37.14-3.56-.03-2.75-.11-5.49-.21-8.24-.03-.94-.01-1.89,1.16-1.94,1.11-.05,1.65.57,1.73,1.8.21,3.01.55,6.08,2.57,8.48.82.98,2.14,1.92,3.35,2.1,1.83.27,3.94.29,5.64-.36,2.97-1.13,3.52-5.69.97-8.26-1.8-1.81-4.08-3.16-6.15-4.7-2.75-2.02-6.01-3.55-7.6-6.76-2.82-5.7-.98-12.58,6.65-14.15,2.85-.58,5.61-.73,8.38.05,1.12.32,2.16.92,3.25,1.38.87.37,1.65.67,1.92-.76.07-.32.98-.6,1.52-.65.24-.02.76.63.76.97-.01,3.25-.11,6.5-.2,9.75-.03,1.48-.68,2.15-1.74,1.59-.52-.27-.75-1.22-.98-1.9-.58-1.66-.78-3.54-1.69-4.98-1.47-2.31-3.69-3.77-6.66-3.54-1.87.14-3.42.98-4.11,2.7-.74,1.84-.57,3.89.97,5.21,2.57,2.21,5.43,4.09,8.12,6.18,1.97,1.53,4.13,2.93,5.7,4.81,2.52,3.02,2.66,6.67,1.25,10.27-1.07,2.73-3.34,4.2-6.04,5.05-5.2,1.65-10.25,1.45-15.12-1.15-.15-.09-.34-.1-.69-.2h0Z"/>
          </g>
          <g>
            <path class="cls-1" d="m261.28,58.63v1.93c-2.32.34-3.03,1.26-2.98,3.56.08,2.92.1,5.86.1,8.78,0,1.79.25,2.27,2.04,2.42,2.92.24,5.87.27,8.8.42.93.04,1.22-.43,1.15-1.26-.22-3.29-.46-6.57-.67-9.85-.04-.68,0-1.37-.01-2.05-.01-1.35-.38-1.74-1.75-1.56-1.19.14-1.25-.74-1.4-1.45-.16-.88.52-.91,1.15-.91,3.4,0,6.8,0,10.2-.03,1.27-.01,2.56-.25,3.83-.18.56.03,1.37.48,1.56.94.35.89-.56,1.04-1.21,1.26-2.16.73-2.6,1.42-2.6,3.76,0,7.89-.02,15.78-.01,23.67,0,1.09.14,2.19.23,3.27.1,1.19.8,1.73,1.93,1.66,1.03-.05,1.85.35,1.84,1.36-.01,1.01-.94,1.16-1.85,1.15-4.55-.02-9.1-.03-13.65-.02-.93,0-1.46-.3-1.49-1.33-.03-1.09.59-1.12,1.42-1.13,1.81,0,2.51-.74,2.44-2.69-.1-2.75-.32-5.48-.48-8.23-.02-.36-.05-.74-.07-1.1-.07-2.91-.07-2.88-2.93-2.9-2.47-.02-4.94-.13-7.43-.22-.79-.02-1.49-.02-1.47,1.09.11,4.08.2,8.15.29,12.22.03,1.23.65,1.73,1.89,1.88.6.08,1.52.75,1.59,1.25.15.99-.79,1.14-1.63,1.14h-13.64c-.73,0-1.38-.04-1.47-1.02-.09-.94.55-1.16,1.24-1.33,2.56-.64,2.66-.7,2.64-3.27-.04-7.02-.11-14.03-.2-21.05-.02-2.01-.18-4.01-.24-6.02-.04-1.41-.86-2.1-2.15-2.21-.84-.07-1.26-.49-1.11-1.19.08-.33.77-.74,1.19-.74,4.9-.05,9.81-.03,14.89-.03h.01Z"/>
            <path class="cls-1" d="m322.79,76.09c.05,3.18-.3,6.24-1.59,9.22-1.77,4.03-4.49,7.1-8.55,8.79-7.16,2.99-14.04,2.21-20.42-2.2-2.62-1.8-4.02-4.55-4.99-7.53-1.18-3.64-1.57-7.37-.79-11.1,1.2-5.77,3.93-10.58,9.55-13.21,5.31-2.47,10.77-2.64,16.25-.63,4.75,1.73,8,5.04,9.59,9.79.73,2.16.89,4.52,1.31,6.79-.12.02-.24.04-.36.05h0Zm-27.23-.27c-.11,5.77.53,10.28,3.26,14.17,2.87,4.09,7.38,4.36,10.68,1.3,2.11-1.97,3.14-4.7,3.52-7.41.45-3.27.25-6.65.14-9.98-.05-1.53-.56-3.04-.87-4.56-.63-3.07-1.59-5.96-4.61-7.53-1.7-.89-3.45-1.66-5.47-.75-2.55,1.15-4.14,3.08-5.05,5.65-1.16,3.31-1.8,6.7-1.59,9.1h0Z"/>
            <path class="cls-1" d="m344.92,58.08c6.27.05,11.68,2.03,15.36,7.39,2.38,3.47,3.2,7.45,3.01,11.6-.2,4.35-1.19,8.54-3.94,12.01-2.91,3.68-6.78,5.81-11.48,6.45-3.36.45-6.61.31-9.88-.78-5.89-1.98-9.59-5.98-10.85-11.93-1.1-5.2-1.19-10.49,1.49-15.36,1.8-3.27,4.27-5.9,7.82-7.49,2.73-1.22,5.46-2.01,8.46-1.89Zm9.25,19.15c-.43-2.63-.79-4.54-1.04-6.48-.34-2.76-1.53-5.15-3.12-7.36-1.86-2.57-6.64-3.77-8.98-1.87-1.88,1.53-3.26,3.48-3.8,5.71-.75,3.13-1.14,6.38-1.32,9.61-.24,4.38.35,8.69,2.78,12.5,2.23,3.49,5.08,4.89,8.96,3.43,2.55-.96,3.9-3.14,4.56-5.49.97-3.47,1.41-7.1,1.97-10.06h0Z"/>
            <path class="cls-1" d="m201.98,60.43c.3-.59.4-.99.65-1.21.37-.32,1-.81,1.25-.68.41.2.82.84.84,1.3.08,3.16.05,6.33.04,9.49,0,.77.07,1.64-1.09,1.69-1.13.05-1.25-.65-1.41-1.57-.65-4.04-2.78-7.68-6.64-8.72-2.08-.56-3.87-.03-5.44,1.41-1.34,1.23-1.4,5.05.67,6.69,2.24,1.78,4.57,3.44,6.86,5.16,2.64,1.98,5.67,3.51,7.37,6.56,2.53,4.55,1.42,10.92-3.8,13.45-3.16,1.54-6.48,1.93-9.97,1.68-2.3-.16-4.37-.84-6.41-1.78-.75-.35-1.15-.34-1.64.49-.31.53-1.19,1.03-1.78,1-.86-.05-.84-.88-.81-1.7.08-3.62-.02-7.24.04-10.87.01-.71.25-1.77.75-2.07,1.04-.63,1.9.02,2.01,1.32.21,2.56.6,5.04,1.8,7.37,1.52,2.99,4.05,3.96,7.16,3.71,1.14-.09,2.43-.34,3.36-.96,2.04-1.36,2.52-4.32,1.33-6.63-1.25-2.44-3.49-3.78-5.67-5.23-2.46-1.65-4.97-3.26-7.24-5.15-3.14-2.6-3.45-6.19-2.75-9.91.74-3.85,3.57-5.64,7.01-6.6,3.03-.86,6.14-.93,9.21-.04.69.2,1.33.57,2,.86.75.31,1.49.6,2.3.92h-.02Z"/>
            <path class="cls-1" d="m238.3,92.48c-.74.37-1.32.6-1.86.94-4.22,2.67-8.79,2.79-13.48,1.76-3.44-.76-6.38-2.41-8.78-5.01-1.87-2.03-2.88-4.49-3.62-7.09-.87-3.04-1-6.19-.51-9.26.96-5.94,3.69-10.81,9.32-13.6,5.02-2.48,10.23-2.82,15.54-.97.94.33,1.82.84,2.7,1.32.74.41,1.16.34,1.4-.56.11-.46.35-1.01.71-1.27.35-.25,1.07-.4,1.38-.21.37.24.68.88.68,1.35,0,1.23-.24,2.46-.24,3.69,0,2.05.12,4.11.22,6.16.05,1.23-.46,1.99-1.46,2.02-1.27.04-1.96-.55-2.1-1.81-.16-1.44,0-3.04-.59-4.29-1.57-3.32-4.57-4.76-8.1-5-3.19-.22-5.54,1.34-7.08,4.07-1.68,2.99-2.52,6.22-2.55,9.66-.03,3.57-.18,7.15.87,10.64.92,3.08,2.15,6.09,5.31,7.42,4.96,2.1,11.2-.43,12.05-6.05.18-1.13.34-2.26.52-3.4.18-1.08.8-1.6,1.91-1.51,1.15.1,1.19.91,1.2,1.79.01,3.6.09,7.22.04,10.82,0,.47-.75,1.37-.96,1.32-.7-.19-1.44-.59-1.92-1.13-.37-.41-.41-1.13-.62-1.82v.02Z"/>
            <path class="cls-1" d="m394.73,86.95c.18,2.27.33,4.55.53,6.82.1,1.13-.4,1.57-1.49,1.58-8.68.04-17.35.12-26.03.13-.56,0-1.45-.4-1.6-.82-.33-.89.19-1.53,1.22-1.71,2.31-.41,2.57-.76,2.57-3.07v-24.06c0-.69.04-1.38-.05-2.07-.35-2.52-.05-2.71-2.56-3.08-.45-.07-.8-.9-1.19-1.38.45-.24.9-.7,1.36-.7,3.21-.03,6.42.04,9.63.03,1.42,0,2.83-.18,4.25-.18.74,0,1.8,0,1.65,1.09-.05.4-1.03.89-1.63.94-1.35.11-2.15.64-2.27,2.03-.04.51-.12,1-.12,1.51-.01,8.71-.02,17.43-.02,26.15,0,2.75.51,3.3,3.2,3.16,1.63-.08,3.33-.18,4.83-.7,2.83-1,3.99-3.59,4.97-6.19.36-.98.44-2.08.85-3.02.23-.53.88-.88,1.34-1.32.25.47.68.92.74,1.41.11,1.13.03,2.29.03,3.44-.07,0-.14,0-.21.01h.02Z"/>
          </g>
        </g>
        <g>
          <path class="cls-1" d="m221.04,107.69c.31.02.63.08.95.06,1.94-.14,2.66,1.05,2.43,2.75-.18,1.41-.71,2.69-2.04,3.45-.06.03-.11.08-.17.11-.72.36-.92.91-.61,1.66.31.75.66,1.48.9,2.25.09.28-.03.9-.15.92-.37.08-.96.09-1.15-.13-.39-.46-.59-1.08-.84-1.65-.31-.72-.55-1.47-.89-2.17-.11-.23-.46-.46-.71-.47-.17-.01-.45.34-.51.57-.32,1.12-.6,2.25-.85,3.39-.11.51-.46.64-.87.69-.5.06-.8-.32-.68-.81.35-1.37.7-2.73,1.04-4.09.39-1.54.78-3.08,1.17-4.61.11-.43.21-.87.32-1.3.11-.43.37-.65.82-.64.61,0,1.22,0,1.83,0v.03h0Zm.06,1.41c-.39.21-.96.32-1.15.64-.39.69-.64,1.48-.85,2.25-.14.48.16.82.66.92.98.21,2.4-.52,2.81-1.44.7-1.55.3-2.2-1.47-2.38h0Z"/>
          <path class="cls-1" d="m370.72,114.53c.46,1.18.89,2.28,1.31,3.4.14.36.44.77-.05,1.07-.38.24-1.22,0-1.42-.43-.3-.62-.51-1.29-.77-1.93-.23-.55-.43-1.13-.74-1.63-.15-.25-.5-.49-.78-.52-.14-.02-.42.42-.49.69-.3,1.08-.52,2.17-.82,3.25-.15.54-.82.83-1.27.56-.16-.1-.31-.45-.27-.64.42-1.62.92-3.23,1.33-4.86.42-1.67.77-3.36,1.15-5.04.12-.52.39-.83.98-.8,1.17.06,2.35.08,3.52.14.9.05,1.66.93,1.71,1.95.08,1.7-.88,3.81-2.77,4.52-.19.07-.37.16-.62.27h0Zm.03-5.31c-1.16.08-1.56.39-1.83,1.45-.06.26-.11.53-.19.78-.41,1.35-.31,1.48,1.1,1.45.11,0,.23,0,.34-.02,1.75-.31,2.2-1.11,2.28-2.75.02-.28-.45-.66-.78-.85-.24-.15-.61-.06-.93-.08h0Z"/>
          <path class="cls-1" d="m196.36,119.2c-1.85.13-3.06-1.18-2.61-2.89.43-1.62.81-3.26,1.15-4.9.22-1.03.54-1.97,1.29-2.75,1.23-1.29,3.01-1.36,4.38-.9.94.31,1.54,1.6,1.28,2.63-.51,2.04-1,4.09-1.59,6.1-.48,1.61-1.61,2.74-3.9,2.73h0Zm.35-1.61c1.03,0,1.8-.48,2.07-1.49.51-1.95.95-3.92,1.41-5.88.12-.5-.16-.83-.59-1-.88-.34-1.8,0-2.26.81-1.08,1.9-1.6,3.99-1.94,6.11-.17,1.03.27,1.44,1.33,1.45h0Z"/>
          <path class="cls-1" d="m345.99,119.27c-1.74-.1-2.76-.81-2.77-2.09,0-.53.11-1.07.24-1.6.47-1.87.84-3.77,1.47-5.58.74-2.1,3.17-3.08,5.24-2.31,1.01.37,1.51,1.77,1.18,2.97-.38,1.37-.65,2.77-1,4.16-.41,1.59-.81,3.23-2.49,4-.57.26-1.24.3-1.87.44Zm.33-1.7c1.05,0,1.67-.39,2.01-1.54.55-1.84,1.03-3.7,1.48-5.58.22-.89-.23-1.38-1.13-1.44-1.17-.07-2.04.58-2.39,1.87-.45,1.67-.87,3.34-1.28,5.02-.29,1.18.12,1.68,1.3,1.67h0Z"/>
          <path class="cls-1" d="m281.63,112.53c1.21,0,2.19-.02,3.17.02.28.01.71.14.79.32.1.26.01.67-.14.94-.1.18-.44.3-.68.3-.92.01-1.86,0-2.77-.08-.51-.04-.74.16-.84.63-.2.91-.43,1.82-.67,2.83.98,0,1.84.01,2.71,0,.48,0,.95-.05,1.42-.07.4-.01.81.01.85.54.05.49-.43,1.06-.91,1.06-1.4.01-2.8,0-4.2,0-.36,0-.72.02-1.09.02-.63,0-.77-.16-.62-.78.37-1.53.76-3.05,1.14-4.56.43-1.72.89-3.43,1.3-5.15.16-.67.47-.93,1.17-.91,1.61.04,3.21,0,4.81.03.25,0,.72.26.71.35-.04.37-.17.77-.4,1.05-.15.17-.54.17-.83.18-1.09.02-2.17,0-3.26.03-.24,0-.63.12-.69.28-.36.92-.64,1.88-1,2.97h0Z"/>
          <path class="cls-1" d="m328.16,119.27c-1.07-.09-2.15-.22-2.58-1.29-.25-.63-.18-1.44-.09-2.15.02-.18.67-.35,1.04-.38.38-.04.49.28.5.65.04,1.32,1.27,1.98,2.47,1.34.69-.37,1.33-1.52,1.07-2.23-.15-.41-.6-.75-.99-1.01-.42-.29-.94-.43-1.4-.67-1.4-.72-1.61-1.89-1.2-3.21.67-2.16,3.06-3.36,5.2-2.66,1.22.39,1.83,1.81,1.29,2.96-.23.49-.67.64-1.11.51-.21-.06-.44-.44-.46-.69-.04-.48.05-1.03-.5-1.21-.68-.23-1.38-.23-2,.24-.16.12-.29.28-.42.44-.7.89-.55,1.74.44,2.3.52.3,1.09.53,1.61.84,1.14.69,1.52,1.69,1.16,3-.34,1.24-.98,2.29-2.21,2.8-.56.24-1.21.28-1.82.41h-.01Z"/>
          <path class="cls-1" d="m379.67,119.17c-1,.03-1.9-.22-2.47-1.21-.38-.67-.3-1.35-.09-2.02.17-.54.67-.49,1.08-.41.16.03.38.32.38.49-.01.7.06,1.31.87,1.55.89.25,1.95,0,2.37-.69.84-1.35.8-2.13-.69-2.8-.57-.26-1.17-.48-1.7-.81-1.04-.67-1.24-1.69-.73-3.19.7-2.03,3.19-3.19,5.2-2.4,1.09.43,1.71,1.89,1.23,2.93-.23.5-.91.77-1.36.5-.15-.09-.24-.36-.24-.55-.03-.93-.37-1.29-1.31-1.31-.81-.02-1.76.7-1.93,1.44-.16.72.32,1.47,1.17,1.83.21.09.42.17.62.28,2.07,1.06,2.46,3.28.87,5.03-.93,1.03-1.73,1.36-3.28,1.35h0Z"/>
          <path class="cls-1" d="m292.84,119.21c-1.67.09-2.66-.59-2.92-1.88-.09-.44-.03-.96.08-1.4.15-.54.68-.47,1.09-.41.18.03.47.3.48.48.02.68-.01,1.34.84,1.54.96.23,1.9-.07,2.39-.85.67-1.07.75-1.88-.68-2.55-.47-.22-.95-.42-1.4-.67-1.17-.67-1.54-1.54-1.23-2.84.53-2.2,2.45-3.46,4.68-3.09,1.44.24,2.22,1.28,2.06,2.74-.06.57-.77,1.07-1.29.84-.18-.08-.33-.41-.34-.62-.05-1.24-.69-1.75-1.89-1.36-.43.14-.9.41-1.16.76-.68.95-.75,1.74.42,2.33.58.3,1.17.58,1.73.92,1.05.65,1.43,1.73,1.1,2.92-.52,1.87-1.8,3.21-3.98,3.14h.01Z"/>
          <path class="cls-1" d="m304.01,119.2c-1.44.1-2.44-.4-2.88-1.6-.17-.46-.18-1.03-.09-1.51.11-.6.65-.67,1.18-.61.54.06.45.47.45.82-.01.92.23,1.2,1.15,1.33,1.24.17,2.45-.72,2.53-1.95.02-.35-.18-.82-.45-1.05-.41-.36-.94-.62-1.45-.81-1.67-.62-2.13-1.55-1.76-3.29.58-2.79,3.29-3.45,5.34-2.82,1.01.31,1.73,2.06,1.16,2.95-.18.28-.71.41-1.09.45-.12.02-.42-.48-.43-.75-.08-1.18-.71-1.67-1.82-1.24-.47.18-.92.49-1.26.85-.64.69-.44,1.7.38,2.16.61.34,1.23.65,1.86.96,1.23.61,1.38,1.9,1.15,2.82-.49,1.92-1.68,3.26-3.94,3.27h0Z"/>
          <path class="cls-1" d="m239.85,107.51c.68.04,1.66.08,2.12,1.07.24.53.35,1.16.35,1.75,0,.55-.48.81-1,.81s-.65-.38-.69-.83c-.09-1.14-.7-1.54-1.82-1.2-.72.22-1.19.75-1.44,1.42-.29.76-.04,1.29.69,1.68.56.29,1.12.58,1.68.87,1.44.74,1.5,1.93,1.17,3.11-.64,2.28-2.47,3.33-4.83,2.98-1.53-.23-2.43-1.68-1.99-3.15.17-.58.64-.57,1.09-.56.38,0,.55.23.54.62-.02.54-.09,1.16.54,1.41.75.29,1.54.3,2.2-.21.37-.29.67-.74.88-1.17.3-.63.1-1.16-.5-1.57-.37-.25-.76-.5-1.17-.65-2.53-.93-2.56-2.64-1.42-4.61.71-1.22,1.83-1.72,3.62-1.76h-.02Z"/>
          <path class="cls-1" d="m247.96,119.17c-1.93.09-2.66-.95-2.71-2.22-.02-.63.21-1.28.36-1.91.55-2.22,1.1-4.44,1.69-6.65.08-.28.34-.63.58-.71.77-.23,1.1.16.9.96-.59,2.37-1.18,4.74-1.77,7.11-.15.59-.34,1.21.29,1.66.51.37,1.78.25,2.31-.16.74-.57.91-1.42,1.13-2.24.56-2.15,1.05-4.31,1.61-6.46.08-.32.27-.74.52-.87.59-.31,1.08.06,1,.74-.09.71-.26,1.41-.43,2.1-.38,1.54-.76,3.08-1.21,4.6-.28.94-.58,1.9-1.1,2.72-.73,1.15-1.97,1.38-3.17,1.34h0Z"/>
          <path class="cls-1" d="m207.64,119.22c-.39-.06-.81-.09-1.19-.2-1.01-.29-1.62-1.11-1.42-2.14.31-1.67.74-3.32,1.13-4.97.28-1.2.56-2.4.88-3.59.06-.24.29-.55.51-.63.65-.23,1.15.22.99.89-.38,1.53-.81,3.03-1.2,4.55-.25,1.02-.49,2.05-.67,3.09-.08.47-.12,1.01.43,1.31.55.3,1.66.17,2.19-.25.67-.54.95-1.3,1.15-2.09.49-1.91.96-3.82,1.42-5.74.1-.41.16-.84.26-1.25.16-.62.65-.62,1.14-.52.5.1.44.48.34.86-.46,1.82-.91,3.65-1.37,5.46-.21.83-.34,1.68-.64,2.47-.67,1.75-1.72,2.77-3.95,2.75h.01Z"/>
          <path class="cls-1" d="m354.58,116.7c.32-1.37.63-2.75.97-4.12s.71-2.73,1.09-4.09c.06-.21.16-.5.32-.57.29-.12.64-.15.95-.09.09.02.19.48.14.7-.51,2.2-1.07,4.39-1.6,6.58-.08.3-.14.61-.2.92-.23,1.11.27,1.68,1.42,1.62,1.17-.05,2.04-.84,2.33-2.07.38-1.63.77-3.26,1.17-4.89.19-.78.37-1.57.58-2.35.17-.63.52-.84,1.1-.67.56.16.45.59.34,1-.5,1.88-1,3.76-1.5,5.64-.24.9-.41,1.84-.75,2.7-.96,2.41-3.98,2.63-5.59,1.6-.68-.43-.7-1.16-.77-1.91h.02Z"/>
          <path class="cls-1" d="m270.54,119.18c-1.6.02-2.45-.5-2.7-1.75-.08-.4-.03-.85.06-1.26.42-1.83.88-3.66,1.33-5.48.62-2.54,3.13-3.87,5.55-2.95,1.12.43,1.73,2.17,1.01,3.13-.2.27-.77.38-1.16.35-.48-.04-.4-.5-.32-.87.15-.78-.14-1.2-.92-1.33-1-.17-2.24.58-2.52,1.63-.48,1.82-.93,3.66-1.31,5.5-.08.39.06.97.32,1.28.36.42,1.56.37,1.97-.02.42-.41.77-.91,1.08-1.42.24-.41.41-.83,1-.64.64.21.8.54.56,1.18-.62,1.65-1.82,2.71-3.93,2.66h-.01Z"/>
          <path class="cls-1" d="m259.36,119.23c-.39-.06-.81-.09-1.19-.19-1.1-.3-1.73-1.2-1.49-2.28.5-2.27,1.01-4.54,1.66-6.78.61-2.07,3.51-3.16,5.42-2.16.95.5,1.5,2.17.91,3.07-.17.25-.69.33-1.05.35-.12,0-.38-.4-.38-.62-.01-.58.05-1.15-.6-1.44-.71-.32-1.42-.18-1.97.27-.44.37-.87.9-1.04,1.43-.48,1.54-.84,3.11-1.22,4.68-.29,1.24-.08,1.86.63,2.07,1.09.33,2.25-.24,2.68-1.34.18-.46.32-.9.94-.85.67.05.86.29.64.92-.51,1.47-1.64,2.92-3.94,2.88h.02Z"/>
          <path class="cls-1" d="m187.36,111.57c.32-.34.6-.59.83-.89.65-.85,1.28-1.74,1.94-2.59.14-.18.38-.37.59-.39.31-.03.64.08.96.13-.09.3-.11.66-.29.9-1.01,1.41-2.03,2.8-3.1,4.16-.58.74-.82,1.57-1.04,2.44-.26,1.04-.54,2.07-.8,3.12-.15.59-.57.67-1.04.55-.52-.12-.53-.55-.41-.98.29-1.08.59-2.16.89-3.23.4-1.44-.09-2.8-.44-4.16-.17-.68-.37-1.34-.56-2.01-.11-.39-.19-.78.32-.95.61-.19,1.06.04,1.21.62.24.89.47,1.77.71,2.66.04.17.11.32.22.62h0Z"/>
          <path class="cls-1" d="m318.61,118.28c.24-.97.48-2.02.74-3.06.51-2.06,1.04-4.12,1.56-6.18.08-.3.19-.6.27-.9.16-.59.59-.6,1.07-.5.57.11.47.56.38.91-.36,1.55-.76,3.08-1.15,4.62-.42,1.69-.81,3.39-1.27,5.07-.09.31-.38.67-.68.8-.57.27-.95-.06-.93-.76h0Z"/>
          <path class="cls-1" d="m391.57,109.3c-.15.38-.29.76-.44,1.15-.09.23-.13.51-.29.67-.19.2-.49.3-.75.44-.09-.25-.27-.5-.25-.75.06-.87.15-1.74.3-2.59.04-.23.37-.55.59-.57.76-.06,1.52-.01,2.28.01.47.01.66.24.5.71-.31.91-.61,1.82-.97,2.72-.09.21-.41.32-.62.48-.12-.21-.33-.42-.34-.64-.01-.52.08-1.05.12-1.57-.05-.02-.1-.03-.15-.05h-.01Z"/>
          <path class="cls-1" d="m178.85,108.81c-.23.67-.45,1.35-.68,2.02-.05.15-.09.34-.19.42-.18.14-.42.29-.62.27-.11-.01-.29-.35-.28-.54.08-.92.17-1.83.34-2.74.04-.22.37-.53.58-.55.74-.05,1.48,0,2.22.05.48.03.6.28.44.75-.29.82-.51,1.67-.83,2.48-.09.24-.42.38-.63.57-.11-.24-.31-.49-.31-.74.02-.65.12-1.31.19-1.96-.07-.01-.15-.03-.22-.04Z"/>
        </g>
      </g>
    </g>
  </g>
</svg>